%TF.GenerationSoftware,KiCad,Pcbnew,9.0.0*%
%TF.CreationDate,2025-03-28T11:37:27+02:00*%
%TF.ProjectId,EEE3088F Project,45454533-3038-4384-9620-50726f6a6563,rev?*%
%TF.SameCoordinates,Original*%
%TF.FileFunction,Soldermask,Top*%
%TF.FilePolarity,Negative*%
%FSLAX46Y46*%
G04 Gerber Fmt 4.6, Leading zero omitted, Abs format (unit mm)*
G04 Created by KiCad (PCBNEW 9.0.0) date 2025-03-28 11:37:27*
%MOMM*%
%LPD*%
G01*
G04 APERTURE LIST*
G04 Aperture macros list*
%AMRoundRect*
0 Rectangle with rounded corners*
0 $1 Rounding radius*
0 $2 $3 $4 $5 $6 $7 $8 $9 X,Y pos of 4 corners*
0 Add a 4 corners polygon primitive as box body*
4,1,4,$2,$3,$4,$5,$6,$7,$8,$9,$2,$3,0*
0 Add four circle primitives for the rounded corners*
1,1,$1+$1,$2,$3*
1,1,$1+$1,$4,$5*
1,1,$1+$1,$6,$7*
1,1,$1+$1,$8,$9*
0 Add four rect primitives between the rounded corners*
20,1,$1+$1,$2,$3,$4,$5,0*
20,1,$1+$1,$4,$5,$6,$7,0*
20,1,$1+$1,$6,$7,$8,$9,0*
20,1,$1+$1,$8,$9,$2,$3,0*%
G04 Aperture macros list end*
%ADD10RoundRect,0.050800X-0.350000X0.625000X-0.350000X-0.625000X0.350000X-0.625000X0.350000X0.625000X0*%
%ADD11RoundRect,0.237500X-0.237500X0.250000X-0.237500X-0.250000X0.237500X-0.250000X0.237500X0.250000X0*%
%ADD12R,1.500000X1.000000*%
%ADD13O,0.364000X1.662000*%
%ADD14R,1.800000X1.500000*%
%ADD15RoundRect,0.250000X0.475000X-0.337500X0.475000X0.337500X-0.475000X0.337500X-0.475000X-0.337500X0*%
%ADD16RoundRect,0.250000X-0.412500X-0.650000X0.412500X-0.650000X0.412500X0.650000X-0.412500X0.650000X0*%
%ADD17RoundRect,0.250000X-0.475000X0.337500X-0.475000X-0.337500X0.475000X-0.337500X0.475000X0.337500X0*%
%ADD18RoundRect,0.250000X0.337500X0.475000X-0.337500X0.475000X-0.337500X-0.475000X0.337500X-0.475000X0*%
%ADD19RoundRect,0.250000X0.650000X-0.412500X0.650000X0.412500X-0.650000X0.412500X-0.650000X-0.412500X0*%
%ADD20R,2.000000X2.000000*%
%ADD21RoundRect,0.050000X-0.260500X-0.125000X0.260500X-0.125000X0.260500X0.125000X-0.260500X0.125000X0*%
%ADD22RoundRect,0.050000X-0.450000X-0.800000X0.450000X-0.800000X0.450000X0.800000X-0.450000X0.800000X0*%
%ADD23RoundRect,0.250000X-0.337500X-0.475000X0.337500X-0.475000X0.337500X0.475000X-0.337500X0.475000X0*%
%ADD24R,1.000000X1.500000*%
%ADD25RoundRect,0.100000X-0.562500X-0.100000X0.562500X-0.100000X0.562500X0.100000X-0.562500X0.100000X0*%
%ADD26RoundRect,0.155000X-0.212500X-0.155000X0.212500X-0.155000X0.212500X0.155000X-0.212500X0.155000X0*%
%ADD27RoundRect,0.237500X0.237500X-0.250000X0.237500X0.250000X-0.237500X0.250000X-0.237500X-0.250000X0*%
%ADD28RoundRect,0.062500X-0.187500X-0.062500X0.187500X-0.062500X0.187500X0.062500X-0.187500X0.062500X0*%
%ADD29R,0.900000X1.600000*%
%ADD30RoundRect,0.250000X0.625000X-0.400000X0.625000X0.400000X-0.625000X0.400000X-0.625000X-0.400000X0*%
%ADD31RoundRect,0.050800X-0.800000X-1.950000X0.800000X-1.950000X0.800000X1.950000X-0.800000X1.950000X0*%
%ADD32R,1.350000X1.350000*%
%ADD33O,1.350000X1.350000*%
%ADD34C,2.300000*%
%ADD35RoundRect,0.237500X0.250000X0.237500X-0.250000X0.237500X-0.250000X-0.237500X0.250000X-0.237500X0*%
%ADD36RoundRect,0.250000X-0.650000X0.412500X-0.650000X-0.412500X0.650000X-0.412500X0.650000X0.412500X0*%
%ADD37RoundRect,0.050000X0.300000X-0.750000X0.300000X0.750000X-0.300000X0.750000X-0.300000X-0.750000X0*%
%ADD38RoundRect,0.050000X1.650000X1.050000X-1.650000X1.050000X-1.650000X-1.050000X1.650000X-1.050000X0*%
%ADD39RoundRect,0.050800X0.266000X0.536000X-0.266000X0.536000X-0.266000X-0.536000X0.266000X-0.536000X0*%
%ADD40RoundRect,0.050800X-1.000000X1.000000X-1.000000X-1.000000X1.000000X-1.000000X1.000000X1.000000X0*%
%ADD41RoundRect,0.050800X-1.750000X-3.500000X1.750000X-3.500000X1.750000X3.500000X-1.750000X3.500000X0*%
%ADD42RoundRect,0.050800X0.600000X-0.300000X0.600000X0.300000X-0.600000X0.300000X-0.600000X-0.300000X0*%
%ADD43RoundRect,0.050800X-1.200000X1.650000X-1.200000X-1.650000X1.200000X-1.650000X1.200000X1.650000X0*%
%ADD44RoundRect,0.243750X0.456250X-0.243750X0.456250X0.243750X-0.456250X0.243750X-0.456250X-0.243750X0*%
%ADD45RoundRect,0.155000X-0.155000X0.212500X-0.155000X-0.212500X0.155000X-0.212500X0.155000X0.212500X0*%
%ADD46RoundRect,0.237500X0.300000X0.237500X-0.300000X0.237500X-0.300000X-0.237500X0.300000X-0.237500X0*%
%ADD47RoundRect,0.237500X-0.250000X-0.237500X0.250000X-0.237500X0.250000X0.237500X-0.250000X0.237500X0*%
%ADD48O,2.201600X1.101600*%
%ADD49O,1.901600X1.101600*%
%ADD50RoundRect,0.050800X-0.575000X0.300000X-0.575000X-0.300000X0.575000X-0.300000X0.575000X0.300000X0*%
%ADD51RoundRect,0.050800X-0.575000X0.150000X-0.575000X-0.150000X0.575000X-0.150000X0.575000X0.150000X0*%
%ADD52R,1.700000X1.700000*%
%ADD53O,1.700000X1.700000*%
G04 APERTURE END LIST*
%TO.C,CurrSenseJP1*%
G36*
X156050000Y-72300000D02*
G01*
X157550000Y-72300000D01*
X157550000Y-72000000D01*
X156050000Y-72000000D01*
X156050000Y-72300000D01*
G37*
%TO.C,ExtLoadJP1*%
G36*
X170300000Y-101250000D02*
G01*
X170000000Y-101250000D01*
X170000000Y-99750000D01*
X170300000Y-99750000D01*
X170300000Y-101250000D01*
G37*
%TO.C,BCM3_JP1*%
G36*
X166000000Y-111950000D02*
G01*
X166300000Y-111950000D01*
X166300000Y-113450000D01*
X166000000Y-113450000D01*
X166000000Y-111950000D01*
G37*
%TO.C,JP10*%
G36*
X193150000Y-112050000D02*
G01*
X193450000Y-112050000D01*
X193450000Y-113550000D01*
X193150000Y-113550000D01*
X193150000Y-112050000D01*
G37*
%TO.C,JP11*%
G36*
X157300000Y-111950000D02*
G01*
X157600000Y-111950000D01*
X157600000Y-113450000D01*
X157300000Y-113450000D01*
X157300000Y-111950000D01*
G37*
%TO.C,JP7*%
G36*
X202500000Y-97850000D02*
G01*
X201000000Y-97850000D01*
X201000000Y-98150000D01*
X202500000Y-98150000D01*
X202500000Y-97850000D01*
G37*
%TO.C,JP4*%
G36*
X179200000Y-53250000D02*
G01*
X179500000Y-53250000D01*
X179500000Y-54750000D01*
X179200000Y-54750000D01*
X179200000Y-53250000D01*
G37*
%TO.C,JP8*%
G36*
X184850000Y-112250000D02*
G01*
X185150000Y-112250000D01*
X185150000Y-113750000D01*
X184850000Y-113750000D01*
X184850000Y-112250000D01*
G37*
%TO.C,JP5*%
G36*
X176500000Y-75250000D02*
G01*
X176200000Y-75250000D01*
X176200000Y-73750000D01*
X176500000Y-73750000D01*
X176500000Y-75250000D01*
G37*
%TO.C,MPwrJP1*%
G36*
X158400000Y-103450000D02*
G01*
X158700000Y-103450000D01*
X158700000Y-104950000D01*
X158400000Y-104950000D01*
X158400000Y-103450000D01*
G37*
%TO.C,JP6*%
G36*
X180150000Y-88850000D02*
G01*
X181650000Y-88850000D01*
X181650000Y-88550000D01*
X180150000Y-88550000D01*
X180150000Y-88850000D01*
G37*
%TD*%
D10*
%TO.C,Q2*%
X192550000Y-65500000D03*
X194450000Y-65500000D03*
X193500000Y-63500000D03*
%TD*%
D11*
%TO.C,R8*%
X206000000Y-84500000D03*
X206000000Y-86325000D03*
%TD*%
D12*
%TO.C,CurrSenseJP1*%
X156800000Y-72800000D03*
X156800000Y-71500000D03*
%TD*%
D13*
%TO.C,ExtLoadSw_IC1*%
X166000000Y-98300000D03*
X166650000Y-98300000D03*
X167300000Y-98300000D03*
X167950000Y-98300000D03*
X167950000Y-94038000D03*
X167300000Y-94038000D03*
X166650000Y-94038000D03*
X166000000Y-94038000D03*
D14*
X166975000Y-96169000D03*
%TD*%
D15*
%TO.C,C3*%
X179537500Y-48037500D03*
X179537500Y-45962500D03*
%TD*%
D16*
%TO.C,C16*%
X180937500Y-74500000D03*
X184062500Y-74500000D03*
%TD*%
D17*
%TO.C,C17*%
X164100000Y-95262500D03*
X164100000Y-97337500D03*
%TD*%
D18*
%TO.C,M1BulkC1*%
X162100000Y-112600000D03*
X160025000Y-112600000D03*
%TD*%
D11*
%TO.C,R2*%
X193500000Y-59000000D03*
X193500000Y-60825000D03*
%TD*%
D19*
%TO.C,C4*%
X195500000Y-54125000D03*
X195500000Y-51000000D03*
%TD*%
D20*
%TO.C,TP3*%
X173250000Y-47300000D03*
%TD*%
D21*
%TO.C,9Vto5V_IC1*%
X185500000Y-47500000D03*
X185500000Y-48000200D03*
X185500000Y-48500000D03*
X185500000Y-49000200D03*
X187400000Y-49000200D03*
X187400000Y-48500000D03*
X187400000Y-48000200D03*
X187400000Y-47500000D03*
D22*
X186450000Y-48250100D03*
%TD*%
D23*
%TO.C,M4BulkC1*%
X187562500Y-113400000D03*
X189637500Y-113400000D03*
%TD*%
D24*
%TO.C,ExtLoadJP1*%
X170800000Y-100500000D03*
X169500000Y-100500000D03*
%TD*%
D25*
%TO.C,CurrentSensor1*%
X163462500Y-71425000D03*
X163462500Y-72075000D03*
X163462500Y-72725000D03*
X163462500Y-73375000D03*
X165737500Y-73375000D03*
X165737500Y-72725000D03*
X165737500Y-72075000D03*
X165737500Y-71425000D03*
%TD*%
D11*
%TO.C,R10*%
X206000000Y-88087500D03*
X206000000Y-89912500D03*
%TD*%
D26*
%TO.C,C7*%
X194232500Y-108132500D03*
X195367500Y-108132500D03*
%TD*%
D27*
%TO.C,R13*%
X164900000Y-76925000D03*
X164900000Y-75100000D03*
%TD*%
D20*
%TO.C,TP7*%
X166699900Y-60100100D03*
%TD*%
D28*
%TO.C,M3Control1*%
X169149000Y-109400000D03*
X169149000Y-109900000D03*
X169149000Y-110400000D03*
X169149000Y-110900000D03*
X171049000Y-110900000D03*
X171049000Y-110400000D03*
X171049000Y-109900000D03*
X171049000Y-109400000D03*
D29*
X170099000Y-110150000D03*
%TD*%
D24*
%TO.C,BCM3_JP1*%
X165500000Y-112700000D03*
X166800000Y-112700000D03*
%TD*%
D20*
%TO.C,OvCurF2*%
X169900000Y-92500000D03*
%TD*%
%TO.C,TP9*%
X200500000Y-80750000D03*
%TD*%
D18*
%TO.C,C2*%
X182500000Y-59500000D03*
X180425000Y-59500000D03*
%TD*%
D24*
%TO.C,JP10*%
X192650000Y-112800000D03*
X193950000Y-112800000D03*
%TD*%
D30*
%TO.C,RSense1*%
X160600000Y-73750000D03*
X160600000Y-70650000D03*
%TD*%
D31*
%TO.C,L4*%
X193000000Y-47000000D03*
X196000200Y-47000000D03*
%TD*%
D32*
%TO.C,J2*%
X151200000Y-64800000D03*
D33*
X151200000Y-66800000D03*
%TD*%
D20*
%TO.C,UnusedPinTP1*%
X153000000Y-121750000D03*
%TD*%
D11*
%TO.C,R7*%
X185500000Y-94437500D03*
X185500000Y-96262500D03*
%TD*%
D18*
%TO.C,M3BulkC1*%
X171237500Y-112700000D03*
X169162500Y-112700000D03*
%TD*%
D34*
%TO.C,SWPwr1*%
X159063500Y-90700000D03*
X159063500Y-86000000D03*
X159063500Y-81300000D03*
X150663500Y-79400000D03*
X150663500Y-92600000D03*
%TD*%
D24*
%TO.C,JP11*%
X156800000Y-112700000D03*
X158100000Y-112700000D03*
%TD*%
D12*
%TO.C,JP7*%
X201750000Y-97350000D03*
X201750000Y-98650000D03*
%TD*%
D20*
%TO.C,TP1*%
X201000000Y-47000000D03*
%TD*%
D35*
%TO.C,R_set1*%
X155300000Y-57100000D03*
X153475000Y-57100000D03*
%TD*%
D20*
%TO.C,RSenseTP+1*%
X160700000Y-67200000D03*
%TD*%
D36*
%TO.C,5VRegC1*%
X200500000Y-89437500D03*
X200500000Y-92562500D03*
%TD*%
D20*
%TO.C,TP6*%
X162099900Y-60100100D03*
%TD*%
D37*
%TO.C,USB-C_IC1*%
X161500000Y-56500200D03*
X162500000Y-56500200D03*
X163500000Y-56500200D03*
X164500000Y-56500200D03*
X165500000Y-56500200D03*
X165500000Y-50500200D03*
X164500000Y-50500000D03*
X163500000Y-50500000D03*
X162500000Y-50500000D03*
X161500000Y-50500200D03*
D38*
X163500000Y-53500000D03*
%TD*%
D39*
%TO.C,5VReg_IC1*%
X189950000Y-73850900D03*
X189000000Y-73850900D03*
X188050000Y-73850900D03*
X188050000Y-76149100D03*
X189000000Y-76149100D03*
X189950000Y-76149100D03*
%TD*%
D23*
%TO.C,M2BulkC1*%
X195962500Y-112800000D03*
X198037500Y-112800000D03*
%TD*%
D40*
%TO.C,D1*%
X206000000Y-77199900D03*
X206000000Y-72800100D03*
%TD*%
D20*
%TO.C,TP8*%
X200500000Y-85500000D03*
%TD*%
D28*
%TO.C,M1Control1*%
X158150000Y-109417500D03*
X158150000Y-109917500D03*
X158150000Y-110417500D03*
X158150000Y-110917500D03*
X160050000Y-110917500D03*
X160050000Y-110417500D03*
X160050000Y-109917500D03*
X160050000Y-109417500D03*
D29*
X159100000Y-110167500D03*
%TD*%
D41*
%TO.C,5VRegInd1*%
X194800000Y-75000000D03*
X200200000Y-75000000D03*
%TD*%
D35*
%TO.C,R11*%
X165625000Y-69100000D03*
X163800000Y-69100000D03*
%TD*%
D26*
%TO.C,C11*%
X184800000Y-108500000D03*
X185935000Y-108500000D03*
%TD*%
%TO.C,C9*%
X169632500Y-108400000D03*
X170767500Y-108400000D03*
%TD*%
D42*
%TO.C,BattCharge_IC1*%
X186908300Y-65905000D03*
X186908300Y-64635000D03*
X186908300Y-63365000D03*
X186908300Y-62095000D03*
X181091700Y-62095000D03*
X181091700Y-63365000D03*
X181091700Y-64635000D03*
X181091700Y-65905000D03*
D43*
X184000000Y-64000000D03*
%TD*%
D11*
%TO.C,R3*%
X190000000Y-59000000D03*
X190000000Y-60825000D03*
%TD*%
D20*
%TO.C,TP2*%
X173250000Y-51250000D03*
%TD*%
D44*
%TO.C,D2*%
X176500000Y-64437500D03*
X176500000Y-62562500D03*
%TD*%
D17*
%TO.C,C14*%
X178000000Y-94062500D03*
X178000000Y-96137500D03*
%TD*%
D27*
%TO.C,R6*%
X169900000Y-59500000D03*
X169900000Y-57675000D03*
%TD*%
D45*
%TO.C,C10*%
X165700000Y-109532500D03*
X165700000Y-110667500D03*
%TD*%
D46*
%TO.C,C15*%
X166962500Y-100100000D03*
X165237500Y-100100000D03*
%TD*%
D24*
%TO.C,JP4*%
X178700000Y-54000000D03*
X180000000Y-54000000D03*
%TD*%
D31*
%TO.C,3V3RegInd1*%
X187749800Y-91000000D03*
X190750000Y-91000000D03*
%TD*%
D28*
%TO.C,M2Control1*%
X193700000Y-109200000D03*
X193700000Y-109700000D03*
X193700000Y-110200000D03*
X193700000Y-110700000D03*
X195600000Y-110700000D03*
X195600000Y-110200000D03*
X195600000Y-109700000D03*
X195600000Y-109200000D03*
D29*
X194650000Y-109950000D03*
%TD*%
D21*
%TO.C,3V3Reg_IC1*%
X181000000Y-94599800D03*
X181000000Y-95100000D03*
X181000000Y-95599800D03*
X181000000Y-96100000D03*
X182900000Y-96100000D03*
X182900000Y-95599800D03*
X182900000Y-95100000D03*
X182900000Y-94599800D03*
D22*
X181950000Y-95349900D03*
%TD*%
D24*
%TO.C,JP8*%
X184350000Y-113000000D03*
X185650000Y-113000000D03*
%TD*%
D47*
%TO.C,R4*%
X185175000Y-53000000D03*
X187000000Y-53000000D03*
%TD*%
D17*
%TO.C,C1*%
X201000000Y-57500000D03*
X201000000Y-59575000D03*
%TD*%
D20*
%TO.C,RSenseTP-1*%
X160600000Y-76400000D03*
%TD*%
D24*
%TO.C,JP5*%
X177000000Y-74500000D03*
X175700000Y-74500000D03*
%TD*%
D47*
%TO.C,R1*%
X176000000Y-66500000D03*
X177825000Y-66500000D03*
%TD*%
D20*
%TO.C,OvCurF1*%
X164100000Y-92400000D03*
%TD*%
D24*
%TO.C,MPwrJP1*%
X157900000Y-104200000D03*
X159200000Y-104200000D03*
%TD*%
D45*
%TO.C,C12*%
X181000000Y-109732500D03*
X181000000Y-110867500D03*
%TD*%
%TO.C,C5*%
X155300000Y-109600000D03*
X155300000Y-110735000D03*
%TD*%
D15*
%TO.C,C18*%
X169900000Y-97137500D03*
X169900000Y-95062500D03*
%TD*%
D11*
%TO.C,R9*%
X206000000Y-80087500D03*
X206000000Y-81912500D03*
%TD*%
D28*
%TO.C,M4Control1*%
X184500000Y-109600000D03*
X184500000Y-110100000D03*
X184500000Y-110600000D03*
X184500000Y-111100000D03*
X186400000Y-111100000D03*
X186400000Y-110600000D03*
X186400000Y-110100000D03*
X186400000Y-109600000D03*
D29*
X185450000Y-110350000D03*
%TD*%
D45*
%TO.C,C8*%
X190900000Y-109532500D03*
X190900000Y-110667500D03*
%TD*%
D20*
%TO.C,5VOutTest_TP*%
X187300000Y-85400000D03*
%TD*%
D11*
%TO.C,R5*%
X169900000Y-53987500D03*
X169900000Y-55812500D03*
%TD*%
D36*
%TO.C,3V3RegC1*%
X194250000Y-91437500D03*
X194250000Y-94562500D03*
%TD*%
D11*
%TO.C,R12*%
X166800000Y-75087500D03*
X166800000Y-76912500D03*
%TD*%
D48*
%TO.C,USB1*%
X157582150Y-46380000D03*
X157582150Y-55020000D03*
D49*
X153432250Y-46380000D03*
X153432250Y-55020000D03*
D50*
X158157250Y-47499900D03*
X158157250Y-48300000D03*
D51*
X158157250Y-49450100D03*
X158157250Y-50450100D03*
X158157250Y-50949900D03*
X158157250Y-51949900D03*
D50*
X158157250Y-53899900D03*
X158157250Y-53100000D03*
D51*
X158157250Y-52450100D03*
X158157250Y-51450100D03*
X158157250Y-49949900D03*
X158157250Y-48949900D03*
%TD*%
D12*
%TO.C,JP6*%
X180900000Y-89350000D03*
X180900000Y-88050000D03*
%TD*%
D26*
%TO.C,C6*%
X158700000Y-108267500D03*
X159835000Y-108267500D03*
%TD*%
D46*
%TO.C,C13*%
X159162500Y-56900000D03*
X157437500Y-56900000D03*
%TD*%
D52*
%TO.C,J1*%
X197040000Y-119200000D03*
D53*
X197040000Y-121740000D03*
X194500000Y-119200000D03*
X194500000Y-121740000D03*
X191960000Y-119200000D03*
X191960000Y-121740000D03*
X189420000Y-119200000D03*
X189420000Y-121740000D03*
X186880000Y-119200000D03*
X186880000Y-121740000D03*
X184340000Y-119200000D03*
X184340000Y-121740000D03*
X181800000Y-119200000D03*
X181800000Y-121740000D03*
X179260000Y-119200000D03*
X179260000Y-121740000D03*
X176720000Y-119200000D03*
X176720000Y-121740000D03*
X174180000Y-119200000D03*
X174180000Y-121740000D03*
X171640000Y-119200000D03*
X171640000Y-121740000D03*
X169100000Y-119200000D03*
X169100000Y-121740000D03*
X166560000Y-119200000D03*
X166560000Y-121740000D03*
X164020000Y-119200000D03*
X164020000Y-121740000D03*
X161480000Y-119200000D03*
X161480000Y-121740000D03*
X158940000Y-119200000D03*
X158940000Y-121740000D03*
%TD*%
M02*
