%TF.GenerationSoftware,KiCad,Pcbnew,9.0.0*%
%TF.CreationDate,2025-03-27T21:26:44+02:00*%
%TF.ProjectId,EEE3088F Project,45454533-3038-4384-9620-50726f6a6563,rev?*%
%TF.SameCoordinates,Original*%
%TF.FileFunction,Legend,Bot*%
%TF.FilePolarity,Positive*%
%FSLAX46Y46*%
G04 Gerber Fmt 4.6, Leading zero omitted, Abs format (unit mm)*
G04 Created by KiCad (PCBNEW 9.0.0) date 2025-03-27 21:26:44*
%MOMM*%
%LPD*%
G01*
G04 APERTURE LIST*
%ADD10C,0.150000*%
%ADD11C,0.120000*%
%ADD12O,2.100000X1.000000*%
%ADD13O,1.800000X1.000000*%
%ADD14R,1.350000X1.350000*%
%ADD15O,1.350000X1.350000*%
%ADD16C,2.300000*%
%ADD17R,1.700000X1.700000*%
%ADD18O,1.700000X1.700000*%
G04 APERTURE END LIST*
D10*
X199264819Y-120136666D02*
X199979104Y-120136666D01*
X199979104Y-120136666D02*
X200121961Y-120089047D01*
X200121961Y-120089047D02*
X200217200Y-119993809D01*
X200217200Y-119993809D02*
X200264819Y-119850952D01*
X200264819Y-119850952D02*
X200264819Y-119755714D01*
X200264819Y-121136666D02*
X200264819Y-120565238D01*
X200264819Y-120850952D02*
X199264819Y-120850952D01*
X199264819Y-120850952D02*
X199407676Y-120755714D01*
X199407676Y-120755714D02*
X199502914Y-120660476D01*
X199502914Y-120660476D02*
X199550533Y-120565238D01*
D11*
%TO.C,J1*%
X157610000Y-123070000D02*
X157610000Y-117870000D01*
X195770000Y-117870000D02*
X157610000Y-117870000D01*
X195770000Y-120470000D02*
X195770000Y-117870000D01*
X198370000Y-117870000D02*
X197040000Y-117870000D01*
X198370000Y-119200000D02*
X198370000Y-117870000D01*
X198370000Y-120470000D02*
X195770000Y-120470000D01*
X198370000Y-123070000D02*
X157610000Y-123070000D01*
X198370000Y-123070000D02*
X198370000Y-120470000D01*
%TD*%
%LPC*%
D12*
%TO.C,USB1*%
X157582150Y-46380000D03*
X157582150Y-55020000D03*
D13*
X153432250Y-46380000D03*
X153432250Y-55020000D03*
%TD*%
D14*
%TO.C,J2*%
X151200000Y-64800000D03*
D15*
X151200000Y-66800000D03*
%TD*%
D16*
%TO.C,SWPwr1*%
X159063500Y-90700000D03*
X159063500Y-86000000D03*
X159063500Y-81300000D03*
X150663500Y-79400000D03*
X150663500Y-92600000D03*
%TD*%
D17*
%TO.C,J1*%
X197040000Y-119200000D03*
D18*
X197040000Y-121740000D03*
X194500000Y-119200000D03*
X194500000Y-121740000D03*
X191960000Y-119200000D03*
X191960000Y-121740000D03*
X189420000Y-119200000D03*
X189420000Y-121740000D03*
X186880000Y-119200000D03*
X186880000Y-121740000D03*
X184340000Y-119200000D03*
X184340000Y-121740000D03*
X181800000Y-119200000D03*
X181800000Y-121740000D03*
X179260000Y-119200000D03*
X179260000Y-121740000D03*
X176720000Y-119200000D03*
X176720000Y-121740000D03*
X174180000Y-119200000D03*
X174180000Y-121740000D03*
X171640000Y-119200000D03*
X171640000Y-121740000D03*
X169100000Y-119200000D03*
X169100000Y-121740000D03*
X166560000Y-119200000D03*
X166560000Y-121740000D03*
X164020000Y-119200000D03*
X164020000Y-121740000D03*
X161480000Y-119200000D03*
X161480000Y-121740000D03*
X158940000Y-119200000D03*
X158940000Y-121740000D03*
%TD*%
%LPD*%
M02*
