%TF.GenerationSoftware,KiCad,Pcbnew,9.0.0*%
%TF.CreationDate,2025-03-28T11:37:27+02:00*%
%TF.ProjectId,EEE3088F Project,45454533-3038-4384-9620-50726f6a6563,rev?*%
%TF.SameCoordinates,Original*%
%TF.FileFunction,Copper,L2,Bot*%
%TF.FilePolarity,Positive*%
%FSLAX46Y46*%
G04 Gerber Fmt 4.6, Leading zero omitted, Abs format (unit mm)*
G04 Created by KiCad (PCBNEW 9.0.0) date 2025-03-28 11:37:27*
%MOMM*%
%LPD*%
G01*
G04 APERTURE LIST*
%TA.AperFunction,ComponentPad*%
%ADD10R,1.350000X1.350000*%
%TD*%
%TA.AperFunction,ComponentPad*%
%ADD11O,1.350000X1.350000*%
%TD*%
%TA.AperFunction,ComponentPad*%
%ADD12C,2.300000*%
%TD*%
%TA.AperFunction,ComponentPad*%
%ADD13O,2.100000X1.000000*%
%TD*%
%TA.AperFunction,ComponentPad*%
%ADD14O,1.800000X1.000000*%
%TD*%
%TA.AperFunction,ComponentPad*%
%ADD15R,1.700000X1.700000*%
%TD*%
%TA.AperFunction,ComponentPad*%
%ADD16O,1.700000X1.700000*%
%TD*%
%TA.AperFunction,ViaPad*%
%ADD17C,0.600000*%
%TD*%
%TA.AperFunction,Conductor*%
%ADD18C,0.200000*%
%TD*%
%TA.AperFunction,Conductor*%
%ADD19C,0.400000*%
%TD*%
%TA.AperFunction,Conductor*%
%ADD20C,0.300000*%
%TD*%
G04 APERTURE END LIST*
D10*
%TO.P,J2,1,Pin_1*%
%TO.N,GND*%
X151200000Y-64800000D03*
D11*
%TO.P,J2,2,Pin_2*%
%TO.N,/RSense+*%
X151200000Y-66800000D03*
%TD*%
D12*
%TO.P,SWPwr1,1,A*%
%TO.N,VBatt*%
X159063500Y-90700000D03*
%TO.P,SWPwr1,2,B*%
%TO.N,/RSense-*%
X159063500Y-86000000D03*
%TO.P,SWPwr1,3,C*%
%TO.N,VCharge*%
X159063500Y-81300000D03*
%TO.P,SWPwr1,4*%
%TO.N,N/C*%
X150663500Y-79400000D03*
%TO.P,SWPwr1,5*%
X150663500Y-92600000D03*
%TD*%
D13*
%TO.P,USB1,1,SHELL*%
%TO.N,GND*%
X157582150Y-46380000D03*
%TO.P,USB1,2,SHELL*%
X157582150Y-55020000D03*
D14*
%TO.P,USB1,3,SHELL*%
X153432250Y-46380000D03*
%TO.P,USB1,4,SHELL*%
X153432250Y-55020000D03*
%TD*%
D15*
%TO.P,J1,1,Pin_1*%
%TO.N,/MOTOR2_B_OUT *%
X197040000Y-119200000D03*
D16*
%TO.P,J1,2,Pin_2*%
%TO.N,/MOTOR2_A_OUT*%
X197040000Y-121740000D03*
%TO.P,J1,3,Pin_3*%
%TO.N,/MOTOR4_A_OUT*%
X194500000Y-119200000D03*
%TO.P,J1,4,Pin_4*%
%TO.N,/MOTOR2_CTRL1*%
X194500000Y-121740000D03*
%TO.P,J1,5,Pin_5*%
%TO.N,/MOTOR4_B_OUT*%
X191960000Y-119200000D03*
%TO.P,J1,6,Pin_6*%
%TO.N,/MOTOR2_CTRL2*%
X191960000Y-121740000D03*
%TO.P,J1,7,Pin_7*%
%TO.N,/CTRL_EXT_LOAD2*%
X189420000Y-119200000D03*
%TO.P,J1,8,Pin_8*%
%TO.N,/MOTOR4_CTRL1*%
X189420000Y-121740000D03*
%TO.P,J1,9,Pin_9*%
%TO.N,/USART2_RX*%
X186880000Y-119200000D03*
%TO.P,J1,10,Pin_10*%
%TO.N,/MOTOR4_CTRL2*%
X186880000Y-121740000D03*
%TO.P,J1,11,Pin_11*%
%TO.N,/EXT_LOAD2_OUT*%
X184340000Y-119200000D03*
%TO.P,J1,12,Pin_12*%
%TO.N,/USART2_TX*%
X184340000Y-121740000D03*
%TO.P,J1,13,Pin_13*%
%TO.N,/FAST_CHRG_CNTRL*%
X181800000Y-119200000D03*
%TO.P,J1,14,Pin_14*%
%TO.N,VBatt*%
X181800000Y-121740000D03*
%TO.P,J1,15,Pin_15*%
%TO.N,Net-(J1-Pin_15)*%
X179260000Y-119200000D03*
%TO.P,J1,16,Pin_16*%
%TO.N,/12C1_SCL*%
X179260000Y-121740000D03*
%TO.P,J1,17,Pin_17*%
%TO.N,/12C1_SDA*%
X176720000Y-119200000D03*
%TO.P,J1,18,Pin_18*%
%TO.N,/3V3 Regulated*%
X176720000Y-121740000D03*
%TO.P,J1,19,Pin_19*%
%TO.N,GND*%
X174180000Y-119200000D03*
%TO.P,J1,20,Pin_20*%
%TO.N,/5V Regulated*%
X174180000Y-121740000D03*
%TO.P,J1,21,Pin_21*%
%TO.N,/EXT_LOAD1_OUT*%
X171640000Y-119200000D03*
%TO.P,J1,22,Pin_22*%
%TO.N,9V USB-C*%
X171640000Y-121740000D03*
%TO.P,J1,23,Pin_23*%
%TO.N,GND*%
X169100000Y-119200000D03*
%TO.P,J1,24,Pin_24*%
%TO.N,/MOTOR3_CTRL1*%
X169100000Y-121740000D03*
%TO.P,J1,25,Pin_25*%
%TO.N,/CTRL_EXT_LOAD1*%
X166560000Y-119200000D03*
%TO.P,J1,26,Pin_26*%
%TO.N,/MOTOR3_CTRL2*%
X166560000Y-121740000D03*
%TO.P,J1,27,Pin_27*%
%TO.N,/MOTOR3_A_OUT*%
X164020000Y-119200000D03*
%TO.P,J1,28,Pin_28*%
%TO.N,/MOTOR1_CTRL1*%
X164020000Y-121740000D03*
%TO.P,J1,29,Pin_29*%
%TO.N,/MOTOR3_B_OUT *%
X161480000Y-119200000D03*
%TO.P,J1,30,Pin_30*%
%TO.N,/MOTOR1_CTRL2*%
X161480000Y-121740000D03*
%TO.P,J1,31,Pin_31*%
%TO.N,/MOTOR1_B_OUT *%
X158940000Y-119200000D03*
%TO.P,J1,32,Pin_32*%
%TO.N,/MOTOR1_A_OUT*%
X158940000Y-121740000D03*
%TD*%
D17*
%TO.N,GND*%
X189926000Y-112986228D03*
X197500000Y-96250000D03*
X159100000Y-110167500D03*
X169162500Y-112700000D03*
X178000000Y-96137500D03*
X160025000Y-112600000D03*
X165700000Y-110667500D03*
X179537500Y-45962500D03*
X187000000Y-71750000D03*
X194500000Y-67250000D03*
X194500000Y-97500000D03*
X158157250Y-53900002D03*
X163600000Y-53500000D03*
X194650000Y-109950000D03*
X164575000Y-72702739D03*
X184000000Y-64000000D03*
X178000000Y-62250000D03*
X169900000Y-97137500D03*
X189000000Y-71750000D03*
X178000000Y-59500000D03*
X184250000Y-49750000D03*
X187000000Y-67500000D03*
%TO.N,VBatt*%
X164500000Y-67500000D03*
X169000000Y-74500000D03*
X171750000Y-74500000D03*
X163800000Y-69100000D03*
%TO.N,/12C1_SDA*%
X182300000Y-114400000D03*
%TO.N,/MOTOR1_A_OUT*%
X156800000Y-109200000D03*
%TO.N,/RSense+*%
X160700000Y-67500000D03*
X160600000Y-70650000D03*
%TO.N,/MOTOR1_B_OUT *%
X156300000Y-110417500D03*
%TO.N,/MOTOR2_A_OUT*%
X192900000Y-109600000D03*
%TO.N,/MOTOR2_B_OUT *%
X192000000Y-109600000D03*
%TO.N,/MOTOR3_B_OUT *%
X166600000Y-110300000D03*
%TO.N,/MOTOR3_A_OUT*%
X167800000Y-109700000D03*
%TO.N,/MOTOR4_A_OUT*%
X183300000Y-109800000D03*
%TO.N,/12C1_SCL*%
X165758978Y-75217493D03*
X168618015Y-77881985D03*
%TO.N,/MOTOR4_B_OUT*%
X182200000Y-110500000D03*
%TO.N,VCharge*%
X174000000Y-81000000D03*
X184000000Y-59500000D03*
X162000000Y-83500000D03*
X179000000Y-62000000D03*
%TO.N,/FAST_CHRG_CNTRL*%
X196750000Y-102250000D03*
X196750000Y-105500000D03*
X182000000Y-125000000D03*
%TO.N,9V USB-C*%
X171500000Y-124000000D03*
%TO.N,/3V3 Regulated*%
X160001000Y-108800000D03*
X177750000Y-103750000D03*
X186000000Y-105250000D03*
X170767500Y-108400000D03*
X186000000Y-107542088D03*
X196200000Y-109200000D03*
X187100000Y-109600000D03*
%TO.N,/5V Regulated*%
X204250000Y-79250000D03*
X177500000Y-87750000D03*
X200500000Y-80750000D03*
X170800000Y-100500000D03*
%TO.N,/CTRL_EXT_LOAD1*%
X168000000Y-99700000D03*
%TO.N,/RSense-*%
X160600000Y-76400000D03*
%TO.N,Net-(J1-Pin_15)*%
X172250000Y-125000000D03*
%TO.N,/CTRL_EXT_LOAD2*%
X181700000Y-116700000D03*
%TO.N,/CC2*%
X165500000Y-50500200D03*
X159800000Y-50900000D03*
%TO.N,/CC1*%
X159800000Y-50099997D03*
X164500000Y-50300000D03*
%TO.N,/EXT_LOAD1_OUT*%
X173500000Y-116900000D03*
%TO.N,Net-(BCM3_JP1-A)*%
X172224265Y-109275735D03*
X179356735Y-108356735D03*
%TO.N,Net-(3V3Reg_IC1-SW)*%
X184000000Y-95037500D03*
X184000000Y-93500000D03*
%TO.N,Net-(5VReg_IC1-SW)*%
X192500000Y-69000000D03*
X191750000Y-71750000D03*
%TO.N,Net-(9Vto5V_IC1-VOS)*%
X188900000Y-49000000D03*
X190500000Y-49000000D03*
%TO.N,Net-(9Vto5V_IC1-SW)*%
X188500000Y-48100000D03*
X193000000Y-47000000D03*
%TO.N,Net-(BattCharge_IC1-CHRG#)*%
X179000000Y-64000000D03*
X177825000Y-66500000D03*
%TO.N,Net-(USB-C_IC1-VDD)*%
X170000000Y-55900000D03*
X161500000Y-56500200D03*
%TD*%
D18*
%TO.N,GND*%
X192250000Y-67250000D02*
X194500000Y-67250000D01*
X178000000Y-60000000D02*
X178000000Y-59500000D01*
X194500000Y-96250000D02*
X197500000Y-96250000D01*
X169100000Y-118600000D02*
X169100000Y-117900000D01*
X176500000Y-46750000D02*
X177287500Y-45962500D01*
X169100000Y-119200000D02*
X170251000Y-120351000D01*
X176500000Y-49750000D02*
X176500000Y-46750000D01*
X191500000Y-68000000D02*
X192250000Y-67250000D01*
X189750000Y-69750000D02*
X191500000Y-68000000D01*
X187000000Y-71750000D02*
X187750000Y-71750000D01*
X194500000Y-97500000D02*
X194500000Y-96250000D01*
X178000000Y-62250000D02*
X178000000Y-60000000D01*
X187000000Y-69750000D02*
X187000000Y-67500000D01*
X187000000Y-69750000D02*
X189750000Y-69750000D01*
X176750000Y-60000000D02*
X176500000Y-59750000D01*
X169100000Y-119200000D02*
X169100000Y-118600000D01*
X173029000Y-120351000D02*
X174180000Y-119200000D01*
X170251000Y-120351000D02*
X173029000Y-120351000D01*
X187750000Y-71750000D02*
X189000000Y-71750000D01*
X187000000Y-71000000D02*
X187000000Y-70750000D01*
X176500000Y-49750000D02*
X184250000Y-49750000D01*
X187000000Y-70750000D02*
X187000000Y-69750000D01*
X187750000Y-71750000D02*
X187000000Y-71000000D01*
X176500000Y-59750000D02*
X176500000Y-49750000D01*
X178000000Y-60000000D02*
X176750000Y-60000000D01*
X177287500Y-45962500D02*
X179537500Y-45962500D01*
D19*
%TO.N,VBatt*%
X164500000Y-67500000D02*
X164500000Y-68400000D01*
X164500000Y-68400000D02*
X163800000Y-69100000D01*
X171750000Y-74500000D02*
X169000000Y-74500000D01*
D18*
%TO.N,/12C1_SDA*%
X180604265Y-116095735D02*
X179824265Y-116095735D01*
X179824265Y-116095735D02*
X176720000Y-119200000D01*
X182300000Y-114400000D02*
X180604265Y-116095735D01*
D19*
%TO.N,/MOTOR1_A_OUT*%
X155599000Y-118399000D02*
X158940000Y-121740000D01*
X156283500Y-109716500D02*
X155951057Y-109716500D01*
X155951057Y-109716500D02*
X155599000Y-110068557D01*
X155599000Y-110068557D02*
X155599000Y-118399000D01*
X156800000Y-109200000D02*
X156283500Y-109716500D01*
%TO.N,/RSense+*%
X160700000Y-70550000D02*
X160600000Y-70650000D01*
X160700000Y-67500000D02*
X160700000Y-70550000D01*
%TO.N,/MOTOR1_B_OUT *%
X156200000Y-116460000D02*
X158940000Y-119200000D01*
X156300000Y-110417500D02*
X156200000Y-110517500D01*
X156200000Y-110517500D02*
X156200000Y-116460000D01*
%TO.N,/MOTOR2_A_OUT*%
X198191000Y-120451000D02*
X198191000Y-120589000D01*
X192900000Y-109600000D02*
X192900000Y-110000000D01*
X198191000Y-120589000D02*
X197040000Y-121740000D01*
X198291000Y-117949000D02*
X198291000Y-120451000D01*
X198191000Y-115291000D02*
X198191000Y-117949000D01*
X198291000Y-120451000D02*
X198191000Y-120451000D01*
X192900000Y-110000000D02*
X198191000Y-115291000D01*
X198191000Y-117949000D02*
X198291000Y-117949000D01*
%TO.N,/MOTOR2_B_OUT *%
X197040000Y-115307500D02*
X197040000Y-119200000D01*
X192000000Y-110267500D02*
X197040000Y-115307500D01*
X192000000Y-109600000D02*
X192000000Y-110267500D01*
%TO.N,/MOTOR3_B_OUT *%
X166600000Y-110300000D02*
X166600000Y-114080000D01*
X166600000Y-114080000D02*
X161480000Y-119200000D01*
%TO.N,/MOTOR3_A_OUT*%
X168100000Y-110000000D02*
X168100000Y-115120000D01*
X167800000Y-109700000D02*
X168100000Y-110000000D01*
X168100000Y-115120000D02*
X164020000Y-119200000D01*
D20*
%TO.N,/MOTOR4_A_OUT*%
X185100000Y-109800000D02*
X194500000Y-119200000D01*
X183300000Y-109800000D02*
X185100000Y-109800000D01*
D18*
%TO.N,/12C1_SCL*%
X168481985Y-77881985D02*
X168618015Y-77881985D01*
X165817493Y-75217493D02*
X168350000Y-77750000D01*
X165758978Y-75217493D02*
X165817493Y-75217493D01*
X168350000Y-77750000D02*
X168481985Y-77881985D01*
D19*
%TO.N,/MOTOR4_B_OUT*%
X183260000Y-110500000D02*
X191960000Y-119200000D01*
X182200000Y-110500000D02*
X183260000Y-110500000D01*
%TO.N,VCharge*%
X174000000Y-83500000D02*
X162000000Y-83500000D01*
X179000000Y-61000000D02*
X179000000Y-62000000D01*
X184000000Y-59500000D02*
X184000000Y-61000000D01*
X184000000Y-61000000D02*
X179000000Y-61000000D01*
X174000000Y-81000000D02*
X174000000Y-83500000D01*
D18*
%TO.N,/FAST_CHRG_CNTRL*%
X180649000Y-123649000D02*
X180649000Y-120351000D01*
X182000000Y-125000000D02*
X180649000Y-123649000D01*
X196750000Y-102250000D02*
X196750000Y-105500000D01*
X180649000Y-120351000D02*
X181800000Y-119200000D01*
D19*
%TO.N,9V USB-C*%
X171640000Y-123860000D02*
X171640000Y-121740000D01*
D18*
X171500000Y-124000000D02*
X171640000Y-123860000D01*
%TO.N,/3V3 Regulated*%
X166250000Y-103750000D02*
X166000000Y-104000000D01*
X175331000Y-113231000D02*
X180462000Y-108100000D01*
X180462000Y-108100000D02*
X185000000Y-108100000D01*
X170767500Y-108400000D02*
X171000000Y-108167500D01*
X172200000Y-110100000D02*
X175331000Y-113231000D01*
X186000000Y-105250000D02*
X186000000Y-107542088D01*
X194400000Y-107400000D02*
X196200000Y-109200000D01*
X185000000Y-108100000D02*
X186800000Y-109900000D01*
X175331000Y-120351000D02*
X176720000Y-121740000D01*
X172200000Y-110100000D02*
X170800000Y-108700000D01*
X177750000Y-103750000D02*
X166250000Y-103750000D01*
X186800000Y-109900000D02*
X189300000Y-107400000D01*
X170767500Y-108400000D02*
X170767500Y-108667500D01*
X186800000Y-109900000D02*
X187100000Y-109600000D01*
X160101000Y-108700000D02*
X160001000Y-108800000D01*
X166000000Y-104000000D02*
X166000000Y-107750000D01*
X161051000Y-107750000D02*
X160001000Y-108800000D01*
X170800000Y-108700000D02*
X160101000Y-108700000D01*
X189300000Y-107400000D02*
X194400000Y-107400000D01*
X170767500Y-108667500D02*
X172200000Y-110100000D01*
X171000000Y-107750000D02*
X166000000Y-107750000D01*
X166000000Y-107750000D02*
X161051000Y-107750000D01*
X171000000Y-108167500D02*
X171000000Y-107750000D01*
X175331000Y-113231000D02*
X175331000Y-120351000D01*
%TO.N,/5V Regulated*%
X173000000Y-100500000D02*
X170800000Y-100500000D01*
X177500000Y-87750000D02*
X173000000Y-87750000D01*
X173000000Y-87750000D02*
X173000000Y-100500000D01*
D19*
X204250000Y-79250000D02*
X202750000Y-80750000D01*
X202750000Y-80750000D02*
X200500000Y-80750000D01*
D18*
%TO.N,/CTRL_EXT_LOAD1*%
X163543240Y-120351000D02*
X162869000Y-119676760D01*
X165409000Y-120351000D02*
X163543240Y-120351000D01*
X162869000Y-119676760D02*
X162869000Y-118723240D01*
X167399000Y-110148943D02*
X166651057Y-109401000D01*
X167399000Y-114193240D02*
X167399000Y-110148943D01*
X162869000Y-118723240D02*
X167399000Y-114193240D01*
X166651057Y-109401000D02*
X159752057Y-109401000D01*
X159752057Y-109401000D02*
X159400000Y-109048943D01*
X159400000Y-108300000D02*
X167700000Y-100000000D01*
X167700000Y-100000000D02*
X168000000Y-99700000D01*
X166560000Y-119200000D02*
X165409000Y-120351000D01*
X159400000Y-109048943D02*
X159400000Y-108300000D01*
D19*
%TO.N,/RSense-*%
X160900000Y-84163500D02*
X160900000Y-76700000D01*
X159063500Y-86000000D02*
X160900000Y-84163500D01*
X160900000Y-76700000D02*
X160600000Y-76400000D01*
D18*
%TO.N,Net-(J1-Pin_15)*%
X175087760Y-125000000D02*
X177967240Y-122120520D01*
X177967240Y-120492760D02*
X179260000Y-119200000D01*
X172250000Y-125000000D02*
X175087760Y-125000000D01*
X177967240Y-122120520D02*
X177967240Y-120492760D01*
%TO.N,/CTRL_EXT_LOAD2*%
X187120000Y-116900000D02*
X189420000Y-119200000D01*
X181900000Y-116900000D02*
X187120000Y-116900000D01*
X181700000Y-116700000D02*
X181900000Y-116900000D01*
%TO.N,/CC2*%
X159800000Y-50900000D02*
X165100200Y-50900000D01*
X165100200Y-50900000D02*
X165500000Y-50500200D01*
%TO.N,/CC1*%
X159800000Y-50099997D02*
X164299997Y-50099997D01*
X164299997Y-50099997D02*
X164500000Y-50300000D01*
D19*
%TO.N,/EXT_LOAD1_OUT*%
X173500000Y-117340000D02*
X171640000Y-119200000D01*
X173500000Y-116900000D02*
X173500000Y-117340000D01*
D18*
%TO.N,Net-(BCM3_JP1-A)*%
X179406735Y-108306735D02*
X179393265Y-108306735D01*
D19*
X172224265Y-109275735D02*
X173143265Y-108356735D01*
X173143265Y-108356735D02*
X179356735Y-108356735D01*
%TO.N,Net-(3V3Reg_IC1-SW)*%
X184000000Y-95037500D02*
X184000000Y-93500000D01*
%TO.N,Net-(5VReg_IC1-SW)*%
X192500000Y-71000000D02*
X192500000Y-69000000D01*
X191750000Y-71750000D02*
X192500000Y-71000000D01*
D18*
%TO.N,Net-(9Vto5V_IC1-VOS)*%
X188900000Y-49000000D02*
X190500000Y-49000000D01*
D19*
%TO.N,Net-(9Vto5V_IC1-SW)*%
X191900000Y-48100000D02*
X193000000Y-47000000D01*
X188500000Y-48100000D02*
X191900000Y-48100000D01*
D18*
%TO.N,Net-(BattCharge_IC1-CHRG#)*%
X179000000Y-64000000D02*
X177825000Y-65175000D01*
X177825000Y-65175000D02*
X177825000Y-66500000D01*
D19*
%TO.N,Net-(USB-C_IC1-VDD)*%
X169399800Y-56500200D02*
X161500000Y-56500200D01*
X170000000Y-55900000D02*
X169399800Y-56500200D01*
%TD*%
%TA.AperFunction,Conductor*%
%TO.N,GND*%
G36*
X208192539Y-44520185D02*
G01*
X208238294Y-44572989D01*
X208249500Y-44624500D01*
X208249500Y-125375500D01*
X208229815Y-125442539D01*
X208177011Y-125488294D01*
X208125500Y-125499500D01*
X182845134Y-125499500D01*
X182778095Y-125479815D01*
X182732340Y-125427011D01*
X182722396Y-125357853D01*
X182730573Y-125328047D01*
X182769737Y-125233497D01*
X182800500Y-125078842D01*
X182800500Y-124921158D01*
X182800500Y-124921155D01*
X182800499Y-124921153D01*
X182769738Y-124766510D01*
X182769737Y-124766503D01*
X182709794Y-124621786D01*
X182709397Y-124620827D01*
X182709390Y-124620814D01*
X182621789Y-124489711D01*
X182621786Y-124489707D01*
X182510292Y-124378213D01*
X182510288Y-124378210D01*
X182379185Y-124290609D01*
X182379172Y-124290602D01*
X182233501Y-124230264D01*
X182233491Y-124230261D01*
X182078151Y-124199362D01*
X182016241Y-124166977D01*
X182014662Y-124165426D01*
X181285819Y-123436583D01*
X181271115Y-123409655D01*
X181254523Y-123383837D01*
X181253631Y-123377636D01*
X181252334Y-123375260D01*
X181249500Y-123348902D01*
X181249500Y-123151802D01*
X181269185Y-123084763D01*
X181321989Y-123039008D01*
X181391147Y-123029064D01*
X181411812Y-123033869D01*
X181483757Y-123057246D01*
X181693713Y-123090500D01*
X181693714Y-123090500D01*
X181906286Y-123090500D01*
X181906287Y-123090500D01*
X182116243Y-123057246D01*
X182318412Y-122991557D01*
X182507816Y-122895051D01*
X182588500Y-122836431D01*
X182679786Y-122770109D01*
X182679788Y-122770106D01*
X182679792Y-122770104D01*
X182830104Y-122619792D01*
X182830106Y-122619788D01*
X182830109Y-122619786D01*
X182955048Y-122447820D01*
X182955047Y-122447820D01*
X182955051Y-122447816D01*
X182959514Y-122439054D01*
X183007488Y-122388259D01*
X183075308Y-122371463D01*
X183141444Y-122393999D01*
X183180486Y-122439056D01*
X183184951Y-122447820D01*
X183309890Y-122619786D01*
X183460213Y-122770109D01*
X183632179Y-122895048D01*
X183632181Y-122895049D01*
X183632184Y-122895051D01*
X183821588Y-122991557D01*
X184023757Y-123057246D01*
X184233713Y-123090500D01*
X184233714Y-123090500D01*
X184446286Y-123090500D01*
X184446287Y-123090500D01*
X184656243Y-123057246D01*
X184858412Y-122991557D01*
X185047816Y-122895051D01*
X185128500Y-122836431D01*
X185219786Y-122770109D01*
X185219788Y-122770106D01*
X185219792Y-122770104D01*
X185370104Y-122619792D01*
X185370106Y-122619788D01*
X185370109Y-122619786D01*
X185495048Y-122447820D01*
X185495047Y-122447820D01*
X185495051Y-122447816D01*
X185499514Y-122439054D01*
X185547488Y-122388259D01*
X185615308Y-122371463D01*
X185681444Y-122393999D01*
X185720486Y-122439056D01*
X185724951Y-122447820D01*
X185849890Y-122619786D01*
X186000213Y-122770109D01*
X186172179Y-122895048D01*
X186172181Y-122895049D01*
X186172184Y-122895051D01*
X186361588Y-122991557D01*
X186563757Y-123057246D01*
X186773713Y-123090500D01*
X186773714Y-123090500D01*
X186986286Y-123090500D01*
X186986287Y-123090500D01*
X187196243Y-123057246D01*
X187398412Y-122991557D01*
X187587816Y-122895051D01*
X187668500Y-122836431D01*
X187759786Y-122770109D01*
X187759788Y-122770106D01*
X187759792Y-122770104D01*
X187910104Y-122619792D01*
X187910106Y-122619788D01*
X187910109Y-122619786D01*
X188035048Y-122447820D01*
X188035047Y-122447820D01*
X188035051Y-122447816D01*
X188039514Y-122439054D01*
X188087488Y-122388259D01*
X188155308Y-122371463D01*
X188221444Y-122393999D01*
X188260486Y-122439056D01*
X188264951Y-122447820D01*
X188389890Y-122619786D01*
X188540213Y-122770109D01*
X188712179Y-122895048D01*
X188712181Y-122895049D01*
X188712184Y-122895051D01*
X188901588Y-122991557D01*
X189103757Y-123057246D01*
X189313713Y-123090500D01*
X189313714Y-123090500D01*
X189526286Y-123090500D01*
X189526287Y-123090500D01*
X189736243Y-123057246D01*
X189938412Y-122991557D01*
X190127816Y-122895051D01*
X190208500Y-122836431D01*
X190299786Y-122770109D01*
X190299788Y-122770106D01*
X190299792Y-122770104D01*
X190450104Y-122619792D01*
X190450106Y-122619788D01*
X190450109Y-122619786D01*
X190575048Y-122447820D01*
X190575047Y-122447820D01*
X190575051Y-122447816D01*
X190579514Y-122439054D01*
X190627488Y-122388259D01*
X190695308Y-122371463D01*
X190761444Y-122393999D01*
X190800486Y-122439056D01*
X190804951Y-122447820D01*
X190929890Y-122619786D01*
X191080213Y-122770109D01*
X191252179Y-122895048D01*
X191252181Y-122895049D01*
X191252184Y-122895051D01*
X191441588Y-122991557D01*
X191643757Y-123057246D01*
X191853713Y-123090500D01*
X191853714Y-123090500D01*
X192066286Y-123090500D01*
X192066287Y-123090500D01*
X192276243Y-123057246D01*
X192478412Y-122991557D01*
X192667816Y-122895051D01*
X192748500Y-122836431D01*
X192839786Y-122770109D01*
X192839788Y-122770106D01*
X192839792Y-122770104D01*
X192990104Y-122619792D01*
X192990106Y-122619788D01*
X192990109Y-122619786D01*
X193115048Y-122447820D01*
X193115047Y-122447820D01*
X193115051Y-122447816D01*
X193119514Y-122439054D01*
X193167488Y-122388259D01*
X193235308Y-122371463D01*
X193301444Y-122393999D01*
X193340486Y-122439056D01*
X193344951Y-122447820D01*
X193469890Y-122619786D01*
X193620213Y-122770109D01*
X193792179Y-122895048D01*
X193792181Y-122895049D01*
X193792184Y-122895051D01*
X193981588Y-122991557D01*
X194183757Y-123057246D01*
X194393713Y-123090500D01*
X194393714Y-123090500D01*
X194606286Y-123090500D01*
X194606287Y-123090500D01*
X194816243Y-123057246D01*
X195018412Y-122991557D01*
X195207816Y-122895051D01*
X195288500Y-122836431D01*
X195379786Y-122770109D01*
X195379788Y-122770106D01*
X195379792Y-122770104D01*
X195530104Y-122619792D01*
X195530106Y-122619788D01*
X195530109Y-122619786D01*
X195655048Y-122447820D01*
X195655047Y-122447820D01*
X195655051Y-122447816D01*
X195659514Y-122439054D01*
X195707488Y-122388259D01*
X195775308Y-122371463D01*
X195841444Y-122393999D01*
X195880486Y-122439056D01*
X195884951Y-122447820D01*
X196009890Y-122619786D01*
X196160213Y-122770109D01*
X196332179Y-122895048D01*
X196332181Y-122895049D01*
X196332184Y-122895051D01*
X196521588Y-122991557D01*
X196723757Y-123057246D01*
X196933713Y-123090500D01*
X196933714Y-123090500D01*
X197146286Y-123090500D01*
X197146287Y-123090500D01*
X197356243Y-123057246D01*
X197558412Y-122991557D01*
X197747816Y-122895051D01*
X197828500Y-122836431D01*
X197919786Y-122770109D01*
X197919788Y-122770106D01*
X197919792Y-122770104D01*
X198070104Y-122619792D01*
X198070106Y-122619788D01*
X198070109Y-122619786D01*
X198195048Y-122447820D01*
X198195047Y-122447820D01*
X198195051Y-122447816D01*
X198291557Y-122258412D01*
X198357246Y-122056243D01*
X198390500Y-121846287D01*
X198390500Y-121633713D01*
X198365715Y-121477227D01*
X198374670Y-121407933D01*
X198400502Y-121370153D01*
X198735114Y-121035543D01*
X198804854Y-120931166D01*
X198820264Y-120912391D01*
X198835114Y-120897542D01*
X198911775Y-120782811D01*
X198964580Y-120655328D01*
X198986707Y-120544091D01*
X198991500Y-120519995D01*
X198991500Y-117880004D01*
X198964581Y-117744677D01*
X198964580Y-117744676D01*
X198964580Y-117744672D01*
X198934400Y-117671811D01*
X198911776Y-117617190D01*
X198908905Y-117611819D01*
X198910205Y-117611123D01*
X198891520Y-117551438D01*
X198891500Y-117549230D01*
X198891500Y-115222004D01*
X198864581Y-115086677D01*
X198864580Y-115086676D01*
X198864580Y-115086672D01*
X198837705Y-115021789D01*
X198811778Y-114959195D01*
X198811774Y-114959188D01*
X198779101Y-114910289D01*
X198735114Y-114844457D01*
X198735112Y-114844454D01*
X198735109Y-114844451D01*
X193725632Y-109834975D01*
X193692147Y-109773652D01*
X193691696Y-109723101D01*
X193692641Y-109718353D01*
X193700500Y-109678842D01*
X193700500Y-109521158D01*
X193700500Y-109521155D01*
X193700499Y-109521153D01*
X193689628Y-109466503D01*
X193669737Y-109366503D01*
X193637929Y-109289711D01*
X193609397Y-109220827D01*
X193609390Y-109220814D01*
X193521789Y-109089711D01*
X193521786Y-109089707D01*
X193410292Y-108978213D01*
X193410288Y-108978210D01*
X193279185Y-108890609D01*
X193279172Y-108890602D01*
X193133501Y-108830264D01*
X193133489Y-108830261D01*
X192978845Y-108799500D01*
X192978842Y-108799500D01*
X192821158Y-108799500D01*
X192821155Y-108799500D01*
X192666510Y-108830261D01*
X192666498Y-108830264D01*
X192520822Y-108890604D01*
X192520820Y-108890605D01*
X192518885Y-108891899D01*
X192517717Y-108892264D01*
X192515451Y-108893476D01*
X192515221Y-108893045D01*
X192452206Y-108912773D01*
X192384827Y-108894285D01*
X192381115Y-108891899D01*
X192379179Y-108890605D01*
X192379177Y-108890604D01*
X192233501Y-108830264D01*
X192233489Y-108830261D01*
X192078845Y-108799500D01*
X192078842Y-108799500D01*
X191921158Y-108799500D01*
X191921155Y-108799500D01*
X191766510Y-108830261D01*
X191766498Y-108830264D01*
X191620827Y-108890602D01*
X191620814Y-108890609D01*
X191489711Y-108978210D01*
X191489707Y-108978213D01*
X191378213Y-109089707D01*
X191378210Y-109089711D01*
X191290609Y-109220814D01*
X191290602Y-109220827D01*
X191230264Y-109366498D01*
X191230261Y-109366510D01*
X191199500Y-109521153D01*
X191199500Y-109678846D01*
X191230261Y-109833489D01*
X191230264Y-109833501D01*
X191290061Y-109977864D01*
X191299500Y-110025316D01*
X191299500Y-110198506D01*
X191299500Y-110336494D01*
X191299500Y-110336496D01*
X191299499Y-110336496D01*
X191326418Y-110471822D01*
X191326421Y-110471832D01*
X191379222Y-110599307D01*
X191455887Y-110714045D01*
X191455888Y-110714046D01*
X196303181Y-115561337D01*
X196336666Y-115622660D01*
X196339500Y-115649018D01*
X196339500Y-117725500D01*
X196319815Y-117792539D01*
X196267011Y-117838294D01*
X196215502Y-117849500D01*
X196142130Y-117849500D01*
X196142123Y-117849501D01*
X196082516Y-117855908D01*
X195947671Y-117906202D01*
X195947664Y-117906206D01*
X195832455Y-117992452D01*
X195832452Y-117992455D01*
X195746206Y-118107664D01*
X195746203Y-118107669D01*
X195697189Y-118239083D01*
X195655317Y-118295016D01*
X195589853Y-118319433D01*
X195521580Y-118304581D01*
X195493326Y-118283430D01*
X195379786Y-118169890D01*
X195207820Y-118044951D01*
X195018414Y-117948444D01*
X195018413Y-117948443D01*
X195018412Y-117948443D01*
X194816243Y-117882754D01*
X194816241Y-117882753D01*
X194816240Y-117882753D01*
X194654957Y-117857208D01*
X194606287Y-117849500D01*
X194393713Y-117849500D01*
X194300037Y-117864337D01*
X194178945Y-117883516D01*
X194178686Y-117881882D01*
X194116094Y-117878730D01*
X194069288Y-117849342D01*
X186905833Y-110685887D01*
X186890353Y-110657539D01*
X186873626Y-110629875D01*
X186873703Y-110627046D01*
X186872348Y-110624564D01*
X186874653Y-110592328D01*
X186875537Y-110560031D01*
X186877130Y-110557695D01*
X186877332Y-110554872D01*
X186896700Y-110528999D01*
X186914904Y-110502308D01*
X186917791Y-110500825D01*
X186919204Y-110498939D01*
X186945106Y-110484045D01*
X186953063Y-110480670D01*
X187031785Y-110459577D01*
X187111921Y-110413309D01*
X187118927Y-110410339D01*
X187139533Y-110407949D01*
X187167335Y-110400500D01*
X187178844Y-110400500D01*
X187178845Y-110400499D01*
X187333497Y-110369737D01*
X187479179Y-110309394D01*
X187610289Y-110221789D01*
X187721789Y-110110289D01*
X187809394Y-109979179D01*
X187869737Y-109833497D01*
X187899705Y-109682840D01*
X187900638Y-109678150D01*
X187933023Y-109616239D01*
X187934518Y-109614716D01*
X189512416Y-108036819D01*
X189573739Y-108003334D01*
X189600097Y-108000500D01*
X194099903Y-108000500D01*
X194166942Y-108020185D01*
X194187584Y-108036819D01*
X195365425Y-109214660D01*
X195398910Y-109275983D01*
X195399361Y-109278149D01*
X195430261Y-109433491D01*
X195430264Y-109433501D01*
X195490602Y-109579172D01*
X195490609Y-109579185D01*
X195578210Y-109710288D01*
X195578213Y-109710292D01*
X195689707Y-109821786D01*
X195689711Y-109821789D01*
X195820814Y-109909390D01*
X195820827Y-109909397D01*
X195966498Y-109969735D01*
X195966503Y-109969737D01*
X196121153Y-110000499D01*
X196121156Y-110000500D01*
X196121158Y-110000500D01*
X196278844Y-110000500D01*
X196278845Y-110000499D01*
X196433497Y-109969737D01*
X196560425Y-109917162D01*
X196579172Y-109909397D01*
X196579172Y-109909396D01*
X196579179Y-109909394D01*
X196710289Y-109821789D01*
X196821789Y-109710289D01*
X196909394Y-109579179D01*
X196969737Y-109433497D01*
X197000500Y-109278842D01*
X197000500Y-109121158D01*
X197000500Y-109121155D01*
X197000499Y-109121153D01*
X196990092Y-109068834D01*
X196969737Y-108966503D01*
X196951735Y-108923042D01*
X196909397Y-108820827D01*
X196909390Y-108820814D01*
X196821789Y-108689711D01*
X196821786Y-108689707D01*
X196710292Y-108578213D01*
X196710288Y-108578210D01*
X196579185Y-108490609D01*
X196579172Y-108490602D01*
X196433501Y-108430264D01*
X196433491Y-108430261D01*
X196278149Y-108399361D01*
X196216238Y-108366976D01*
X196214660Y-108365425D01*
X194887590Y-107038355D01*
X194887588Y-107038352D01*
X194768717Y-106919481D01*
X194768716Y-106919480D01*
X194681904Y-106869360D01*
X194681904Y-106869359D01*
X194681900Y-106869358D01*
X194631785Y-106840423D01*
X194479057Y-106799499D01*
X194320943Y-106799499D01*
X194313347Y-106799499D01*
X194313331Y-106799500D01*
X189386669Y-106799500D01*
X189386653Y-106799499D01*
X189379057Y-106799499D01*
X189220943Y-106799499D01*
X189113587Y-106828265D01*
X189068210Y-106840424D01*
X189068209Y-106840425D01*
X189018096Y-106869359D01*
X189018095Y-106869360D01*
X188974689Y-106894420D01*
X188931285Y-106919479D01*
X188931282Y-106919481D01*
X187085339Y-108765425D01*
X187024016Y-108798910D01*
X187021850Y-108799361D01*
X186866508Y-108830261D01*
X186866507Y-108830262D01*
X186866506Y-108830262D01*
X186866503Y-108830263D01*
X186805003Y-108855737D01*
X186740105Y-108882618D01*
X186670635Y-108890086D01*
X186608156Y-108858810D01*
X186604972Y-108855737D01*
X186242789Y-108493554D01*
X186209304Y-108432231D01*
X186214288Y-108362539D01*
X186256160Y-108306606D01*
X186283009Y-108291316D01*
X186379179Y-108251482D01*
X186510289Y-108163877D01*
X186621789Y-108052377D01*
X186709394Y-107921267D01*
X186769737Y-107775585D01*
X186800500Y-107620930D01*
X186800500Y-107463246D01*
X186800500Y-107463243D01*
X186800499Y-107463241D01*
X186784198Y-107381290D01*
X186769737Y-107308591D01*
X186720791Y-107190423D01*
X186709397Y-107162915D01*
X186709390Y-107162902D01*
X186621398Y-107031213D01*
X186600520Y-106964535D01*
X186600500Y-106962322D01*
X186600500Y-105829765D01*
X186620185Y-105762726D01*
X186621398Y-105760874D01*
X186709390Y-105629185D01*
X186709390Y-105629184D01*
X186709394Y-105629179D01*
X186769737Y-105483497D01*
X186800500Y-105328842D01*
X186800500Y-105171158D01*
X186800500Y-105171155D01*
X186800499Y-105171153D01*
X186769738Y-105016510D01*
X186769737Y-105016503D01*
X186769735Y-105016498D01*
X186709397Y-104870827D01*
X186709390Y-104870814D01*
X186621789Y-104739711D01*
X186621786Y-104739707D01*
X186510292Y-104628213D01*
X186510288Y-104628210D01*
X186379185Y-104540609D01*
X186379172Y-104540602D01*
X186233501Y-104480264D01*
X186233489Y-104480261D01*
X186078845Y-104449500D01*
X186078842Y-104449500D01*
X185921158Y-104449500D01*
X185921155Y-104449500D01*
X185766510Y-104480261D01*
X185766498Y-104480264D01*
X185620827Y-104540602D01*
X185620814Y-104540609D01*
X185489711Y-104628210D01*
X185489707Y-104628213D01*
X185378213Y-104739707D01*
X185378210Y-104739711D01*
X185290609Y-104870814D01*
X185290602Y-104870827D01*
X185230264Y-105016498D01*
X185230261Y-105016510D01*
X185199500Y-105171153D01*
X185199500Y-105328846D01*
X185230261Y-105483489D01*
X185230264Y-105483501D01*
X185290602Y-105629172D01*
X185290609Y-105629185D01*
X185378602Y-105760874D01*
X185399480Y-105827551D01*
X185399500Y-105829765D01*
X185399500Y-106962322D01*
X185379815Y-107029361D01*
X185378602Y-107031213D01*
X185290609Y-107162902D01*
X185290602Y-107162915D01*
X185230264Y-107308586D01*
X185230261Y-107308596D01*
X185212056Y-107400119D01*
X185197273Y-107428378D01*
X185183956Y-107457355D01*
X185181192Y-107459121D01*
X185179671Y-107462030D01*
X185151949Y-107477815D01*
X185125087Y-107494988D01*
X185121282Y-107495278D01*
X185118955Y-107496604D01*
X185090140Y-107499927D01*
X185080568Y-107499903D01*
X185079057Y-107499499D01*
X184920943Y-107499499D01*
X184920939Y-107499500D01*
X180548670Y-107499500D01*
X180548654Y-107499499D01*
X180541058Y-107499499D01*
X180382943Y-107499499D01*
X180230215Y-107540423D01*
X180093284Y-107619480D01*
X180093283Y-107619481D01*
X180005398Y-107707366D01*
X179944074Y-107740850D01*
X179874383Y-107735866D01*
X179848826Y-107722786D01*
X179735920Y-107647344D01*
X179735907Y-107647337D01*
X179590236Y-107586999D01*
X179590224Y-107586996D01*
X179435580Y-107556235D01*
X179435577Y-107556235D01*
X179277893Y-107556235D01*
X179277890Y-107556235D01*
X179123245Y-107586996D01*
X179123233Y-107586999D01*
X178978871Y-107646796D01*
X178931419Y-107656235D01*
X173074268Y-107656235D01*
X172965855Y-107677800D01*
X172965854Y-107677800D01*
X172938936Y-107683155D01*
X172811455Y-107735959D01*
X172696719Y-107812622D01*
X172029677Y-108479664D01*
X171989449Y-108506544D01*
X171845088Y-108566339D01*
X171845074Y-108566347D01*
X171754365Y-108626957D01*
X171687688Y-108647835D01*
X171620308Y-108629350D01*
X171573618Y-108577371D01*
X171561610Y-108518069D01*
X171562043Y-108508786D01*
X171568000Y-108478842D01*
X171568000Y-108381278D01*
X171568135Y-108378389D01*
X171569148Y-108375452D01*
X171572225Y-108352081D01*
X171584410Y-108306606D01*
X171600501Y-108246557D01*
X171600501Y-108088442D01*
X171600501Y-108080847D01*
X171600500Y-108080829D01*
X171600500Y-107670945D01*
X171600500Y-107670943D01*
X171559577Y-107518216D01*
X171549018Y-107499927D01*
X171480524Y-107381290D01*
X171480518Y-107381282D01*
X171368717Y-107269481D01*
X171368709Y-107269475D01*
X171231790Y-107190426D01*
X171231786Y-107190424D01*
X171231784Y-107190423D01*
X171079057Y-107149500D01*
X171079056Y-107149500D01*
X166724500Y-107149500D01*
X166657461Y-107129815D01*
X166611706Y-107077011D01*
X166600500Y-107025500D01*
X166600500Y-104474500D01*
X166620185Y-104407461D01*
X166672989Y-104361706D01*
X166724500Y-104350500D01*
X177170234Y-104350500D01*
X177237273Y-104370185D01*
X177239125Y-104371398D01*
X177370814Y-104459390D01*
X177370827Y-104459397D01*
X177516498Y-104519735D01*
X177516503Y-104519737D01*
X177671153Y-104550499D01*
X177671156Y-104550500D01*
X177671158Y-104550500D01*
X177828844Y-104550500D01*
X177828845Y-104550499D01*
X177983497Y-104519737D01*
X178129179Y-104459394D01*
X178260289Y-104371789D01*
X178371789Y-104260289D01*
X178459394Y-104129179D01*
X178519737Y-103983497D01*
X178550500Y-103828842D01*
X178550500Y-103671158D01*
X178550500Y-103671157D01*
X178550500Y-103671155D01*
X178550499Y-103671153D01*
X178519737Y-103516503D01*
X178463728Y-103381284D01*
X178459397Y-103370827D01*
X178459390Y-103370814D01*
X178371789Y-103239711D01*
X178371786Y-103239707D01*
X178260292Y-103128213D01*
X178260288Y-103128210D01*
X178129185Y-103040609D01*
X178129172Y-103040602D01*
X177983501Y-102980264D01*
X177983489Y-102980261D01*
X177828845Y-102949500D01*
X177828842Y-102949500D01*
X177671158Y-102949500D01*
X177671155Y-102949500D01*
X177516510Y-102980261D01*
X177516498Y-102980264D01*
X177370827Y-103040602D01*
X177370814Y-103040609D01*
X177239125Y-103128602D01*
X177172447Y-103149480D01*
X177170234Y-103149500D01*
X166170940Y-103149500D01*
X166130019Y-103160464D01*
X166130019Y-103160465D01*
X166092751Y-103170451D01*
X166018214Y-103190423D01*
X166018209Y-103190426D01*
X165881290Y-103269475D01*
X165881282Y-103269481D01*
X165519479Y-103631284D01*
X165503298Y-103659311D01*
X165496459Y-103671158D01*
X165440423Y-103768215D01*
X165399499Y-103920943D01*
X165399499Y-103920945D01*
X165399499Y-104089046D01*
X165399500Y-104089059D01*
X165399500Y-107025500D01*
X165379815Y-107092539D01*
X165327011Y-107138294D01*
X165275500Y-107149500D01*
X161699097Y-107149500D01*
X161632058Y-107129815D01*
X161586303Y-107077011D01*
X161576359Y-107007853D01*
X161605384Y-106944297D01*
X161611416Y-106937819D01*
X164720393Y-103828842D01*
X166378082Y-102171153D01*
X195949500Y-102171153D01*
X195949500Y-102328846D01*
X195980261Y-102483489D01*
X195980264Y-102483501D01*
X196040602Y-102629172D01*
X196040609Y-102629185D01*
X196128602Y-102760874D01*
X196149480Y-102827551D01*
X196149500Y-102829765D01*
X196149500Y-104920234D01*
X196129815Y-104987273D01*
X196128602Y-104989125D01*
X196040609Y-105120814D01*
X196040602Y-105120827D01*
X195980264Y-105266498D01*
X195980261Y-105266510D01*
X195949500Y-105421153D01*
X195949500Y-105578846D01*
X195980261Y-105733489D01*
X195980264Y-105733501D01*
X196040602Y-105879172D01*
X196040609Y-105879185D01*
X196128210Y-106010288D01*
X196128213Y-106010292D01*
X196239707Y-106121786D01*
X196239711Y-106121789D01*
X196370814Y-106209390D01*
X196370827Y-106209397D01*
X196516498Y-106269735D01*
X196516503Y-106269737D01*
X196671153Y-106300499D01*
X196671156Y-106300500D01*
X196671158Y-106300500D01*
X196828844Y-106300500D01*
X196828845Y-106300499D01*
X196983497Y-106269737D01*
X197129179Y-106209394D01*
X197260289Y-106121789D01*
X197371789Y-106010289D01*
X197459394Y-105879179D01*
X197519737Y-105733497D01*
X197550500Y-105578842D01*
X197550500Y-105421158D01*
X197550500Y-105421155D01*
X197550499Y-105421153D01*
X197519738Y-105266510D01*
X197519737Y-105266503D01*
X197480242Y-105171153D01*
X197459397Y-105120827D01*
X197459390Y-105120814D01*
X197371398Y-104989125D01*
X197350520Y-104922447D01*
X197350500Y-104920234D01*
X197350500Y-102829765D01*
X197370185Y-102762726D01*
X197371398Y-102760874D01*
X197459390Y-102629185D01*
X197459390Y-102629184D01*
X197459394Y-102629179D01*
X197519737Y-102483497D01*
X197550500Y-102328842D01*
X197550500Y-102171158D01*
X197550500Y-102171155D01*
X197550499Y-102171153D01*
X197519738Y-102016510D01*
X197519737Y-102016503D01*
X197519735Y-102016498D01*
X197459397Y-101870827D01*
X197459390Y-101870814D01*
X197371789Y-101739711D01*
X197371786Y-101739707D01*
X197260292Y-101628213D01*
X197260288Y-101628210D01*
X197129185Y-101540609D01*
X197129172Y-101540602D01*
X196983501Y-101480264D01*
X196983489Y-101480261D01*
X196828845Y-101449500D01*
X196828842Y-101449500D01*
X196671158Y-101449500D01*
X196671155Y-101449500D01*
X196516510Y-101480261D01*
X196516498Y-101480264D01*
X196370827Y-101540602D01*
X196370814Y-101540609D01*
X196239711Y-101628210D01*
X196239707Y-101628213D01*
X196128213Y-101739707D01*
X196128210Y-101739711D01*
X196040609Y-101870814D01*
X196040602Y-101870827D01*
X195980264Y-102016498D01*
X195980261Y-102016510D01*
X195949500Y-102171153D01*
X166378082Y-102171153D01*
X168014664Y-100534571D01*
X168075985Y-100501088D01*
X168078152Y-100500637D01*
X168078841Y-100500500D01*
X168078842Y-100500500D01*
X168233497Y-100469737D01*
X168350790Y-100421153D01*
X169999500Y-100421153D01*
X169999500Y-100578846D01*
X170030261Y-100733489D01*
X170030264Y-100733501D01*
X170090602Y-100879172D01*
X170090609Y-100879185D01*
X170178210Y-101010288D01*
X170178213Y-101010292D01*
X170289707Y-101121786D01*
X170289711Y-101121789D01*
X170420814Y-101209390D01*
X170420827Y-101209397D01*
X170566498Y-101269735D01*
X170566503Y-101269737D01*
X170721153Y-101300499D01*
X170721156Y-101300500D01*
X170721158Y-101300500D01*
X170878844Y-101300500D01*
X170878845Y-101300499D01*
X171033497Y-101269737D01*
X171179179Y-101209394D01*
X171179185Y-101209390D01*
X171310875Y-101121398D01*
X171377553Y-101100520D01*
X171379766Y-101100500D01*
X173079055Y-101100500D01*
X173079057Y-101100500D01*
X173231784Y-101059577D01*
X173368716Y-100980520D01*
X173480520Y-100868716D01*
X173559577Y-100731784D01*
X173600500Y-100579057D01*
X173600500Y-93421153D01*
X183199500Y-93421153D01*
X183199500Y-93578846D01*
X183230261Y-93733489D01*
X183230264Y-93733501D01*
X183290061Y-93877864D01*
X183299500Y-93925316D01*
X183299500Y-94612184D01*
X183290061Y-94659636D01*
X183230264Y-94803998D01*
X183230261Y-94804010D01*
X183199500Y-94958653D01*
X183199500Y-95116346D01*
X183230261Y-95270989D01*
X183230264Y-95271001D01*
X183290602Y-95416672D01*
X183290609Y-95416685D01*
X183378210Y-95547788D01*
X183378213Y-95547792D01*
X183489707Y-95659286D01*
X183489711Y-95659289D01*
X183620814Y-95746890D01*
X183620827Y-95746897D01*
X183766498Y-95807235D01*
X183766503Y-95807237D01*
X183921153Y-95837999D01*
X183921156Y-95838000D01*
X183921158Y-95838000D01*
X184078844Y-95838000D01*
X184078845Y-95837999D01*
X184233497Y-95807237D01*
X184379179Y-95746894D01*
X184510289Y-95659289D01*
X184621789Y-95547789D01*
X184709394Y-95416679D01*
X184769737Y-95270997D01*
X184800500Y-95116342D01*
X184800500Y-94958658D01*
X184800500Y-94958655D01*
X184800499Y-94958653D01*
X184769738Y-94804010D01*
X184769737Y-94804003D01*
X184709939Y-94659636D01*
X184700500Y-94612184D01*
X184700500Y-93925316D01*
X184709939Y-93877864D01*
X184738478Y-93808963D01*
X184769737Y-93733497D01*
X184800500Y-93578842D01*
X184800500Y-93421158D01*
X184800500Y-93421155D01*
X184800499Y-93421153D01*
X184769738Y-93266510D01*
X184769737Y-93266503D01*
X184756097Y-93233572D01*
X184709397Y-93120827D01*
X184709390Y-93120814D01*
X184621789Y-92989711D01*
X184621786Y-92989707D01*
X184510292Y-92878213D01*
X184510288Y-92878210D01*
X184379185Y-92790609D01*
X184379172Y-92790602D01*
X184233501Y-92730264D01*
X184233489Y-92730261D01*
X184078845Y-92699500D01*
X184078842Y-92699500D01*
X183921158Y-92699500D01*
X183921155Y-92699500D01*
X183766510Y-92730261D01*
X183766498Y-92730264D01*
X183620827Y-92790602D01*
X183620814Y-92790609D01*
X183489711Y-92878210D01*
X183489707Y-92878213D01*
X183378213Y-92989707D01*
X183378210Y-92989711D01*
X183290609Y-93120814D01*
X183290602Y-93120827D01*
X183230264Y-93266498D01*
X183230261Y-93266510D01*
X183199500Y-93421153D01*
X173600500Y-93421153D01*
X173600500Y-88474500D01*
X173620185Y-88407461D01*
X173672989Y-88361706D01*
X173724500Y-88350500D01*
X176920234Y-88350500D01*
X176987273Y-88370185D01*
X176989125Y-88371398D01*
X177120814Y-88459390D01*
X177120827Y-88459397D01*
X177266498Y-88519735D01*
X177266503Y-88519737D01*
X177421153Y-88550499D01*
X177421156Y-88550500D01*
X177421158Y-88550500D01*
X177578844Y-88550500D01*
X177578845Y-88550499D01*
X177733497Y-88519737D01*
X177879179Y-88459394D01*
X178010289Y-88371789D01*
X178121789Y-88260289D01*
X178209394Y-88129179D01*
X178269737Y-87983497D01*
X178300500Y-87828842D01*
X178300500Y-87671158D01*
X178300500Y-87671155D01*
X178300499Y-87671153D01*
X178272338Y-87529579D01*
X178269737Y-87516503D01*
X178269735Y-87516498D01*
X178209397Y-87370827D01*
X178209390Y-87370814D01*
X178121789Y-87239711D01*
X178121786Y-87239707D01*
X178010292Y-87128213D01*
X178010288Y-87128210D01*
X177879185Y-87040609D01*
X177879172Y-87040602D01*
X177733501Y-86980264D01*
X177733489Y-86980261D01*
X177578845Y-86949500D01*
X177578842Y-86949500D01*
X177421158Y-86949500D01*
X177421155Y-86949500D01*
X177266510Y-86980261D01*
X177266498Y-86980264D01*
X177120827Y-87040602D01*
X177120814Y-87040609D01*
X176989125Y-87128602D01*
X176922447Y-87149480D01*
X176920234Y-87149500D01*
X172920943Y-87149500D01*
X172768216Y-87190423D01*
X172768209Y-87190426D01*
X172631290Y-87269475D01*
X172631282Y-87269481D01*
X172519481Y-87381282D01*
X172519475Y-87381290D01*
X172440426Y-87518209D01*
X172440423Y-87518216D01*
X172399500Y-87670943D01*
X172399500Y-99775500D01*
X172379815Y-99842539D01*
X172327011Y-99888294D01*
X172275500Y-99899500D01*
X171379766Y-99899500D01*
X171312727Y-99879815D01*
X171310875Y-99878602D01*
X171179185Y-99790609D01*
X171179172Y-99790602D01*
X171033501Y-99730264D01*
X171033489Y-99730261D01*
X170878845Y-99699500D01*
X170878842Y-99699500D01*
X170721158Y-99699500D01*
X170721155Y-99699500D01*
X170566510Y-99730261D01*
X170566498Y-99730264D01*
X170420827Y-99790602D01*
X170420814Y-99790609D01*
X170289711Y-99878210D01*
X170289707Y-99878213D01*
X170178213Y-99989707D01*
X170178210Y-99989711D01*
X170090609Y-100120814D01*
X170090602Y-100120827D01*
X170030264Y-100266498D01*
X170030261Y-100266510D01*
X169999500Y-100421153D01*
X168350790Y-100421153D01*
X168379179Y-100409394D01*
X168510289Y-100321789D01*
X168621789Y-100210289D01*
X168709394Y-100079179D01*
X168769737Y-99933497D01*
X168800500Y-99778842D01*
X168800500Y-99621158D01*
X168800500Y-99621155D01*
X168800499Y-99621153D01*
X168769738Y-99466510D01*
X168769738Y-99466508D01*
X168769737Y-99466503D01*
X168769735Y-99466498D01*
X168709397Y-99320827D01*
X168709390Y-99320814D01*
X168621789Y-99189711D01*
X168621786Y-99189707D01*
X168510292Y-99078213D01*
X168510288Y-99078210D01*
X168379185Y-98990609D01*
X168379172Y-98990602D01*
X168233501Y-98930264D01*
X168233489Y-98930261D01*
X168078845Y-98899500D01*
X168078842Y-98899500D01*
X167921158Y-98899500D01*
X167921155Y-98899500D01*
X167766510Y-98930261D01*
X167766498Y-98930264D01*
X167620827Y-98990602D01*
X167620814Y-98990609D01*
X167489711Y-99078210D01*
X167489707Y-99078213D01*
X167378213Y-99189707D01*
X167378210Y-99189711D01*
X167290609Y-99320814D01*
X167290602Y-99320827D01*
X167230264Y-99466498D01*
X167230261Y-99466508D01*
X167199362Y-99621848D01*
X167166977Y-99683759D01*
X167165426Y-99685337D01*
X159031286Y-107819478D01*
X158919481Y-107931282D01*
X158919480Y-107931284D01*
X158879519Y-108000500D01*
X158869361Y-108018094D01*
X158869359Y-108018096D01*
X158840425Y-108068209D01*
X158840424Y-108068210D01*
X158840423Y-108068215D01*
X158799499Y-108220943D01*
X158799499Y-108220945D01*
X158799499Y-108389046D01*
X158799500Y-108389059D01*
X158799500Y-108962273D01*
X158799499Y-108962291D01*
X158799499Y-109127997D01*
X158799498Y-109127997D01*
X158840423Y-109280728D01*
X158854596Y-109305276D01*
X158854595Y-109305276D01*
X158854596Y-109305277D01*
X158919475Y-109417652D01*
X158919479Y-109417657D01*
X158919480Y-109417659D01*
X159031284Y-109529463D01*
X159031285Y-109529464D01*
X159383341Y-109881520D01*
X159520272Y-109960577D01*
X159673000Y-110001501D01*
X159673003Y-110001501D01*
X159838711Y-110001501D01*
X159838727Y-110001500D01*
X165692098Y-110001500D01*
X165759137Y-110021185D01*
X165804892Y-110073989D01*
X165814836Y-110143147D01*
X165813715Y-110149691D01*
X165799500Y-110221153D01*
X165799500Y-110378846D01*
X165830261Y-110533489D01*
X165830264Y-110533501D01*
X165890061Y-110677864D01*
X165899500Y-110725316D01*
X165899500Y-113738480D01*
X165879815Y-113805519D01*
X165863181Y-113826161D01*
X161849849Y-117839492D01*
X161788526Y-117872977D01*
X161742771Y-117874284D01*
X161586287Y-117849500D01*
X161373713Y-117849500D01*
X161325042Y-117857208D01*
X161163760Y-117882753D01*
X160961585Y-117948444D01*
X160772179Y-118044951D01*
X160600213Y-118169890D01*
X160449890Y-118320213D01*
X160324949Y-118492182D01*
X160320484Y-118500946D01*
X160272509Y-118551742D01*
X160204688Y-118568536D01*
X160138553Y-118545998D01*
X160099516Y-118500946D01*
X160095050Y-118492182D01*
X159970109Y-118320213D01*
X159819786Y-118169890D01*
X159647820Y-118044951D01*
X159458414Y-117948444D01*
X159458413Y-117948443D01*
X159458412Y-117948443D01*
X159256243Y-117882754D01*
X159256241Y-117882753D01*
X159256240Y-117882753D01*
X159094957Y-117857208D01*
X159046287Y-117849500D01*
X158833713Y-117849500D01*
X158677227Y-117874284D01*
X158607934Y-117865329D01*
X158570149Y-117839492D01*
X156936819Y-116206162D01*
X156903334Y-116144839D01*
X156900500Y-116118481D01*
X156900500Y-110997265D01*
X156920185Y-110930226D01*
X156921398Y-110928374D01*
X157009390Y-110796685D01*
X157009390Y-110796684D01*
X157009394Y-110796679D01*
X157069737Y-110650997D01*
X157100500Y-110496342D01*
X157100500Y-110338658D01*
X157100500Y-110338655D01*
X157100499Y-110338653D01*
X157077253Y-110221789D01*
X157069737Y-110184003D01*
X157036127Y-110102862D01*
X157028659Y-110033394D01*
X157059934Y-109970915D01*
X157103237Y-109940850D01*
X157179173Y-109909397D01*
X157179176Y-109909395D01*
X157179179Y-109909394D01*
X157310289Y-109821789D01*
X157421789Y-109710289D01*
X157509394Y-109579179D01*
X157569737Y-109433497D01*
X157600500Y-109278842D01*
X157600500Y-109121158D01*
X157600500Y-109121155D01*
X157600499Y-109121153D01*
X157590092Y-109068834D01*
X157569737Y-108966503D01*
X157551735Y-108923042D01*
X157509397Y-108820827D01*
X157509390Y-108820814D01*
X157421789Y-108689711D01*
X157421786Y-108689707D01*
X157310292Y-108578213D01*
X157310288Y-108578210D01*
X157179185Y-108490609D01*
X157179172Y-108490602D01*
X157033501Y-108430264D01*
X157033489Y-108430261D01*
X156878845Y-108399500D01*
X156878842Y-108399500D01*
X156721158Y-108399500D01*
X156721155Y-108399500D01*
X156566510Y-108430261D01*
X156566498Y-108430264D01*
X156420827Y-108490602D01*
X156420814Y-108490609D01*
X156289711Y-108578210D01*
X156289707Y-108578213D01*
X156178213Y-108689707D01*
X156178210Y-108689711D01*
X156090609Y-108820814D01*
X156090604Y-108820823D01*
X156041467Y-108939453D01*
X155997626Y-108993856D01*
X155931332Y-109015921D01*
X155926906Y-109016000D01*
X155882061Y-109016000D01*
X155746734Y-109042918D01*
X155746724Y-109042921D01*
X155619249Y-109095722D01*
X155504511Y-109172387D01*
X155054887Y-109622011D01*
X154978224Y-109736747D01*
X154925421Y-109864223D01*
X154925420Y-109864229D01*
X154921223Y-109885331D01*
X154898500Y-109999561D01*
X154898500Y-109999564D01*
X154898500Y-118330006D01*
X154898500Y-118467994D01*
X154898500Y-118467996D01*
X154898499Y-118467996D01*
X154925418Y-118603322D01*
X154925421Y-118603332D01*
X154978222Y-118730807D01*
X155054887Y-118845545D01*
X155054888Y-118845546D01*
X157579492Y-121370149D01*
X157612977Y-121431472D01*
X157614284Y-121477227D01*
X157589500Y-121633712D01*
X157589500Y-121846286D01*
X157622753Y-122056239D01*
X157688444Y-122258414D01*
X157784951Y-122447820D01*
X157909890Y-122619786D01*
X158060213Y-122770109D01*
X158232179Y-122895048D01*
X158232181Y-122895049D01*
X158232184Y-122895051D01*
X158421588Y-122991557D01*
X158623757Y-123057246D01*
X158833713Y-123090500D01*
X158833714Y-123090500D01*
X159046286Y-123090500D01*
X159046287Y-123090500D01*
X159256243Y-123057246D01*
X159458412Y-122991557D01*
X159647816Y-122895051D01*
X159728500Y-122836431D01*
X159819786Y-122770109D01*
X159819788Y-122770106D01*
X159819792Y-122770104D01*
X159970104Y-122619792D01*
X159970106Y-122619788D01*
X159970109Y-122619786D01*
X160095048Y-122447820D01*
X160095047Y-122447820D01*
X160095051Y-122447816D01*
X160099514Y-122439054D01*
X160147488Y-122388259D01*
X160215308Y-122371463D01*
X160281444Y-122393999D01*
X160320486Y-122439056D01*
X160324951Y-122447820D01*
X160449890Y-122619786D01*
X160600213Y-122770109D01*
X160772179Y-122895048D01*
X160772181Y-122895049D01*
X160772184Y-122895051D01*
X160961588Y-122991557D01*
X161163757Y-123057246D01*
X161373713Y-123090500D01*
X161373714Y-123090500D01*
X161586286Y-123090500D01*
X161586287Y-123090500D01*
X161796243Y-123057246D01*
X161998412Y-122991557D01*
X162187816Y-122895051D01*
X162268500Y-122836431D01*
X162359786Y-122770109D01*
X162359788Y-122770106D01*
X162359792Y-122770104D01*
X162510104Y-122619792D01*
X162510106Y-122619788D01*
X162510109Y-122619786D01*
X162635048Y-122447820D01*
X162635047Y-122447820D01*
X162635051Y-122447816D01*
X162639514Y-122439054D01*
X162687488Y-122388259D01*
X162755308Y-122371463D01*
X162821444Y-122393999D01*
X162860486Y-122439056D01*
X162864951Y-122447820D01*
X162989890Y-122619786D01*
X163140213Y-122770109D01*
X163312179Y-122895048D01*
X163312181Y-122895049D01*
X163312184Y-122895051D01*
X163501588Y-122991557D01*
X163703757Y-123057246D01*
X163913713Y-123090500D01*
X163913714Y-123090500D01*
X164126286Y-123090500D01*
X164126287Y-123090500D01*
X164336243Y-123057246D01*
X164538412Y-122991557D01*
X164727816Y-122895051D01*
X164808500Y-122836431D01*
X164899786Y-122770109D01*
X164899788Y-122770106D01*
X164899792Y-122770104D01*
X165050104Y-122619792D01*
X165050106Y-122619788D01*
X165050109Y-122619786D01*
X165175048Y-122447820D01*
X165175047Y-122447820D01*
X165175051Y-122447816D01*
X165179514Y-122439054D01*
X165227488Y-122388259D01*
X165295308Y-122371463D01*
X165361444Y-122393999D01*
X165400486Y-122439056D01*
X165404951Y-122447820D01*
X165529890Y-122619786D01*
X165680213Y-122770109D01*
X165852179Y-122895048D01*
X165852181Y-122895049D01*
X165852184Y-122895051D01*
X166041588Y-122991557D01*
X166243757Y-123057246D01*
X166453713Y-123090500D01*
X166453714Y-123090500D01*
X166666286Y-123090500D01*
X166666287Y-123090500D01*
X166876243Y-123057246D01*
X167078412Y-122991557D01*
X167267816Y-122895051D01*
X167348500Y-122836431D01*
X167439786Y-122770109D01*
X167439788Y-122770106D01*
X167439792Y-122770104D01*
X167590104Y-122619792D01*
X167590106Y-122619788D01*
X167590109Y-122619786D01*
X167715048Y-122447820D01*
X167715047Y-122447820D01*
X167715051Y-122447816D01*
X167719514Y-122439054D01*
X167767488Y-122388259D01*
X167835308Y-122371463D01*
X167901444Y-122393999D01*
X167940486Y-122439056D01*
X167944951Y-122447820D01*
X168069890Y-122619786D01*
X168220213Y-122770109D01*
X168392179Y-122895048D01*
X168392181Y-122895049D01*
X168392184Y-122895051D01*
X168581588Y-122991557D01*
X168783757Y-123057246D01*
X168993713Y-123090500D01*
X168993714Y-123090500D01*
X169206286Y-123090500D01*
X169206287Y-123090500D01*
X169416243Y-123057246D01*
X169618412Y-122991557D01*
X169807816Y-122895051D01*
X169888500Y-122836431D01*
X169979786Y-122770109D01*
X169979788Y-122770106D01*
X169979792Y-122770104D01*
X170130104Y-122619792D01*
X170130106Y-122619788D01*
X170130109Y-122619786D01*
X170255048Y-122447820D01*
X170255047Y-122447820D01*
X170255051Y-122447816D01*
X170259514Y-122439054D01*
X170307488Y-122388259D01*
X170375308Y-122371463D01*
X170441444Y-122393999D01*
X170480486Y-122439056D01*
X170484951Y-122447820D01*
X170609890Y-122619786D01*
X170760211Y-122770107D01*
X170831200Y-122821682D01*
X170888385Y-122863229D01*
X170931051Y-122918558D01*
X170939500Y-122963547D01*
X170939500Y-123377059D01*
X170919815Y-123444098D01*
X170903181Y-123464740D01*
X170878213Y-123489707D01*
X170878210Y-123489711D01*
X170790609Y-123620814D01*
X170790602Y-123620827D01*
X170730264Y-123766498D01*
X170730261Y-123766510D01*
X170699500Y-123921153D01*
X170699500Y-124078846D01*
X170730261Y-124233489D01*
X170730264Y-124233501D01*
X170790602Y-124379172D01*
X170790609Y-124379185D01*
X170878210Y-124510288D01*
X170878213Y-124510292D01*
X170989707Y-124621786D01*
X170989711Y-124621789D01*
X171120814Y-124709390D01*
X171120827Y-124709397D01*
X171258683Y-124766498D01*
X171266503Y-124769737D01*
X171312914Y-124778968D01*
X171350382Y-124786422D01*
X171412293Y-124818807D01*
X171446867Y-124879522D01*
X171449253Y-124915066D01*
X171449500Y-124915066D01*
X171449500Y-124918743D01*
X171449596Y-124920174D01*
X171449500Y-124921150D01*
X171449500Y-125078846D01*
X171480261Y-125233489D01*
X171480263Y-125233497D01*
X171519427Y-125328047D01*
X171526896Y-125397517D01*
X171495621Y-125459996D01*
X171435532Y-125495648D01*
X171404866Y-125499500D01*
X149374500Y-125499500D01*
X149307461Y-125479815D01*
X149261706Y-125427011D01*
X149250500Y-125375500D01*
X149250500Y-93820522D01*
X149270185Y-93753483D01*
X149322989Y-93707728D01*
X149392147Y-93697784D01*
X149455703Y-93726809D01*
X149462181Y-93732841D01*
X149588271Y-93858931D01*
X149798449Y-94011634D01*
X149945945Y-94086787D01*
X150029923Y-94129577D01*
X150029925Y-94129577D01*
X150029928Y-94129579D01*
X150277007Y-94209860D01*
X150409206Y-94230797D01*
X150533598Y-94250500D01*
X150533603Y-94250500D01*
X150793402Y-94250500D01*
X150906798Y-94232539D01*
X151049993Y-94209860D01*
X151297072Y-94129579D01*
X151528551Y-94011634D01*
X151738729Y-93858931D01*
X151922431Y-93675229D01*
X152075134Y-93465051D01*
X152193079Y-93233572D01*
X152273360Y-92986493D01*
X152296039Y-92843298D01*
X152314000Y-92729902D01*
X152314000Y-92470097D01*
X152292447Y-92334021D01*
X152273360Y-92213507D01*
X152193079Y-91966428D01*
X152193077Y-91966425D01*
X152193077Y-91966423D01*
X152150287Y-91882445D01*
X152075134Y-91734949D01*
X151922431Y-91524771D01*
X151738729Y-91341069D01*
X151528551Y-91188366D01*
X151456264Y-91151534D01*
X151297076Y-91070422D01*
X151049993Y-90990140D01*
X150793402Y-90949500D01*
X150793397Y-90949500D01*
X150533603Y-90949500D01*
X150533598Y-90949500D01*
X150277006Y-90990140D01*
X150029923Y-91070422D01*
X149798445Y-91188368D01*
X149588274Y-91341066D01*
X149588268Y-91341071D01*
X149462181Y-91467159D01*
X149400858Y-91500644D01*
X149331166Y-91495660D01*
X149275233Y-91453788D01*
X149250816Y-91388324D01*
X149250500Y-91379478D01*
X149250500Y-90570097D01*
X157413000Y-90570097D01*
X157413000Y-90829902D01*
X157453640Y-91086493D01*
X157533922Y-91333576D01*
X157595174Y-91453788D01*
X157651866Y-91565051D01*
X157804569Y-91775229D01*
X157988271Y-91958931D01*
X158198449Y-92111634D01*
X158345945Y-92186787D01*
X158429923Y-92229577D01*
X158429925Y-92229577D01*
X158429928Y-92229579D01*
X158677007Y-92309860D01*
X158809206Y-92330797D01*
X158933598Y-92350500D01*
X158933603Y-92350500D01*
X159193402Y-92350500D01*
X159306798Y-92332539D01*
X159449993Y-92309860D01*
X159697072Y-92229579D01*
X159928551Y-92111634D01*
X160138729Y-91958931D01*
X160322431Y-91775229D01*
X160475134Y-91565051D01*
X160593079Y-91333572D01*
X160673360Y-91086493D01*
X160696039Y-90943298D01*
X160714000Y-90829902D01*
X160714000Y-90570097D01*
X160692447Y-90434021D01*
X160673360Y-90313507D01*
X160593079Y-90066428D01*
X160593077Y-90066425D01*
X160593077Y-90066423D01*
X160550287Y-89982445D01*
X160475134Y-89834949D01*
X160322431Y-89624771D01*
X160138729Y-89441069D01*
X159928551Y-89288366D01*
X159856264Y-89251534D01*
X159697076Y-89170422D01*
X159449993Y-89090140D01*
X159193402Y-89049500D01*
X159193397Y-89049500D01*
X158933603Y-89049500D01*
X158933598Y-89049500D01*
X158677006Y-89090140D01*
X158429923Y-89170422D01*
X158198445Y-89288368D01*
X157988274Y-89441066D01*
X157988268Y-89441071D01*
X157804571Y-89624768D01*
X157804566Y-89624774D01*
X157651868Y-89834945D01*
X157533922Y-90066423D01*
X157453640Y-90313506D01*
X157413000Y-90570097D01*
X149250500Y-90570097D01*
X149250500Y-81170097D01*
X157413000Y-81170097D01*
X157413000Y-81429902D01*
X157453640Y-81686493D01*
X157533922Y-81933576D01*
X157615034Y-82092764D01*
X157651866Y-82165051D01*
X157804569Y-82375229D01*
X157988271Y-82558931D01*
X158198449Y-82711634D01*
X158289724Y-82758141D01*
X158429923Y-82829577D01*
X158429925Y-82829577D01*
X158429928Y-82829579D01*
X158677007Y-82909860D01*
X158809206Y-82930797D01*
X158933598Y-82950500D01*
X158933603Y-82950500D01*
X159193402Y-82950500D01*
X159306798Y-82932539D01*
X159449993Y-82909860D01*
X159697072Y-82829579D01*
X159928551Y-82711634D01*
X160002614Y-82657823D01*
X160068420Y-82634343D01*
X160136474Y-82650168D01*
X160185169Y-82700273D01*
X160199500Y-82758141D01*
X160199500Y-83821980D01*
X160179815Y-83889019D01*
X160163181Y-83909661D01*
X159679364Y-84393477D01*
X159618041Y-84426962D01*
X159553365Y-84423727D01*
X159449996Y-84390140D01*
X159193402Y-84349500D01*
X159193397Y-84349500D01*
X158933603Y-84349500D01*
X158933598Y-84349500D01*
X158677006Y-84390140D01*
X158429923Y-84470422D01*
X158198445Y-84588368D01*
X157988274Y-84741066D01*
X157988268Y-84741071D01*
X157804571Y-84924768D01*
X157804566Y-84924774D01*
X157651868Y-85134945D01*
X157533922Y-85366423D01*
X157453640Y-85613506D01*
X157413000Y-85870097D01*
X157413000Y-86129902D01*
X157453640Y-86386493D01*
X157533922Y-86633576D01*
X157615034Y-86792764D01*
X157651866Y-86865051D01*
X157804569Y-87075229D01*
X157988271Y-87258931D01*
X158198449Y-87411634D01*
X158345945Y-87486787D01*
X158429923Y-87529577D01*
X158429925Y-87529577D01*
X158429928Y-87529579D01*
X158677007Y-87609860D01*
X158809206Y-87630797D01*
X158933598Y-87650500D01*
X158933603Y-87650500D01*
X159193402Y-87650500D01*
X159306798Y-87632539D01*
X159449993Y-87609860D01*
X159697072Y-87529579D01*
X159928551Y-87411634D01*
X160138729Y-87258931D01*
X160322431Y-87075229D01*
X160475134Y-86865051D01*
X160593079Y-86633572D01*
X160673360Y-86386493D01*
X160696039Y-86243298D01*
X160714000Y-86129902D01*
X160714000Y-85870097D01*
X160691832Y-85730141D01*
X160673360Y-85613507D01*
X160639770Y-85510131D01*
X160637776Y-85440292D01*
X160670019Y-85384136D01*
X161444114Y-84610043D01*
X161520775Y-84495311D01*
X161573580Y-84367829D01*
X161576814Y-84351565D01*
X161609199Y-84289656D01*
X161669914Y-84255081D01*
X161739684Y-84258820D01*
X161745866Y-84261189D01*
X161766503Y-84269737D01*
X161921153Y-84300499D01*
X161921156Y-84300500D01*
X161921158Y-84300500D01*
X162078844Y-84300500D01*
X162078845Y-84300499D01*
X162233497Y-84269737D01*
X162323413Y-84232493D01*
X162377864Y-84209939D01*
X162389381Y-84207648D01*
X177499500Y-84207648D01*
X177499500Y-84412351D01*
X177531522Y-84614534D01*
X177594781Y-84809223D01*
X177687715Y-84991613D01*
X177808028Y-85157213D01*
X177952786Y-85301971D01*
X178065876Y-85384134D01*
X178118390Y-85422287D01*
X178234607Y-85481503D01*
X178300776Y-85515218D01*
X178300778Y-85515218D01*
X178300781Y-85515220D01*
X178405137Y-85549127D01*
X178495465Y-85578477D01*
X178596557Y-85594488D01*
X178697648Y-85610500D01*
X178697649Y-85610500D01*
X178902351Y-85610500D01*
X178902352Y-85610500D01*
X179104534Y-85578477D01*
X179299219Y-85515220D01*
X179481610Y-85422287D01*
X179574590Y-85354732D01*
X179647213Y-85301971D01*
X179647215Y-85301968D01*
X179647219Y-85301966D01*
X179791966Y-85157219D01*
X179791968Y-85157215D01*
X179791971Y-85157213D01*
X179844732Y-85084590D01*
X179912287Y-84991610D01*
X180005220Y-84809219D01*
X180068477Y-84614534D01*
X180100500Y-84412352D01*
X180100500Y-84207648D01*
X180086741Y-84120778D01*
X180068477Y-84005465D01*
X180030641Y-83889019D01*
X180005220Y-83810781D01*
X180005218Y-83810778D01*
X180005218Y-83810776D01*
X179950976Y-83704322D01*
X179912287Y-83628390D01*
X179904556Y-83617749D01*
X179791971Y-83462786D01*
X179647213Y-83318028D01*
X179481613Y-83197715D01*
X179481612Y-83197714D01*
X179481610Y-83197713D01*
X179424653Y-83168691D01*
X179299223Y-83104781D01*
X179104534Y-83041522D01*
X178929995Y-83013878D01*
X178902352Y-83009500D01*
X178697648Y-83009500D01*
X178673329Y-83013351D01*
X178495465Y-83041522D01*
X178300776Y-83104781D01*
X178118386Y-83197715D01*
X177952786Y-83318028D01*
X177808028Y-83462786D01*
X177687715Y-83628386D01*
X177594781Y-83810776D01*
X177531522Y-84005465D01*
X177499500Y-84207648D01*
X162389381Y-84207648D01*
X162425316Y-84200500D01*
X174068995Y-84200500D01*
X174160041Y-84182389D01*
X174204328Y-84173580D01*
X174331811Y-84120775D01*
X174331817Y-84120771D01*
X174363392Y-84099674D01*
X174408794Y-84069336D01*
X174446542Y-84044114D01*
X174544114Y-83946542D01*
X174620775Y-83831811D01*
X174673580Y-83704328D01*
X174700500Y-83568993D01*
X174700500Y-81425316D01*
X174709939Y-81377864D01*
X174769735Y-81233501D01*
X174769737Y-81233497D01*
X174800500Y-81078842D01*
X174800500Y-80921158D01*
X174800500Y-80921155D01*
X174800499Y-80921153D01*
X174778714Y-80811634D01*
X174769737Y-80766503D01*
X174730242Y-80671153D01*
X199699500Y-80671153D01*
X199699500Y-80828846D01*
X199730261Y-80983489D01*
X199730264Y-80983501D01*
X199790602Y-81129172D01*
X199790609Y-81129185D01*
X199878210Y-81260288D01*
X199878213Y-81260292D01*
X199989707Y-81371786D01*
X199989711Y-81371789D01*
X200120814Y-81459390D01*
X200120827Y-81459397D01*
X200266498Y-81519735D01*
X200266503Y-81519737D01*
X200421153Y-81550499D01*
X200421156Y-81550500D01*
X200421158Y-81550500D01*
X200578844Y-81550500D01*
X200578845Y-81550499D01*
X200733497Y-81519737D01*
X200808963Y-81488478D01*
X200877864Y-81459939D01*
X200925316Y-81450500D01*
X202818996Y-81450500D01*
X202910040Y-81432389D01*
X202954328Y-81423580D01*
X203064697Y-81377864D01*
X203081807Y-81370777D01*
X203081808Y-81370776D01*
X203081811Y-81370775D01*
X203196543Y-81294114D01*
X204444587Y-80046068D01*
X204484808Y-80019193D01*
X204629179Y-79959394D01*
X204760289Y-79871789D01*
X204871789Y-79760289D01*
X204959394Y-79629179D01*
X205019737Y-79483497D01*
X205050500Y-79328842D01*
X205050500Y-79171158D01*
X205050500Y-79171155D01*
X205050499Y-79171153D01*
X205019737Y-79016503D01*
X205018496Y-79013506D01*
X204959397Y-78870827D01*
X204959390Y-78870814D01*
X204871789Y-78739711D01*
X204871786Y-78739707D01*
X204760292Y-78628213D01*
X204760288Y-78628210D01*
X204629185Y-78540609D01*
X204629172Y-78540602D01*
X204483501Y-78480264D01*
X204483489Y-78480261D01*
X204328845Y-78449500D01*
X204328842Y-78449500D01*
X204171158Y-78449500D01*
X204171155Y-78449500D01*
X204016510Y-78480261D01*
X204016498Y-78480264D01*
X203870827Y-78540602D01*
X203870814Y-78540609D01*
X203739711Y-78628210D01*
X203739707Y-78628213D01*
X203628213Y-78739707D01*
X203628210Y-78739711D01*
X203540609Y-78870814D01*
X203540604Y-78870824D01*
X203480808Y-79015185D01*
X203453928Y-79055413D01*
X202496162Y-80013181D01*
X202434839Y-80046666D01*
X202408481Y-80049500D01*
X200925316Y-80049500D01*
X200877864Y-80040061D01*
X200733501Y-79980264D01*
X200733489Y-79980261D01*
X200578845Y-79949500D01*
X200578842Y-79949500D01*
X200421158Y-79949500D01*
X200421155Y-79949500D01*
X200266510Y-79980261D01*
X200266498Y-79980264D01*
X200120827Y-80040602D01*
X200120814Y-80040609D01*
X199989711Y-80128210D01*
X199989707Y-80128213D01*
X199878213Y-80239707D01*
X199878210Y-80239711D01*
X199790609Y-80370814D01*
X199790602Y-80370827D01*
X199730264Y-80516498D01*
X199730261Y-80516510D01*
X199699500Y-80671153D01*
X174730242Y-80671153D01*
X174728283Y-80666423D01*
X174709397Y-80620827D01*
X174709390Y-80620814D01*
X174621789Y-80489711D01*
X174621786Y-80489707D01*
X174510292Y-80378213D01*
X174510288Y-80378210D01*
X174379185Y-80290609D01*
X174379172Y-80290602D01*
X174233501Y-80230264D01*
X174233489Y-80230261D01*
X174078845Y-80199500D01*
X174078842Y-80199500D01*
X173921158Y-80199500D01*
X173921155Y-80199500D01*
X173766510Y-80230261D01*
X173766498Y-80230264D01*
X173620827Y-80290602D01*
X173620814Y-80290609D01*
X173489711Y-80378210D01*
X173489707Y-80378213D01*
X173378213Y-80489707D01*
X173378210Y-80489711D01*
X173290609Y-80620814D01*
X173290602Y-80620827D01*
X173230264Y-80766498D01*
X173230261Y-80766510D01*
X173199500Y-80921153D01*
X173199500Y-81078846D01*
X173230261Y-81233489D01*
X173230264Y-81233501D01*
X173290061Y-81377864D01*
X173299500Y-81425316D01*
X173299500Y-82675500D01*
X173279815Y-82742539D01*
X173227011Y-82788294D01*
X173175500Y-82799500D01*
X162425316Y-82799500D01*
X162377864Y-82790061D01*
X162233501Y-82730264D01*
X162233489Y-82730261D01*
X162078845Y-82699500D01*
X162078842Y-82699500D01*
X161921158Y-82699500D01*
X161921155Y-82699500D01*
X161766510Y-82730261D01*
X161760676Y-82732031D01*
X161759873Y-82729385D01*
X161702056Y-82735396D01*
X161639687Y-82703902D01*
X161604245Y-82643689D01*
X161600500Y-82613444D01*
X161600500Y-76631004D01*
X161573581Y-76495677D01*
X161573580Y-76495676D01*
X161573580Y-76495672D01*
X161573578Y-76495667D01*
X161520776Y-76368191D01*
X161492477Y-76325837D01*
X161492473Y-76325832D01*
X161489350Y-76321158D01*
X161444114Y-76253457D01*
X161391423Y-76200766D01*
X161387300Y-76195663D01*
X161383585Y-76186728D01*
X161369191Y-76165185D01*
X161309397Y-76020827D01*
X161309390Y-76020814D01*
X161221789Y-75889711D01*
X161221786Y-75889707D01*
X161110292Y-75778213D01*
X161110288Y-75778210D01*
X160979185Y-75690609D01*
X160979172Y-75690602D01*
X160833501Y-75630264D01*
X160833489Y-75630261D01*
X160678845Y-75599500D01*
X160678842Y-75599500D01*
X160521158Y-75599500D01*
X160521155Y-75599500D01*
X160366510Y-75630261D01*
X160366498Y-75630264D01*
X160220827Y-75690602D01*
X160220814Y-75690609D01*
X160089711Y-75778210D01*
X160089707Y-75778213D01*
X159978213Y-75889707D01*
X159978210Y-75889711D01*
X159890609Y-76020814D01*
X159890602Y-76020827D01*
X159830264Y-76166498D01*
X159830261Y-76166510D01*
X159799500Y-76321153D01*
X159799500Y-76478846D01*
X159830261Y-76633489D01*
X159830264Y-76633501D01*
X159890602Y-76779172D01*
X159890609Y-76779185D01*
X159978210Y-76910288D01*
X159978213Y-76910292D01*
X160089706Y-77021785D01*
X160089709Y-77021787D01*
X160089711Y-77021789D01*
X160144391Y-77058325D01*
X160189195Y-77111935D01*
X160199500Y-77161426D01*
X160199500Y-79841858D01*
X160179815Y-79908897D01*
X160127011Y-79954652D01*
X160057853Y-79964596D01*
X160002615Y-79942176D01*
X159928554Y-79888368D01*
X159928553Y-79888367D01*
X159928551Y-79888366D01*
X159856264Y-79851534D01*
X159697076Y-79770422D01*
X159449993Y-79690140D01*
X159193402Y-79649500D01*
X159193397Y-79649500D01*
X158933603Y-79649500D01*
X158933598Y-79649500D01*
X158677006Y-79690140D01*
X158429923Y-79770422D01*
X158198445Y-79888368D01*
X157988274Y-80041066D01*
X157988268Y-80041071D01*
X157804571Y-80224768D01*
X157804566Y-80224774D01*
X157651868Y-80434945D01*
X157533922Y-80666423D01*
X157453640Y-80913506D01*
X157413000Y-81170097D01*
X149250500Y-81170097D01*
X149250500Y-80620522D01*
X149270185Y-80553483D01*
X149322989Y-80507728D01*
X149392147Y-80497784D01*
X149455703Y-80526809D01*
X149462181Y-80532841D01*
X149588271Y-80658931D01*
X149798449Y-80811634D01*
X149945945Y-80886787D01*
X150029923Y-80929577D01*
X150029925Y-80929577D01*
X150029928Y-80929579D01*
X150277007Y-81009860D01*
X150409206Y-81030797D01*
X150533598Y-81050500D01*
X150533603Y-81050500D01*
X150793402Y-81050500D01*
X150842284Y-81042758D01*
X150933634Y-81028289D01*
X151049993Y-81009860D01*
X151297072Y-80929579D01*
X151528551Y-80811634D01*
X151738729Y-80658931D01*
X151922431Y-80475229D01*
X152075134Y-80265051D01*
X152193079Y-80033572D01*
X152273360Y-79786493D01*
X152298277Y-79629172D01*
X152314000Y-79529902D01*
X152314000Y-79270097D01*
X152279997Y-79055413D01*
X152273360Y-79013507D01*
X152193079Y-78766428D01*
X152193077Y-78766425D01*
X152193077Y-78766423D01*
X152150287Y-78682445D01*
X152075134Y-78534949D01*
X151922431Y-78324771D01*
X151738729Y-78141069D01*
X151703517Y-78115486D01*
X151528554Y-77988368D01*
X151528553Y-77988367D01*
X151528551Y-77988366D01*
X151456264Y-77951534D01*
X151297076Y-77870422D01*
X151049993Y-77790140D01*
X150793402Y-77749500D01*
X150793397Y-77749500D01*
X150533603Y-77749500D01*
X150533598Y-77749500D01*
X150277006Y-77790140D01*
X150029923Y-77870422D01*
X149798445Y-77988368D01*
X149588274Y-78141066D01*
X149588268Y-78141071D01*
X149462181Y-78267159D01*
X149400858Y-78300644D01*
X149331166Y-78295660D01*
X149275233Y-78253788D01*
X149250816Y-78188324D01*
X149250500Y-78179478D01*
X149250500Y-75138646D01*
X164958478Y-75138646D01*
X164958478Y-75296339D01*
X164989239Y-75450982D01*
X164989242Y-75450994D01*
X165049580Y-75596665D01*
X165049587Y-75596678D01*
X165137188Y-75727781D01*
X165137191Y-75727785D01*
X165248685Y-75839279D01*
X165248689Y-75839282D01*
X165379792Y-75926883D01*
X165379805Y-75926890D01*
X165525476Y-75987228D01*
X165525481Y-75987230D01*
X165680131Y-76017992D01*
X165680134Y-76017993D01*
X165680136Y-76017993D01*
X165717396Y-76017993D01*
X165784435Y-76037678D01*
X165805076Y-76054311D01*
X166812564Y-77061800D01*
X167818490Y-78067726D01*
X167844187Y-78110583D01*
X167845947Y-78109855D01*
X167908617Y-78261157D01*
X167908624Y-78261170D01*
X167996225Y-78392273D01*
X167996228Y-78392277D01*
X168107722Y-78503771D01*
X168107726Y-78503774D01*
X168238829Y-78591375D01*
X168238842Y-78591382D01*
X168384513Y-78651720D01*
X168384518Y-78651722D01*
X168539168Y-78682484D01*
X168539171Y-78682485D01*
X168539173Y-78682485D01*
X168696859Y-78682485D01*
X168696860Y-78682484D01*
X168851512Y-78651722D01*
X168997194Y-78591379D01*
X169128304Y-78503774D01*
X169239804Y-78392274D01*
X169327409Y-78261164D01*
X169387752Y-78115482D01*
X169418515Y-77960827D01*
X169418515Y-77803143D01*
X169418515Y-77803140D01*
X169418514Y-77803138D01*
X169387752Y-77648488D01*
X169387750Y-77648483D01*
X169327412Y-77502812D01*
X169327405Y-77502799D01*
X169239804Y-77371696D01*
X169239801Y-77371692D01*
X169128307Y-77260198D01*
X169128303Y-77260195D01*
X168997200Y-77172594D01*
X168997187Y-77172587D01*
X168851516Y-77112249D01*
X168851504Y-77112246D01*
X168696860Y-77081485D01*
X168696857Y-77081485D01*
X168582083Y-77081485D01*
X168515044Y-77061800D01*
X168494402Y-77045166D01*
X166579021Y-75129785D01*
X166545536Y-75068462D01*
X166545111Y-75066424D01*
X166528715Y-74983996D01*
X166528713Y-74983991D01*
X166468375Y-74838320D01*
X166468368Y-74838307D01*
X166380767Y-74707204D01*
X166380764Y-74707200D01*
X166269270Y-74595706D01*
X166269266Y-74595703D01*
X166153227Y-74518168D01*
X166138162Y-74508102D01*
X166138150Y-74508095D01*
X165992479Y-74447757D01*
X165992467Y-74447754D01*
X165858736Y-74421153D01*
X168199500Y-74421153D01*
X168199500Y-74578846D01*
X168230261Y-74733489D01*
X168230264Y-74733501D01*
X168290602Y-74879172D01*
X168290609Y-74879185D01*
X168378210Y-75010288D01*
X168378213Y-75010292D01*
X168489707Y-75121786D01*
X168489711Y-75121789D01*
X168620814Y-75209390D01*
X168620827Y-75209397D01*
X168766498Y-75269735D01*
X168766503Y-75269737D01*
X168921153Y-75300499D01*
X168921156Y-75300500D01*
X168921158Y-75300500D01*
X169078844Y-75300500D01*
X169078845Y-75300499D01*
X169233497Y-75269737D01*
X169308963Y-75238478D01*
X169377864Y-75209939D01*
X169425316Y-75200500D01*
X171324684Y-75200500D01*
X171372136Y-75209939D01*
X171516498Y-75269735D01*
X171516503Y-75269737D01*
X171671153Y-75300499D01*
X171671156Y-75300500D01*
X171671158Y-75300500D01*
X171828844Y-75300500D01*
X171828845Y-75300499D01*
X171983497Y-75269737D01*
X172129179Y-75209394D01*
X172260289Y-75121789D01*
X172371789Y-75010289D01*
X172459394Y-74879179D01*
X172519737Y-74733497D01*
X172550500Y-74578842D01*
X172550500Y-74421158D01*
X172550500Y-74421155D01*
X172550499Y-74421153D01*
X172519738Y-74266510D01*
X172519737Y-74266503D01*
X172519735Y-74266498D01*
X172459397Y-74120827D01*
X172459390Y-74120814D01*
X172371789Y-73989711D01*
X172371786Y-73989707D01*
X172260292Y-73878213D01*
X172260288Y-73878210D01*
X172129185Y-73790609D01*
X172129172Y-73790602D01*
X171983501Y-73730264D01*
X171983489Y-73730261D01*
X171828845Y-73699500D01*
X171828842Y-73699500D01*
X171671158Y-73699500D01*
X171671155Y-73699500D01*
X171516510Y-73730261D01*
X171516498Y-73730264D01*
X171372136Y-73790061D01*
X171324684Y-73799500D01*
X169425316Y-73799500D01*
X169377864Y-73790061D01*
X169233501Y-73730264D01*
X169233489Y-73730261D01*
X169078845Y-73699500D01*
X169078842Y-73699500D01*
X168921158Y-73699500D01*
X168921155Y-73699500D01*
X168766510Y-73730261D01*
X168766498Y-73730264D01*
X168620827Y-73790602D01*
X168620814Y-73790609D01*
X168489711Y-73878210D01*
X168489707Y-73878213D01*
X168378213Y-73989707D01*
X168378210Y-73989711D01*
X168290609Y-74120814D01*
X168290602Y-74120827D01*
X168230264Y-74266498D01*
X168230261Y-74266510D01*
X168199500Y-74421153D01*
X165858736Y-74421153D01*
X165837823Y-74416993D01*
X165837820Y-74416993D01*
X165680136Y-74416993D01*
X165680133Y-74416993D01*
X165525488Y-74447754D01*
X165525476Y-74447757D01*
X165379805Y-74508095D01*
X165379792Y-74508102D01*
X165248689Y-74595703D01*
X165248685Y-74595706D01*
X165137191Y-74707200D01*
X165137188Y-74707204D01*
X165049587Y-74838307D01*
X165049580Y-74838320D01*
X164989242Y-74983991D01*
X164989239Y-74984003D01*
X164958478Y-75138646D01*
X149250500Y-75138646D01*
X149250500Y-71671153D01*
X190949500Y-71671153D01*
X190949500Y-71828846D01*
X190980261Y-71983489D01*
X190980264Y-71983501D01*
X191040602Y-72129172D01*
X191040609Y-72129185D01*
X191128210Y-72260288D01*
X191128213Y-72260292D01*
X191239707Y-72371786D01*
X191239711Y-72371789D01*
X191370814Y-72459390D01*
X191370827Y-72459397D01*
X191516498Y-72519735D01*
X191516503Y-72519737D01*
X191671153Y-72550499D01*
X191671156Y-72550500D01*
X191671158Y-72550500D01*
X191828844Y-72550500D01*
X191828845Y-72550499D01*
X191983497Y-72519737D01*
X192129179Y-72459394D01*
X192260289Y-72371789D01*
X192371789Y-72260289D01*
X192459394Y-72129179D01*
X192459395Y-72129176D01*
X192459397Y-72129173D01*
X192519192Y-71984812D01*
X192546067Y-71944588D01*
X193044114Y-71446543D01*
X193120775Y-71331811D01*
X193173580Y-71204329D01*
X193183337Y-71155276D01*
X193200500Y-71068993D01*
X193200500Y-69425316D01*
X193209939Y-69377864D01*
X193269735Y-69233501D01*
X193269737Y-69233497D01*
X193300500Y-69078842D01*
X193300500Y-68921158D01*
X193300500Y-68921155D01*
X193300499Y-68921153D01*
X193269738Y-68766510D01*
X193269737Y-68766503D01*
X193269735Y-68766498D01*
X193209397Y-68620827D01*
X193209390Y-68620814D01*
X193121789Y-68489711D01*
X193121786Y-68489707D01*
X193010292Y-68378213D01*
X193010288Y-68378210D01*
X192879185Y-68290609D01*
X192879172Y-68290602D01*
X192733501Y-68230264D01*
X192733489Y-68230261D01*
X192578845Y-68199500D01*
X192578842Y-68199500D01*
X192421158Y-68199500D01*
X192421155Y-68199500D01*
X192266510Y-68230261D01*
X192266498Y-68230264D01*
X192120827Y-68290602D01*
X192120814Y-68290609D01*
X191989711Y-68378210D01*
X191989707Y-68378213D01*
X191878213Y-68489707D01*
X191878210Y-68489711D01*
X191790609Y-68620814D01*
X191790602Y-68620827D01*
X191730264Y-68766498D01*
X191730261Y-68766510D01*
X191699500Y-68921153D01*
X191699500Y-69078846D01*
X191730261Y-69233489D01*
X191730264Y-69233501D01*
X191790061Y-69377864D01*
X191799500Y-69425316D01*
X191799500Y-70658480D01*
X191779815Y-70725519D01*
X191763181Y-70746161D01*
X191555412Y-70953929D01*
X191515184Y-70980809D01*
X191370823Y-71040604D01*
X191370814Y-71040609D01*
X191239711Y-71128210D01*
X191239707Y-71128213D01*
X191128213Y-71239707D01*
X191128210Y-71239711D01*
X191040609Y-71370814D01*
X191040602Y-71370827D01*
X190980264Y-71516498D01*
X190980261Y-71516510D01*
X190949500Y-71671153D01*
X149250500Y-71671153D01*
X149250500Y-70571153D01*
X159799500Y-70571153D01*
X159799500Y-70728846D01*
X159830261Y-70883489D01*
X159830264Y-70883501D01*
X159890602Y-71029172D01*
X159890609Y-71029185D01*
X159978210Y-71160288D01*
X159978213Y-71160292D01*
X160089707Y-71271786D01*
X160089711Y-71271789D01*
X160220814Y-71359390D01*
X160220827Y-71359397D01*
X160366498Y-71419735D01*
X160366503Y-71419737D01*
X160501265Y-71446543D01*
X160521153Y-71450499D01*
X160521156Y-71450500D01*
X160521158Y-71450500D01*
X160678844Y-71450500D01*
X160678845Y-71450499D01*
X160833497Y-71419737D01*
X160951592Y-71370821D01*
X160979172Y-71359397D01*
X160979172Y-71359396D01*
X160979179Y-71359394D01*
X161110289Y-71271789D01*
X161221789Y-71160289D01*
X161309394Y-71029179D01*
X161369737Y-70883497D01*
X161400500Y-70728842D01*
X161400500Y-70571158D01*
X161400500Y-69021153D01*
X162999500Y-69021153D01*
X162999500Y-69178846D01*
X163030261Y-69333489D01*
X163030264Y-69333501D01*
X163090602Y-69479172D01*
X163090609Y-69479185D01*
X163178210Y-69610288D01*
X163178213Y-69610292D01*
X163289707Y-69721786D01*
X163289711Y-69721789D01*
X163420814Y-69809390D01*
X163420827Y-69809397D01*
X163566498Y-69869735D01*
X163566503Y-69869737D01*
X163721153Y-69900499D01*
X163721156Y-69900500D01*
X163721158Y-69900500D01*
X163878844Y-69900500D01*
X163878845Y-69900499D01*
X164033497Y-69869737D01*
X164179179Y-69809394D01*
X164310289Y-69721789D01*
X164421789Y-69610289D01*
X164509394Y-69479179D01*
X164569193Y-69334808D01*
X164596068Y-69294587D01*
X165044113Y-68846543D01*
X165068360Y-68810256D01*
X165120775Y-68731811D01*
X165153230Y-68653457D01*
X165173580Y-68604329D01*
X165183699Y-68553458D01*
X165200500Y-68468993D01*
X165200500Y-67925316D01*
X165209939Y-67877864D01*
X165269735Y-67733501D01*
X165269737Y-67733497D01*
X165300500Y-67578842D01*
X165300500Y-67421158D01*
X165300500Y-67421155D01*
X165300499Y-67421153D01*
X165269738Y-67266510D01*
X165269737Y-67266503D01*
X165209794Y-67121786D01*
X165209397Y-67120827D01*
X165209390Y-67120814D01*
X165121789Y-66989711D01*
X165121786Y-66989707D01*
X165010292Y-66878213D01*
X165010288Y-66878210D01*
X164879185Y-66790609D01*
X164879172Y-66790602D01*
X164733501Y-66730264D01*
X164733489Y-66730261D01*
X164578845Y-66699500D01*
X164578842Y-66699500D01*
X164421158Y-66699500D01*
X164421155Y-66699500D01*
X164266510Y-66730261D01*
X164266498Y-66730264D01*
X164120827Y-66790602D01*
X164120814Y-66790609D01*
X163989711Y-66878210D01*
X163989707Y-66878213D01*
X163878213Y-66989707D01*
X163878210Y-66989711D01*
X163790609Y-67120814D01*
X163790602Y-67120827D01*
X163730264Y-67266498D01*
X163730261Y-67266510D01*
X163699500Y-67421153D01*
X163699500Y-67578846D01*
X163730261Y-67733489D01*
X163730264Y-67733501D01*
X163790061Y-67877864D01*
X163791687Y-67886040D01*
X163794477Y-67890381D01*
X163799500Y-67925316D01*
X163799500Y-68058480D01*
X163779815Y-68125519D01*
X163763181Y-68146162D01*
X163605413Y-68303929D01*
X163565185Y-68330808D01*
X163420824Y-68390604D01*
X163420814Y-68390609D01*
X163289711Y-68478210D01*
X163289707Y-68478213D01*
X163178213Y-68589707D01*
X163178210Y-68589711D01*
X163090609Y-68720814D01*
X163090602Y-68720827D01*
X163030264Y-68866498D01*
X163030261Y-68866510D01*
X162999500Y-69021153D01*
X161400500Y-69021153D01*
X161400500Y-67925316D01*
X161409939Y-67877864D01*
X161469735Y-67733501D01*
X161469737Y-67733497D01*
X161500500Y-67578842D01*
X161500500Y-67421158D01*
X161500500Y-67421155D01*
X161500499Y-67421153D01*
X161469738Y-67266510D01*
X161469737Y-67266503D01*
X161409794Y-67121786D01*
X161409397Y-67120827D01*
X161409390Y-67120814D01*
X161321789Y-66989711D01*
X161321786Y-66989707D01*
X161210292Y-66878213D01*
X161210288Y-66878210D01*
X161079185Y-66790609D01*
X161079172Y-66790602D01*
X160933501Y-66730264D01*
X160933489Y-66730261D01*
X160778845Y-66699500D01*
X160778842Y-66699500D01*
X160621158Y-66699500D01*
X160621155Y-66699500D01*
X160466510Y-66730261D01*
X160466498Y-66730264D01*
X160320827Y-66790602D01*
X160320814Y-66790609D01*
X160189711Y-66878210D01*
X160189707Y-66878213D01*
X160078213Y-66989707D01*
X160078210Y-66989711D01*
X159990609Y-67120814D01*
X159990602Y-67120827D01*
X159930264Y-67266498D01*
X159930261Y-67266510D01*
X159899500Y-67421153D01*
X159899500Y-67578846D01*
X159930261Y-67733489D01*
X159930264Y-67733501D01*
X159990061Y-67877864D01*
X159999500Y-67925316D01*
X159999500Y-70070234D01*
X159979815Y-70137273D01*
X159978602Y-70139125D01*
X159890609Y-70270814D01*
X159890602Y-70270827D01*
X159830264Y-70416498D01*
X159830261Y-70416510D01*
X159799500Y-70571153D01*
X149250500Y-70571153D01*
X149250500Y-66707486D01*
X150024500Y-66707486D01*
X150024500Y-66892513D01*
X150053445Y-67075265D01*
X150110619Y-67251232D01*
X150110620Y-67251235D01*
X150194622Y-67416096D01*
X150303379Y-67565787D01*
X150434213Y-67696621D01*
X150583904Y-67805378D01*
X150664763Y-67846577D01*
X150748764Y-67889379D01*
X150748767Y-67889380D01*
X150836750Y-67917967D01*
X150924736Y-67946555D01*
X151107486Y-67975500D01*
X151107487Y-67975500D01*
X151292513Y-67975500D01*
X151292514Y-67975500D01*
X151475264Y-67946555D01*
X151651235Y-67889379D01*
X151816096Y-67805378D01*
X151965787Y-67696621D01*
X152096621Y-67565787D01*
X152205378Y-67416096D01*
X152289379Y-67251235D01*
X152346555Y-67075264D01*
X152375500Y-66892514D01*
X152375500Y-66707486D01*
X152346555Y-66524736D01*
X152312899Y-66421153D01*
X177024500Y-66421153D01*
X177024500Y-66578846D01*
X177055261Y-66733489D01*
X177055264Y-66733501D01*
X177115602Y-66879172D01*
X177115609Y-66879185D01*
X177203210Y-67010288D01*
X177203213Y-67010292D01*
X177314707Y-67121786D01*
X177314711Y-67121789D01*
X177445814Y-67209390D01*
X177445827Y-67209397D01*
X177583683Y-67266498D01*
X177591503Y-67269737D01*
X177746153Y-67300499D01*
X177746156Y-67300500D01*
X177746158Y-67300500D01*
X177903844Y-67300500D01*
X177903845Y-67300499D01*
X178058497Y-67269737D01*
X178204179Y-67209394D01*
X178335289Y-67121789D01*
X178446789Y-67010289D01*
X178534394Y-66879179D01*
X178594737Y-66733497D01*
X178625500Y-66578842D01*
X178625500Y-66421158D01*
X178625500Y-66421155D01*
X178625499Y-66421153D01*
X178594738Y-66266510D01*
X178594737Y-66266503D01*
X178560524Y-66183904D01*
X178534397Y-66120827D01*
X178534390Y-66120814D01*
X178446398Y-65989125D01*
X178425520Y-65922447D01*
X178425500Y-65920234D01*
X178425500Y-65475097D01*
X178445185Y-65408058D01*
X178461819Y-65387416D01*
X178729155Y-65120080D01*
X179014662Y-64834572D01*
X179075983Y-64801089D01*
X179078150Y-64800638D01*
X179136085Y-64789113D01*
X179233497Y-64769737D01*
X179379179Y-64709394D01*
X179510289Y-64621789D01*
X179621789Y-64510289D01*
X179709394Y-64379179D01*
X179769737Y-64233497D01*
X179800500Y-64078842D01*
X179800500Y-63921158D01*
X179800500Y-63921155D01*
X179800499Y-63921153D01*
X179769737Y-63766503D01*
X179734588Y-63681645D01*
X179709397Y-63620827D01*
X179709390Y-63620814D01*
X179621789Y-63489711D01*
X179621786Y-63489707D01*
X179510292Y-63378213D01*
X179510288Y-63378210D01*
X179379185Y-63290609D01*
X179379172Y-63290602D01*
X179233501Y-63230264D01*
X179233489Y-63230261D01*
X179078845Y-63199500D01*
X179078842Y-63199500D01*
X178921158Y-63199500D01*
X178921155Y-63199500D01*
X178766510Y-63230261D01*
X178766498Y-63230264D01*
X178620827Y-63290602D01*
X178620814Y-63290609D01*
X178489711Y-63378210D01*
X178489707Y-63378213D01*
X178378213Y-63489707D01*
X178378210Y-63489711D01*
X178290609Y-63620814D01*
X178290602Y-63620827D01*
X178230264Y-63766498D01*
X178230261Y-63766508D01*
X178199361Y-63921850D01*
X178166976Y-63983761D01*
X178165425Y-63985339D01*
X177344481Y-64806282D01*
X177344479Y-64806285D01*
X177294361Y-64893094D01*
X177294359Y-64893096D01*
X177265425Y-64943209D01*
X177265424Y-64943210D01*
X177249544Y-65002472D01*
X177224499Y-65095943D01*
X177224499Y-65095945D01*
X177224499Y-65264046D01*
X177224500Y-65264059D01*
X177224500Y-65920234D01*
X177204815Y-65987273D01*
X177203602Y-65989125D01*
X177115609Y-66120814D01*
X177115602Y-66120827D01*
X177055264Y-66266498D01*
X177055261Y-66266510D01*
X177024500Y-66421153D01*
X152312899Y-66421153D01*
X152289380Y-66348767D01*
X152289379Y-66348764D01*
X152205377Y-66183903D01*
X152205375Y-66183900D01*
X152121159Y-66067987D01*
X152097680Y-66002183D01*
X152113505Y-65934129D01*
X152147167Y-65895836D01*
X152232190Y-65832186D01*
X152318350Y-65717093D01*
X152318354Y-65717086D01*
X152368596Y-65582379D01*
X152368598Y-65582372D01*
X152374999Y-65522844D01*
X152375000Y-65522827D01*
X152375000Y-65050000D01*
X151515686Y-65050000D01*
X151520080Y-65045606D01*
X151572741Y-64954394D01*
X151600000Y-64852661D01*
X151600000Y-64747339D01*
X151572741Y-64645606D01*
X151520080Y-64554394D01*
X151515686Y-64550000D01*
X152375000Y-64550000D01*
X152375000Y-64077172D01*
X152374999Y-64077155D01*
X152368598Y-64017627D01*
X152368596Y-64017620D01*
X152318354Y-63882913D01*
X152318350Y-63882906D01*
X152232190Y-63767812D01*
X152232187Y-63767809D01*
X152117093Y-63681649D01*
X152117086Y-63681645D01*
X151982379Y-63631403D01*
X151982372Y-63631401D01*
X151922844Y-63625000D01*
X151450000Y-63625000D01*
X151450000Y-64484314D01*
X151445606Y-64479920D01*
X151354394Y-64427259D01*
X151252661Y-64400000D01*
X151147339Y-64400000D01*
X151045606Y-64427259D01*
X150954394Y-64479920D01*
X150950000Y-64484314D01*
X150950000Y-63625000D01*
X150477155Y-63625000D01*
X150417627Y-63631401D01*
X150417620Y-63631403D01*
X150282913Y-63681645D01*
X150282906Y-63681649D01*
X150167812Y-63767809D01*
X150167809Y-63767812D01*
X150081649Y-63882906D01*
X150081645Y-63882913D01*
X150031403Y-64017620D01*
X150031401Y-64017627D01*
X150025000Y-64077155D01*
X150025000Y-64550000D01*
X150884314Y-64550000D01*
X150879920Y-64554394D01*
X150827259Y-64645606D01*
X150800000Y-64747339D01*
X150800000Y-64852661D01*
X150827259Y-64954394D01*
X150879920Y-65045606D01*
X150884314Y-65050000D01*
X150025000Y-65050000D01*
X150025000Y-65522844D01*
X150031401Y-65582372D01*
X150031403Y-65582379D01*
X150081645Y-65717086D01*
X150081649Y-65717093D01*
X150167809Y-65832186D01*
X150252832Y-65895835D01*
X150294703Y-65951769D01*
X150299687Y-66021461D01*
X150278839Y-66067987D01*
X150194624Y-66183900D01*
X150110620Y-66348764D01*
X150110619Y-66348767D01*
X150053445Y-66524734D01*
X150024500Y-66707486D01*
X149250500Y-66707486D01*
X149250500Y-61921153D01*
X178199500Y-61921153D01*
X178199500Y-62078846D01*
X178230261Y-62233489D01*
X178230264Y-62233501D01*
X178290602Y-62379172D01*
X178290609Y-62379185D01*
X178378210Y-62510288D01*
X178378213Y-62510292D01*
X178489707Y-62621786D01*
X178489711Y-62621789D01*
X178620814Y-62709390D01*
X178620827Y-62709397D01*
X178766498Y-62769735D01*
X178766503Y-62769737D01*
X178921153Y-62800499D01*
X178921156Y-62800500D01*
X178921158Y-62800500D01*
X179078844Y-62800500D01*
X179078845Y-62800499D01*
X179233497Y-62769737D01*
X179379179Y-62709394D01*
X179510289Y-62621789D01*
X179621789Y-62510289D01*
X179709394Y-62379179D01*
X179769737Y-62233497D01*
X179800500Y-62078842D01*
X179800500Y-61921158D01*
X179800500Y-61921155D01*
X179800499Y-61921153D01*
X179786086Y-61848691D01*
X179792313Y-61779100D01*
X179835176Y-61723922D01*
X179901066Y-61700678D01*
X179907703Y-61700500D01*
X184068995Y-61700500D01*
X184160041Y-61682389D01*
X184204328Y-61673580D01*
X184331811Y-61620775D01*
X184446542Y-61544114D01*
X184544114Y-61446542D01*
X184620775Y-61331811D01*
X184673580Y-61204328D01*
X184700500Y-61068993D01*
X184700500Y-59925316D01*
X184709939Y-59877864D01*
X184769735Y-59733501D01*
X184769737Y-59733497D01*
X184800500Y-59578842D01*
X184800500Y-59421158D01*
X184800500Y-59421155D01*
X184800499Y-59421153D01*
X184769738Y-59266510D01*
X184769737Y-59266503D01*
X184769735Y-59266498D01*
X184709397Y-59120827D01*
X184709390Y-59120814D01*
X184621789Y-58989711D01*
X184621786Y-58989707D01*
X184510292Y-58878213D01*
X184510288Y-58878210D01*
X184379185Y-58790609D01*
X184379172Y-58790602D01*
X184233501Y-58730264D01*
X184233489Y-58730261D01*
X184078845Y-58699500D01*
X184078842Y-58699500D01*
X183921158Y-58699500D01*
X183921155Y-58699500D01*
X183766510Y-58730261D01*
X183766498Y-58730264D01*
X183620827Y-58790602D01*
X183620814Y-58790609D01*
X183489711Y-58878210D01*
X183489707Y-58878213D01*
X183378213Y-58989707D01*
X183378210Y-58989711D01*
X183290609Y-59120814D01*
X183290602Y-59120827D01*
X183230264Y-59266498D01*
X183230261Y-59266510D01*
X183199500Y-59421153D01*
X183199500Y-59578846D01*
X183230261Y-59733489D01*
X183230264Y-59733501D01*
X183290061Y-59877864D01*
X183299500Y-59925316D01*
X183299500Y-60175500D01*
X183279815Y-60242539D01*
X183227011Y-60288294D01*
X183175500Y-60299500D01*
X178931005Y-60299500D01*
X178795677Y-60326418D01*
X178795667Y-60326421D01*
X178668195Y-60379221D01*
X178668182Y-60379228D01*
X178553458Y-60455885D01*
X178553454Y-60455888D01*
X178455888Y-60553454D01*
X178455885Y-60553458D01*
X178379228Y-60668182D01*
X178379221Y-60668195D01*
X178326421Y-60795667D01*
X178326418Y-60795677D01*
X178299500Y-60931004D01*
X178299500Y-61574684D01*
X178290061Y-61622136D01*
X178230264Y-61766498D01*
X178230261Y-61766510D01*
X178199500Y-61921153D01*
X149250500Y-61921153D01*
X149250500Y-56421353D01*
X160699500Y-56421353D01*
X160699500Y-56579046D01*
X160730261Y-56733689D01*
X160730264Y-56733701D01*
X160790602Y-56879372D01*
X160790609Y-56879385D01*
X160878210Y-57010488D01*
X160878213Y-57010492D01*
X160989707Y-57121986D01*
X160989711Y-57121989D01*
X161120814Y-57209590D01*
X161120827Y-57209597D01*
X161266498Y-57269935D01*
X161266503Y-57269937D01*
X161421153Y-57300699D01*
X161421156Y-57300700D01*
X161421158Y-57300700D01*
X161578844Y-57300700D01*
X161578845Y-57300699D01*
X161733497Y-57269937D01*
X161808963Y-57238678D01*
X161877864Y-57210139D01*
X161925316Y-57200700D01*
X169468796Y-57200700D01*
X169559840Y-57182589D01*
X169604128Y-57173780D01*
X169667869Y-57147377D01*
X169731607Y-57120977D01*
X169731608Y-57120976D01*
X169731611Y-57120975D01*
X169846343Y-57044314D01*
X170194588Y-56696067D01*
X170234810Y-56669192D01*
X170289435Y-56646566D01*
X170379173Y-56609397D01*
X170379176Y-56609395D01*
X170379179Y-56609394D01*
X170510289Y-56521789D01*
X170621789Y-56410289D01*
X170709394Y-56279179D01*
X170769737Y-56133497D01*
X170800500Y-55978842D01*
X170800500Y-55821158D01*
X170800500Y-55821155D01*
X170800499Y-55821153D01*
X170795645Y-55796751D01*
X170769737Y-55666503D01*
X170765992Y-55657462D01*
X170709397Y-55520827D01*
X170709390Y-55520814D01*
X170621789Y-55389711D01*
X170621786Y-55389707D01*
X170510292Y-55278213D01*
X170510288Y-55278210D01*
X170379185Y-55190609D01*
X170379172Y-55190602D01*
X170233501Y-55130264D01*
X170233489Y-55130261D01*
X170078845Y-55099500D01*
X170078842Y-55099500D01*
X169921158Y-55099500D01*
X169921155Y-55099500D01*
X169766510Y-55130261D01*
X169766498Y-55130264D01*
X169620827Y-55190602D01*
X169620814Y-55190609D01*
X169489711Y-55278210D01*
X169489707Y-55278213D01*
X169378213Y-55389707D01*
X169378210Y-55389711D01*
X169290609Y-55520814D01*
X169290604Y-55520824D01*
X169230809Y-55665183D01*
X169226177Y-55672115D01*
X169225081Y-55677155D01*
X169203931Y-55705410D01*
X169145963Y-55763380D01*
X169084640Y-55796866D01*
X169058280Y-55799700D01*
X161925316Y-55799700D01*
X161877864Y-55790261D01*
X161733501Y-55730464D01*
X161733489Y-55730461D01*
X161578845Y-55699700D01*
X161578842Y-55699700D01*
X161421158Y-55699700D01*
X161421155Y-55699700D01*
X161266510Y-55730461D01*
X161266498Y-55730464D01*
X161120827Y-55790802D01*
X161120814Y-55790809D01*
X160989711Y-55878410D01*
X160989707Y-55878413D01*
X160878213Y-55989907D01*
X160878210Y-55989911D01*
X160790609Y-56121014D01*
X160790602Y-56121027D01*
X160730264Y-56266698D01*
X160730261Y-56266710D01*
X160699500Y-56421353D01*
X149250500Y-56421353D01*
X149250500Y-54770000D01*
X152062388Y-54770000D01*
X152865262Y-54770000D01*
X152848045Y-54779940D01*
X152792190Y-54835795D01*
X152752694Y-54904204D01*
X152732250Y-54980504D01*
X152732250Y-55059496D01*
X152752694Y-55135796D01*
X152792190Y-55204205D01*
X152848045Y-55260060D01*
X152865262Y-55270000D01*
X152062388Y-55270000D01*
X152070680Y-55311690D01*
X152070680Y-55311692D01*
X152146057Y-55493671D01*
X152146064Y-55493684D01*
X152255498Y-55657462D01*
X152255501Y-55657466D01*
X152394783Y-55796748D01*
X152394787Y-55796751D01*
X152558565Y-55906185D01*
X152558578Y-55906192D01*
X152740556Y-55981569D01*
X152740568Y-55981572D01*
X152933754Y-56019999D01*
X152933758Y-56020000D01*
X153182250Y-56020000D01*
X153182250Y-55320000D01*
X153682250Y-55320000D01*
X153682250Y-56020000D01*
X153930742Y-56020000D01*
X153930745Y-56019999D01*
X154123931Y-55981572D01*
X154123943Y-55981569D01*
X154305921Y-55906192D01*
X154305934Y-55906185D01*
X154469712Y-55796751D01*
X154469716Y-55796748D01*
X154608998Y-55657466D01*
X154609001Y-55657462D01*
X154718435Y-55493684D01*
X154718442Y-55493671D01*
X154793819Y-55311692D01*
X154793819Y-55311690D01*
X154802112Y-55270000D01*
X153999238Y-55270000D01*
X154016455Y-55260060D01*
X154072310Y-55204205D01*
X154111806Y-55135796D01*
X154132250Y-55059496D01*
X154132250Y-54980504D01*
X154111806Y-54904204D01*
X154072310Y-54835795D01*
X154016455Y-54779940D01*
X153999238Y-54770000D01*
X154802112Y-54770000D01*
X156062288Y-54770000D01*
X156865162Y-54770000D01*
X156847945Y-54779940D01*
X156792090Y-54835795D01*
X156752594Y-54904204D01*
X156732150Y-54980504D01*
X156732150Y-55059496D01*
X156752594Y-55135796D01*
X156792090Y-55204205D01*
X156847945Y-55260060D01*
X156865162Y-55270000D01*
X156062288Y-55270000D01*
X156070580Y-55311690D01*
X156070580Y-55311692D01*
X156145957Y-55493671D01*
X156145964Y-55493684D01*
X156255398Y-55657462D01*
X156255401Y-55657466D01*
X156394683Y-55796748D01*
X156394687Y-55796751D01*
X156558465Y-55906185D01*
X156558478Y-55906192D01*
X156740456Y-55981569D01*
X156740468Y-55981572D01*
X156933654Y-56019999D01*
X156933658Y-56020000D01*
X157332150Y-56020000D01*
X157332150Y-55320000D01*
X157832150Y-55320000D01*
X157832150Y-56020000D01*
X158230642Y-56020000D01*
X158230645Y-56019999D01*
X158423831Y-55981572D01*
X158423843Y-55981569D01*
X158605821Y-55906192D01*
X158605834Y-55906185D01*
X158769612Y-55796751D01*
X158769616Y-55796748D01*
X158908898Y-55657466D01*
X158908901Y-55657462D01*
X159018335Y-55493684D01*
X159018342Y-55493671D01*
X159093719Y-55311692D01*
X159093719Y-55311690D01*
X159102012Y-55270000D01*
X158299138Y-55270000D01*
X158316355Y-55260060D01*
X158372210Y-55204205D01*
X158411706Y-55135796D01*
X158432150Y-55059496D01*
X158432150Y-54980504D01*
X158411706Y-54904204D01*
X158372210Y-54835795D01*
X158316355Y-54779940D01*
X158299138Y-54770000D01*
X159102012Y-54770000D01*
X159093719Y-54728309D01*
X159093719Y-54728307D01*
X159018342Y-54546328D01*
X159018335Y-54546315D01*
X158908901Y-54382537D01*
X158908898Y-54382533D01*
X158769616Y-54243251D01*
X158769612Y-54243248D01*
X158605834Y-54133814D01*
X158605821Y-54133807D01*
X158423843Y-54058430D01*
X158423831Y-54058427D01*
X158230645Y-54020000D01*
X157832150Y-54020000D01*
X157832150Y-54720000D01*
X157332150Y-54720000D01*
X157332150Y-54020000D01*
X156933654Y-54020000D01*
X156740468Y-54058427D01*
X156740456Y-54058430D01*
X156558478Y-54133807D01*
X156558465Y-54133814D01*
X156394687Y-54243248D01*
X156394683Y-54243251D01*
X156255401Y-54382533D01*
X156255398Y-54382537D01*
X156145964Y-54546315D01*
X156145957Y-54546328D01*
X156070580Y-54728307D01*
X156070580Y-54728309D01*
X156062288Y-54770000D01*
X154802112Y-54770000D01*
X154793819Y-54728309D01*
X154793819Y-54728307D01*
X154718442Y-54546328D01*
X154718435Y-54546315D01*
X154609001Y-54382537D01*
X154608998Y-54382533D01*
X154469716Y-54243251D01*
X154469712Y-54243248D01*
X154305934Y-54133814D01*
X154305921Y-54133807D01*
X154123943Y-54058430D01*
X154123931Y-54058427D01*
X153930745Y-54020000D01*
X153682250Y-54020000D01*
X153682250Y-54720000D01*
X153182250Y-54720000D01*
X153182250Y-54020000D01*
X152933754Y-54020000D01*
X152740568Y-54058427D01*
X152740556Y-54058430D01*
X152558578Y-54133807D01*
X152558565Y-54133814D01*
X152394787Y-54243248D01*
X152394783Y-54243251D01*
X152255501Y-54382533D01*
X152255498Y-54382537D01*
X152146064Y-54546315D01*
X152146057Y-54546328D01*
X152070680Y-54728307D01*
X152070680Y-54728309D01*
X152062388Y-54770000D01*
X149250500Y-54770000D01*
X149250500Y-50021150D01*
X158999500Y-50021150D01*
X158999500Y-50178843D01*
X159030261Y-50333486D01*
X159030264Y-50333498D01*
X159079575Y-50452546D01*
X159087044Y-50522015D01*
X159079575Y-50547450D01*
X159030264Y-50666498D01*
X159030261Y-50666510D01*
X158999500Y-50821153D01*
X158999500Y-50978846D01*
X159030261Y-51133489D01*
X159030264Y-51133501D01*
X159090602Y-51279172D01*
X159090609Y-51279185D01*
X159178210Y-51410288D01*
X159178213Y-51410292D01*
X159289707Y-51521786D01*
X159289711Y-51521789D01*
X159420814Y-51609390D01*
X159420827Y-51609397D01*
X159566498Y-51669735D01*
X159566503Y-51669737D01*
X159721153Y-51700499D01*
X159721156Y-51700500D01*
X159721158Y-51700500D01*
X159878844Y-51700500D01*
X159878845Y-51700499D01*
X160033497Y-51669737D01*
X160179179Y-51609394D01*
X160179185Y-51609390D01*
X160310875Y-51521398D01*
X160377553Y-51500520D01*
X160379766Y-51500500D01*
X165013531Y-51500500D01*
X165013547Y-51500501D01*
X165021143Y-51500501D01*
X165179254Y-51500501D01*
X165179257Y-51500501D01*
X165331985Y-51459577D01*
X165382104Y-51430639D01*
X165468916Y-51380520D01*
X165521457Y-51327978D01*
X165529208Y-51322318D01*
X165553408Y-51313614D01*
X165575983Y-51301288D01*
X165578152Y-51300837D01*
X165578841Y-51300700D01*
X165578842Y-51300700D01*
X165733497Y-51269937D01*
X165879179Y-51209594D01*
X166010289Y-51121989D01*
X166121789Y-51010489D01*
X166209394Y-50879379D01*
X166269737Y-50733697D01*
X166300500Y-50579042D01*
X166300500Y-50421358D01*
X166300500Y-50421355D01*
X166300499Y-50421353D01*
X166283023Y-50333498D01*
X166269737Y-50266703D01*
X166269735Y-50266698D01*
X166209397Y-50121027D01*
X166209390Y-50121014D01*
X166121789Y-49989911D01*
X166121786Y-49989907D01*
X166010292Y-49878413D01*
X166010288Y-49878410D01*
X165879185Y-49790809D01*
X165879172Y-49790802D01*
X165733501Y-49730464D01*
X165733489Y-49730461D01*
X165578845Y-49699700D01*
X165578842Y-49699700D01*
X165421158Y-49699700D01*
X165421155Y-49699700D01*
X165266511Y-49730460D01*
X165266502Y-49730463D01*
X165198824Y-49758495D01*
X165129355Y-49765962D01*
X165066876Y-49734686D01*
X165063693Y-49731614D01*
X165010292Y-49678213D01*
X165010288Y-49678210D01*
X164879185Y-49590609D01*
X164879172Y-49590602D01*
X164733501Y-49530264D01*
X164733489Y-49530261D01*
X164578845Y-49499500D01*
X164578842Y-49499500D01*
X164421158Y-49499500D01*
X164421157Y-49499500D01*
X164415095Y-49500097D01*
X164415058Y-49499724D01*
X164399145Y-49501216D01*
X164384985Y-49501085D01*
X164379054Y-49499496D01*
X164220940Y-49499496D01*
X164220936Y-49499497D01*
X160379766Y-49499497D01*
X160312727Y-49479812D01*
X160310875Y-49478599D01*
X160179185Y-49390606D01*
X160179172Y-49390599D01*
X160033501Y-49330261D01*
X160033489Y-49330258D01*
X159878845Y-49299497D01*
X159878842Y-49299497D01*
X159721158Y-49299497D01*
X159721155Y-49299497D01*
X159566510Y-49330258D01*
X159566498Y-49330261D01*
X159420827Y-49390599D01*
X159420814Y-49390606D01*
X159289711Y-49478207D01*
X159289707Y-49478210D01*
X159178213Y-49589704D01*
X159178210Y-49589708D01*
X159090609Y-49720811D01*
X159090602Y-49720824D01*
X159030264Y-49866495D01*
X159030261Y-49866507D01*
X158999500Y-50021150D01*
X149250500Y-50021150D01*
X149250500Y-48021153D01*
X187699500Y-48021153D01*
X187699500Y-48178846D01*
X187730261Y-48333489D01*
X187730264Y-48333501D01*
X187790602Y-48479172D01*
X187790609Y-48479185D01*
X187878210Y-48610288D01*
X187878213Y-48610292D01*
X187989707Y-48721786D01*
X187989715Y-48721792D01*
X188052732Y-48763899D01*
X188097538Y-48817511D01*
X188106245Y-48886836D01*
X188105460Y-48891189D01*
X188099500Y-48921155D01*
X188099500Y-49078846D01*
X188130261Y-49233489D01*
X188130264Y-49233501D01*
X188190602Y-49379172D01*
X188190609Y-49379185D01*
X188278210Y-49510288D01*
X188278213Y-49510292D01*
X188389707Y-49621786D01*
X188389711Y-49621789D01*
X188520814Y-49709390D01*
X188520827Y-49709397D01*
X188639362Y-49758495D01*
X188666503Y-49769737D01*
X188821153Y-49800499D01*
X188821156Y-49800500D01*
X188821158Y-49800500D01*
X188978844Y-49800500D01*
X188978845Y-49800499D01*
X189133497Y-49769737D01*
X189279179Y-49709394D01*
X189325849Y-49678210D01*
X189410875Y-49621398D01*
X189477553Y-49600520D01*
X189479766Y-49600500D01*
X189920234Y-49600500D01*
X189987273Y-49620185D01*
X189989125Y-49621398D01*
X190120814Y-49709390D01*
X190120827Y-49709397D01*
X190239362Y-49758495D01*
X190266503Y-49769737D01*
X190421153Y-49800499D01*
X190421156Y-49800500D01*
X190421158Y-49800500D01*
X190578844Y-49800500D01*
X190578845Y-49800499D01*
X190733497Y-49769737D01*
X190879179Y-49709394D01*
X191010289Y-49621789D01*
X191121789Y-49510289D01*
X191209394Y-49379179D01*
X191269737Y-49233497D01*
X191300500Y-49078842D01*
X191300500Y-48924500D01*
X191320185Y-48857461D01*
X191372989Y-48811706D01*
X191424500Y-48800500D01*
X191968996Y-48800500D01*
X192060040Y-48782389D01*
X192104328Y-48773580D01*
X192168069Y-48747177D01*
X192231807Y-48720777D01*
X192231808Y-48720776D01*
X192231811Y-48720775D01*
X192346543Y-48644114D01*
X193194586Y-47796069D01*
X193234810Y-47769192D01*
X193289435Y-47746566D01*
X193379173Y-47709397D01*
X193379176Y-47709395D01*
X193379179Y-47709394D01*
X193510289Y-47621789D01*
X193621789Y-47510289D01*
X193709394Y-47379179D01*
X193769737Y-47233497D01*
X193800500Y-47078842D01*
X193800500Y-46921158D01*
X193800500Y-46921155D01*
X193800499Y-46921153D01*
X193787076Y-46853671D01*
X193769737Y-46766503D01*
X193733907Y-46680000D01*
X193709397Y-46620827D01*
X193709390Y-46620814D01*
X193621789Y-46489711D01*
X193621786Y-46489707D01*
X193510292Y-46378213D01*
X193510288Y-46378210D01*
X193379185Y-46290609D01*
X193379172Y-46290602D01*
X193233501Y-46230264D01*
X193233489Y-46230261D01*
X193078845Y-46199500D01*
X193078842Y-46199500D01*
X192921158Y-46199500D01*
X192921155Y-46199500D01*
X192766510Y-46230261D01*
X192766498Y-46230264D01*
X192620827Y-46290602D01*
X192620814Y-46290609D01*
X192489711Y-46378210D01*
X192489707Y-46378213D01*
X192378213Y-46489707D01*
X192378210Y-46489711D01*
X192290609Y-46620814D01*
X192290604Y-46620823D01*
X192230809Y-46765184D01*
X192203929Y-46805412D01*
X191646162Y-47363181D01*
X191584839Y-47396666D01*
X191558481Y-47399500D01*
X188925316Y-47399500D01*
X188877864Y-47390061D01*
X188733501Y-47330264D01*
X188733489Y-47330261D01*
X188578845Y-47299500D01*
X188578842Y-47299500D01*
X188421158Y-47299500D01*
X188421155Y-47299500D01*
X188266510Y-47330261D01*
X188266498Y-47330264D01*
X188120827Y-47390602D01*
X188120814Y-47390609D01*
X187989711Y-47478210D01*
X187989707Y-47478213D01*
X187878213Y-47589707D01*
X187878210Y-47589711D01*
X187790609Y-47720814D01*
X187790602Y-47720827D01*
X187730264Y-47866498D01*
X187730261Y-47866510D01*
X187699500Y-48021153D01*
X149250500Y-48021153D01*
X149250500Y-46130000D01*
X152062388Y-46130000D01*
X152865262Y-46130000D01*
X152848045Y-46139940D01*
X152792190Y-46195795D01*
X152752694Y-46264204D01*
X152732250Y-46340504D01*
X152732250Y-46419496D01*
X152752694Y-46495796D01*
X152792190Y-46564205D01*
X152848045Y-46620060D01*
X152865262Y-46630000D01*
X152062388Y-46630000D01*
X152070680Y-46671690D01*
X152070680Y-46671692D01*
X152146057Y-46853671D01*
X152146064Y-46853684D01*
X152255498Y-47017462D01*
X152255501Y-47017466D01*
X152394783Y-47156748D01*
X152394787Y-47156751D01*
X152558565Y-47266185D01*
X152558578Y-47266192D01*
X152740556Y-47341569D01*
X152740568Y-47341572D01*
X152933754Y-47379999D01*
X152933758Y-47380000D01*
X153182250Y-47380000D01*
X153182250Y-46680000D01*
X153682250Y-46680000D01*
X153682250Y-47380000D01*
X153930742Y-47380000D01*
X153930745Y-47379999D01*
X154123931Y-47341572D01*
X154123943Y-47341569D01*
X154305921Y-47266192D01*
X154305934Y-47266185D01*
X154469712Y-47156751D01*
X154469716Y-47156748D01*
X154608998Y-47017466D01*
X154609001Y-47017462D01*
X154718435Y-46853684D01*
X154718442Y-46853671D01*
X154793819Y-46671692D01*
X154793819Y-46671690D01*
X154802112Y-46630000D01*
X153999238Y-46630000D01*
X154016455Y-46620060D01*
X154072310Y-46564205D01*
X154111806Y-46495796D01*
X154132250Y-46419496D01*
X154132250Y-46340504D01*
X154111806Y-46264204D01*
X154072310Y-46195795D01*
X154016455Y-46139940D01*
X153999238Y-46130000D01*
X154802112Y-46130000D01*
X156062288Y-46130000D01*
X156865162Y-46130000D01*
X156847945Y-46139940D01*
X156792090Y-46195795D01*
X156752594Y-46264204D01*
X156732150Y-46340504D01*
X156732150Y-46419496D01*
X156752594Y-46495796D01*
X156792090Y-46564205D01*
X156847945Y-46620060D01*
X156865162Y-46630000D01*
X156062288Y-46630000D01*
X156070580Y-46671690D01*
X156070580Y-46671692D01*
X156145957Y-46853671D01*
X156145964Y-46853684D01*
X156255398Y-47017462D01*
X156255401Y-47017466D01*
X156394683Y-47156748D01*
X156394687Y-47156751D01*
X156558465Y-47266185D01*
X156558478Y-47266192D01*
X156740456Y-47341569D01*
X156740468Y-47341572D01*
X156933654Y-47379999D01*
X156933658Y-47380000D01*
X157332150Y-47380000D01*
X157332150Y-46680000D01*
X157832150Y-46680000D01*
X157832150Y-47380000D01*
X158230642Y-47380000D01*
X158230645Y-47379999D01*
X158423831Y-47341572D01*
X158423843Y-47341569D01*
X158605821Y-47266192D01*
X158605834Y-47266185D01*
X158769612Y-47156751D01*
X158769616Y-47156748D01*
X158908898Y-47017466D01*
X158908901Y-47017462D01*
X159018335Y-46853684D01*
X159018342Y-46853671D01*
X159093719Y-46671692D01*
X159093719Y-46671690D01*
X159102012Y-46630000D01*
X158299138Y-46630000D01*
X158316355Y-46620060D01*
X158372210Y-46564205D01*
X158411706Y-46495796D01*
X158432150Y-46419496D01*
X158432150Y-46340504D01*
X158411706Y-46264204D01*
X158372210Y-46195795D01*
X158316355Y-46139940D01*
X158299138Y-46130000D01*
X159102012Y-46130000D01*
X159093719Y-46088309D01*
X159093719Y-46088307D01*
X159018342Y-45906328D01*
X159018335Y-45906315D01*
X158908901Y-45742537D01*
X158908898Y-45742533D01*
X158769616Y-45603251D01*
X158769612Y-45603248D01*
X158605834Y-45493814D01*
X158605821Y-45493807D01*
X158423843Y-45418430D01*
X158423831Y-45418427D01*
X158230645Y-45380000D01*
X157832150Y-45380000D01*
X157832150Y-46080000D01*
X157332150Y-46080000D01*
X157332150Y-45380000D01*
X156933654Y-45380000D01*
X156740468Y-45418427D01*
X156740456Y-45418430D01*
X156558478Y-45493807D01*
X156558465Y-45493814D01*
X156394687Y-45603248D01*
X156394683Y-45603251D01*
X156255401Y-45742533D01*
X156255398Y-45742537D01*
X156145964Y-45906315D01*
X156145957Y-45906328D01*
X156070580Y-46088307D01*
X156070580Y-46088309D01*
X156062288Y-46130000D01*
X154802112Y-46130000D01*
X154793819Y-46088309D01*
X154793819Y-46088307D01*
X154718442Y-45906328D01*
X154718435Y-45906315D01*
X154609001Y-45742537D01*
X154608998Y-45742533D01*
X154469716Y-45603251D01*
X154469712Y-45603248D01*
X154305934Y-45493814D01*
X154305921Y-45493807D01*
X154123943Y-45418430D01*
X154123931Y-45418427D01*
X153930745Y-45380000D01*
X153682250Y-45380000D01*
X153682250Y-46080000D01*
X153182250Y-46080000D01*
X153182250Y-45380000D01*
X152933754Y-45380000D01*
X152740568Y-45418427D01*
X152740556Y-45418430D01*
X152558578Y-45493807D01*
X152558565Y-45493814D01*
X152394787Y-45603248D01*
X152394783Y-45603251D01*
X152255501Y-45742533D01*
X152255498Y-45742537D01*
X152146064Y-45906315D01*
X152146057Y-45906328D01*
X152070680Y-46088307D01*
X152070680Y-46088309D01*
X152062388Y-46130000D01*
X149250500Y-46130000D01*
X149250500Y-44624500D01*
X149270185Y-44557461D01*
X149322989Y-44511706D01*
X149374500Y-44500500D01*
X208125500Y-44500500D01*
X208192539Y-44520185D01*
G37*
%TD.AperFunction*%
%TA.AperFunction,Conductor*%
G36*
X170441161Y-119853447D02*
G01*
X170480204Y-119898504D01*
X170484949Y-119907817D01*
X170609890Y-120079786D01*
X170760213Y-120230109D01*
X170932182Y-120355050D01*
X170940946Y-120359516D01*
X170991742Y-120407491D01*
X171008536Y-120475312D01*
X170985998Y-120541447D01*
X170940946Y-120580484D01*
X170932182Y-120584949D01*
X170760213Y-120709890D01*
X170609890Y-120860213D01*
X170484949Y-121032182D01*
X170480484Y-121040946D01*
X170432509Y-121091742D01*
X170364688Y-121108536D01*
X170298553Y-121085998D01*
X170259516Y-121040946D01*
X170255050Y-121032182D01*
X170130109Y-120860213D01*
X169979786Y-120709890D01*
X169807817Y-120584949D01*
X169798504Y-120580204D01*
X169747707Y-120532230D01*
X169730912Y-120464409D01*
X169753449Y-120398274D01*
X169798507Y-120359232D01*
X169807558Y-120354620D01*
X169979459Y-120229727D01*
X169979464Y-120229723D01*
X170129723Y-120079464D01*
X170129727Y-120079459D01*
X170254620Y-119907558D01*
X170259232Y-119898507D01*
X170307205Y-119847709D01*
X170375025Y-119830912D01*
X170441161Y-119853447D01*
G37*
%TD.AperFunction*%
%TA.AperFunction,Conductor*%
G36*
X172981719Y-119853445D02*
G01*
X173020763Y-119898500D01*
X173025377Y-119907555D01*
X173150272Y-120079459D01*
X173150276Y-120079464D01*
X173300535Y-120229723D01*
X173300540Y-120229727D01*
X173472444Y-120354622D01*
X173481495Y-120359234D01*
X173532292Y-120407208D01*
X173549087Y-120475029D01*
X173526550Y-120541164D01*
X173481499Y-120580202D01*
X173472182Y-120584949D01*
X173300213Y-120709890D01*
X173149890Y-120860213D01*
X173024949Y-121032182D01*
X173020484Y-121040946D01*
X172972509Y-121091742D01*
X172904688Y-121108536D01*
X172838553Y-121085998D01*
X172799516Y-121040946D01*
X172795050Y-121032182D01*
X172670109Y-120860213D01*
X172519786Y-120709890D01*
X172347820Y-120584951D01*
X172347115Y-120584591D01*
X172339054Y-120580485D01*
X172288259Y-120532512D01*
X172271463Y-120464692D01*
X172293999Y-120398556D01*
X172339054Y-120359515D01*
X172347816Y-120355051D01*
X172434138Y-120292335D01*
X172519786Y-120230109D01*
X172519788Y-120230106D01*
X172519792Y-120230104D01*
X172670104Y-120079792D01*
X172670106Y-120079788D01*
X172670109Y-120079786D01*
X172795048Y-119907820D01*
X172795051Y-119907816D01*
X172799793Y-119898508D01*
X172847763Y-119847711D01*
X172915583Y-119830911D01*
X172981719Y-119853445D01*
G37*
%TD.AperFunction*%
%TA.AperFunction,Conductor*%
G36*
X170566942Y-109320185D02*
G01*
X170587584Y-109336819D01*
X174694181Y-113443416D01*
X174727666Y-113504739D01*
X174730500Y-113531097D01*
X174730500Y-117788723D01*
X174710815Y-117855762D01*
X174658011Y-117901517D01*
X174588853Y-117911461D01*
X174568183Y-117906654D01*
X174496125Y-117883241D01*
X174430000Y-117872768D01*
X174430000Y-118766988D01*
X174372993Y-118734075D01*
X174245826Y-118700000D01*
X174114174Y-118700000D01*
X173987007Y-118734075D01*
X173930000Y-118766988D01*
X173930000Y-117952019D01*
X173949685Y-117884980D01*
X173966315Y-117864341D01*
X174044114Y-117786543D01*
X174120775Y-117671811D01*
X174173580Y-117544329D01*
X174173580Y-117544325D01*
X174173582Y-117544322D01*
X174177889Y-117522665D01*
X174177889Y-117522661D01*
X174178934Y-117517409D01*
X174200500Y-117408993D01*
X174200500Y-117318469D01*
X174201253Y-117311669D01*
X174204996Y-117302713D01*
X174209939Y-117277864D01*
X174269735Y-117133501D01*
X174269737Y-117133497D01*
X174300500Y-116978842D01*
X174300500Y-116821158D01*
X174300500Y-116821155D01*
X174300499Y-116821153D01*
X174275651Y-116696235D01*
X174269737Y-116666503D01*
X174250866Y-116620943D01*
X174209397Y-116520827D01*
X174209390Y-116520814D01*
X174121789Y-116389711D01*
X174121786Y-116389707D01*
X174010292Y-116278213D01*
X174010288Y-116278210D01*
X173879185Y-116190609D01*
X173879172Y-116190602D01*
X173733501Y-116130264D01*
X173733489Y-116130261D01*
X173578845Y-116099500D01*
X173578842Y-116099500D01*
X173421158Y-116099500D01*
X173421155Y-116099500D01*
X173266510Y-116130261D01*
X173266498Y-116130264D01*
X173120827Y-116190602D01*
X173120814Y-116190609D01*
X172989711Y-116278210D01*
X172989707Y-116278213D01*
X172878213Y-116389707D01*
X172878210Y-116389711D01*
X172790609Y-116520814D01*
X172790602Y-116520827D01*
X172730264Y-116666498D01*
X172730261Y-116666510D01*
X172699500Y-116821153D01*
X172699500Y-116821158D01*
X172699500Y-116978842D01*
X172699500Y-116978844D01*
X172699499Y-116978844D01*
X172714940Y-117056464D01*
X172708713Y-117126056D01*
X172681004Y-117168337D01*
X172009849Y-117839492D01*
X171948526Y-117872977D01*
X171902771Y-117874284D01*
X171746287Y-117849500D01*
X171533713Y-117849500D01*
X171485042Y-117857208D01*
X171323760Y-117882753D01*
X171121585Y-117948444D01*
X170932179Y-118044951D01*
X170760213Y-118169890D01*
X170609890Y-118320213D01*
X170484949Y-118492182D01*
X170480202Y-118501499D01*
X170432227Y-118552293D01*
X170364405Y-118569087D01*
X170298271Y-118546548D01*
X170259234Y-118501495D01*
X170254622Y-118492444D01*
X170129727Y-118320540D01*
X170129723Y-118320535D01*
X169979464Y-118170276D01*
X169979459Y-118170272D01*
X169807557Y-118045379D01*
X169618215Y-117948903D01*
X169416124Y-117883241D01*
X169350000Y-117872768D01*
X169350000Y-118766988D01*
X169292993Y-118734075D01*
X169165826Y-118700000D01*
X169034174Y-118700000D01*
X168907007Y-118734075D01*
X168850000Y-118766988D01*
X168850000Y-117872768D01*
X168849999Y-117872768D01*
X168783875Y-117883241D01*
X168581784Y-117948903D01*
X168392442Y-118045379D01*
X168220540Y-118170272D01*
X168220535Y-118170276D01*
X168070276Y-118320535D01*
X168070272Y-118320540D01*
X167945378Y-118492443D01*
X167940762Y-118501502D01*
X167892784Y-118552295D01*
X167824963Y-118569087D01*
X167758829Y-118546546D01*
X167719794Y-118501493D01*
X167715051Y-118492184D01*
X167715049Y-118492181D01*
X167715048Y-118492179D01*
X167590109Y-118320213D01*
X167439786Y-118169890D01*
X167267820Y-118044951D01*
X167078414Y-117948444D01*
X167078413Y-117948443D01*
X167078412Y-117948443D01*
X166876243Y-117882754D01*
X166876241Y-117882753D01*
X166876240Y-117882753D01*
X166714957Y-117857208D01*
X166666287Y-117849500D01*
X166660518Y-117849500D01*
X166593479Y-117829815D01*
X166547724Y-117777011D01*
X166537780Y-117707853D01*
X166566805Y-117644297D01*
X166572837Y-117637819D01*
X168644107Y-115566549D01*
X168644113Y-115566543D01*
X168680673Y-115511828D01*
X168720775Y-115451811D01*
X168773580Y-115324328D01*
X168782389Y-115280041D01*
X168800500Y-115188995D01*
X168800500Y-109931010D01*
X168800500Y-109931007D01*
X168797745Y-109917159D01*
X168773580Y-109795672D01*
X168749173Y-109736747D01*
X168720777Y-109668192D01*
X168644112Y-109553454D01*
X168644111Y-109553453D01*
X168602839Y-109512182D01*
X168569353Y-109450859D01*
X168574337Y-109381168D01*
X168616207Y-109325234D01*
X168681672Y-109300816D01*
X168690519Y-109300500D01*
X170499903Y-109300500D01*
X170566942Y-109320185D01*
G37*
%TD.AperFunction*%
%TD*%
M02*
