%TF.GenerationSoftware,KiCad,Pcbnew,9.0.0*%
%TF.CreationDate,2025-03-23T18:55:35+02:00*%
%TF.ProjectId,EEE3088F Project,45454533-3038-4384-9620-50726f6a6563,rev?*%
%TF.SameCoordinates,Original*%
%TF.FileFunction,Legend,Top*%
%TF.FilePolarity,Positive*%
%FSLAX46Y46*%
G04 Gerber Fmt 4.6, Leading zero omitted, Abs format (unit mm)*
G04 Created by KiCad (PCBNEW 9.0.0) date 2025-03-23 18:55:35*
%MOMM*%
%LPD*%
G01*
G04 APERTURE LIST*
G04 Aperture macros list*
%AMRoundRect*
0 Rectangle with rounded corners*
0 $1 Rounding radius*
0 $2 $3 $4 $5 $6 $7 $8 $9 X,Y pos of 4 corners*
0 Add a 4 corners polygon primitive as box body*
4,1,4,$2,$3,$4,$5,$6,$7,$8,$9,$2,$3,0*
0 Add four circle primitives for the rounded corners*
1,1,$1+$1,$2,$3*
1,1,$1+$1,$4,$5*
1,1,$1+$1,$6,$7*
1,1,$1+$1,$8,$9*
0 Add four rect primitives between the rounded corners*
20,1,$1+$1,$2,$3,$4,$5,0*
20,1,$1+$1,$4,$5,$6,$7,0*
20,1,$1+$1,$6,$7,$8,$9,0*
20,1,$1+$1,$8,$9,$2,$3,0*%
G04 Aperture macros list end*
%ADD10C,0.150000*%
%ADD11C,0.120000*%
%ADD12C,0.254000*%
%ADD13RoundRect,0.249999X-0.512501X-1.425001X0.512501X-1.425001X0.512501X1.425001X-0.512501X1.425001X0*%
%ADD14RoundRect,0.075000X-0.075000X-0.300000X0.075000X-0.300000X0.075000X0.300000X-0.075000X0.300000X0*%
%ADD15RoundRect,0.062500X-0.062500X-0.312500X0.062500X-0.312500X0.062500X0.312500X-0.062500X0.312500X0*%
%ADD16O,0.950000X1.950000*%
%ADD17O,0.950000X2.150000*%
%ADD18RoundRect,0.150000X-0.587500X-0.150000X0.587500X-0.150000X0.587500X0.150000X-0.587500X0.150000X0*%
%ADD19RoundRect,0.237500X-0.250000X-0.237500X0.250000X-0.237500X0.250000X0.237500X-0.250000X0.237500X0*%
%ADD20R,0.800000X2.700000*%
%ADD21RoundRect,0.250000X-0.337500X-0.475000X0.337500X-0.475000X0.337500X0.475000X-0.337500X0.475000X0*%
%ADD22RoundRect,0.250000X-0.412500X-0.650000X0.412500X-0.650000X0.412500X0.650000X-0.412500X0.650000X0*%
%ADD23RoundRect,0.150000X-0.687500X-0.150000X0.687500X-0.150000X0.687500X0.150000X-0.687500X0.150000X0*%
%ADD24R,2.100000X3.300000*%
%ADD25RoundRect,0.150000X-0.825000X-0.150000X0.825000X-0.150000X0.825000X0.150000X-0.825000X0.150000X0*%
%ADD26R,2.410000X3.300000*%
%ADD27RoundRect,0.062500X-0.187500X-0.062500X0.187500X-0.062500X0.187500X0.062500X-0.187500X0.062500X0*%
%ADD28R,0.900000X1.600000*%
%ADD29RoundRect,0.125000X-0.537500X-0.125000X0.537500X-0.125000X0.537500X0.125000X-0.537500X0.125000X0*%
%ADD30RoundRect,0.155000X-0.212500X-0.155000X0.212500X-0.155000X0.212500X0.155000X-0.212500X0.155000X0*%
%ADD31RoundRect,0.250000X-0.400000X-0.625000X0.400000X-0.625000X0.400000X0.625000X-0.400000X0.625000X0*%
%ADD32R,1.350000X1.350000*%
%ADD33O,1.350000X1.350000*%
%ADD34C,2.300000*%
%ADD35R,2.000000X2.000000*%
%ADD36RoundRect,0.150000X-0.512500X-0.150000X0.512500X-0.150000X0.512500X0.150000X-0.512500X0.150000X0*%
%ADD37R,1.700000X1.700000*%
%ADD38O,1.700000X1.700000*%
%ADD39RoundRect,0.100000X-0.712500X-0.100000X0.712500X-0.100000X0.712500X0.100000X-0.712500X0.100000X0*%
%ADD40RoundRect,0.243750X-0.243750X-0.456250X0.243750X-0.456250X0.243750X0.456250X-0.243750X0.456250X0*%
%ADD41RoundRect,0.237500X-0.300000X-0.237500X0.300000X-0.237500X0.300000X0.237500X-0.300000X0.237500X0*%
G04 APERTURE END LIST*
D10*
X103441905Y-107759819D02*
X103441905Y-106759819D01*
X103441905Y-106759819D02*
X103680000Y-106759819D01*
X103680000Y-106759819D02*
X103822857Y-106807438D01*
X103822857Y-106807438D02*
X103918095Y-106902676D01*
X103918095Y-106902676D02*
X103965714Y-106997914D01*
X103965714Y-106997914D02*
X104013333Y-107188390D01*
X104013333Y-107188390D02*
X104013333Y-107331247D01*
X104013333Y-107331247D02*
X103965714Y-107521723D01*
X103965714Y-107521723D02*
X103918095Y-107616961D01*
X103918095Y-107616961D02*
X103822857Y-107712200D01*
X103822857Y-107712200D02*
X103680000Y-107759819D01*
X103680000Y-107759819D02*
X103441905Y-107759819D01*
X104965714Y-107759819D02*
X104394286Y-107759819D01*
X104680000Y-107759819D02*
X104680000Y-106759819D01*
X104680000Y-106759819D02*
X104584762Y-106902676D01*
X104584762Y-106902676D02*
X104489524Y-106997914D01*
X104489524Y-106997914D02*
X104394286Y-107045533D01*
X83216666Y-103779819D02*
X83216666Y-104494104D01*
X83216666Y-104494104D02*
X83169047Y-104636961D01*
X83169047Y-104636961D02*
X83073809Y-104732200D01*
X83073809Y-104732200D02*
X82930952Y-104779819D01*
X82930952Y-104779819D02*
X82835714Y-104779819D01*
X83597619Y-103779819D02*
X84216666Y-103779819D01*
X84216666Y-103779819D02*
X83883333Y-104160771D01*
X83883333Y-104160771D02*
X84026190Y-104160771D01*
X84026190Y-104160771D02*
X84121428Y-104208390D01*
X84121428Y-104208390D02*
X84169047Y-104256009D01*
X84169047Y-104256009D02*
X84216666Y-104351247D01*
X84216666Y-104351247D02*
X84216666Y-104589342D01*
X84216666Y-104589342D02*
X84169047Y-104684580D01*
X84169047Y-104684580D02*
X84121428Y-104732200D01*
X84121428Y-104732200D02*
X84026190Y-104779819D01*
X84026190Y-104779819D02*
X83740476Y-104779819D01*
X83740476Y-104779819D02*
X83645238Y-104732200D01*
X83645238Y-104732200D02*
X83597619Y-104684580D01*
X92302261Y-86825057D02*
X92207023Y-86777438D01*
X92207023Y-86777438D02*
X92111785Y-86682200D01*
X92111785Y-86682200D02*
X91968928Y-86539342D01*
X91968928Y-86539342D02*
X91873690Y-86491723D01*
X91873690Y-86491723D02*
X91778452Y-86491723D01*
X91826071Y-86729819D02*
X91730833Y-86682200D01*
X91730833Y-86682200D02*
X91635595Y-86586961D01*
X91635595Y-86586961D02*
X91587976Y-86396485D01*
X91587976Y-86396485D02*
X91587976Y-86063152D01*
X91587976Y-86063152D02*
X91635595Y-85872676D01*
X91635595Y-85872676D02*
X91730833Y-85777438D01*
X91730833Y-85777438D02*
X91826071Y-85729819D01*
X91826071Y-85729819D02*
X92016547Y-85729819D01*
X92016547Y-85729819D02*
X92111785Y-85777438D01*
X92111785Y-85777438D02*
X92207023Y-85872676D01*
X92207023Y-85872676D02*
X92254642Y-86063152D01*
X92254642Y-86063152D02*
X92254642Y-86396485D01*
X92254642Y-86396485D02*
X92207023Y-86586961D01*
X92207023Y-86586961D02*
X92111785Y-86682200D01*
X92111785Y-86682200D02*
X92016547Y-86729819D01*
X92016547Y-86729819D02*
X91826071Y-86729819D01*
X93207023Y-86729819D02*
X92635595Y-86729819D01*
X92921309Y-86729819D02*
X92921309Y-85729819D01*
X92921309Y-85729819D02*
X92826071Y-85872676D01*
X92826071Y-85872676D02*
X92730833Y-85967914D01*
X92730833Y-85967914D02*
X92635595Y-86015533D01*
X96415833Y-116514819D02*
X96082500Y-116038628D01*
X95844405Y-116514819D02*
X95844405Y-115514819D01*
X95844405Y-115514819D02*
X96225357Y-115514819D01*
X96225357Y-115514819D02*
X96320595Y-115562438D01*
X96320595Y-115562438D02*
X96368214Y-115610057D01*
X96368214Y-115610057D02*
X96415833Y-115705295D01*
X96415833Y-115705295D02*
X96415833Y-115848152D01*
X96415833Y-115848152D02*
X96368214Y-115943390D01*
X96368214Y-115943390D02*
X96320595Y-115991009D01*
X96320595Y-115991009D02*
X96225357Y-116038628D01*
X96225357Y-116038628D02*
X95844405Y-116038628D01*
X96987262Y-115943390D02*
X96892024Y-115895771D01*
X96892024Y-115895771D02*
X96844405Y-115848152D01*
X96844405Y-115848152D02*
X96796786Y-115752914D01*
X96796786Y-115752914D02*
X96796786Y-115705295D01*
X96796786Y-115705295D02*
X96844405Y-115610057D01*
X96844405Y-115610057D02*
X96892024Y-115562438D01*
X96892024Y-115562438D02*
X96987262Y-115514819D01*
X96987262Y-115514819D02*
X97177738Y-115514819D01*
X97177738Y-115514819D02*
X97272976Y-115562438D01*
X97272976Y-115562438D02*
X97320595Y-115610057D01*
X97320595Y-115610057D02*
X97368214Y-115705295D01*
X97368214Y-115705295D02*
X97368214Y-115752914D01*
X97368214Y-115752914D02*
X97320595Y-115848152D01*
X97320595Y-115848152D02*
X97272976Y-115895771D01*
X97272976Y-115895771D02*
X97177738Y-115943390D01*
X97177738Y-115943390D02*
X96987262Y-115943390D01*
X96987262Y-115943390D02*
X96892024Y-115991009D01*
X96892024Y-115991009D02*
X96844405Y-116038628D01*
X96844405Y-116038628D02*
X96796786Y-116133866D01*
X96796786Y-116133866D02*
X96796786Y-116324342D01*
X96796786Y-116324342D02*
X96844405Y-116419580D01*
X96844405Y-116419580D02*
X96892024Y-116467200D01*
X96892024Y-116467200D02*
X96987262Y-116514819D01*
X96987262Y-116514819D02*
X97177738Y-116514819D01*
X97177738Y-116514819D02*
X97272976Y-116467200D01*
X97272976Y-116467200D02*
X97320595Y-116419580D01*
X97320595Y-116419580D02*
X97368214Y-116324342D01*
X97368214Y-116324342D02*
X97368214Y-116133866D01*
X97368214Y-116133866D02*
X97320595Y-116038628D01*
X97320595Y-116038628D02*
X97272976Y-115991009D01*
X97272976Y-115991009D02*
X97177738Y-115943390D01*
X97260833Y-90984819D02*
X96784643Y-90984819D01*
X96784643Y-90984819D02*
X96784643Y-89984819D01*
X98117976Y-90984819D02*
X97546548Y-90984819D01*
X97832262Y-90984819D02*
X97832262Y-89984819D01*
X97832262Y-89984819D02*
X97737024Y-90127676D01*
X97737024Y-90127676D02*
X97641786Y-90222914D01*
X97641786Y-90222914D02*
X97546548Y-90270533D01*
X97340833Y-87879580D02*
X97293214Y-87927200D01*
X97293214Y-87927200D02*
X97150357Y-87974819D01*
X97150357Y-87974819D02*
X97055119Y-87974819D01*
X97055119Y-87974819D02*
X96912262Y-87927200D01*
X96912262Y-87927200D02*
X96817024Y-87831961D01*
X96817024Y-87831961D02*
X96769405Y-87736723D01*
X96769405Y-87736723D02*
X96721786Y-87546247D01*
X96721786Y-87546247D02*
X96721786Y-87403390D01*
X96721786Y-87403390D02*
X96769405Y-87212914D01*
X96769405Y-87212914D02*
X96817024Y-87117676D01*
X96817024Y-87117676D02*
X96912262Y-87022438D01*
X96912262Y-87022438D02*
X97055119Y-86974819D01*
X97055119Y-86974819D02*
X97150357Y-86974819D01*
X97150357Y-86974819D02*
X97293214Y-87022438D01*
X97293214Y-87022438D02*
X97340833Y-87070057D01*
X97674167Y-86974819D02*
X98293214Y-86974819D01*
X98293214Y-86974819D02*
X97959881Y-87355771D01*
X97959881Y-87355771D02*
X98102738Y-87355771D01*
X98102738Y-87355771D02*
X98197976Y-87403390D01*
X98197976Y-87403390D02*
X98245595Y-87451009D01*
X98245595Y-87451009D02*
X98293214Y-87546247D01*
X98293214Y-87546247D02*
X98293214Y-87784342D01*
X98293214Y-87784342D02*
X98245595Y-87879580D01*
X98245595Y-87879580D02*
X98197976Y-87927200D01*
X98197976Y-87927200D02*
X98102738Y-87974819D01*
X98102738Y-87974819D02*
X97817024Y-87974819D01*
X97817024Y-87974819D02*
X97721786Y-87927200D01*
X97721786Y-87927200D02*
X97674167Y-87879580D01*
X112809642Y-109729580D02*
X112762023Y-109777200D01*
X112762023Y-109777200D02*
X112619166Y-109824819D01*
X112619166Y-109824819D02*
X112523928Y-109824819D01*
X112523928Y-109824819D02*
X112381071Y-109777200D01*
X112381071Y-109777200D02*
X112285833Y-109681961D01*
X112285833Y-109681961D02*
X112238214Y-109586723D01*
X112238214Y-109586723D02*
X112190595Y-109396247D01*
X112190595Y-109396247D02*
X112190595Y-109253390D01*
X112190595Y-109253390D02*
X112238214Y-109062914D01*
X112238214Y-109062914D02*
X112285833Y-108967676D01*
X112285833Y-108967676D02*
X112381071Y-108872438D01*
X112381071Y-108872438D02*
X112523928Y-108824819D01*
X112523928Y-108824819D02*
X112619166Y-108824819D01*
X112619166Y-108824819D02*
X112762023Y-108872438D01*
X112762023Y-108872438D02*
X112809642Y-108920057D01*
X113762023Y-109824819D02*
X113190595Y-109824819D01*
X113476309Y-109824819D02*
X113476309Y-108824819D01*
X113476309Y-108824819D02*
X113381071Y-108967676D01*
X113381071Y-108967676D02*
X113285833Y-109062914D01*
X113285833Y-109062914D02*
X113190595Y-109110533D01*
X114619166Y-108824819D02*
X114428690Y-108824819D01*
X114428690Y-108824819D02*
X114333452Y-108872438D01*
X114333452Y-108872438D02*
X114285833Y-108920057D01*
X114285833Y-108920057D02*
X114190595Y-109062914D01*
X114190595Y-109062914D02*
X114142976Y-109253390D01*
X114142976Y-109253390D02*
X114142976Y-109634342D01*
X114142976Y-109634342D02*
X114190595Y-109729580D01*
X114190595Y-109729580D02*
X114238214Y-109777200D01*
X114238214Y-109777200D02*
X114333452Y-109824819D01*
X114333452Y-109824819D02*
X114523928Y-109824819D01*
X114523928Y-109824819D02*
X114619166Y-109777200D01*
X114619166Y-109777200D02*
X114666785Y-109729580D01*
X114666785Y-109729580D02*
X114714404Y-109634342D01*
X114714404Y-109634342D02*
X114714404Y-109396247D01*
X114714404Y-109396247D02*
X114666785Y-109301009D01*
X114666785Y-109301009D02*
X114619166Y-109253390D01*
X114619166Y-109253390D02*
X114523928Y-109205771D01*
X114523928Y-109205771D02*
X114333452Y-109205771D01*
X114333452Y-109205771D02*
X114238214Y-109253390D01*
X114238214Y-109253390D02*
X114190595Y-109301009D01*
X114190595Y-109301009D02*
X114142976Y-109396247D01*
X106890595Y-115829819D02*
X106890595Y-116639342D01*
X106890595Y-116639342D02*
X106938214Y-116734580D01*
X106938214Y-116734580D02*
X106985833Y-116782200D01*
X106985833Y-116782200D02*
X107081071Y-116829819D01*
X107081071Y-116829819D02*
X107271547Y-116829819D01*
X107271547Y-116829819D02*
X107366785Y-116782200D01*
X107366785Y-116782200D02*
X107414404Y-116734580D01*
X107414404Y-116734580D02*
X107462023Y-116639342D01*
X107462023Y-116639342D02*
X107462023Y-115829819D01*
X107842976Y-115829819D02*
X108462023Y-115829819D01*
X108462023Y-115829819D02*
X108128690Y-116210771D01*
X108128690Y-116210771D02*
X108271547Y-116210771D01*
X108271547Y-116210771D02*
X108366785Y-116258390D01*
X108366785Y-116258390D02*
X108414404Y-116306009D01*
X108414404Y-116306009D02*
X108462023Y-116401247D01*
X108462023Y-116401247D02*
X108462023Y-116639342D01*
X108462023Y-116639342D02*
X108414404Y-116734580D01*
X108414404Y-116734580D02*
X108366785Y-116782200D01*
X108366785Y-116782200D02*
X108271547Y-116829819D01*
X108271547Y-116829819D02*
X107985833Y-116829819D01*
X107985833Y-116829819D02*
X107890595Y-116782200D01*
X107890595Y-116782200D02*
X107842976Y-116734580D01*
X146145595Y-83029819D02*
X146145595Y-83839342D01*
X146145595Y-83839342D02*
X146193214Y-83934580D01*
X146193214Y-83934580D02*
X146240833Y-83982200D01*
X146240833Y-83982200D02*
X146336071Y-84029819D01*
X146336071Y-84029819D02*
X146526547Y-84029819D01*
X146526547Y-84029819D02*
X146621785Y-83982200D01*
X146621785Y-83982200D02*
X146669404Y-83934580D01*
X146669404Y-83934580D02*
X146717023Y-83839342D01*
X146717023Y-83839342D02*
X146717023Y-83029819D01*
X147717023Y-84029819D02*
X147145595Y-84029819D01*
X147431309Y-84029819D02*
X147431309Y-83029819D01*
X147431309Y-83029819D02*
X147336071Y-83172676D01*
X147336071Y-83172676D02*
X147240833Y-83267914D01*
X147240833Y-83267914D02*
X147145595Y-83315533D01*
X101920833Y-87504819D02*
X101587500Y-87028628D01*
X101349405Y-87504819D02*
X101349405Y-86504819D01*
X101349405Y-86504819D02*
X101730357Y-86504819D01*
X101730357Y-86504819D02*
X101825595Y-86552438D01*
X101825595Y-86552438D02*
X101873214Y-86600057D01*
X101873214Y-86600057D02*
X101920833Y-86695295D01*
X101920833Y-86695295D02*
X101920833Y-86838152D01*
X101920833Y-86838152D02*
X101873214Y-86933390D01*
X101873214Y-86933390D02*
X101825595Y-86981009D01*
X101825595Y-86981009D02*
X101730357Y-87028628D01*
X101730357Y-87028628D02*
X101349405Y-87028628D01*
X102301786Y-86600057D02*
X102349405Y-86552438D01*
X102349405Y-86552438D02*
X102444643Y-86504819D01*
X102444643Y-86504819D02*
X102682738Y-86504819D01*
X102682738Y-86504819D02*
X102777976Y-86552438D01*
X102777976Y-86552438D02*
X102825595Y-86600057D01*
X102825595Y-86600057D02*
X102873214Y-86695295D01*
X102873214Y-86695295D02*
X102873214Y-86790533D01*
X102873214Y-86790533D02*
X102825595Y-86933390D01*
X102825595Y-86933390D02*
X102254167Y-87504819D01*
X102254167Y-87504819D02*
X102873214Y-87504819D01*
X92790833Y-78509580D02*
X92743214Y-78557200D01*
X92743214Y-78557200D02*
X92600357Y-78604819D01*
X92600357Y-78604819D02*
X92505119Y-78604819D01*
X92505119Y-78604819D02*
X92362262Y-78557200D01*
X92362262Y-78557200D02*
X92267024Y-78461961D01*
X92267024Y-78461961D02*
X92219405Y-78366723D01*
X92219405Y-78366723D02*
X92171786Y-78176247D01*
X92171786Y-78176247D02*
X92171786Y-78033390D01*
X92171786Y-78033390D02*
X92219405Y-77842914D01*
X92219405Y-77842914D02*
X92267024Y-77747676D01*
X92267024Y-77747676D02*
X92362262Y-77652438D01*
X92362262Y-77652438D02*
X92505119Y-77604819D01*
X92505119Y-77604819D02*
X92600357Y-77604819D01*
X92600357Y-77604819D02*
X92743214Y-77652438D01*
X92743214Y-77652438D02*
X92790833Y-77700057D01*
X93647976Y-77938152D02*
X93647976Y-78604819D01*
X93409881Y-77557200D02*
X93171786Y-78271485D01*
X93171786Y-78271485D02*
X93790833Y-78271485D01*
X91780595Y-90359819D02*
X91780595Y-91169342D01*
X91780595Y-91169342D02*
X91828214Y-91264580D01*
X91828214Y-91264580D02*
X91875833Y-91312200D01*
X91875833Y-91312200D02*
X91971071Y-91359819D01*
X91971071Y-91359819D02*
X92161547Y-91359819D01*
X92161547Y-91359819D02*
X92256785Y-91312200D01*
X92256785Y-91312200D02*
X92304404Y-91264580D01*
X92304404Y-91264580D02*
X92352023Y-91169342D01*
X92352023Y-91169342D02*
X92352023Y-90359819D01*
X92780595Y-90455057D02*
X92828214Y-90407438D01*
X92828214Y-90407438D02*
X92923452Y-90359819D01*
X92923452Y-90359819D02*
X93161547Y-90359819D01*
X93161547Y-90359819D02*
X93256785Y-90407438D01*
X93256785Y-90407438D02*
X93304404Y-90455057D01*
X93304404Y-90455057D02*
X93352023Y-90550295D01*
X93352023Y-90550295D02*
X93352023Y-90645533D01*
X93352023Y-90645533D02*
X93304404Y-90788390D01*
X93304404Y-90788390D02*
X92732976Y-91359819D01*
X92732976Y-91359819D02*
X93352023Y-91359819D01*
X87598927Y-82009580D02*
X87551308Y-82057200D01*
X87551308Y-82057200D02*
X87408451Y-82104819D01*
X87408451Y-82104819D02*
X87313213Y-82104819D01*
X87313213Y-82104819D02*
X87170356Y-82057200D01*
X87170356Y-82057200D02*
X87075118Y-81961961D01*
X87075118Y-81961961D02*
X87027499Y-81866723D01*
X87027499Y-81866723D02*
X86979880Y-81676247D01*
X86979880Y-81676247D02*
X86979880Y-81533390D01*
X86979880Y-81533390D02*
X87027499Y-81342914D01*
X87027499Y-81342914D02*
X87075118Y-81247676D01*
X87075118Y-81247676D02*
X87170356Y-81152438D01*
X87170356Y-81152438D02*
X87313213Y-81104819D01*
X87313213Y-81104819D02*
X87408451Y-81104819D01*
X87408451Y-81104819D02*
X87551308Y-81152438D01*
X87551308Y-81152438D02*
X87598927Y-81200057D01*
X88456070Y-81438152D02*
X88456070Y-82104819D01*
X88027499Y-81438152D02*
X88027499Y-81961961D01*
X88027499Y-81961961D02*
X88075118Y-82057200D01*
X88075118Y-82057200D02*
X88170356Y-82104819D01*
X88170356Y-82104819D02*
X88313213Y-82104819D01*
X88313213Y-82104819D02*
X88408451Y-82057200D01*
X88408451Y-82057200D02*
X88456070Y-82009580D01*
X88932261Y-82104819D02*
X88932261Y-81438152D01*
X88932261Y-81628628D02*
X88979880Y-81533390D01*
X88979880Y-81533390D02*
X89027499Y-81485771D01*
X89027499Y-81485771D02*
X89122737Y-81438152D01*
X89122737Y-81438152D02*
X89217975Y-81438152D01*
X89551309Y-82104819D02*
X89551309Y-81438152D01*
X89551309Y-81628628D02*
X89598928Y-81533390D01*
X89598928Y-81533390D02*
X89646547Y-81485771D01*
X89646547Y-81485771D02*
X89741785Y-81438152D01*
X89741785Y-81438152D02*
X89837023Y-81438152D01*
X90551309Y-82057200D02*
X90456071Y-82104819D01*
X90456071Y-82104819D02*
X90265595Y-82104819D01*
X90265595Y-82104819D02*
X90170357Y-82057200D01*
X90170357Y-82057200D02*
X90122738Y-81961961D01*
X90122738Y-81961961D02*
X90122738Y-81581009D01*
X90122738Y-81581009D02*
X90170357Y-81485771D01*
X90170357Y-81485771D02*
X90265595Y-81438152D01*
X90265595Y-81438152D02*
X90456071Y-81438152D01*
X90456071Y-81438152D02*
X90551309Y-81485771D01*
X90551309Y-81485771D02*
X90598928Y-81581009D01*
X90598928Y-81581009D02*
X90598928Y-81676247D01*
X90598928Y-81676247D02*
X90122738Y-81771485D01*
X91027500Y-81438152D02*
X91027500Y-82104819D01*
X91027500Y-81533390D02*
X91075119Y-81485771D01*
X91075119Y-81485771D02*
X91170357Y-81438152D01*
X91170357Y-81438152D02*
X91313214Y-81438152D01*
X91313214Y-81438152D02*
X91408452Y-81485771D01*
X91408452Y-81485771D02*
X91456071Y-81581009D01*
X91456071Y-81581009D02*
X91456071Y-82104819D01*
X91789405Y-81438152D02*
X92170357Y-81438152D01*
X91932262Y-81104819D02*
X91932262Y-81961961D01*
X91932262Y-81961961D02*
X91979881Y-82057200D01*
X91979881Y-82057200D02*
X92075119Y-82104819D01*
X92075119Y-82104819D02*
X92170357Y-82104819D01*
X92456072Y-82057200D02*
X92598929Y-82104819D01*
X92598929Y-82104819D02*
X92837024Y-82104819D01*
X92837024Y-82104819D02*
X92932262Y-82057200D01*
X92932262Y-82057200D02*
X92979881Y-82009580D01*
X92979881Y-82009580D02*
X93027500Y-81914342D01*
X93027500Y-81914342D02*
X93027500Y-81819104D01*
X93027500Y-81819104D02*
X92979881Y-81723866D01*
X92979881Y-81723866D02*
X92932262Y-81676247D01*
X92932262Y-81676247D02*
X92837024Y-81628628D01*
X92837024Y-81628628D02*
X92646548Y-81581009D01*
X92646548Y-81581009D02*
X92551310Y-81533390D01*
X92551310Y-81533390D02*
X92503691Y-81485771D01*
X92503691Y-81485771D02*
X92456072Y-81390533D01*
X92456072Y-81390533D02*
X92456072Y-81295295D01*
X92456072Y-81295295D02*
X92503691Y-81200057D01*
X92503691Y-81200057D02*
X92551310Y-81152438D01*
X92551310Y-81152438D02*
X92646548Y-81104819D01*
X92646548Y-81104819D02*
X92884643Y-81104819D01*
X92884643Y-81104819D02*
X93027500Y-81152438D01*
X93837024Y-82057200D02*
X93741786Y-82104819D01*
X93741786Y-82104819D02*
X93551310Y-82104819D01*
X93551310Y-82104819D02*
X93456072Y-82057200D01*
X93456072Y-82057200D02*
X93408453Y-81961961D01*
X93408453Y-81961961D02*
X93408453Y-81581009D01*
X93408453Y-81581009D02*
X93456072Y-81485771D01*
X93456072Y-81485771D02*
X93551310Y-81438152D01*
X93551310Y-81438152D02*
X93741786Y-81438152D01*
X93741786Y-81438152D02*
X93837024Y-81485771D01*
X93837024Y-81485771D02*
X93884643Y-81581009D01*
X93884643Y-81581009D02*
X93884643Y-81676247D01*
X93884643Y-81676247D02*
X93408453Y-81771485D01*
X94313215Y-81438152D02*
X94313215Y-82104819D01*
X94313215Y-81533390D02*
X94360834Y-81485771D01*
X94360834Y-81485771D02*
X94456072Y-81438152D01*
X94456072Y-81438152D02*
X94598929Y-81438152D01*
X94598929Y-81438152D02*
X94694167Y-81485771D01*
X94694167Y-81485771D02*
X94741786Y-81581009D01*
X94741786Y-81581009D02*
X94741786Y-82104819D01*
X95170358Y-82057200D02*
X95265596Y-82104819D01*
X95265596Y-82104819D02*
X95456072Y-82104819D01*
X95456072Y-82104819D02*
X95551310Y-82057200D01*
X95551310Y-82057200D02*
X95598929Y-81961961D01*
X95598929Y-81961961D02*
X95598929Y-81914342D01*
X95598929Y-81914342D02*
X95551310Y-81819104D01*
X95551310Y-81819104D02*
X95456072Y-81771485D01*
X95456072Y-81771485D02*
X95313215Y-81771485D01*
X95313215Y-81771485D02*
X95217977Y-81723866D01*
X95217977Y-81723866D02*
X95170358Y-81628628D01*
X95170358Y-81628628D02*
X95170358Y-81581009D01*
X95170358Y-81581009D02*
X95217977Y-81485771D01*
X95217977Y-81485771D02*
X95313215Y-81438152D01*
X95313215Y-81438152D02*
X95456072Y-81438152D01*
X95456072Y-81438152D02*
X95551310Y-81485771D01*
X96170358Y-82104819D02*
X96075120Y-82057200D01*
X96075120Y-82057200D02*
X96027501Y-82009580D01*
X96027501Y-82009580D02*
X95979882Y-81914342D01*
X95979882Y-81914342D02*
X95979882Y-81628628D01*
X95979882Y-81628628D02*
X96027501Y-81533390D01*
X96027501Y-81533390D02*
X96075120Y-81485771D01*
X96075120Y-81485771D02*
X96170358Y-81438152D01*
X96170358Y-81438152D02*
X96313215Y-81438152D01*
X96313215Y-81438152D02*
X96408453Y-81485771D01*
X96408453Y-81485771D02*
X96456072Y-81533390D01*
X96456072Y-81533390D02*
X96503691Y-81628628D01*
X96503691Y-81628628D02*
X96503691Y-81914342D01*
X96503691Y-81914342D02*
X96456072Y-82009580D01*
X96456072Y-82009580D02*
X96408453Y-82057200D01*
X96408453Y-82057200D02*
X96313215Y-82104819D01*
X96313215Y-82104819D02*
X96170358Y-82104819D01*
X96932263Y-82104819D02*
X96932263Y-81438152D01*
X96932263Y-81628628D02*
X96979882Y-81533390D01*
X96979882Y-81533390D02*
X97027501Y-81485771D01*
X97027501Y-81485771D02*
X97122739Y-81438152D01*
X97122739Y-81438152D02*
X97217977Y-81438152D01*
X98075120Y-82104819D02*
X97503692Y-82104819D01*
X97789406Y-82104819D02*
X97789406Y-81104819D01*
X97789406Y-81104819D02*
X97694168Y-81247676D01*
X97694168Y-81247676D02*
X97598930Y-81342914D01*
X97598930Y-81342914D02*
X97503692Y-81390533D01*
X95939642Y-121534819D02*
X95606309Y-121058628D01*
X95368214Y-121534819D02*
X95368214Y-120534819D01*
X95368214Y-120534819D02*
X95749166Y-120534819D01*
X95749166Y-120534819D02*
X95844404Y-120582438D01*
X95844404Y-120582438D02*
X95892023Y-120630057D01*
X95892023Y-120630057D02*
X95939642Y-120725295D01*
X95939642Y-120725295D02*
X95939642Y-120868152D01*
X95939642Y-120868152D02*
X95892023Y-120963390D01*
X95892023Y-120963390D02*
X95844404Y-121011009D01*
X95844404Y-121011009D02*
X95749166Y-121058628D01*
X95749166Y-121058628D02*
X95368214Y-121058628D01*
X96892023Y-121534819D02*
X96320595Y-121534819D01*
X96606309Y-121534819D02*
X96606309Y-120534819D01*
X96606309Y-120534819D02*
X96511071Y-120677676D01*
X96511071Y-120677676D02*
X96415833Y-120772914D01*
X96415833Y-120772914D02*
X96320595Y-120820533D01*
X97511071Y-120534819D02*
X97606309Y-120534819D01*
X97606309Y-120534819D02*
X97701547Y-120582438D01*
X97701547Y-120582438D02*
X97749166Y-120630057D01*
X97749166Y-120630057D02*
X97796785Y-120725295D01*
X97796785Y-120725295D02*
X97844404Y-120915771D01*
X97844404Y-120915771D02*
X97844404Y-121153866D01*
X97844404Y-121153866D02*
X97796785Y-121344342D01*
X97796785Y-121344342D02*
X97749166Y-121439580D01*
X97749166Y-121439580D02*
X97701547Y-121487200D01*
X97701547Y-121487200D02*
X97606309Y-121534819D01*
X97606309Y-121534819D02*
X97511071Y-121534819D01*
X97511071Y-121534819D02*
X97415833Y-121487200D01*
X97415833Y-121487200D02*
X97368214Y-121439580D01*
X97368214Y-121439580D02*
X97320595Y-121344342D01*
X97320595Y-121344342D02*
X97272976Y-121153866D01*
X97272976Y-121153866D02*
X97272976Y-120915771D01*
X97272976Y-120915771D02*
X97320595Y-120725295D01*
X97320595Y-120725295D02*
X97368214Y-120630057D01*
X97368214Y-120630057D02*
X97415833Y-120582438D01*
X97415833Y-120582438D02*
X97511071Y-120534819D01*
X133765833Y-87349580D02*
X133718214Y-87397200D01*
X133718214Y-87397200D02*
X133575357Y-87444819D01*
X133575357Y-87444819D02*
X133480119Y-87444819D01*
X133480119Y-87444819D02*
X133337262Y-87397200D01*
X133337262Y-87397200D02*
X133242024Y-87301961D01*
X133242024Y-87301961D02*
X133194405Y-87206723D01*
X133194405Y-87206723D02*
X133146786Y-87016247D01*
X133146786Y-87016247D02*
X133146786Y-86873390D01*
X133146786Y-86873390D02*
X133194405Y-86682914D01*
X133194405Y-86682914D02*
X133242024Y-86587676D01*
X133242024Y-86587676D02*
X133337262Y-86492438D01*
X133337262Y-86492438D02*
X133480119Y-86444819D01*
X133480119Y-86444819D02*
X133575357Y-86444819D01*
X133575357Y-86444819D02*
X133718214Y-86492438D01*
X133718214Y-86492438D02*
X133765833Y-86540057D01*
X134099167Y-86444819D02*
X134765833Y-86444819D01*
X134765833Y-86444819D02*
X134337262Y-87444819D01*
X71752380Y-78717200D02*
X71895237Y-78764819D01*
X71895237Y-78764819D02*
X72133332Y-78764819D01*
X72133332Y-78764819D02*
X72228570Y-78717200D01*
X72228570Y-78717200D02*
X72276189Y-78669580D01*
X72276189Y-78669580D02*
X72323808Y-78574342D01*
X72323808Y-78574342D02*
X72323808Y-78479104D01*
X72323808Y-78479104D02*
X72276189Y-78383866D01*
X72276189Y-78383866D02*
X72228570Y-78336247D01*
X72228570Y-78336247D02*
X72133332Y-78288628D01*
X72133332Y-78288628D02*
X71942856Y-78241009D01*
X71942856Y-78241009D02*
X71847618Y-78193390D01*
X71847618Y-78193390D02*
X71799999Y-78145771D01*
X71799999Y-78145771D02*
X71752380Y-78050533D01*
X71752380Y-78050533D02*
X71752380Y-77955295D01*
X71752380Y-77955295D02*
X71799999Y-77860057D01*
X71799999Y-77860057D02*
X71847618Y-77812438D01*
X71847618Y-77812438D02*
X71942856Y-77764819D01*
X71942856Y-77764819D02*
X72180951Y-77764819D01*
X72180951Y-77764819D02*
X72323808Y-77812438D01*
X73323808Y-78669580D02*
X73276189Y-78717200D01*
X73276189Y-78717200D02*
X73133332Y-78764819D01*
X73133332Y-78764819D02*
X73038094Y-78764819D01*
X73038094Y-78764819D02*
X72895237Y-78717200D01*
X72895237Y-78717200D02*
X72799999Y-78621961D01*
X72799999Y-78621961D02*
X72752380Y-78526723D01*
X72752380Y-78526723D02*
X72704761Y-78336247D01*
X72704761Y-78336247D02*
X72704761Y-78193390D01*
X72704761Y-78193390D02*
X72752380Y-78002914D01*
X72752380Y-78002914D02*
X72799999Y-77907676D01*
X72799999Y-77907676D02*
X72895237Y-77812438D01*
X72895237Y-77812438D02*
X73038094Y-77764819D01*
X73038094Y-77764819D02*
X73133332Y-77764819D01*
X73133332Y-77764819D02*
X73276189Y-77812438D01*
X73276189Y-77812438D02*
X73323808Y-77860057D01*
X74228570Y-78764819D02*
X73752380Y-78764819D01*
X73752380Y-78764819D02*
X73752380Y-77764819D01*
X74561904Y-78764819D02*
X74561904Y-77764819D01*
X74561904Y-77764819D02*
X74942856Y-77764819D01*
X74942856Y-77764819D02*
X75038094Y-77812438D01*
X75038094Y-77812438D02*
X75085713Y-77860057D01*
X75085713Y-77860057D02*
X75133332Y-77955295D01*
X75133332Y-77955295D02*
X75133332Y-78098152D01*
X75133332Y-78098152D02*
X75085713Y-78193390D01*
X75085713Y-78193390D02*
X75038094Y-78241009D01*
X75038094Y-78241009D02*
X74942856Y-78288628D01*
X74942856Y-78288628D02*
X74561904Y-78288628D01*
X75990475Y-78098152D02*
X75990475Y-78764819D01*
X75561904Y-78098152D02*
X75561904Y-78621961D01*
X75561904Y-78621961D02*
X75609523Y-78717200D01*
X75609523Y-78717200D02*
X75704761Y-78764819D01*
X75704761Y-78764819D02*
X75847618Y-78764819D01*
X75847618Y-78764819D02*
X75942856Y-78717200D01*
X75942856Y-78717200D02*
X75990475Y-78669580D01*
X76609523Y-78764819D02*
X76514285Y-78717200D01*
X76514285Y-78717200D02*
X76466666Y-78621961D01*
X76466666Y-78621961D02*
X76466666Y-77764819D01*
X77133333Y-78764819D02*
X77038095Y-78717200D01*
X77038095Y-78717200D02*
X76990476Y-78621961D01*
X76990476Y-78621961D02*
X76990476Y-77764819D01*
X77942857Y-78098152D02*
X77942857Y-78764819D01*
X77514286Y-78098152D02*
X77514286Y-78621961D01*
X77514286Y-78621961D02*
X77561905Y-78717200D01*
X77561905Y-78717200D02*
X77657143Y-78764819D01*
X77657143Y-78764819D02*
X77800000Y-78764819D01*
X77800000Y-78764819D02*
X77895238Y-78717200D01*
X77895238Y-78717200D02*
X77942857Y-78669580D01*
X78419048Y-78098152D02*
X78419048Y-79098152D01*
X78419048Y-78145771D02*
X78514286Y-78098152D01*
X78514286Y-78098152D02*
X78704762Y-78098152D01*
X78704762Y-78098152D02*
X78800000Y-78145771D01*
X78800000Y-78145771D02*
X78847619Y-78193390D01*
X78847619Y-78193390D02*
X78895238Y-78288628D01*
X78895238Y-78288628D02*
X78895238Y-78574342D01*
X78895238Y-78574342D02*
X78847619Y-78669580D01*
X78847619Y-78669580D02*
X78800000Y-78717200D01*
X78800000Y-78717200D02*
X78704762Y-78764819D01*
X78704762Y-78764819D02*
X78514286Y-78764819D01*
X78514286Y-78764819D02*
X78419048Y-78717200D01*
X79847619Y-78764819D02*
X79276191Y-78764819D01*
X79561905Y-78764819D02*
X79561905Y-77764819D01*
X79561905Y-77764819D02*
X79466667Y-77907676D01*
X79466667Y-77907676D02*
X79371429Y-78002914D01*
X79371429Y-78002914D02*
X79276191Y-78050533D01*
X136942499Y-91454819D02*
X136942499Y-90454819D01*
X136942499Y-90454819D02*
X137275832Y-91169104D01*
X137275832Y-91169104D02*
X137609165Y-90454819D01*
X137609165Y-90454819D02*
X137609165Y-91454819D01*
X137990118Y-90454819D02*
X138609165Y-90454819D01*
X138609165Y-90454819D02*
X138275832Y-90835771D01*
X138275832Y-90835771D02*
X138418689Y-90835771D01*
X138418689Y-90835771D02*
X138513927Y-90883390D01*
X138513927Y-90883390D02*
X138561546Y-90931009D01*
X138561546Y-90931009D02*
X138609165Y-91026247D01*
X138609165Y-91026247D02*
X138609165Y-91264342D01*
X138609165Y-91264342D02*
X138561546Y-91359580D01*
X138561546Y-91359580D02*
X138513927Y-91407200D01*
X138513927Y-91407200D02*
X138418689Y-91454819D01*
X138418689Y-91454819D02*
X138132975Y-91454819D01*
X138132975Y-91454819D02*
X138037737Y-91407200D01*
X138037737Y-91407200D02*
X137990118Y-91359580D01*
X139609165Y-91359580D02*
X139561546Y-91407200D01*
X139561546Y-91407200D02*
X139418689Y-91454819D01*
X139418689Y-91454819D02*
X139323451Y-91454819D01*
X139323451Y-91454819D02*
X139180594Y-91407200D01*
X139180594Y-91407200D02*
X139085356Y-91311961D01*
X139085356Y-91311961D02*
X139037737Y-91216723D01*
X139037737Y-91216723D02*
X138990118Y-91026247D01*
X138990118Y-91026247D02*
X138990118Y-90883390D01*
X138990118Y-90883390D02*
X139037737Y-90692914D01*
X139037737Y-90692914D02*
X139085356Y-90597676D01*
X139085356Y-90597676D02*
X139180594Y-90502438D01*
X139180594Y-90502438D02*
X139323451Y-90454819D01*
X139323451Y-90454819D02*
X139418689Y-90454819D01*
X139418689Y-90454819D02*
X139561546Y-90502438D01*
X139561546Y-90502438D02*
X139609165Y-90550057D01*
X140180594Y-91454819D02*
X140085356Y-91407200D01*
X140085356Y-91407200D02*
X140037737Y-91359580D01*
X140037737Y-91359580D02*
X139990118Y-91264342D01*
X139990118Y-91264342D02*
X139990118Y-90978628D01*
X139990118Y-90978628D02*
X140037737Y-90883390D01*
X140037737Y-90883390D02*
X140085356Y-90835771D01*
X140085356Y-90835771D02*
X140180594Y-90788152D01*
X140180594Y-90788152D02*
X140323451Y-90788152D01*
X140323451Y-90788152D02*
X140418689Y-90835771D01*
X140418689Y-90835771D02*
X140466308Y-90883390D01*
X140466308Y-90883390D02*
X140513927Y-90978628D01*
X140513927Y-90978628D02*
X140513927Y-91264342D01*
X140513927Y-91264342D02*
X140466308Y-91359580D01*
X140466308Y-91359580D02*
X140418689Y-91407200D01*
X140418689Y-91407200D02*
X140323451Y-91454819D01*
X140323451Y-91454819D02*
X140180594Y-91454819D01*
X140942499Y-90788152D02*
X140942499Y-91454819D01*
X140942499Y-90883390D02*
X140990118Y-90835771D01*
X140990118Y-90835771D02*
X141085356Y-90788152D01*
X141085356Y-90788152D02*
X141228213Y-90788152D01*
X141228213Y-90788152D02*
X141323451Y-90835771D01*
X141323451Y-90835771D02*
X141371070Y-90931009D01*
X141371070Y-90931009D02*
X141371070Y-91454819D01*
X141704404Y-90788152D02*
X142085356Y-90788152D01*
X141847261Y-90454819D02*
X141847261Y-91311961D01*
X141847261Y-91311961D02*
X141894880Y-91407200D01*
X141894880Y-91407200D02*
X141990118Y-91454819D01*
X141990118Y-91454819D02*
X142085356Y-91454819D01*
X142418690Y-91454819D02*
X142418690Y-90788152D01*
X142418690Y-90978628D02*
X142466309Y-90883390D01*
X142466309Y-90883390D02*
X142513928Y-90835771D01*
X142513928Y-90835771D02*
X142609166Y-90788152D01*
X142609166Y-90788152D02*
X142704404Y-90788152D01*
X143180595Y-91454819D02*
X143085357Y-91407200D01*
X143085357Y-91407200D02*
X143037738Y-91359580D01*
X143037738Y-91359580D02*
X142990119Y-91264342D01*
X142990119Y-91264342D02*
X142990119Y-90978628D01*
X142990119Y-90978628D02*
X143037738Y-90883390D01*
X143037738Y-90883390D02*
X143085357Y-90835771D01*
X143085357Y-90835771D02*
X143180595Y-90788152D01*
X143180595Y-90788152D02*
X143323452Y-90788152D01*
X143323452Y-90788152D02*
X143418690Y-90835771D01*
X143418690Y-90835771D02*
X143466309Y-90883390D01*
X143466309Y-90883390D02*
X143513928Y-90978628D01*
X143513928Y-90978628D02*
X143513928Y-91264342D01*
X143513928Y-91264342D02*
X143466309Y-91359580D01*
X143466309Y-91359580D02*
X143418690Y-91407200D01*
X143418690Y-91407200D02*
X143323452Y-91454819D01*
X143323452Y-91454819D02*
X143180595Y-91454819D01*
X144085357Y-91454819D02*
X143990119Y-91407200D01*
X143990119Y-91407200D02*
X143942500Y-91311961D01*
X143942500Y-91311961D02*
X143942500Y-90454819D01*
X144990119Y-91454819D02*
X144418691Y-91454819D01*
X144704405Y-91454819D02*
X144704405Y-90454819D01*
X144704405Y-90454819D02*
X144609167Y-90597676D01*
X144609167Y-90597676D02*
X144513929Y-90692914D01*
X144513929Y-90692914D02*
X144418691Y-90740533D01*
X97340833Y-84869580D02*
X97293214Y-84917200D01*
X97293214Y-84917200D02*
X97150357Y-84964819D01*
X97150357Y-84964819D02*
X97055119Y-84964819D01*
X97055119Y-84964819D02*
X96912262Y-84917200D01*
X96912262Y-84917200D02*
X96817024Y-84821961D01*
X96817024Y-84821961D02*
X96769405Y-84726723D01*
X96769405Y-84726723D02*
X96721786Y-84536247D01*
X96721786Y-84536247D02*
X96721786Y-84393390D01*
X96721786Y-84393390D02*
X96769405Y-84202914D01*
X96769405Y-84202914D02*
X96817024Y-84107676D01*
X96817024Y-84107676D02*
X96912262Y-84012438D01*
X96912262Y-84012438D02*
X97055119Y-83964819D01*
X97055119Y-83964819D02*
X97150357Y-83964819D01*
X97150357Y-83964819D02*
X97293214Y-84012438D01*
X97293214Y-84012438D02*
X97340833Y-84060057D01*
X97721786Y-84060057D02*
X97769405Y-84012438D01*
X97769405Y-84012438D02*
X97864643Y-83964819D01*
X97864643Y-83964819D02*
X98102738Y-83964819D01*
X98102738Y-83964819D02*
X98197976Y-84012438D01*
X98197976Y-84012438D02*
X98245595Y-84060057D01*
X98245595Y-84060057D02*
X98293214Y-84155295D01*
X98293214Y-84155295D02*
X98293214Y-84250533D01*
X98293214Y-84250533D02*
X98245595Y-84393390D01*
X98245595Y-84393390D02*
X97674167Y-84964819D01*
X97674167Y-84964819D02*
X98293214Y-84964819D01*
X70192856Y-84354819D02*
X69859523Y-83878628D01*
X69621428Y-84354819D02*
X69621428Y-83354819D01*
X69621428Y-83354819D02*
X70002380Y-83354819D01*
X70002380Y-83354819D02*
X70097618Y-83402438D01*
X70097618Y-83402438D02*
X70145237Y-83450057D01*
X70145237Y-83450057D02*
X70192856Y-83545295D01*
X70192856Y-83545295D02*
X70192856Y-83688152D01*
X70192856Y-83688152D02*
X70145237Y-83783390D01*
X70145237Y-83783390D02*
X70097618Y-83831009D01*
X70097618Y-83831009D02*
X70002380Y-83878628D01*
X70002380Y-83878628D02*
X69621428Y-83878628D01*
X70573809Y-84307200D02*
X70716666Y-84354819D01*
X70716666Y-84354819D02*
X70954761Y-84354819D01*
X70954761Y-84354819D02*
X71049999Y-84307200D01*
X71049999Y-84307200D02*
X71097618Y-84259580D01*
X71097618Y-84259580D02*
X71145237Y-84164342D01*
X71145237Y-84164342D02*
X71145237Y-84069104D01*
X71145237Y-84069104D02*
X71097618Y-83973866D01*
X71097618Y-83973866D02*
X71049999Y-83926247D01*
X71049999Y-83926247D02*
X70954761Y-83878628D01*
X70954761Y-83878628D02*
X70764285Y-83831009D01*
X70764285Y-83831009D02*
X70669047Y-83783390D01*
X70669047Y-83783390D02*
X70621428Y-83735771D01*
X70621428Y-83735771D02*
X70573809Y-83640533D01*
X70573809Y-83640533D02*
X70573809Y-83545295D01*
X70573809Y-83545295D02*
X70621428Y-83450057D01*
X70621428Y-83450057D02*
X70669047Y-83402438D01*
X70669047Y-83402438D02*
X70764285Y-83354819D01*
X70764285Y-83354819D02*
X71002380Y-83354819D01*
X71002380Y-83354819D02*
X71145237Y-83402438D01*
X71954761Y-84307200D02*
X71859523Y-84354819D01*
X71859523Y-84354819D02*
X71669047Y-84354819D01*
X71669047Y-84354819D02*
X71573809Y-84307200D01*
X71573809Y-84307200D02*
X71526190Y-84211961D01*
X71526190Y-84211961D02*
X71526190Y-83831009D01*
X71526190Y-83831009D02*
X71573809Y-83735771D01*
X71573809Y-83735771D02*
X71669047Y-83688152D01*
X71669047Y-83688152D02*
X71859523Y-83688152D01*
X71859523Y-83688152D02*
X71954761Y-83735771D01*
X71954761Y-83735771D02*
X72002380Y-83831009D01*
X72002380Y-83831009D02*
X72002380Y-83926247D01*
X72002380Y-83926247D02*
X71526190Y-84021485D01*
X72430952Y-83688152D02*
X72430952Y-84354819D01*
X72430952Y-83783390D02*
X72478571Y-83735771D01*
X72478571Y-83735771D02*
X72573809Y-83688152D01*
X72573809Y-83688152D02*
X72716666Y-83688152D01*
X72716666Y-83688152D02*
X72811904Y-83735771D01*
X72811904Y-83735771D02*
X72859523Y-83831009D01*
X72859523Y-83831009D02*
X72859523Y-84354819D01*
X73288095Y-84307200D02*
X73383333Y-84354819D01*
X73383333Y-84354819D02*
X73573809Y-84354819D01*
X73573809Y-84354819D02*
X73669047Y-84307200D01*
X73669047Y-84307200D02*
X73716666Y-84211961D01*
X73716666Y-84211961D02*
X73716666Y-84164342D01*
X73716666Y-84164342D02*
X73669047Y-84069104D01*
X73669047Y-84069104D02*
X73573809Y-84021485D01*
X73573809Y-84021485D02*
X73430952Y-84021485D01*
X73430952Y-84021485D02*
X73335714Y-83973866D01*
X73335714Y-83973866D02*
X73288095Y-83878628D01*
X73288095Y-83878628D02*
X73288095Y-83831009D01*
X73288095Y-83831009D02*
X73335714Y-83735771D01*
X73335714Y-83735771D02*
X73430952Y-83688152D01*
X73430952Y-83688152D02*
X73573809Y-83688152D01*
X73573809Y-83688152D02*
X73669047Y-83735771D01*
X74526190Y-84307200D02*
X74430952Y-84354819D01*
X74430952Y-84354819D02*
X74240476Y-84354819D01*
X74240476Y-84354819D02*
X74145238Y-84307200D01*
X74145238Y-84307200D02*
X74097619Y-84211961D01*
X74097619Y-84211961D02*
X74097619Y-83831009D01*
X74097619Y-83831009D02*
X74145238Y-83735771D01*
X74145238Y-83735771D02*
X74240476Y-83688152D01*
X74240476Y-83688152D02*
X74430952Y-83688152D01*
X74430952Y-83688152D02*
X74526190Y-83735771D01*
X74526190Y-83735771D02*
X74573809Y-83831009D01*
X74573809Y-83831009D02*
X74573809Y-83926247D01*
X74573809Y-83926247D02*
X74097619Y-84021485D01*
X75526190Y-84354819D02*
X74954762Y-84354819D01*
X75240476Y-84354819D02*
X75240476Y-83354819D01*
X75240476Y-83354819D02*
X75145238Y-83497676D01*
X75145238Y-83497676D02*
X75050000Y-83592914D01*
X75050000Y-83592914D02*
X74954762Y-83640533D01*
X79666666Y-74954819D02*
X79666666Y-75669104D01*
X79666666Y-75669104D02*
X79619047Y-75811961D01*
X79619047Y-75811961D02*
X79523809Y-75907200D01*
X79523809Y-75907200D02*
X79380952Y-75954819D01*
X79380952Y-75954819D02*
X79285714Y-75954819D01*
X80095238Y-75050057D02*
X80142857Y-75002438D01*
X80142857Y-75002438D02*
X80238095Y-74954819D01*
X80238095Y-74954819D02*
X80476190Y-74954819D01*
X80476190Y-74954819D02*
X80571428Y-75002438D01*
X80571428Y-75002438D02*
X80619047Y-75050057D01*
X80619047Y-75050057D02*
X80666666Y-75145295D01*
X80666666Y-75145295D02*
X80666666Y-75240533D01*
X80666666Y-75240533D02*
X80619047Y-75383390D01*
X80619047Y-75383390D02*
X80047619Y-75954819D01*
X80047619Y-75954819D02*
X80666666Y-75954819D01*
X96415833Y-114004819D02*
X96082500Y-113528628D01*
X95844405Y-114004819D02*
X95844405Y-113004819D01*
X95844405Y-113004819D02*
X96225357Y-113004819D01*
X96225357Y-113004819D02*
X96320595Y-113052438D01*
X96320595Y-113052438D02*
X96368214Y-113100057D01*
X96368214Y-113100057D02*
X96415833Y-113195295D01*
X96415833Y-113195295D02*
X96415833Y-113338152D01*
X96415833Y-113338152D02*
X96368214Y-113433390D01*
X96368214Y-113433390D02*
X96320595Y-113481009D01*
X96320595Y-113481009D02*
X96225357Y-113528628D01*
X96225357Y-113528628D02*
X95844405Y-113528628D01*
X96749167Y-113004819D02*
X97415833Y-113004819D01*
X97415833Y-113004819D02*
X96987262Y-114004819D01*
X75158333Y-59162200D02*
X75301190Y-59209819D01*
X75301190Y-59209819D02*
X75539285Y-59209819D01*
X75539285Y-59209819D02*
X75634523Y-59162200D01*
X75634523Y-59162200D02*
X75682142Y-59114580D01*
X75682142Y-59114580D02*
X75729761Y-59019342D01*
X75729761Y-59019342D02*
X75729761Y-58924104D01*
X75729761Y-58924104D02*
X75682142Y-58828866D01*
X75682142Y-58828866D02*
X75634523Y-58781247D01*
X75634523Y-58781247D02*
X75539285Y-58733628D01*
X75539285Y-58733628D02*
X75348809Y-58686009D01*
X75348809Y-58686009D02*
X75253571Y-58638390D01*
X75253571Y-58638390D02*
X75205952Y-58590771D01*
X75205952Y-58590771D02*
X75158333Y-58495533D01*
X75158333Y-58495533D02*
X75158333Y-58400295D01*
X75158333Y-58400295D02*
X75205952Y-58305057D01*
X75205952Y-58305057D02*
X75253571Y-58257438D01*
X75253571Y-58257438D02*
X75348809Y-58209819D01*
X75348809Y-58209819D02*
X75586904Y-58209819D01*
X75586904Y-58209819D02*
X75729761Y-58257438D01*
X76063095Y-58209819D02*
X76301190Y-59209819D01*
X76301190Y-59209819D02*
X76491666Y-58495533D01*
X76491666Y-58495533D02*
X76682142Y-59209819D01*
X76682142Y-59209819D02*
X76920238Y-58209819D01*
X77301190Y-59209819D02*
X77301190Y-58209819D01*
X77301190Y-58209819D02*
X77682142Y-58209819D01*
X77682142Y-58209819D02*
X77777380Y-58257438D01*
X77777380Y-58257438D02*
X77824999Y-58305057D01*
X77824999Y-58305057D02*
X77872618Y-58400295D01*
X77872618Y-58400295D02*
X77872618Y-58543152D01*
X77872618Y-58543152D02*
X77824999Y-58638390D01*
X77824999Y-58638390D02*
X77777380Y-58686009D01*
X77777380Y-58686009D02*
X77682142Y-58733628D01*
X77682142Y-58733628D02*
X77301190Y-58733628D01*
X78205952Y-58543152D02*
X78396428Y-59209819D01*
X78396428Y-59209819D02*
X78586904Y-58733628D01*
X78586904Y-58733628D02*
X78777380Y-59209819D01*
X78777380Y-59209819D02*
X78967856Y-58543152D01*
X79348809Y-59209819D02*
X79348809Y-58543152D01*
X79348809Y-58733628D02*
X79396428Y-58638390D01*
X79396428Y-58638390D02*
X79444047Y-58590771D01*
X79444047Y-58590771D02*
X79539285Y-58543152D01*
X79539285Y-58543152D02*
X79634523Y-58543152D01*
X80491666Y-59209819D02*
X79920238Y-59209819D01*
X80205952Y-59209819D02*
X80205952Y-58209819D01*
X80205952Y-58209819D02*
X80110714Y-58352676D01*
X80110714Y-58352676D02*
X80015476Y-58447914D01*
X80015476Y-58447914D02*
X79920238Y-58495533D01*
X94915832Y-124044819D02*
X94582499Y-123568628D01*
X94344404Y-124044819D02*
X94344404Y-123044819D01*
X94344404Y-123044819D02*
X94725356Y-123044819D01*
X94725356Y-123044819D02*
X94820594Y-123092438D01*
X94820594Y-123092438D02*
X94868213Y-123140057D01*
X94868213Y-123140057D02*
X94915832Y-123235295D01*
X94915832Y-123235295D02*
X94915832Y-123378152D01*
X94915832Y-123378152D02*
X94868213Y-123473390D01*
X94868213Y-123473390D02*
X94820594Y-123521009D01*
X94820594Y-123521009D02*
X94725356Y-123568628D01*
X94725356Y-123568628D02*
X94344404Y-123568628D01*
X95106309Y-124140057D02*
X95868213Y-124140057D01*
X96058690Y-123997200D02*
X96153928Y-124044819D01*
X96153928Y-124044819D02*
X96344404Y-124044819D01*
X96344404Y-124044819D02*
X96439642Y-123997200D01*
X96439642Y-123997200D02*
X96487261Y-123901961D01*
X96487261Y-123901961D02*
X96487261Y-123854342D01*
X96487261Y-123854342D02*
X96439642Y-123759104D01*
X96439642Y-123759104D02*
X96344404Y-123711485D01*
X96344404Y-123711485D02*
X96201547Y-123711485D01*
X96201547Y-123711485D02*
X96106309Y-123663866D01*
X96106309Y-123663866D02*
X96058690Y-123568628D01*
X96058690Y-123568628D02*
X96058690Y-123521009D01*
X96058690Y-123521009D02*
X96106309Y-123425771D01*
X96106309Y-123425771D02*
X96201547Y-123378152D01*
X96201547Y-123378152D02*
X96344404Y-123378152D01*
X96344404Y-123378152D02*
X96439642Y-123425771D01*
X97296785Y-123997200D02*
X97201547Y-124044819D01*
X97201547Y-124044819D02*
X97011071Y-124044819D01*
X97011071Y-124044819D02*
X96915833Y-123997200D01*
X96915833Y-123997200D02*
X96868214Y-123901961D01*
X96868214Y-123901961D02*
X96868214Y-123521009D01*
X96868214Y-123521009D02*
X96915833Y-123425771D01*
X96915833Y-123425771D02*
X97011071Y-123378152D01*
X97011071Y-123378152D02*
X97201547Y-123378152D01*
X97201547Y-123378152D02*
X97296785Y-123425771D01*
X97296785Y-123425771D02*
X97344404Y-123521009D01*
X97344404Y-123521009D02*
X97344404Y-123616247D01*
X97344404Y-123616247D02*
X96868214Y-123711485D01*
X97630119Y-123378152D02*
X98011071Y-123378152D01*
X97772976Y-123044819D02*
X97772976Y-123901961D01*
X97772976Y-123901961D02*
X97820595Y-123997200D01*
X97820595Y-123997200D02*
X97915833Y-124044819D01*
X97915833Y-124044819D02*
X98011071Y-124044819D01*
X98868214Y-124044819D02*
X98296786Y-124044819D01*
X98582500Y-124044819D02*
X98582500Y-123044819D01*
X98582500Y-123044819D02*
X98487262Y-123187676D01*
X98487262Y-123187676D02*
X98392024Y-123282914D01*
X98392024Y-123282914D02*
X98296786Y-123330533D01*
X67742856Y-76456819D02*
X67409523Y-75980628D01*
X67171428Y-76456819D02*
X67171428Y-75456819D01*
X67171428Y-75456819D02*
X67552380Y-75456819D01*
X67552380Y-75456819D02*
X67647618Y-75504438D01*
X67647618Y-75504438D02*
X67695237Y-75552057D01*
X67695237Y-75552057D02*
X67742856Y-75647295D01*
X67742856Y-75647295D02*
X67742856Y-75790152D01*
X67742856Y-75790152D02*
X67695237Y-75885390D01*
X67695237Y-75885390D02*
X67647618Y-75933009D01*
X67647618Y-75933009D02*
X67552380Y-75980628D01*
X67552380Y-75980628D02*
X67171428Y-75980628D01*
X68123809Y-76409200D02*
X68266666Y-76456819D01*
X68266666Y-76456819D02*
X68504761Y-76456819D01*
X68504761Y-76456819D02*
X68599999Y-76409200D01*
X68599999Y-76409200D02*
X68647618Y-76361580D01*
X68647618Y-76361580D02*
X68695237Y-76266342D01*
X68695237Y-76266342D02*
X68695237Y-76171104D01*
X68695237Y-76171104D02*
X68647618Y-76075866D01*
X68647618Y-76075866D02*
X68599999Y-76028247D01*
X68599999Y-76028247D02*
X68504761Y-75980628D01*
X68504761Y-75980628D02*
X68314285Y-75933009D01*
X68314285Y-75933009D02*
X68219047Y-75885390D01*
X68219047Y-75885390D02*
X68171428Y-75837771D01*
X68171428Y-75837771D02*
X68123809Y-75742533D01*
X68123809Y-75742533D02*
X68123809Y-75647295D01*
X68123809Y-75647295D02*
X68171428Y-75552057D01*
X68171428Y-75552057D02*
X68219047Y-75504438D01*
X68219047Y-75504438D02*
X68314285Y-75456819D01*
X68314285Y-75456819D02*
X68552380Y-75456819D01*
X68552380Y-75456819D02*
X68695237Y-75504438D01*
X69504761Y-76409200D02*
X69409523Y-76456819D01*
X69409523Y-76456819D02*
X69219047Y-76456819D01*
X69219047Y-76456819D02*
X69123809Y-76409200D01*
X69123809Y-76409200D02*
X69076190Y-76313961D01*
X69076190Y-76313961D02*
X69076190Y-75933009D01*
X69076190Y-75933009D02*
X69123809Y-75837771D01*
X69123809Y-75837771D02*
X69219047Y-75790152D01*
X69219047Y-75790152D02*
X69409523Y-75790152D01*
X69409523Y-75790152D02*
X69504761Y-75837771D01*
X69504761Y-75837771D02*
X69552380Y-75933009D01*
X69552380Y-75933009D02*
X69552380Y-76028247D01*
X69552380Y-76028247D02*
X69076190Y-76123485D01*
X69980952Y-75790152D02*
X69980952Y-76456819D01*
X69980952Y-75885390D02*
X70028571Y-75837771D01*
X70028571Y-75837771D02*
X70123809Y-75790152D01*
X70123809Y-75790152D02*
X70266666Y-75790152D01*
X70266666Y-75790152D02*
X70361904Y-75837771D01*
X70361904Y-75837771D02*
X70409523Y-75933009D01*
X70409523Y-75933009D02*
X70409523Y-76456819D01*
X70838095Y-76409200D02*
X70933333Y-76456819D01*
X70933333Y-76456819D02*
X71123809Y-76456819D01*
X71123809Y-76456819D02*
X71219047Y-76409200D01*
X71219047Y-76409200D02*
X71266666Y-76313961D01*
X71266666Y-76313961D02*
X71266666Y-76266342D01*
X71266666Y-76266342D02*
X71219047Y-76171104D01*
X71219047Y-76171104D02*
X71123809Y-76123485D01*
X71123809Y-76123485D02*
X70980952Y-76123485D01*
X70980952Y-76123485D02*
X70885714Y-76075866D01*
X70885714Y-76075866D02*
X70838095Y-75980628D01*
X70838095Y-75980628D02*
X70838095Y-75933009D01*
X70838095Y-75933009D02*
X70885714Y-75837771D01*
X70885714Y-75837771D02*
X70980952Y-75790152D01*
X70980952Y-75790152D02*
X71123809Y-75790152D01*
X71123809Y-75790152D02*
X71219047Y-75837771D01*
X72076190Y-76409200D02*
X71980952Y-76456819D01*
X71980952Y-76456819D02*
X71790476Y-76456819D01*
X71790476Y-76456819D02*
X71695238Y-76409200D01*
X71695238Y-76409200D02*
X71647619Y-76313961D01*
X71647619Y-76313961D02*
X71647619Y-75933009D01*
X71647619Y-75933009D02*
X71695238Y-75837771D01*
X71695238Y-75837771D02*
X71790476Y-75790152D01*
X71790476Y-75790152D02*
X71980952Y-75790152D01*
X71980952Y-75790152D02*
X72076190Y-75837771D01*
X72076190Y-75837771D02*
X72123809Y-75933009D01*
X72123809Y-75933009D02*
X72123809Y-76028247D01*
X72123809Y-76028247D02*
X71647619Y-76123485D01*
X72409524Y-75456819D02*
X72980952Y-75456819D01*
X72695238Y-76456819D02*
X72695238Y-75456819D01*
X73314286Y-76456819D02*
X73314286Y-75456819D01*
X73314286Y-75456819D02*
X73695238Y-75456819D01*
X73695238Y-75456819D02*
X73790476Y-75504438D01*
X73790476Y-75504438D02*
X73838095Y-75552057D01*
X73838095Y-75552057D02*
X73885714Y-75647295D01*
X73885714Y-75647295D02*
X73885714Y-75790152D01*
X73885714Y-75790152D02*
X73838095Y-75885390D01*
X73838095Y-75885390D02*
X73790476Y-75933009D01*
X73790476Y-75933009D02*
X73695238Y-75980628D01*
X73695238Y-75980628D02*
X73314286Y-75980628D01*
X74314286Y-76075866D02*
X75076191Y-76075866D01*
X74695238Y-76456819D02*
X74695238Y-75694914D01*
X76076190Y-76456819D02*
X75504762Y-76456819D01*
X75790476Y-76456819D02*
X75790476Y-75456819D01*
X75790476Y-75456819D02*
X75695238Y-75599676D01*
X75695238Y-75599676D02*
X75600000Y-75694914D01*
X75600000Y-75694914D02*
X75504762Y-75742533D01*
X113725595Y-115789819D02*
X113725595Y-116599342D01*
X113725595Y-116599342D02*
X113773214Y-116694580D01*
X113773214Y-116694580D02*
X113820833Y-116742200D01*
X113820833Y-116742200D02*
X113916071Y-116789819D01*
X113916071Y-116789819D02*
X114106547Y-116789819D01*
X114106547Y-116789819D02*
X114201785Y-116742200D01*
X114201785Y-116742200D02*
X114249404Y-116694580D01*
X114249404Y-116694580D02*
X114297023Y-116599342D01*
X114297023Y-116599342D02*
X114297023Y-115789819D01*
X115201785Y-116123152D02*
X115201785Y-116789819D01*
X114963690Y-115742200D02*
X114725595Y-116456485D01*
X114725595Y-116456485D02*
X115344642Y-116456485D01*
X112809642Y-113079580D02*
X112762023Y-113127200D01*
X112762023Y-113127200D02*
X112619166Y-113174819D01*
X112619166Y-113174819D02*
X112523928Y-113174819D01*
X112523928Y-113174819D02*
X112381071Y-113127200D01*
X112381071Y-113127200D02*
X112285833Y-113031961D01*
X112285833Y-113031961D02*
X112238214Y-112936723D01*
X112238214Y-112936723D02*
X112190595Y-112746247D01*
X112190595Y-112746247D02*
X112190595Y-112603390D01*
X112190595Y-112603390D02*
X112238214Y-112412914D01*
X112238214Y-112412914D02*
X112285833Y-112317676D01*
X112285833Y-112317676D02*
X112381071Y-112222438D01*
X112381071Y-112222438D02*
X112523928Y-112174819D01*
X112523928Y-112174819D02*
X112619166Y-112174819D01*
X112619166Y-112174819D02*
X112762023Y-112222438D01*
X112762023Y-112222438D02*
X112809642Y-112270057D01*
X113762023Y-113174819D02*
X113190595Y-113174819D01*
X113476309Y-113174819D02*
X113476309Y-112174819D01*
X113476309Y-112174819D02*
X113381071Y-112317676D01*
X113381071Y-112317676D02*
X113285833Y-112412914D01*
X113285833Y-112412914D02*
X113190595Y-112460533D01*
X114095357Y-112174819D02*
X114762023Y-112174819D01*
X114762023Y-112174819D02*
X114333452Y-113174819D01*
X100915833Y-116604819D02*
X100439643Y-116604819D01*
X100439643Y-116604819D02*
X100439643Y-115604819D01*
X101201548Y-115700057D02*
X101249167Y-115652438D01*
X101249167Y-115652438D02*
X101344405Y-115604819D01*
X101344405Y-115604819D02*
X101582500Y-115604819D01*
X101582500Y-115604819D02*
X101677738Y-115652438D01*
X101677738Y-115652438D02*
X101725357Y-115700057D01*
X101725357Y-115700057D02*
X101772976Y-115795295D01*
X101772976Y-115795295D02*
X101772976Y-115890533D01*
X101772976Y-115890533D02*
X101725357Y-116033390D01*
X101725357Y-116033390D02*
X101153929Y-116604819D01*
X101153929Y-116604819D02*
X101772976Y-116604819D01*
X105220595Y-122449819D02*
X105220595Y-123259342D01*
X105220595Y-123259342D02*
X105268214Y-123354580D01*
X105268214Y-123354580D02*
X105315833Y-123402200D01*
X105315833Y-123402200D02*
X105411071Y-123449819D01*
X105411071Y-123449819D02*
X105601547Y-123449819D01*
X105601547Y-123449819D02*
X105696785Y-123402200D01*
X105696785Y-123402200D02*
X105744404Y-123354580D01*
X105744404Y-123354580D02*
X105792023Y-123259342D01*
X105792023Y-123259342D02*
X105792023Y-122449819D01*
X106744404Y-122449819D02*
X106268214Y-122449819D01*
X106268214Y-122449819D02*
X106220595Y-122926009D01*
X106220595Y-122926009D02*
X106268214Y-122878390D01*
X106268214Y-122878390D02*
X106363452Y-122830771D01*
X106363452Y-122830771D02*
X106601547Y-122830771D01*
X106601547Y-122830771D02*
X106696785Y-122878390D01*
X106696785Y-122878390D02*
X106744404Y-122926009D01*
X106744404Y-122926009D02*
X106792023Y-123021247D01*
X106792023Y-123021247D02*
X106792023Y-123259342D01*
X106792023Y-123259342D02*
X106744404Y-123354580D01*
X106744404Y-123354580D02*
X106696785Y-123402200D01*
X106696785Y-123402200D02*
X106601547Y-123449819D01*
X106601547Y-123449819D02*
X106363452Y-123449819D01*
X106363452Y-123449819D02*
X106268214Y-123402200D01*
X106268214Y-123402200D02*
X106220595Y-123354580D01*
X136942499Y-84084819D02*
X136942499Y-83084819D01*
X136942499Y-83084819D02*
X137275832Y-83799104D01*
X137275832Y-83799104D02*
X137609165Y-83084819D01*
X137609165Y-83084819D02*
X137609165Y-84084819D01*
X138609165Y-84084819D02*
X138037737Y-84084819D01*
X138323451Y-84084819D02*
X138323451Y-83084819D01*
X138323451Y-83084819D02*
X138228213Y-83227676D01*
X138228213Y-83227676D02*
X138132975Y-83322914D01*
X138132975Y-83322914D02*
X138037737Y-83370533D01*
X139609165Y-83989580D02*
X139561546Y-84037200D01*
X139561546Y-84037200D02*
X139418689Y-84084819D01*
X139418689Y-84084819D02*
X139323451Y-84084819D01*
X139323451Y-84084819D02*
X139180594Y-84037200D01*
X139180594Y-84037200D02*
X139085356Y-83941961D01*
X139085356Y-83941961D02*
X139037737Y-83846723D01*
X139037737Y-83846723D02*
X138990118Y-83656247D01*
X138990118Y-83656247D02*
X138990118Y-83513390D01*
X138990118Y-83513390D02*
X139037737Y-83322914D01*
X139037737Y-83322914D02*
X139085356Y-83227676D01*
X139085356Y-83227676D02*
X139180594Y-83132438D01*
X139180594Y-83132438D02*
X139323451Y-83084819D01*
X139323451Y-83084819D02*
X139418689Y-83084819D01*
X139418689Y-83084819D02*
X139561546Y-83132438D01*
X139561546Y-83132438D02*
X139609165Y-83180057D01*
X140180594Y-84084819D02*
X140085356Y-84037200D01*
X140085356Y-84037200D02*
X140037737Y-83989580D01*
X140037737Y-83989580D02*
X139990118Y-83894342D01*
X139990118Y-83894342D02*
X139990118Y-83608628D01*
X139990118Y-83608628D02*
X140037737Y-83513390D01*
X140037737Y-83513390D02*
X140085356Y-83465771D01*
X140085356Y-83465771D02*
X140180594Y-83418152D01*
X140180594Y-83418152D02*
X140323451Y-83418152D01*
X140323451Y-83418152D02*
X140418689Y-83465771D01*
X140418689Y-83465771D02*
X140466308Y-83513390D01*
X140466308Y-83513390D02*
X140513927Y-83608628D01*
X140513927Y-83608628D02*
X140513927Y-83894342D01*
X140513927Y-83894342D02*
X140466308Y-83989580D01*
X140466308Y-83989580D02*
X140418689Y-84037200D01*
X140418689Y-84037200D02*
X140323451Y-84084819D01*
X140323451Y-84084819D02*
X140180594Y-84084819D01*
X140942499Y-83418152D02*
X140942499Y-84084819D01*
X140942499Y-83513390D02*
X140990118Y-83465771D01*
X140990118Y-83465771D02*
X141085356Y-83418152D01*
X141085356Y-83418152D02*
X141228213Y-83418152D01*
X141228213Y-83418152D02*
X141323451Y-83465771D01*
X141323451Y-83465771D02*
X141371070Y-83561009D01*
X141371070Y-83561009D02*
X141371070Y-84084819D01*
X141704404Y-83418152D02*
X142085356Y-83418152D01*
X141847261Y-83084819D02*
X141847261Y-83941961D01*
X141847261Y-83941961D02*
X141894880Y-84037200D01*
X141894880Y-84037200D02*
X141990118Y-84084819D01*
X141990118Y-84084819D02*
X142085356Y-84084819D01*
X142418690Y-84084819D02*
X142418690Y-83418152D01*
X142418690Y-83608628D02*
X142466309Y-83513390D01*
X142466309Y-83513390D02*
X142513928Y-83465771D01*
X142513928Y-83465771D02*
X142609166Y-83418152D01*
X142609166Y-83418152D02*
X142704404Y-83418152D01*
X143180595Y-84084819D02*
X143085357Y-84037200D01*
X143085357Y-84037200D02*
X143037738Y-83989580D01*
X143037738Y-83989580D02*
X142990119Y-83894342D01*
X142990119Y-83894342D02*
X142990119Y-83608628D01*
X142990119Y-83608628D02*
X143037738Y-83513390D01*
X143037738Y-83513390D02*
X143085357Y-83465771D01*
X143085357Y-83465771D02*
X143180595Y-83418152D01*
X143180595Y-83418152D02*
X143323452Y-83418152D01*
X143323452Y-83418152D02*
X143418690Y-83465771D01*
X143418690Y-83465771D02*
X143466309Y-83513390D01*
X143466309Y-83513390D02*
X143513928Y-83608628D01*
X143513928Y-83608628D02*
X143513928Y-83894342D01*
X143513928Y-83894342D02*
X143466309Y-83989580D01*
X143466309Y-83989580D02*
X143418690Y-84037200D01*
X143418690Y-84037200D02*
X143323452Y-84084819D01*
X143323452Y-84084819D02*
X143180595Y-84084819D01*
X144085357Y-84084819D02*
X143990119Y-84037200D01*
X143990119Y-84037200D02*
X143942500Y-83941961D01*
X143942500Y-83941961D02*
X143942500Y-83084819D01*
X144990119Y-84084819D02*
X144418691Y-84084819D01*
X144704405Y-84084819D02*
X144704405Y-83084819D01*
X144704405Y-83084819D02*
X144609167Y-83227676D01*
X144609167Y-83227676D02*
X144513929Y-83322914D01*
X144513929Y-83322914D02*
X144418691Y-83370533D01*
X70347618Y-75969104D02*
X70823808Y-75969104D01*
X70252380Y-76254819D02*
X70585713Y-75254819D01*
X70585713Y-75254819D02*
X70919046Y-76254819D01*
X71776189Y-76254819D02*
X71204761Y-76254819D01*
X71490475Y-76254819D02*
X71490475Y-75254819D01*
X71490475Y-75254819D02*
X71395237Y-75397676D01*
X71395237Y-75397676D02*
X71299999Y-75492914D01*
X71299999Y-75492914D02*
X71204761Y-75540533D01*
X72157142Y-75969104D02*
X72633332Y-75969104D01*
X72061904Y-76254819D02*
X72395237Y-75254819D01*
X72395237Y-75254819D02*
X72728570Y-76254819D01*
X73014285Y-75350057D02*
X73061904Y-75302438D01*
X73061904Y-75302438D02*
X73157142Y-75254819D01*
X73157142Y-75254819D02*
X73395237Y-75254819D01*
X73395237Y-75254819D02*
X73490475Y-75302438D01*
X73490475Y-75302438D02*
X73538094Y-75350057D01*
X73538094Y-75350057D02*
X73585713Y-75445295D01*
X73585713Y-75445295D02*
X73585713Y-75540533D01*
X73585713Y-75540533D02*
X73538094Y-75683390D01*
X73538094Y-75683390D02*
X72966666Y-76254819D01*
X72966666Y-76254819D02*
X73585713Y-76254819D01*
X74014285Y-76254819D02*
X74014285Y-75254819D01*
X74014285Y-75254819D02*
X74395237Y-75254819D01*
X74395237Y-75254819D02*
X74490475Y-75302438D01*
X74490475Y-75302438D02*
X74538094Y-75350057D01*
X74538094Y-75350057D02*
X74585713Y-75445295D01*
X74585713Y-75445295D02*
X74585713Y-75588152D01*
X74585713Y-75588152D02*
X74538094Y-75683390D01*
X74538094Y-75683390D02*
X74490475Y-75731009D01*
X74490475Y-75731009D02*
X74395237Y-75778628D01*
X74395237Y-75778628D02*
X74014285Y-75778628D01*
X75442856Y-75588152D02*
X75442856Y-76254819D01*
X75014285Y-75588152D02*
X75014285Y-76111961D01*
X75014285Y-76111961D02*
X75061904Y-76207200D01*
X75061904Y-76207200D02*
X75157142Y-76254819D01*
X75157142Y-76254819D02*
X75299999Y-76254819D01*
X75299999Y-76254819D02*
X75395237Y-76207200D01*
X75395237Y-76207200D02*
X75442856Y-76159580D01*
X76061904Y-76254819D02*
X75966666Y-76207200D01*
X75966666Y-76207200D02*
X75919047Y-76111961D01*
X75919047Y-76111961D02*
X75919047Y-75254819D01*
X76585714Y-76254819D02*
X76490476Y-76207200D01*
X76490476Y-76207200D02*
X76442857Y-76111961D01*
X76442857Y-76111961D02*
X76442857Y-75254819D01*
X77395238Y-75588152D02*
X77395238Y-76254819D01*
X76966667Y-75588152D02*
X76966667Y-76111961D01*
X76966667Y-76111961D02*
X77014286Y-76207200D01*
X77014286Y-76207200D02*
X77109524Y-76254819D01*
X77109524Y-76254819D02*
X77252381Y-76254819D01*
X77252381Y-76254819D02*
X77347619Y-76207200D01*
X77347619Y-76207200D02*
X77395238Y-76159580D01*
X77871429Y-75588152D02*
X77871429Y-76588152D01*
X77871429Y-75635771D02*
X77966667Y-75588152D01*
X77966667Y-75588152D02*
X78157143Y-75588152D01*
X78157143Y-75588152D02*
X78252381Y-75635771D01*
X78252381Y-75635771D02*
X78300000Y-75683390D01*
X78300000Y-75683390D02*
X78347619Y-75778628D01*
X78347619Y-75778628D02*
X78347619Y-76064342D01*
X78347619Y-76064342D02*
X78300000Y-76159580D01*
X78300000Y-76159580D02*
X78252381Y-76207200D01*
X78252381Y-76207200D02*
X78157143Y-76254819D01*
X78157143Y-76254819D02*
X77966667Y-76254819D01*
X77966667Y-76254819D02*
X77871429Y-76207200D01*
X79347619Y-76159580D02*
X79300000Y-76207200D01*
X79300000Y-76207200D02*
X79157143Y-76254819D01*
X79157143Y-76254819D02*
X79061905Y-76254819D01*
X79061905Y-76254819D02*
X78919048Y-76207200D01*
X78919048Y-76207200D02*
X78823810Y-76111961D01*
X78823810Y-76111961D02*
X78776191Y-76016723D01*
X78776191Y-76016723D02*
X78728572Y-75826247D01*
X78728572Y-75826247D02*
X78728572Y-75683390D01*
X78728572Y-75683390D02*
X78776191Y-75492914D01*
X78776191Y-75492914D02*
X78823810Y-75397676D01*
X78823810Y-75397676D02*
X78919048Y-75302438D01*
X78919048Y-75302438D02*
X79061905Y-75254819D01*
X79061905Y-75254819D02*
X79157143Y-75254819D01*
X79157143Y-75254819D02*
X79300000Y-75302438D01*
X79300000Y-75302438D02*
X79347619Y-75350057D01*
X79728572Y-76207200D02*
X79871429Y-76254819D01*
X79871429Y-76254819D02*
X80109524Y-76254819D01*
X80109524Y-76254819D02*
X80204762Y-76207200D01*
X80204762Y-76207200D02*
X80252381Y-76159580D01*
X80252381Y-76159580D02*
X80300000Y-76064342D01*
X80300000Y-76064342D02*
X80300000Y-75969104D01*
X80300000Y-75969104D02*
X80252381Y-75873866D01*
X80252381Y-75873866D02*
X80204762Y-75826247D01*
X80204762Y-75826247D02*
X80109524Y-75778628D01*
X80109524Y-75778628D02*
X79919048Y-75731009D01*
X79919048Y-75731009D02*
X79823810Y-75683390D01*
X79823810Y-75683390D02*
X79776191Y-75635771D01*
X79776191Y-75635771D02*
X79728572Y-75540533D01*
X79728572Y-75540533D02*
X79728572Y-75445295D01*
X79728572Y-75445295D02*
X79776191Y-75350057D01*
X79776191Y-75350057D02*
X79823810Y-75302438D01*
X79823810Y-75302438D02*
X79919048Y-75254819D01*
X79919048Y-75254819D02*
X80157143Y-75254819D01*
X80157143Y-75254819D02*
X80300000Y-75302438D01*
X81252381Y-76254819D02*
X80680953Y-76254819D01*
X80966667Y-76254819D02*
X80966667Y-75254819D01*
X80966667Y-75254819D02*
X80871429Y-75397676D01*
X80871429Y-75397676D02*
X80776191Y-75492914D01*
X80776191Y-75492914D02*
X80680953Y-75540533D01*
X133289642Y-95229580D02*
X133242023Y-95277200D01*
X133242023Y-95277200D02*
X133099166Y-95324819D01*
X133099166Y-95324819D02*
X133003928Y-95324819D01*
X133003928Y-95324819D02*
X132861071Y-95277200D01*
X132861071Y-95277200D02*
X132765833Y-95181961D01*
X132765833Y-95181961D02*
X132718214Y-95086723D01*
X132718214Y-95086723D02*
X132670595Y-94896247D01*
X132670595Y-94896247D02*
X132670595Y-94753390D01*
X132670595Y-94753390D02*
X132718214Y-94562914D01*
X132718214Y-94562914D02*
X132765833Y-94467676D01*
X132765833Y-94467676D02*
X132861071Y-94372438D01*
X132861071Y-94372438D02*
X133003928Y-94324819D01*
X133003928Y-94324819D02*
X133099166Y-94324819D01*
X133099166Y-94324819D02*
X133242023Y-94372438D01*
X133242023Y-94372438D02*
X133289642Y-94420057D01*
X134242023Y-95324819D02*
X133670595Y-95324819D01*
X133956309Y-95324819D02*
X133956309Y-94324819D01*
X133956309Y-94324819D02*
X133861071Y-94467676D01*
X133861071Y-94467676D02*
X133765833Y-94562914D01*
X133765833Y-94562914D02*
X133670595Y-94610533D01*
X135194404Y-95324819D02*
X134622976Y-95324819D01*
X134908690Y-95324819D02*
X134908690Y-94324819D01*
X134908690Y-94324819D02*
X134813452Y-94467676D01*
X134813452Y-94467676D02*
X134718214Y-94562914D01*
X134718214Y-94562914D02*
X134622976Y-94610533D01*
X65686666Y-57964819D02*
X65686666Y-58679104D01*
X65686666Y-58679104D02*
X65639047Y-58821961D01*
X65639047Y-58821961D02*
X65543809Y-58917200D01*
X65543809Y-58917200D02*
X65400952Y-58964819D01*
X65400952Y-58964819D02*
X65305714Y-58964819D01*
X66686666Y-58964819D02*
X66115238Y-58964819D01*
X66400952Y-58964819D02*
X66400952Y-57964819D01*
X66400952Y-57964819D02*
X66305714Y-58107676D01*
X66305714Y-58107676D02*
X66210476Y-58202914D01*
X66210476Y-58202914D02*
X66115238Y-58250533D01*
X100915833Y-121254819D02*
X100439643Y-121254819D01*
X100439643Y-121254819D02*
X100439643Y-120254819D01*
X101153929Y-120254819D02*
X101772976Y-120254819D01*
X101772976Y-120254819D02*
X101439643Y-120635771D01*
X101439643Y-120635771D02*
X101582500Y-120635771D01*
X101582500Y-120635771D02*
X101677738Y-120683390D01*
X101677738Y-120683390D02*
X101725357Y-120731009D01*
X101725357Y-120731009D02*
X101772976Y-120826247D01*
X101772976Y-120826247D02*
X101772976Y-121064342D01*
X101772976Y-121064342D02*
X101725357Y-121159580D01*
X101725357Y-121159580D02*
X101677738Y-121207200D01*
X101677738Y-121207200D02*
X101582500Y-121254819D01*
X101582500Y-121254819D02*
X101296786Y-121254819D01*
X101296786Y-121254819D02*
X101201548Y-121207200D01*
X101201548Y-121207200D02*
X101153929Y-121159580D01*
X133765833Y-91289580D02*
X133718214Y-91337200D01*
X133718214Y-91337200D02*
X133575357Y-91384819D01*
X133575357Y-91384819D02*
X133480119Y-91384819D01*
X133480119Y-91384819D02*
X133337262Y-91337200D01*
X133337262Y-91337200D02*
X133242024Y-91241961D01*
X133242024Y-91241961D02*
X133194405Y-91146723D01*
X133194405Y-91146723D02*
X133146786Y-90956247D01*
X133146786Y-90956247D02*
X133146786Y-90813390D01*
X133146786Y-90813390D02*
X133194405Y-90622914D01*
X133194405Y-90622914D02*
X133242024Y-90527676D01*
X133242024Y-90527676D02*
X133337262Y-90432438D01*
X133337262Y-90432438D02*
X133480119Y-90384819D01*
X133480119Y-90384819D02*
X133575357Y-90384819D01*
X133575357Y-90384819D02*
X133718214Y-90432438D01*
X133718214Y-90432438D02*
X133765833Y-90480057D01*
X134242024Y-91384819D02*
X134432500Y-91384819D01*
X134432500Y-91384819D02*
X134527738Y-91337200D01*
X134527738Y-91337200D02*
X134575357Y-91289580D01*
X134575357Y-91289580D02*
X134670595Y-91146723D01*
X134670595Y-91146723D02*
X134718214Y-90956247D01*
X134718214Y-90956247D02*
X134718214Y-90575295D01*
X134718214Y-90575295D02*
X134670595Y-90480057D01*
X134670595Y-90480057D02*
X134622976Y-90432438D01*
X134622976Y-90432438D02*
X134527738Y-90384819D01*
X134527738Y-90384819D02*
X134337262Y-90384819D01*
X134337262Y-90384819D02*
X134242024Y-90432438D01*
X134242024Y-90432438D02*
X134194405Y-90480057D01*
X134194405Y-90480057D02*
X134146786Y-90575295D01*
X134146786Y-90575295D02*
X134146786Y-90813390D01*
X134146786Y-90813390D02*
X134194405Y-90908628D01*
X134194405Y-90908628D02*
X134242024Y-90956247D01*
X134242024Y-90956247D02*
X134337262Y-91003866D01*
X134337262Y-91003866D02*
X134527738Y-91003866D01*
X134527738Y-91003866D02*
X134622976Y-90956247D01*
X134622976Y-90956247D02*
X134670595Y-90908628D01*
X134670595Y-90908628D02*
X134718214Y-90813390D01*
X145625595Y-89529819D02*
X145625595Y-90339342D01*
X145625595Y-90339342D02*
X145673214Y-90434580D01*
X145673214Y-90434580D02*
X145720833Y-90482200D01*
X145720833Y-90482200D02*
X145816071Y-90529819D01*
X145816071Y-90529819D02*
X146006547Y-90529819D01*
X146006547Y-90529819D02*
X146101785Y-90482200D01*
X146101785Y-90482200D02*
X146149404Y-90434580D01*
X146149404Y-90434580D02*
X146197023Y-90339342D01*
X146197023Y-90339342D02*
X146197023Y-89529819D01*
X146625595Y-89625057D02*
X146673214Y-89577438D01*
X146673214Y-89577438D02*
X146768452Y-89529819D01*
X146768452Y-89529819D02*
X147006547Y-89529819D01*
X147006547Y-89529819D02*
X147101785Y-89577438D01*
X147101785Y-89577438D02*
X147149404Y-89625057D01*
X147149404Y-89625057D02*
X147197023Y-89720295D01*
X147197023Y-89720295D02*
X147197023Y-89815533D01*
X147197023Y-89815533D02*
X147149404Y-89958390D01*
X147149404Y-89958390D02*
X146577976Y-90529819D01*
X146577976Y-90529819D02*
X147197023Y-90529819D01*
X101920833Y-92524819D02*
X101587500Y-92048628D01*
X101349405Y-92524819D02*
X101349405Y-91524819D01*
X101349405Y-91524819D02*
X101730357Y-91524819D01*
X101730357Y-91524819D02*
X101825595Y-91572438D01*
X101825595Y-91572438D02*
X101873214Y-91620057D01*
X101873214Y-91620057D02*
X101920833Y-91715295D01*
X101920833Y-91715295D02*
X101920833Y-91858152D01*
X101920833Y-91858152D02*
X101873214Y-91953390D01*
X101873214Y-91953390D02*
X101825595Y-92001009D01*
X101825595Y-92001009D02*
X101730357Y-92048628D01*
X101730357Y-92048628D02*
X101349405Y-92048628D01*
X102254167Y-91524819D02*
X102873214Y-91524819D01*
X102873214Y-91524819D02*
X102539881Y-91905771D01*
X102539881Y-91905771D02*
X102682738Y-91905771D01*
X102682738Y-91905771D02*
X102777976Y-91953390D01*
X102777976Y-91953390D02*
X102825595Y-92001009D01*
X102825595Y-92001009D02*
X102873214Y-92096247D01*
X102873214Y-92096247D02*
X102873214Y-92334342D01*
X102873214Y-92334342D02*
X102825595Y-92429580D01*
X102825595Y-92429580D02*
X102777976Y-92477200D01*
X102777976Y-92477200D02*
X102682738Y-92524819D01*
X102682738Y-92524819D02*
X102397024Y-92524819D01*
X102397024Y-92524819D02*
X102301786Y-92477200D01*
X102301786Y-92477200D02*
X102254167Y-92429580D01*
X101419405Y-81999819D02*
X101419405Y-80999819D01*
X101419405Y-80999819D02*
X101657500Y-80999819D01*
X101657500Y-80999819D02*
X101800357Y-81047438D01*
X101800357Y-81047438D02*
X101895595Y-81142676D01*
X101895595Y-81142676D02*
X101943214Y-81237914D01*
X101943214Y-81237914D02*
X101990833Y-81428390D01*
X101990833Y-81428390D02*
X101990833Y-81571247D01*
X101990833Y-81571247D02*
X101943214Y-81761723D01*
X101943214Y-81761723D02*
X101895595Y-81856961D01*
X101895595Y-81856961D02*
X101800357Y-81952200D01*
X101800357Y-81952200D02*
X101657500Y-81999819D01*
X101657500Y-81999819D02*
X101419405Y-81999819D01*
X102371786Y-81095057D02*
X102419405Y-81047438D01*
X102419405Y-81047438D02*
X102514643Y-80999819D01*
X102514643Y-80999819D02*
X102752738Y-80999819D01*
X102752738Y-80999819D02*
X102847976Y-81047438D01*
X102847976Y-81047438D02*
X102895595Y-81095057D01*
X102895595Y-81095057D02*
X102943214Y-81190295D01*
X102943214Y-81190295D02*
X102943214Y-81285533D01*
X102943214Y-81285533D02*
X102895595Y-81428390D01*
X102895595Y-81428390D02*
X102324167Y-81999819D01*
X102324167Y-81999819D02*
X102943214Y-81999819D01*
X110319642Y-123179580D02*
X110272023Y-123227200D01*
X110272023Y-123227200D02*
X110129166Y-123274819D01*
X110129166Y-123274819D02*
X110033928Y-123274819D01*
X110033928Y-123274819D02*
X109891071Y-123227200D01*
X109891071Y-123227200D02*
X109795833Y-123131961D01*
X109795833Y-123131961D02*
X109748214Y-123036723D01*
X109748214Y-123036723D02*
X109700595Y-122846247D01*
X109700595Y-122846247D02*
X109700595Y-122703390D01*
X109700595Y-122703390D02*
X109748214Y-122512914D01*
X109748214Y-122512914D02*
X109795833Y-122417676D01*
X109795833Y-122417676D02*
X109891071Y-122322438D01*
X109891071Y-122322438D02*
X110033928Y-122274819D01*
X110033928Y-122274819D02*
X110129166Y-122274819D01*
X110129166Y-122274819D02*
X110272023Y-122322438D01*
X110272023Y-122322438D02*
X110319642Y-122370057D01*
X111272023Y-123274819D02*
X110700595Y-123274819D01*
X110986309Y-123274819D02*
X110986309Y-122274819D01*
X110986309Y-122274819D02*
X110891071Y-122417676D01*
X110891071Y-122417676D02*
X110795833Y-122512914D01*
X110795833Y-122512914D02*
X110700595Y-122560533D01*
X112129166Y-122608152D02*
X112129166Y-123274819D01*
X111891071Y-122227200D02*
X111652976Y-122941485D01*
X111652976Y-122941485D02*
X112272023Y-122941485D01*
X96415833Y-111494819D02*
X96082500Y-111018628D01*
X95844405Y-111494819D02*
X95844405Y-110494819D01*
X95844405Y-110494819D02*
X96225357Y-110494819D01*
X96225357Y-110494819D02*
X96320595Y-110542438D01*
X96320595Y-110542438D02*
X96368214Y-110590057D01*
X96368214Y-110590057D02*
X96415833Y-110685295D01*
X96415833Y-110685295D02*
X96415833Y-110828152D01*
X96415833Y-110828152D02*
X96368214Y-110923390D01*
X96368214Y-110923390D02*
X96320595Y-110971009D01*
X96320595Y-110971009D02*
X96225357Y-111018628D01*
X96225357Y-111018628D02*
X95844405Y-111018628D01*
X97272976Y-110494819D02*
X97082500Y-110494819D01*
X97082500Y-110494819D02*
X96987262Y-110542438D01*
X96987262Y-110542438D02*
X96939643Y-110590057D01*
X96939643Y-110590057D02*
X96844405Y-110732914D01*
X96844405Y-110732914D02*
X96796786Y-110923390D01*
X96796786Y-110923390D02*
X96796786Y-111304342D01*
X96796786Y-111304342D02*
X96844405Y-111399580D01*
X96844405Y-111399580D02*
X96892024Y-111447200D01*
X96892024Y-111447200D02*
X96987262Y-111494819D01*
X96987262Y-111494819D02*
X97177738Y-111494819D01*
X97177738Y-111494819D02*
X97272976Y-111447200D01*
X97272976Y-111447200D02*
X97320595Y-111399580D01*
X97320595Y-111399580D02*
X97368214Y-111304342D01*
X97368214Y-111304342D02*
X97368214Y-111066247D01*
X97368214Y-111066247D02*
X97320595Y-110971009D01*
X97320595Y-110971009D02*
X97272976Y-110923390D01*
X97272976Y-110923390D02*
X97177738Y-110875771D01*
X97177738Y-110875771D02*
X96987262Y-110875771D01*
X96987262Y-110875771D02*
X96892024Y-110923390D01*
X96892024Y-110923390D02*
X96844405Y-110971009D01*
X96844405Y-110971009D02*
X96796786Y-111066247D01*
X133289642Y-93259580D02*
X133242023Y-93307200D01*
X133242023Y-93307200D02*
X133099166Y-93354819D01*
X133099166Y-93354819D02*
X133003928Y-93354819D01*
X133003928Y-93354819D02*
X132861071Y-93307200D01*
X132861071Y-93307200D02*
X132765833Y-93211961D01*
X132765833Y-93211961D02*
X132718214Y-93116723D01*
X132718214Y-93116723D02*
X132670595Y-92926247D01*
X132670595Y-92926247D02*
X132670595Y-92783390D01*
X132670595Y-92783390D02*
X132718214Y-92592914D01*
X132718214Y-92592914D02*
X132765833Y-92497676D01*
X132765833Y-92497676D02*
X132861071Y-92402438D01*
X132861071Y-92402438D02*
X133003928Y-92354819D01*
X133003928Y-92354819D02*
X133099166Y-92354819D01*
X133099166Y-92354819D02*
X133242023Y-92402438D01*
X133242023Y-92402438D02*
X133289642Y-92450057D01*
X134242023Y-93354819D02*
X133670595Y-93354819D01*
X133956309Y-93354819D02*
X133956309Y-92354819D01*
X133956309Y-92354819D02*
X133861071Y-92497676D01*
X133861071Y-92497676D02*
X133765833Y-92592914D01*
X133765833Y-92592914D02*
X133670595Y-92640533D01*
X134861071Y-92354819D02*
X134956309Y-92354819D01*
X134956309Y-92354819D02*
X135051547Y-92402438D01*
X135051547Y-92402438D02*
X135099166Y-92450057D01*
X135099166Y-92450057D02*
X135146785Y-92545295D01*
X135146785Y-92545295D02*
X135194404Y-92735771D01*
X135194404Y-92735771D02*
X135194404Y-92973866D01*
X135194404Y-92973866D02*
X135146785Y-93164342D01*
X135146785Y-93164342D02*
X135099166Y-93259580D01*
X135099166Y-93259580D02*
X135051547Y-93307200D01*
X135051547Y-93307200D02*
X134956309Y-93354819D01*
X134956309Y-93354819D02*
X134861071Y-93354819D01*
X134861071Y-93354819D02*
X134765833Y-93307200D01*
X134765833Y-93307200D02*
X134718214Y-93259580D01*
X134718214Y-93259580D02*
X134670595Y-93164342D01*
X134670595Y-93164342D02*
X134622976Y-92973866D01*
X134622976Y-92973866D02*
X134622976Y-92735771D01*
X134622976Y-92735771D02*
X134670595Y-92545295D01*
X134670595Y-92545295D02*
X134718214Y-92450057D01*
X134718214Y-92450057D02*
X134765833Y-92402438D01*
X134765833Y-92402438D02*
X134861071Y-92354819D01*
X136942499Y-87769819D02*
X136942499Y-86769819D01*
X136942499Y-86769819D02*
X137275832Y-87484104D01*
X137275832Y-87484104D02*
X137609165Y-86769819D01*
X137609165Y-86769819D02*
X137609165Y-87769819D01*
X138037737Y-86865057D02*
X138085356Y-86817438D01*
X138085356Y-86817438D02*
X138180594Y-86769819D01*
X138180594Y-86769819D02*
X138418689Y-86769819D01*
X138418689Y-86769819D02*
X138513927Y-86817438D01*
X138513927Y-86817438D02*
X138561546Y-86865057D01*
X138561546Y-86865057D02*
X138609165Y-86960295D01*
X138609165Y-86960295D02*
X138609165Y-87055533D01*
X138609165Y-87055533D02*
X138561546Y-87198390D01*
X138561546Y-87198390D02*
X137990118Y-87769819D01*
X137990118Y-87769819D02*
X138609165Y-87769819D01*
X139609165Y-87674580D02*
X139561546Y-87722200D01*
X139561546Y-87722200D02*
X139418689Y-87769819D01*
X139418689Y-87769819D02*
X139323451Y-87769819D01*
X139323451Y-87769819D02*
X139180594Y-87722200D01*
X139180594Y-87722200D02*
X139085356Y-87626961D01*
X139085356Y-87626961D02*
X139037737Y-87531723D01*
X139037737Y-87531723D02*
X138990118Y-87341247D01*
X138990118Y-87341247D02*
X138990118Y-87198390D01*
X138990118Y-87198390D02*
X139037737Y-87007914D01*
X139037737Y-87007914D02*
X139085356Y-86912676D01*
X139085356Y-86912676D02*
X139180594Y-86817438D01*
X139180594Y-86817438D02*
X139323451Y-86769819D01*
X139323451Y-86769819D02*
X139418689Y-86769819D01*
X139418689Y-86769819D02*
X139561546Y-86817438D01*
X139561546Y-86817438D02*
X139609165Y-86865057D01*
X140180594Y-87769819D02*
X140085356Y-87722200D01*
X140085356Y-87722200D02*
X140037737Y-87674580D01*
X140037737Y-87674580D02*
X139990118Y-87579342D01*
X139990118Y-87579342D02*
X139990118Y-87293628D01*
X139990118Y-87293628D02*
X140037737Y-87198390D01*
X140037737Y-87198390D02*
X140085356Y-87150771D01*
X140085356Y-87150771D02*
X140180594Y-87103152D01*
X140180594Y-87103152D02*
X140323451Y-87103152D01*
X140323451Y-87103152D02*
X140418689Y-87150771D01*
X140418689Y-87150771D02*
X140466308Y-87198390D01*
X140466308Y-87198390D02*
X140513927Y-87293628D01*
X140513927Y-87293628D02*
X140513927Y-87579342D01*
X140513927Y-87579342D02*
X140466308Y-87674580D01*
X140466308Y-87674580D02*
X140418689Y-87722200D01*
X140418689Y-87722200D02*
X140323451Y-87769819D01*
X140323451Y-87769819D02*
X140180594Y-87769819D01*
X140942499Y-87103152D02*
X140942499Y-87769819D01*
X140942499Y-87198390D02*
X140990118Y-87150771D01*
X140990118Y-87150771D02*
X141085356Y-87103152D01*
X141085356Y-87103152D02*
X141228213Y-87103152D01*
X141228213Y-87103152D02*
X141323451Y-87150771D01*
X141323451Y-87150771D02*
X141371070Y-87246009D01*
X141371070Y-87246009D02*
X141371070Y-87769819D01*
X141704404Y-87103152D02*
X142085356Y-87103152D01*
X141847261Y-86769819D02*
X141847261Y-87626961D01*
X141847261Y-87626961D02*
X141894880Y-87722200D01*
X141894880Y-87722200D02*
X141990118Y-87769819D01*
X141990118Y-87769819D02*
X142085356Y-87769819D01*
X142418690Y-87769819D02*
X142418690Y-87103152D01*
X142418690Y-87293628D02*
X142466309Y-87198390D01*
X142466309Y-87198390D02*
X142513928Y-87150771D01*
X142513928Y-87150771D02*
X142609166Y-87103152D01*
X142609166Y-87103152D02*
X142704404Y-87103152D01*
X143180595Y-87769819D02*
X143085357Y-87722200D01*
X143085357Y-87722200D02*
X143037738Y-87674580D01*
X143037738Y-87674580D02*
X142990119Y-87579342D01*
X142990119Y-87579342D02*
X142990119Y-87293628D01*
X142990119Y-87293628D02*
X143037738Y-87198390D01*
X143037738Y-87198390D02*
X143085357Y-87150771D01*
X143085357Y-87150771D02*
X143180595Y-87103152D01*
X143180595Y-87103152D02*
X143323452Y-87103152D01*
X143323452Y-87103152D02*
X143418690Y-87150771D01*
X143418690Y-87150771D02*
X143466309Y-87198390D01*
X143466309Y-87198390D02*
X143513928Y-87293628D01*
X143513928Y-87293628D02*
X143513928Y-87579342D01*
X143513928Y-87579342D02*
X143466309Y-87674580D01*
X143466309Y-87674580D02*
X143418690Y-87722200D01*
X143418690Y-87722200D02*
X143323452Y-87769819D01*
X143323452Y-87769819D02*
X143180595Y-87769819D01*
X144085357Y-87769819D02*
X143990119Y-87722200D01*
X143990119Y-87722200D02*
X143942500Y-87626961D01*
X143942500Y-87626961D02*
X143942500Y-86769819D01*
X144990119Y-87769819D02*
X144418691Y-87769819D01*
X144704405Y-87769819D02*
X144704405Y-86769819D01*
X144704405Y-86769819D02*
X144609167Y-86912676D01*
X144609167Y-86912676D02*
X144513929Y-87007914D01*
X144513929Y-87007914D02*
X144418691Y-87055533D01*
X101920833Y-90014819D02*
X101587500Y-89538628D01*
X101349405Y-90014819D02*
X101349405Y-89014819D01*
X101349405Y-89014819D02*
X101730357Y-89014819D01*
X101730357Y-89014819D02*
X101825595Y-89062438D01*
X101825595Y-89062438D02*
X101873214Y-89110057D01*
X101873214Y-89110057D02*
X101920833Y-89205295D01*
X101920833Y-89205295D02*
X101920833Y-89348152D01*
X101920833Y-89348152D02*
X101873214Y-89443390D01*
X101873214Y-89443390D02*
X101825595Y-89491009D01*
X101825595Y-89491009D02*
X101730357Y-89538628D01*
X101730357Y-89538628D02*
X101349405Y-89538628D01*
X102777976Y-89348152D02*
X102777976Y-90014819D01*
X102539881Y-88967200D02*
X102301786Y-89681485D01*
X102301786Y-89681485D02*
X102920833Y-89681485D01*
X97340833Y-81859580D02*
X97293214Y-81907200D01*
X97293214Y-81907200D02*
X97150357Y-81954819D01*
X97150357Y-81954819D02*
X97055119Y-81954819D01*
X97055119Y-81954819D02*
X96912262Y-81907200D01*
X96912262Y-81907200D02*
X96817024Y-81811961D01*
X96817024Y-81811961D02*
X96769405Y-81716723D01*
X96769405Y-81716723D02*
X96721786Y-81526247D01*
X96721786Y-81526247D02*
X96721786Y-81383390D01*
X96721786Y-81383390D02*
X96769405Y-81192914D01*
X96769405Y-81192914D02*
X96817024Y-81097676D01*
X96817024Y-81097676D02*
X96912262Y-81002438D01*
X96912262Y-81002438D02*
X97055119Y-80954819D01*
X97055119Y-80954819D02*
X97150357Y-80954819D01*
X97150357Y-80954819D02*
X97293214Y-81002438D01*
X97293214Y-81002438D02*
X97340833Y-81050057D01*
X98293214Y-81954819D02*
X97721786Y-81954819D01*
X98007500Y-81954819D02*
X98007500Y-80954819D01*
X98007500Y-80954819D02*
X97912262Y-81097676D01*
X97912262Y-81097676D02*
X97817024Y-81192914D01*
X97817024Y-81192914D02*
X97721786Y-81240533D01*
X67742856Y-80506819D02*
X67409523Y-80030628D01*
X67171428Y-80506819D02*
X67171428Y-79506819D01*
X67171428Y-79506819D02*
X67552380Y-79506819D01*
X67552380Y-79506819D02*
X67647618Y-79554438D01*
X67647618Y-79554438D02*
X67695237Y-79602057D01*
X67695237Y-79602057D02*
X67742856Y-79697295D01*
X67742856Y-79697295D02*
X67742856Y-79840152D01*
X67742856Y-79840152D02*
X67695237Y-79935390D01*
X67695237Y-79935390D02*
X67647618Y-79983009D01*
X67647618Y-79983009D02*
X67552380Y-80030628D01*
X67552380Y-80030628D02*
X67171428Y-80030628D01*
X68123809Y-80459200D02*
X68266666Y-80506819D01*
X68266666Y-80506819D02*
X68504761Y-80506819D01*
X68504761Y-80506819D02*
X68599999Y-80459200D01*
X68599999Y-80459200D02*
X68647618Y-80411580D01*
X68647618Y-80411580D02*
X68695237Y-80316342D01*
X68695237Y-80316342D02*
X68695237Y-80221104D01*
X68695237Y-80221104D02*
X68647618Y-80125866D01*
X68647618Y-80125866D02*
X68599999Y-80078247D01*
X68599999Y-80078247D02*
X68504761Y-80030628D01*
X68504761Y-80030628D02*
X68314285Y-79983009D01*
X68314285Y-79983009D02*
X68219047Y-79935390D01*
X68219047Y-79935390D02*
X68171428Y-79887771D01*
X68171428Y-79887771D02*
X68123809Y-79792533D01*
X68123809Y-79792533D02*
X68123809Y-79697295D01*
X68123809Y-79697295D02*
X68171428Y-79602057D01*
X68171428Y-79602057D02*
X68219047Y-79554438D01*
X68219047Y-79554438D02*
X68314285Y-79506819D01*
X68314285Y-79506819D02*
X68552380Y-79506819D01*
X68552380Y-79506819D02*
X68695237Y-79554438D01*
X69504761Y-80459200D02*
X69409523Y-80506819D01*
X69409523Y-80506819D02*
X69219047Y-80506819D01*
X69219047Y-80506819D02*
X69123809Y-80459200D01*
X69123809Y-80459200D02*
X69076190Y-80363961D01*
X69076190Y-80363961D02*
X69076190Y-79983009D01*
X69076190Y-79983009D02*
X69123809Y-79887771D01*
X69123809Y-79887771D02*
X69219047Y-79840152D01*
X69219047Y-79840152D02*
X69409523Y-79840152D01*
X69409523Y-79840152D02*
X69504761Y-79887771D01*
X69504761Y-79887771D02*
X69552380Y-79983009D01*
X69552380Y-79983009D02*
X69552380Y-80078247D01*
X69552380Y-80078247D02*
X69076190Y-80173485D01*
X69980952Y-79840152D02*
X69980952Y-80506819D01*
X69980952Y-79935390D02*
X70028571Y-79887771D01*
X70028571Y-79887771D02*
X70123809Y-79840152D01*
X70123809Y-79840152D02*
X70266666Y-79840152D01*
X70266666Y-79840152D02*
X70361904Y-79887771D01*
X70361904Y-79887771D02*
X70409523Y-79983009D01*
X70409523Y-79983009D02*
X70409523Y-80506819D01*
X70838095Y-80459200D02*
X70933333Y-80506819D01*
X70933333Y-80506819D02*
X71123809Y-80506819D01*
X71123809Y-80506819D02*
X71219047Y-80459200D01*
X71219047Y-80459200D02*
X71266666Y-80363961D01*
X71266666Y-80363961D02*
X71266666Y-80316342D01*
X71266666Y-80316342D02*
X71219047Y-80221104D01*
X71219047Y-80221104D02*
X71123809Y-80173485D01*
X71123809Y-80173485D02*
X70980952Y-80173485D01*
X70980952Y-80173485D02*
X70885714Y-80125866D01*
X70885714Y-80125866D02*
X70838095Y-80030628D01*
X70838095Y-80030628D02*
X70838095Y-79983009D01*
X70838095Y-79983009D02*
X70885714Y-79887771D01*
X70885714Y-79887771D02*
X70980952Y-79840152D01*
X70980952Y-79840152D02*
X71123809Y-79840152D01*
X71123809Y-79840152D02*
X71219047Y-79887771D01*
X72076190Y-80459200D02*
X71980952Y-80506819D01*
X71980952Y-80506819D02*
X71790476Y-80506819D01*
X71790476Y-80506819D02*
X71695238Y-80459200D01*
X71695238Y-80459200D02*
X71647619Y-80363961D01*
X71647619Y-80363961D02*
X71647619Y-79983009D01*
X71647619Y-79983009D02*
X71695238Y-79887771D01*
X71695238Y-79887771D02*
X71790476Y-79840152D01*
X71790476Y-79840152D02*
X71980952Y-79840152D01*
X71980952Y-79840152D02*
X72076190Y-79887771D01*
X72076190Y-79887771D02*
X72123809Y-79983009D01*
X72123809Y-79983009D02*
X72123809Y-80078247D01*
X72123809Y-80078247D02*
X71647619Y-80173485D01*
X72409524Y-79506819D02*
X72980952Y-79506819D01*
X72695238Y-80506819D02*
X72695238Y-79506819D01*
X73314286Y-80506819D02*
X73314286Y-79506819D01*
X73314286Y-79506819D02*
X73695238Y-79506819D01*
X73695238Y-79506819D02*
X73790476Y-79554438D01*
X73790476Y-79554438D02*
X73838095Y-79602057D01*
X73838095Y-79602057D02*
X73885714Y-79697295D01*
X73885714Y-79697295D02*
X73885714Y-79840152D01*
X73885714Y-79840152D02*
X73838095Y-79935390D01*
X73838095Y-79935390D02*
X73790476Y-79983009D01*
X73790476Y-79983009D02*
X73695238Y-80030628D01*
X73695238Y-80030628D02*
X73314286Y-80030628D01*
X74314286Y-80125866D02*
X75076191Y-80125866D01*
X76076190Y-80506819D02*
X75504762Y-80506819D01*
X75790476Y-80506819D02*
X75790476Y-79506819D01*
X75790476Y-79506819D02*
X75695238Y-79649676D01*
X75695238Y-79649676D02*
X75600000Y-79744914D01*
X75600000Y-79744914D02*
X75504762Y-79792533D01*
X101920833Y-84994819D02*
X101587500Y-84518628D01*
X101349405Y-84994819D02*
X101349405Y-83994819D01*
X101349405Y-83994819D02*
X101730357Y-83994819D01*
X101730357Y-83994819D02*
X101825595Y-84042438D01*
X101825595Y-84042438D02*
X101873214Y-84090057D01*
X101873214Y-84090057D02*
X101920833Y-84185295D01*
X101920833Y-84185295D02*
X101920833Y-84328152D01*
X101920833Y-84328152D02*
X101873214Y-84423390D01*
X101873214Y-84423390D02*
X101825595Y-84471009D01*
X101825595Y-84471009D02*
X101730357Y-84518628D01*
X101730357Y-84518628D02*
X101349405Y-84518628D01*
X102873214Y-84994819D02*
X102301786Y-84994819D01*
X102587500Y-84994819D02*
X102587500Y-83994819D01*
X102587500Y-83994819D02*
X102492262Y-84137676D01*
X102492262Y-84137676D02*
X102397024Y-84232914D01*
X102397024Y-84232914D02*
X102301786Y-84280533D01*
X133289642Y-97199580D02*
X133242023Y-97247200D01*
X133242023Y-97247200D02*
X133099166Y-97294819D01*
X133099166Y-97294819D02*
X133003928Y-97294819D01*
X133003928Y-97294819D02*
X132861071Y-97247200D01*
X132861071Y-97247200D02*
X132765833Y-97151961D01*
X132765833Y-97151961D02*
X132718214Y-97056723D01*
X132718214Y-97056723D02*
X132670595Y-96866247D01*
X132670595Y-96866247D02*
X132670595Y-96723390D01*
X132670595Y-96723390D02*
X132718214Y-96532914D01*
X132718214Y-96532914D02*
X132765833Y-96437676D01*
X132765833Y-96437676D02*
X132861071Y-96342438D01*
X132861071Y-96342438D02*
X133003928Y-96294819D01*
X133003928Y-96294819D02*
X133099166Y-96294819D01*
X133099166Y-96294819D02*
X133242023Y-96342438D01*
X133242023Y-96342438D02*
X133289642Y-96390057D01*
X134242023Y-97294819D02*
X133670595Y-97294819D01*
X133956309Y-97294819D02*
X133956309Y-96294819D01*
X133956309Y-96294819D02*
X133861071Y-96437676D01*
X133861071Y-96437676D02*
X133765833Y-96532914D01*
X133765833Y-96532914D02*
X133670595Y-96580533D01*
X134622976Y-96390057D02*
X134670595Y-96342438D01*
X134670595Y-96342438D02*
X134765833Y-96294819D01*
X134765833Y-96294819D02*
X135003928Y-96294819D01*
X135003928Y-96294819D02*
X135099166Y-96342438D01*
X135099166Y-96342438D02*
X135146785Y-96390057D01*
X135146785Y-96390057D02*
X135194404Y-96485295D01*
X135194404Y-96485295D02*
X135194404Y-96580533D01*
X135194404Y-96580533D02*
X135146785Y-96723390D01*
X135146785Y-96723390D02*
X134575357Y-97294819D01*
X134575357Y-97294819D02*
X135194404Y-97294819D01*
X133198333Y-83699580D02*
X133150714Y-83747200D01*
X133150714Y-83747200D02*
X133007857Y-83794819D01*
X133007857Y-83794819D02*
X132912619Y-83794819D01*
X132912619Y-83794819D02*
X132769762Y-83747200D01*
X132769762Y-83747200D02*
X132674524Y-83651961D01*
X132674524Y-83651961D02*
X132626905Y-83556723D01*
X132626905Y-83556723D02*
X132579286Y-83366247D01*
X132579286Y-83366247D02*
X132579286Y-83223390D01*
X132579286Y-83223390D02*
X132626905Y-83032914D01*
X132626905Y-83032914D02*
X132674524Y-82937676D01*
X132674524Y-82937676D02*
X132769762Y-82842438D01*
X132769762Y-82842438D02*
X132912619Y-82794819D01*
X132912619Y-82794819D02*
X133007857Y-82794819D01*
X133007857Y-82794819D02*
X133150714Y-82842438D01*
X133150714Y-82842438D02*
X133198333Y-82890057D01*
X134103095Y-82794819D02*
X133626905Y-82794819D01*
X133626905Y-82794819D02*
X133579286Y-83271009D01*
X133579286Y-83271009D02*
X133626905Y-83223390D01*
X133626905Y-83223390D02*
X133722143Y-83175771D01*
X133722143Y-83175771D02*
X133960238Y-83175771D01*
X133960238Y-83175771D02*
X134055476Y-83223390D01*
X134055476Y-83223390D02*
X134103095Y-83271009D01*
X134103095Y-83271009D02*
X134150714Y-83366247D01*
X134150714Y-83366247D02*
X134150714Y-83604342D01*
X134150714Y-83604342D02*
X134103095Y-83699580D01*
X134103095Y-83699580D02*
X134055476Y-83747200D01*
X134055476Y-83747200D02*
X133960238Y-83794819D01*
X133960238Y-83794819D02*
X133722143Y-83794819D01*
X133722143Y-83794819D02*
X133626905Y-83747200D01*
X133626905Y-83747200D02*
X133579286Y-83699580D01*
X96415833Y-119024819D02*
X96082500Y-118548628D01*
X95844405Y-119024819D02*
X95844405Y-118024819D01*
X95844405Y-118024819D02*
X96225357Y-118024819D01*
X96225357Y-118024819D02*
X96320595Y-118072438D01*
X96320595Y-118072438D02*
X96368214Y-118120057D01*
X96368214Y-118120057D02*
X96415833Y-118215295D01*
X96415833Y-118215295D02*
X96415833Y-118358152D01*
X96415833Y-118358152D02*
X96368214Y-118453390D01*
X96368214Y-118453390D02*
X96320595Y-118501009D01*
X96320595Y-118501009D02*
X96225357Y-118548628D01*
X96225357Y-118548628D02*
X95844405Y-118548628D01*
X96892024Y-119024819D02*
X97082500Y-119024819D01*
X97082500Y-119024819D02*
X97177738Y-118977200D01*
X97177738Y-118977200D02*
X97225357Y-118929580D01*
X97225357Y-118929580D02*
X97320595Y-118786723D01*
X97320595Y-118786723D02*
X97368214Y-118596247D01*
X97368214Y-118596247D02*
X97368214Y-118215295D01*
X97368214Y-118215295D02*
X97320595Y-118120057D01*
X97320595Y-118120057D02*
X97272976Y-118072438D01*
X97272976Y-118072438D02*
X97177738Y-118024819D01*
X97177738Y-118024819D02*
X96987262Y-118024819D01*
X96987262Y-118024819D02*
X96892024Y-118072438D01*
X96892024Y-118072438D02*
X96844405Y-118120057D01*
X96844405Y-118120057D02*
X96796786Y-118215295D01*
X96796786Y-118215295D02*
X96796786Y-118453390D01*
X96796786Y-118453390D02*
X96844405Y-118548628D01*
X96844405Y-118548628D02*
X96892024Y-118596247D01*
X96892024Y-118596247D02*
X96987262Y-118643866D01*
X96987262Y-118643866D02*
X97177738Y-118643866D01*
X97177738Y-118643866D02*
X97272976Y-118596247D01*
X97272976Y-118596247D02*
X97320595Y-118548628D01*
X97320595Y-118548628D02*
X97368214Y-118453390D01*
X136942499Y-95139819D02*
X136942499Y-94139819D01*
X136942499Y-94139819D02*
X137275832Y-94854104D01*
X137275832Y-94854104D02*
X137609165Y-94139819D01*
X137609165Y-94139819D02*
X137609165Y-95139819D01*
X138513927Y-94473152D02*
X138513927Y-95139819D01*
X138275832Y-94092200D02*
X138037737Y-94806485D01*
X138037737Y-94806485D02*
X138656784Y-94806485D01*
X139609165Y-95044580D02*
X139561546Y-95092200D01*
X139561546Y-95092200D02*
X139418689Y-95139819D01*
X139418689Y-95139819D02*
X139323451Y-95139819D01*
X139323451Y-95139819D02*
X139180594Y-95092200D01*
X139180594Y-95092200D02*
X139085356Y-94996961D01*
X139085356Y-94996961D02*
X139037737Y-94901723D01*
X139037737Y-94901723D02*
X138990118Y-94711247D01*
X138990118Y-94711247D02*
X138990118Y-94568390D01*
X138990118Y-94568390D02*
X139037737Y-94377914D01*
X139037737Y-94377914D02*
X139085356Y-94282676D01*
X139085356Y-94282676D02*
X139180594Y-94187438D01*
X139180594Y-94187438D02*
X139323451Y-94139819D01*
X139323451Y-94139819D02*
X139418689Y-94139819D01*
X139418689Y-94139819D02*
X139561546Y-94187438D01*
X139561546Y-94187438D02*
X139609165Y-94235057D01*
X140180594Y-95139819D02*
X140085356Y-95092200D01*
X140085356Y-95092200D02*
X140037737Y-95044580D01*
X140037737Y-95044580D02*
X139990118Y-94949342D01*
X139990118Y-94949342D02*
X139990118Y-94663628D01*
X139990118Y-94663628D02*
X140037737Y-94568390D01*
X140037737Y-94568390D02*
X140085356Y-94520771D01*
X140085356Y-94520771D02*
X140180594Y-94473152D01*
X140180594Y-94473152D02*
X140323451Y-94473152D01*
X140323451Y-94473152D02*
X140418689Y-94520771D01*
X140418689Y-94520771D02*
X140466308Y-94568390D01*
X140466308Y-94568390D02*
X140513927Y-94663628D01*
X140513927Y-94663628D02*
X140513927Y-94949342D01*
X140513927Y-94949342D02*
X140466308Y-95044580D01*
X140466308Y-95044580D02*
X140418689Y-95092200D01*
X140418689Y-95092200D02*
X140323451Y-95139819D01*
X140323451Y-95139819D02*
X140180594Y-95139819D01*
X140942499Y-94473152D02*
X140942499Y-95139819D01*
X140942499Y-94568390D02*
X140990118Y-94520771D01*
X140990118Y-94520771D02*
X141085356Y-94473152D01*
X141085356Y-94473152D02*
X141228213Y-94473152D01*
X141228213Y-94473152D02*
X141323451Y-94520771D01*
X141323451Y-94520771D02*
X141371070Y-94616009D01*
X141371070Y-94616009D02*
X141371070Y-95139819D01*
X141704404Y-94473152D02*
X142085356Y-94473152D01*
X141847261Y-94139819D02*
X141847261Y-94996961D01*
X141847261Y-94996961D02*
X141894880Y-95092200D01*
X141894880Y-95092200D02*
X141990118Y-95139819D01*
X141990118Y-95139819D02*
X142085356Y-95139819D01*
X142418690Y-95139819D02*
X142418690Y-94473152D01*
X142418690Y-94663628D02*
X142466309Y-94568390D01*
X142466309Y-94568390D02*
X142513928Y-94520771D01*
X142513928Y-94520771D02*
X142609166Y-94473152D01*
X142609166Y-94473152D02*
X142704404Y-94473152D01*
X143180595Y-95139819D02*
X143085357Y-95092200D01*
X143085357Y-95092200D02*
X143037738Y-95044580D01*
X143037738Y-95044580D02*
X142990119Y-94949342D01*
X142990119Y-94949342D02*
X142990119Y-94663628D01*
X142990119Y-94663628D02*
X143037738Y-94568390D01*
X143037738Y-94568390D02*
X143085357Y-94520771D01*
X143085357Y-94520771D02*
X143180595Y-94473152D01*
X143180595Y-94473152D02*
X143323452Y-94473152D01*
X143323452Y-94473152D02*
X143418690Y-94520771D01*
X143418690Y-94520771D02*
X143466309Y-94568390D01*
X143466309Y-94568390D02*
X143513928Y-94663628D01*
X143513928Y-94663628D02*
X143513928Y-94949342D01*
X143513928Y-94949342D02*
X143466309Y-95044580D01*
X143466309Y-95044580D02*
X143418690Y-95092200D01*
X143418690Y-95092200D02*
X143323452Y-95139819D01*
X143323452Y-95139819D02*
X143180595Y-95139819D01*
X144085357Y-95139819D02*
X143990119Y-95092200D01*
X143990119Y-95092200D02*
X143942500Y-94996961D01*
X143942500Y-94996961D02*
X143942500Y-94139819D01*
X144990119Y-95139819D02*
X144418691Y-95139819D01*
X144704405Y-95139819D02*
X144704405Y-94139819D01*
X144704405Y-94139819D02*
X144609167Y-94282676D01*
X144609167Y-94282676D02*
X144513929Y-94377914D01*
X144513929Y-94377914D02*
X144418691Y-94425533D01*
X133765833Y-89319580D02*
X133718214Y-89367200D01*
X133718214Y-89367200D02*
X133575357Y-89414819D01*
X133575357Y-89414819D02*
X133480119Y-89414819D01*
X133480119Y-89414819D02*
X133337262Y-89367200D01*
X133337262Y-89367200D02*
X133242024Y-89271961D01*
X133242024Y-89271961D02*
X133194405Y-89176723D01*
X133194405Y-89176723D02*
X133146786Y-88986247D01*
X133146786Y-88986247D02*
X133146786Y-88843390D01*
X133146786Y-88843390D02*
X133194405Y-88652914D01*
X133194405Y-88652914D02*
X133242024Y-88557676D01*
X133242024Y-88557676D02*
X133337262Y-88462438D01*
X133337262Y-88462438D02*
X133480119Y-88414819D01*
X133480119Y-88414819D02*
X133575357Y-88414819D01*
X133575357Y-88414819D02*
X133718214Y-88462438D01*
X133718214Y-88462438D02*
X133765833Y-88510057D01*
X134337262Y-88843390D02*
X134242024Y-88795771D01*
X134242024Y-88795771D02*
X134194405Y-88748152D01*
X134194405Y-88748152D02*
X134146786Y-88652914D01*
X134146786Y-88652914D02*
X134146786Y-88605295D01*
X134146786Y-88605295D02*
X134194405Y-88510057D01*
X134194405Y-88510057D02*
X134242024Y-88462438D01*
X134242024Y-88462438D02*
X134337262Y-88414819D01*
X134337262Y-88414819D02*
X134527738Y-88414819D01*
X134527738Y-88414819D02*
X134622976Y-88462438D01*
X134622976Y-88462438D02*
X134670595Y-88510057D01*
X134670595Y-88510057D02*
X134718214Y-88605295D01*
X134718214Y-88605295D02*
X134718214Y-88652914D01*
X134718214Y-88652914D02*
X134670595Y-88748152D01*
X134670595Y-88748152D02*
X134622976Y-88795771D01*
X134622976Y-88795771D02*
X134527738Y-88843390D01*
X134527738Y-88843390D02*
X134337262Y-88843390D01*
X134337262Y-88843390D02*
X134242024Y-88891009D01*
X134242024Y-88891009D02*
X134194405Y-88938628D01*
X134194405Y-88938628D02*
X134146786Y-89033866D01*
X134146786Y-89033866D02*
X134146786Y-89224342D01*
X134146786Y-89224342D02*
X134194405Y-89319580D01*
X134194405Y-89319580D02*
X134242024Y-89367200D01*
X134242024Y-89367200D02*
X134337262Y-89414819D01*
X134337262Y-89414819D02*
X134527738Y-89414819D01*
X134527738Y-89414819D02*
X134622976Y-89367200D01*
X134622976Y-89367200D02*
X134670595Y-89319580D01*
X134670595Y-89319580D02*
X134718214Y-89224342D01*
X134718214Y-89224342D02*
X134718214Y-89033866D01*
X134718214Y-89033866D02*
X134670595Y-88938628D01*
X134670595Y-88938628D02*
X134622976Y-88891009D01*
X134622976Y-88891009D02*
X134527738Y-88843390D01*
X96415833Y-108984819D02*
X96082500Y-108508628D01*
X95844405Y-108984819D02*
X95844405Y-107984819D01*
X95844405Y-107984819D02*
X96225357Y-107984819D01*
X96225357Y-107984819D02*
X96320595Y-108032438D01*
X96320595Y-108032438D02*
X96368214Y-108080057D01*
X96368214Y-108080057D02*
X96415833Y-108175295D01*
X96415833Y-108175295D02*
X96415833Y-108318152D01*
X96415833Y-108318152D02*
X96368214Y-108413390D01*
X96368214Y-108413390D02*
X96320595Y-108461009D01*
X96320595Y-108461009D02*
X96225357Y-108508628D01*
X96225357Y-108508628D02*
X95844405Y-108508628D01*
X97320595Y-107984819D02*
X96844405Y-107984819D01*
X96844405Y-107984819D02*
X96796786Y-108461009D01*
X96796786Y-108461009D02*
X96844405Y-108413390D01*
X96844405Y-108413390D02*
X96939643Y-108365771D01*
X96939643Y-108365771D02*
X97177738Y-108365771D01*
X97177738Y-108365771D02*
X97272976Y-108413390D01*
X97272976Y-108413390D02*
X97320595Y-108461009D01*
X97320595Y-108461009D02*
X97368214Y-108556247D01*
X97368214Y-108556247D02*
X97368214Y-108794342D01*
X97368214Y-108794342D02*
X97320595Y-108889580D01*
X97320595Y-108889580D02*
X97272976Y-108937200D01*
X97272976Y-108937200D02*
X97177738Y-108984819D01*
X97177738Y-108984819D02*
X96939643Y-108984819D01*
X96939643Y-108984819D02*
X96844405Y-108937200D01*
X96844405Y-108937200D02*
X96796786Y-108889580D01*
X112809642Y-106379580D02*
X112762023Y-106427200D01*
X112762023Y-106427200D02*
X112619166Y-106474819D01*
X112619166Y-106474819D02*
X112523928Y-106474819D01*
X112523928Y-106474819D02*
X112381071Y-106427200D01*
X112381071Y-106427200D02*
X112285833Y-106331961D01*
X112285833Y-106331961D02*
X112238214Y-106236723D01*
X112238214Y-106236723D02*
X112190595Y-106046247D01*
X112190595Y-106046247D02*
X112190595Y-105903390D01*
X112190595Y-105903390D02*
X112238214Y-105712914D01*
X112238214Y-105712914D02*
X112285833Y-105617676D01*
X112285833Y-105617676D02*
X112381071Y-105522438D01*
X112381071Y-105522438D02*
X112523928Y-105474819D01*
X112523928Y-105474819D02*
X112619166Y-105474819D01*
X112619166Y-105474819D02*
X112762023Y-105522438D01*
X112762023Y-105522438D02*
X112809642Y-105570057D01*
X113762023Y-106474819D02*
X113190595Y-106474819D01*
X113476309Y-106474819D02*
X113476309Y-105474819D01*
X113476309Y-105474819D02*
X113381071Y-105617676D01*
X113381071Y-105617676D02*
X113285833Y-105712914D01*
X113285833Y-105712914D02*
X113190595Y-105760533D01*
X114666785Y-105474819D02*
X114190595Y-105474819D01*
X114190595Y-105474819D02*
X114142976Y-105951009D01*
X114142976Y-105951009D02*
X114190595Y-105903390D01*
X114190595Y-105903390D02*
X114285833Y-105855771D01*
X114285833Y-105855771D02*
X114523928Y-105855771D01*
X114523928Y-105855771D02*
X114619166Y-105903390D01*
X114619166Y-105903390D02*
X114666785Y-105951009D01*
X114666785Y-105951009D02*
X114714404Y-106046247D01*
X114714404Y-106046247D02*
X114714404Y-106284342D01*
X114714404Y-106284342D02*
X114666785Y-106379580D01*
X114666785Y-106379580D02*
X114619166Y-106427200D01*
X114619166Y-106427200D02*
X114523928Y-106474819D01*
X114523928Y-106474819D02*
X114285833Y-106474819D01*
X114285833Y-106474819D02*
X114190595Y-106427200D01*
X114190595Y-106427200D02*
X114142976Y-106379580D01*
X71728571Y-81227200D02*
X71871428Y-81274819D01*
X71871428Y-81274819D02*
X72109523Y-81274819D01*
X72109523Y-81274819D02*
X72204761Y-81227200D01*
X72204761Y-81227200D02*
X72252380Y-81179580D01*
X72252380Y-81179580D02*
X72299999Y-81084342D01*
X72299999Y-81084342D02*
X72299999Y-80989104D01*
X72299999Y-80989104D02*
X72252380Y-80893866D01*
X72252380Y-80893866D02*
X72204761Y-80846247D01*
X72204761Y-80846247D02*
X72109523Y-80798628D01*
X72109523Y-80798628D02*
X71919047Y-80751009D01*
X71919047Y-80751009D02*
X71823809Y-80703390D01*
X71823809Y-80703390D02*
X71776190Y-80655771D01*
X71776190Y-80655771D02*
X71728571Y-80560533D01*
X71728571Y-80560533D02*
X71728571Y-80465295D01*
X71728571Y-80465295D02*
X71776190Y-80370057D01*
X71776190Y-80370057D02*
X71823809Y-80322438D01*
X71823809Y-80322438D02*
X71919047Y-80274819D01*
X71919047Y-80274819D02*
X72157142Y-80274819D01*
X72157142Y-80274819D02*
X72299999Y-80322438D01*
X72728571Y-81274819D02*
X72728571Y-80274819D01*
X72728571Y-80274819D02*
X72966666Y-80274819D01*
X72966666Y-80274819D02*
X73109523Y-80322438D01*
X73109523Y-80322438D02*
X73204761Y-80417676D01*
X73204761Y-80417676D02*
X73252380Y-80512914D01*
X73252380Y-80512914D02*
X73299999Y-80703390D01*
X73299999Y-80703390D02*
X73299999Y-80846247D01*
X73299999Y-80846247D02*
X73252380Y-81036723D01*
X73252380Y-81036723D02*
X73204761Y-81131961D01*
X73204761Y-81131961D02*
X73109523Y-81227200D01*
X73109523Y-81227200D02*
X72966666Y-81274819D01*
X72966666Y-81274819D02*
X72728571Y-81274819D01*
X73680952Y-80989104D02*
X74157142Y-80989104D01*
X73585714Y-81274819D02*
X73919047Y-80274819D01*
X73919047Y-80274819D02*
X74252380Y-81274819D01*
X74585714Y-81274819D02*
X74585714Y-80274819D01*
X74585714Y-80274819D02*
X74966666Y-80274819D01*
X74966666Y-80274819D02*
X75061904Y-80322438D01*
X75061904Y-80322438D02*
X75109523Y-80370057D01*
X75109523Y-80370057D02*
X75157142Y-80465295D01*
X75157142Y-80465295D02*
X75157142Y-80608152D01*
X75157142Y-80608152D02*
X75109523Y-80703390D01*
X75109523Y-80703390D02*
X75061904Y-80751009D01*
X75061904Y-80751009D02*
X74966666Y-80798628D01*
X74966666Y-80798628D02*
X74585714Y-80798628D01*
X76014285Y-80608152D02*
X76014285Y-81274819D01*
X75585714Y-80608152D02*
X75585714Y-81131961D01*
X75585714Y-81131961D02*
X75633333Y-81227200D01*
X75633333Y-81227200D02*
X75728571Y-81274819D01*
X75728571Y-81274819D02*
X75871428Y-81274819D01*
X75871428Y-81274819D02*
X75966666Y-81227200D01*
X75966666Y-81227200D02*
X76014285Y-81179580D01*
X76633333Y-81274819D02*
X76538095Y-81227200D01*
X76538095Y-81227200D02*
X76490476Y-81131961D01*
X76490476Y-81131961D02*
X76490476Y-80274819D01*
X77157143Y-81274819D02*
X77061905Y-81227200D01*
X77061905Y-81227200D02*
X77014286Y-81131961D01*
X77014286Y-81131961D02*
X77014286Y-80274819D01*
X77966667Y-80608152D02*
X77966667Y-81274819D01*
X77538096Y-80608152D02*
X77538096Y-81131961D01*
X77538096Y-81131961D02*
X77585715Y-81227200D01*
X77585715Y-81227200D02*
X77680953Y-81274819D01*
X77680953Y-81274819D02*
X77823810Y-81274819D01*
X77823810Y-81274819D02*
X77919048Y-81227200D01*
X77919048Y-81227200D02*
X77966667Y-81179580D01*
X78442858Y-80608152D02*
X78442858Y-81608152D01*
X78442858Y-80655771D02*
X78538096Y-80608152D01*
X78538096Y-80608152D02*
X78728572Y-80608152D01*
X78728572Y-80608152D02*
X78823810Y-80655771D01*
X78823810Y-80655771D02*
X78871429Y-80703390D01*
X78871429Y-80703390D02*
X78919048Y-80798628D01*
X78919048Y-80798628D02*
X78919048Y-81084342D01*
X78919048Y-81084342D02*
X78871429Y-81179580D01*
X78871429Y-81179580D02*
X78823810Y-81227200D01*
X78823810Y-81227200D02*
X78728572Y-81274819D01*
X78728572Y-81274819D02*
X78538096Y-81274819D01*
X78538096Y-81274819D02*
X78442858Y-81227200D01*
X79871429Y-81274819D02*
X79300001Y-81274819D01*
X79585715Y-81274819D02*
X79585715Y-80274819D01*
X79585715Y-80274819D02*
X79490477Y-80417676D01*
X79490477Y-80417676D02*
X79395239Y-80512914D01*
X79395239Y-80512914D02*
X79300001Y-80560533D01*
X133765833Y-85379580D02*
X133718214Y-85427200D01*
X133718214Y-85427200D02*
X133575357Y-85474819D01*
X133575357Y-85474819D02*
X133480119Y-85474819D01*
X133480119Y-85474819D02*
X133337262Y-85427200D01*
X133337262Y-85427200D02*
X133242024Y-85331961D01*
X133242024Y-85331961D02*
X133194405Y-85236723D01*
X133194405Y-85236723D02*
X133146786Y-85046247D01*
X133146786Y-85046247D02*
X133146786Y-84903390D01*
X133146786Y-84903390D02*
X133194405Y-84712914D01*
X133194405Y-84712914D02*
X133242024Y-84617676D01*
X133242024Y-84617676D02*
X133337262Y-84522438D01*
X133337262Y-84522438D02*
X133480119Y-84474819D01*
X133480119Y-84474819D02*
X133575357Y-84474819D01*
X133575357Y-84474819D02*
X133718214Y-84522438D01*
X133718214Y-84522438D02*
X133765833Y-84570057D01*
X134622976Y-84474819D02*
X134432500Y-84474819D01*
X134432500Y-84474819D02*
X134337262Y-84522438D01*
X134337262Y-84522438D02*
X134289643Y-84570057D01*
X134289643Y-84570057D02*
X134194405Y-84712914D01*
X134194405Y-84712914D02*
X134146786Y-84903390D01*
X134146786Y-84903390D02*
X134146786Y-85284342D01*
X134146786Y-85284342D02*
X134194405Y-85379580D01*
X134194405Y-85379580D02*
X134242024Y-85427200D01*
X134242024Y-85427200D02*
X134337262Y-85474819D01*
X134337262Y-85474819D02*
X134527738Y-85474819D01*
X134527738Y-85474819D02*
X134622976Y-85427200D01*
X134622976Y-85427200D02*
X134670595Y-85379580D01*
X134670595Y-85379580D02*
X134718214Y-85284342D01*
X134718214Y-85284342D02*
X134718214Y-85046247D01*
X134718214Y-85046247D02*
X134670595Y-84951009D01*
X134670595Y-84951009D02*
X134622976Y-84903390D01*
X134622976Y-84903390D02*
X134527738Y-84855771D01*
X134527738Y-84855771D02*
X134337262Y-84855771D01*
X134337262Y-84855771D02*
X134242024Y-84903390D01*
X134242024Y-84903390D02*
X134194405Y-84951009D01*
X134194405Y-84951009D02*
X134146786Y-85046247D01*
X95939642Y-106379580D02*
X95892023Y-106427200D01*
X95892023Y-106427200D02*
X95749166Y-106474819D01*
X95749166Y-106474819D02*
X95653928Y-106474819D01*
X95653928Y-106474819D02*
X95511071Y-106427200D01*
X95511071Y-106427200D02*
X95415833Y-106331961D01*
X95415833Y-106331961D02*
X95368214Y-106236723D01*
X95368214Y-106236723D02*
X95320595Y-106046247D01*
X95320595Y-106046247D02*
X95320595Y-105903390D01*
X95320595Y-105903390D02*
X95368214Y-105712914D01*
X95368214Y-105712914D02*
X95415833Y-105617676D01*
X95415833Y-105617676D02*
X95511071Y-105522438D01*
X95511071Y-105522438D02*
X95653928Y-105474819D01*
X95653928Y-105474819D02*
X95749166Y-105474819D01*
X95749166Y-105474819D02*
X95892023Y-105522438D01*
X95892023Y-105522438D02*
X95939642Y-105570057D01*
X96892023Y-106474819D02*
X96320595Y-106474819D01*
X96606309Y-106474819D02*
X96606309Y-105474819D01*
X96606309Y-105474819D02*
X96511071Y-105617676D01*
X96511071Y-105617676D02*
X96415833Y-105712914D01*
X96415833Y-105712914D02*
X96320595Y-105760533D01*
X97225357Y-105474819D02*
X97844404Y-105474819D01*
X97844404Y-105474819D02*
X97511071Y-105855771D01*
X97511071Y-105855771D02*
X97653928Y-105855771D01*
X97653928Y-105855771D02*
X97749166Y-105903390D01*
X97749166Y-105903390D02*
X97796785Y-105951009D01*
X97796785Y-105951009D02*
X97844404Y-106046247D01*
X97844404Y-106046247D02*
X97844404Y-106284342D01*
X97844404Y-106284342D02*
X97796785Y-106379580D01*
X97796785Y-106379580D02*
X97749166Y-106427200D01*
X97749166Y-106427200D02*
X97653928Y-106474819D01*
X97653928Y-106474819D02*
X97368214Y-106474819D01*
X97368214Y-106474819D02*
X97272976Y-106427200D01*
X97272976Y-106427200D02*
X97225357Y-106379580D01*
D11*
%TO.C,D1*%
X100170000Y-107990000D02*
X100170000Y-111860000D01*
X100170000Y-111860000D02*
X107330000Y-111860000D01*
X107330000Y-107990000D02*
X100170000Y-107990000D01*
%TO.C,J3*%
X78570000Y-105770000D02*
X78570000Y-106065000D01*
X78570000Y-109165000D02*
X78570000Y-108535000D01*
X88530000Y-105770000D02*
X78570000Y-105770000D01*
X88530000Y-106065000D02*
X88530000Y-105770000D01*
X88530000Y-109165000D02*
X88530000Y-108535000D01*
%TO.C,Q1*%
X92397500Y-87115000D02*
X91747500Y-87115000D01*
X92397500Y-87115000D02*
X93047500Y-87115000D01*
X92397500Y-90235000D02*
X91747500Y-90235000D01*
X92397500Y-90235000D02*
X93047500Y-90235000D01*
X91235000Y-87165000D02*
X90995000Y-86835000D01*
X91475000Y-86835000D01*
X91235000Y-87165000D01*
G36*
X91235000Y-87165000D02*
G01*
X90995000Y-86835000D01*
X91475000Y-86835000D01*
X91235000Y-87165000D01*
G37*
%TO.C,R8*%
X96327776Y-116967500D02*
X96837224Y-116967500D01*
X96327776Y-118012500D02*
X96837224Y-118012500D01*
%TO.C,L1*%
X95927500Y-91430000D02*
X98927500Y-91430000D01*
X95927500Y-94630000D02*
X98927500Y-94630000D01*
%TO.C,C3*%
X97246248Y-88465000D02*
X97768752Y-88465000D01*
X97246248Y-89935000D02*
X97768752Y-89935000D01*
%TO.C,C16*%
X112741248Y-110310000D02*
X114163752Y-110310000D01*
X112741248Y-112130000D02*
X114163752Y-112130000D01*
%TO.C,U3*%
X107652500Y-117215000D02*
X105702500Y-117215000D01*
X107652500Y-117215000D02*
X109602500Y-117215000D01*
X107652500Y-122335000D02*
X105702500Y-122335000D01*
X107652500Y-122335000D02*
X109602500Y-122335000D01*
X104940000Y-117215000D02*
X104700000Y-116885000D01*
X105180000Y-116885000D01*
X104940000Y-117215000D01*
G36*
X104940000Y-117215000D02*
G01*
X104700000Y-116885000D01*
X105180000Y-116885000D01*
X104940000Y-117215000D01*
G37*
%TO.C,U1*%
X146907500Y-84415000D02*
X144957500Y-84415000D01*
X146907500Y-84415000D02*
X148857500Y-84415000D01*
X146907500Y-89535000D02*
X144957500Y-89535000D01*
X146907500Y-89535000D02*
X148857500Y-89535000D01*
X144207500Y-84510000D02*
X143967500Y-84180000D01*
X144447500Y-84180000D01*
X144207500Y-84510000D01*
G36*
X144207500Y-84510000D02*
G01*
X143967500Y-84180000D01*
X144447500Y-84180000D01*
X144207500Y-84510000D01*
G37*
%TO.C,R2*%
X101832776Y-87957500D02*
X102342224Y-87957500D01*
X101832776Y-89002500D02*
X102342224Y-89002500D01*
%TO.C,C4*%
X92246248Y-79090000D02*
X93668752Y-79090000D01*
X92246248Y-80910000D02*
X93668752Y-80910000D01*
%TO.C,U2*%
X91152500Y-91665000D02*
X93152500Y-91665000D01*
X91162500Y-93945000D02*
X93162500Y-93945000D01*
X90792500Y-91735000D02*
X90512500Y-91735000D01*
X90792500Y-91455000D01*
X90792500Y-91735000D01*
G36*
X90792500Y-91735000D02*
G01*
X90512500Y-91735000D01*
X90792500Y-91455000D01*
X90792500Y-91735000D01*
G37*
%TO.C,CurrentSensor1*%
X92527500Y-82490000D02*
X91727500Y-82490000D01*
X92527500Y-82490000D02*
X93327500Y-82490000D01*
X92527500Y-85610000D02*
X91727500Y-85610000D01*
X92527500Y-85610000D02*
X93327500Y-85610000D01*
X91227500Y-82565000D02*
X90987500Y-82235000D01*
X91467500Y-82235000D01*
X91227500Y-82565000D01*
G36*
X91227500Y-82565000D02*
G01*
X90987500Y-82235000D01*
X91467500Y-82235000D01*
X91227500Y-82565000D01*
G37*
%TO.C,R10*%
X96327776Y-121987500D02*
X96837224Y-121987500D01*
X96327776Y-123032500D02*
X96837224Y-123032500D01*
%TO.C,C7*%
X133816665Y-87790000D02*
X134048335Y-87790000D01*
X133816665Y-88510000D02*
X134048335Y-88510000D01*
%TO.C,SCLPullup1*%
X75545276Y-79217500D02*
X76054724Y-79217500D01*
X75545276Y-80262500D02*
X76054724Y-80262500D01*
%TO.C,M3Control1*%
X139552500Y-91760000D02*
X141552500Y-91760000D01*
X139562500Y-94040000D02*
X141562500Y-94040000D01*
X139192500Y-91830000D02*
X138912500Y-91830000D01*
X139192500Y-91550000D01*
X139192500Y-91830000D01*
G36*
X139192500Y-91830000D02*
G01*
X138912500Y-91830000D01*
X139192500Y-91550000D01*
X139192500Y-91830000D01*
G37*
%TO.C,C2*%
X97246248Y-85455000D02*
X97768752Y-85455000D01*
X97246248Y-86925000D02*
X97768752Y-86925000D01*
%TO.C,RSense1*%
X71822936Y-84810000D02*
X73277064Y-84810000D01*
X71822936Y-86630000D02*
X73277064Y-86630000D01*
%TO.C,J2*%
X78940000Y-79000000D02*
X78940000Y-81060000D01*
X78940000Y-79000000D02*
X81060000Y-79000000D01*
X78940000Y-81060000D02*
X81060000Y-81060000D01*
X80000000Y-76940000D02*
X81060000Y-76940000D01*
X81060000Y-76940000D02*
X81060000Y-78000000D01*
X81060000Y-79000000D02*
X81060000Y-81060000D01*
%TO.C,R7*%
X96327776Y-114457500D02*
X96837224Y-114457500D01*
X96327776Y-115502500D02*
X96837224Y-115502500D01*
D12*
%TO.C,SWPwr1*%
X71425000Y-64582000D02*
X84825000Y-64582000D01*
X71425000Y-70982000D02*
X71425000Y-67298500D01*
X74768000Y-59582000D02*
X78675000Y-59582000D01*
X74768000Y-64582000D02*
X74768000Y-59582000D01*
X78675000Y-59582000D02*
X78675000Y-64582000D01*
X84225000Y-70982000D02*
X71425000Y-70982000D01*
X84225000Y-70982000D02*
X84825000Y-70982000D01*
X84825000Y-64582000D02*
X84825000Y-64610000D01*
X84825000Y-67254000D02*
X84825000Y-70932000D01*
D11*
%TO.C,R_set1*%
X96327776Y-124497500D02*
X96837224Y-124497500D01*
X96327776Y-125542500D02*
X96837224Y-125542500D01*
%TO.C,RSenseTP+1*%
X70400000Y-76800000D02*
X72800000Y-76800000D01*
X70400000Y-79200000D02*
X70400000Y-76800000D01*
X72800000Y-76800000D02*
X72800000Y-79200000D01*
X72800000Y-79200000D02*
X70400000Y-79200000D01*
%TO.C,U4*%
X113097500Y-117095000D02*
X115097500Y-117095000D01*
X113107500Y-119375000D02*
X115107500Y-119375000D01*
X112737500Y-117165000D02*
X112457500Y-117165000D01*
X112737500Y-116885000D01*
X112737500Y-117165000D01*
G36*
X112737500Y-117165000D02*
G01*
X112457500Y-117165000D01*
X112737500Y-116885000D01*
X112737500Y-117165000D01*
G37*
%TO.C,C17*%
X112741248Y-113660000D02*
X114163752Y-113660000D01*
X112741248Y-115480000D02*
X114163752Y-115480000D01*
%TO.C,L2*%
X99582500Y-117050000D02*
X102582500Y-117050000D01*
X99582500Y-120250000D02*
X102582500Y-120250000D01*
%TO.C,U5*%
X105982500Y-123835000D02*
X105182500Y-123835000D01*
X105982500Y-123835000D02*
X106782500Y-123835000D01*
X105982500Y-126955000D02*
X105182500Y-126955000D01*
X105982500Y-126955000D02*
X106782500Y-126955000D01*
X104682500Y-123885000D02*
X104442500Y-123555000D01*
X104922500Y-123555000D01*
X104682500Y-123885000D01*
G36*
X104682500Y-123885000D02*
G01*
X104442500Y-123555000D01*
X104922500Y-123555000D01*
X104682500Y-123885000D01*
G37*
%TO.C,M1Control1*%
X139552500Y-84390000D02*
X141552500Y-84390000D01*
X139562500Y-86670000D02*
X141562500Y-86670000D01*
X139192500Y-84460000D02*
X138912500Y-84460000D01*
X139192500Y-84180000D01*
X139192500Y-84460000D01*
G36*
X139192500Y-84460000D02*
G01*
X138912500Y-84460000D01*
X139192500Y-84180000D01*
X139192500Y-84460000D01*
G37*
%TO.C,A1A2PullupCS1*%
X75545276Y-76707500D02*
X76054724Y-76707500D01*
X75545276Y-77752500D02*
X76054724Y-77752500D01*
%TO.C,C11*%
X133816665Y-95670000D02*
X134048335Y-95670000D01*
X133816665Y-96390000D02*
X134048335Y-96390000D01*
%TO.C,J1*%
X63420000Y-59950000D02*
X63420000Y-100710000D01*
X63420000Y-59950000D02*
X66020000Y-59950000D01*
X63420000Y-100710000D02*
X68620000Y-100710000D01*
X66020000Y-59950000D02*
X66020000Y-62550000D01*
X66020000Y-62550000D02*
X68620000Y-62550000D01*
X67290000Y-59950000D02*
X68620000Y-59950000D01*
X68620000Y-59950000D02*
X68620000Y-61280000D01*
X68620000Y-62550000D02*
X68620000Y-100710000D01*
%TO.C,L3*%
X99582500Y-121700000D02*
X102582500Y-121700000D01*
X99582500Y-124900000D02*
X102582500Y-124900000D01*
%TO.C,C9*%
X133816665Y-91730000D02*
X134048335Y-91730000D01*
X133816665Y-92450000D02*
X134048335Y-92450000D01*
%TO.C,U2*%
X146387500Y-90915000D02*
X144887500Y-90915000D01*
X146387500Y-90915000D02*
X147887500Y-90915000D01*
X146387500Y-94135000D02*
X144887500Y-94135000D01*
X146387500Y-94135000D02*
X147887500Y-94135000D01*
X144175000Y-91090000D02*
X143935000Y-90760000D01*
X144415000Y-90760000D01*
X144175000Y-91090000D01*
G36*
X144175000Y-91090000D02*
G01*
X143935000Y-90760000D01*
X144415000Y-90760000D01*
X144175000Y-91090000D01*
G37*
%TO.C,R3*%
X101832776Y-92977500D02*
X102342224Y-92977500D01*
X101832776Y-94022500D02*
X102342224Y-94022500D01*
%TO.C,D2*%
X100472500Y-82235000D02*
X100472500Y-84155000D01*
X100472500Y-84155000D02*
X103157500Y-84155000D01*
X103157500Y-82235000D02*
X100472500Y-82235000D01*
%TO.C,C14*%
X110701248Y-123765000D02*
X111223752Y-123765000D01*
X110701248Y-125235000D02*
X111223752Y-125235000D01*
%TO.C,R6*%
X96327776Y-111947500D02*
X96837224Y-111947500D01*
X96327776Y-112992500D02*
X96837224Y-112992500D01*
%TO.C,C10*%
X133816665Y-93700000D02*
X134048335Y-93700000D01*
X133816665Y-94420000D02*
X134048335Y-94420000D01*
%TO.C,M2Control1*%
X139552500Y-88075000D02*
X141552500Y-88075000D01*
X139562500Y-90355000D02*
X141562500Y-90355000D01*
X139192500Y-88145000D02*
X138912500Y-88145000D01*
X139192500Y-87865000D01*
X139192500Y-88145000D01*
G36*
X139192500Y-88145000D02*
G01*
X138912500Y-88145000D01*
X139192500Y-87865000D01*
X139192500Y-88145000D01*
G37*
%TO.C,R4*%
X101832776Y-90467500D02*
X102342224Y-90467500D01*
X101832776Y-91512500D02*
X102342224Y-91512500D01*
%TO.C,C1*%
X97246248Y-82445000D02*
X97768752Y-82445000D01*
X97246248Y-83915000D02*
X97768752Y-83915000D01*
%TO.C,RSenseTP-1*%
X70400000Y-80850000D02*
X72800000Y-80850000D01*
X70400000Y-83250000D02*
X70400000Y-80850000D01*
X72800000Y-80850000D02*
X72800000Y-83250000D01*
X72800000Y-83250000D02*
X70400000Y-83250000D01*
%TO.C,R1*%
X101832776Y-85447500D02*
X102342224Y-85447500D01*
X101832776Y-86492500D02*
X102342224Y-86492500D01*
%TO.C,C12*%
X133816665Y-97640000D02*
X134048335Y-97640000D01*
X133816665Y-98360000D02*
X134048335Y-98360000D01*
%TO.C,C5*%
X133249165Y-84140000D02*
X133480835Y-84140000D01*
X133249165Y-84860000D02*
X133480835Y-84860000D01*
%TO.C,R9*%
X96327776Y-119477500D02*
X96837224Y-119477500D01*
X96327776Y-120522500D02*
X96837224Y-120522500D01*
%TO.C,M4Control1*%
X139552500Y-95445000D02*
X141552500Y-95445000D01*
X139562500Y-97725000D02*
X141562500Y-97725000D01*
X139192500Y-95515000D02*
X138912500Y-95515000D01*
X139192500Y-95235000D01*
X139192500Y-95515000D01*
G36*
X139192500Y-95515000D02*
G01*
X138912500Y-95515000D01*
X139192500Y-95235000D01*
X139192500Y-95515000D01*
G37*
%TO.C,C8*%
X133816665Y-89760000D02*
X134048335Y-89760000D01*
X133816665Y-90480000D02*
X134048335Y-90480000D01*
%TO.C,R5*%
X96327776Y-109437500D02*
X96837224Y-109437500D01*
X96327776Y-110482500D02*
X96837224Y-110482500D01*
%TO.C,C15*%
X112741248Y-106960000D02*
X114163752Y-106960000D01*
X112741248Y-108780000D02*
X114163752Y-108780000D01*
%TO.C,SDAPullup1*%
X75545276Y-81727500D02*
X76054724Y-81727500D01*
X75545276Y-82772500D02*
X76054724Y-82772500D01*
%TO.C,C6*%
X133816665Y-85820000D02*
X134048335Y-85820000D01*
X133816665Y-86540000D02*
X134048335Y-86540000D01*
%TO.C,C13*%
X96436233Y-106940000D02*
X96728767Y-106940000D01*
X96436233Y-107960000D02*
X96728767Y-107960000D01*
%TD*%
%LPC*%
D13*
%TO.C,D1*%
X101192500Y-109925000D03*
X107167500Y-109925000D03*
%TD*%
D14*
%TO.C,J3*%
X80000000Y-107125000D03*
D15*
X80500000Y-107125000D03*
D14*
X87100000Y-107125000D03*
D15*
X82300000Y-107125000D03*
X82800000Y-107125000D03*
X83300000Y-107125000D03*
X83800000Y-107125000D03*
X84300000Y-107125000D03*
X84800000Y-107125000D03*
X86600000Y-107125000D03*
X86550000Y-108375000D03*
X85050000Y-108375000D03*
X84550000Y-108375000D03*
X84050000Y-108375000D03*
X83050000Y-108375000D03*
X82550000Y-108375000D03*
X82050000Y-108375000D03*
X80550000Y-108375000D03*
D16*
X79100000Y-107300000D03*
D17*
X79100000Y-110500000D03*
D16*
X88000000Y-107300000D03*
D17*
X88000000Y-110500000D03*
%TD*%
D18*
%TO.C,Q1*%
X91460000Y-87725000D03*
X91460000Y-89625000D03*
X93335000Y-88675000D03*
%TD*%
D19*
%TO.C,R8*%
X95670000Y-117490000D03*
X97495000Y-117490000D03*
%TD*%
D20*
%TO.C,L1*%
X96327500Y-93030000D03*
X98527500Y-93030000D03*
%TD*%
D21*
%TO.C,C3*%
X96470000Y-89200000D03*
X98545000Y-89200000D03*
%TD*%
D22*
%TO.C,C16*%
X111890000Y-111220000D03*
X115015000Y-111220000D03*
%TD*%
D23*
%TO.C,U3*%
X105015000Y-117775000D03*
X105015000Y-118775000D03*
X105015000Y-119775000D03*
X105015000Y-120775000D03*
X105015000Y-121775000D03*
X110290000Y-121775000D03*
X110290000Y-120775000D03*
X110290000Y-119775000D03*
X110290000Y-118775000D03*
X110290000Y-117775000D03*
D24*
X107652500Y-119775000D03*
%TD*%
D25*
%TO.C,U1*%
X144432500Y-85070000D03*
X144432500Y-86340000D03*
X144432500Y-87610000D03*
X144432500Y-88880000D03*
X149382500Y-88880000D03*
X149382500Y-87610000D03*
X149382500Y-86340000D03*
X149382500Y-85070000D03*
D26*
X146907500Y-86975000D03*
%TD*%
D19*
%TO.C,R2*%
X101175000Y-88480000D03*
X103000000Y-88480000D03*
%TD*%
D22*
%TO.C,C4*%
X91395000Y-80000000D03*
X94520000Y-80000000D03*
%TD*%
D27*
%TO.C,U2*%
X91212500Y-92055000D03*
X91212500Y-92555000D03*
X91212500Y-93055000D03*
X91212500Y-93555000D03*
X93112500Y-93555000D03*
X93112500Y-93055000D03*
X93112500Y-92555000D03*
X93112500Y-92055000D03*
D28*
X92162500Y-92805000D03*
%TD*%
D29*
%TO.C,CurrentSensor1*%
X91390000Y-83075000D03*
X91390000Y-83725000D03*
X91390000Y-84375000D03*
X91390000Y-85025000D03*
X93665000Y-85025000D03*
X93665000Y-84375000D03*
X93665000Y-83725000D03*
X93665000Y-83075000D03*
%TD*%
D19*
%TO.C,R10*%
X95670000Y-122510000D03*
X97495000Y-122510000D03*
%TD*%
D30*
%TO.C,C7*%
X133365000Y-88150000D03*
X134500000Y-88150000D03*
%TD*%
D19*
%TO.C,SCLPullup1*%
X74887500Y-79740000D03*
X76712500Y-79740000D03*
%TD*%
D27*
%TO.C,M3Control1*%
X139612500Y-92150000D03*
X139612500Y-92650000D03*
X139612500Y-93150000D03*
X139612500Y-93650000D03*
X141512500Y-93650000D03*
X141512500Y-93150000D03*
X141512500Y-92650000D03*
X141512500Y-92150000D03*
D28*
X140562500Y-92900000D03*
%TD*%
D21*
%TO.C,C2*%
X96470000Y-86190000D03*
X98545000Y-86190000D03*
%TD*%
D31*
%TO.C,RSense1*%
X71000000Y-85720000D03*
X74100000Y-85720000D03*
%TD*%
D32*
%TO.C,J2*%
X80000000Y-78000000D03*
D33*
X80000000Y-80000000D03*
%TD*%
D19*
%TO.C,R7*%
X95670000Y-114980000D03*
X97495000Y-114980000D03*
%TD*%
D34*
%TO.C,SWPwr1*%
X73125000Y-74332000D03*
X77825000Y-74332000D03*
X82525000Y-74332000D03*
X84425000Y-65932000D03*
X71225000Y-65932000D03*
%TD*%
D19*
%TO.C,R_set1*%
X95670000Y-125020000D03*
X97495000Y-125020000D03*
%TD*%
D35*
%TO.C,RSenseTP+1*%
X71600000Y-78000000D03*
%TD*%
D27*
%TO.C,U4*%
X113157500Y-117485000D03*
X113157500Y-117985000D03*
X113157500Y-118485000D03*
X113157500Y-118985000D03*
X115057500Y-118985000D03*
X115057500Y-118485000D03*
X115057500Y-117985000D03*
X115057500Y-117485000D03*
D28*
X114107500Y-118235000D03*
%TD*%
D22*
%TO.C,C17*%
X111890000Y-114570000D03*
X115015000Y-114570000D03*
%TD*%
D20*
%TO.C,L2*%
X99982500Y-118650000D03*
X102182500Y-118650000D03*
%TD*%
D36*
%TO.C,U5*%
X104845000Y-124445000D03*
X104845000Y-125395000D03*
X104845000Y-126345000D03*
X107120000Y-126345000D03*
X107120000Y-125395000D03*
X107120000Y-124445000D03*
%TD*%
D27*
%TO.C,M1Control1*%
X139612500Y-84780000D03*
X139612500Y-85280000D03*
X139612500Y-85780000D03*
X139612500Y-86280000D03*
X141512500Y-86280000D03*
X141512500Y-85780000D03*
X141512500Y-85280000D03*
X141512500Y-84780000D03*
D28*
X140562500Y-85530000D03*
%TD*%
D19*
%TO.C,A1A2PullupCS1*%
X74887500Y-77230000D03*
X76712500Y-77230000D03*
%TD*%
D30*
%TO.C,C11*%
X133365000Y-96030000D03*
X134500000Y-96030000D03*
%TD*%
D37*
%TO.C,J1*%
X67290000Y-61280000D03*
D38*
X64750000Y-61280000D03*
X67290000Y-63820000D03*
X64750000Y-63820000D03*
X67290000Y-66360000D03*
X64750000Y-66360000D03*
X67290000Y-68900000D03*
X64750000Y-68900000D03*
X67290000Y-71440000D03*
X64750000Y-71440000D03*
X67290000Y-73980000D03*
X64750000Y-73980000D03*
X67290000Y-76520000D03*
X64750000Y-76520000D03*
X67290000Y-79060000D03*
X64750000Y-79060000D03*
X67290000Y-81600000D03*
X64750000Y-81600000D03*
X67290000Y-84140000D03*
X64750000Y-84140000D03*
X67290000Y-86680000D03*
X64750000Y-86680000D03*
X67290000Y-89220000D03*
X64750000Y-89220000D03*
X67290000Y-91760000D03*
X64750000Y-91760000D03*
X67290000Y-94300000D03*
X64750000Y-94300000D03*
X67290000Y-96840000D03*
X64750000Y-96840000D03*
X67290000Y-99380000D03*
X64750000Y-99380000D03*
%TD*%
D20*
%TO.C,L3*%
X99982500Y-123300000D03*
X102182500Y-123300000D03*
%TD*%
D30*
%TO.C,C9*%
X133365000Y-92090000D03*
X134500000Y-92090000D03*
%TD*%
D39*
%TO.C,U2*%
X144275000Y-91550000D03*
X144275000Y-92200000D03*
X144275000Y-92850000D03*
X144275000Y-93500000D03*
X148500000Y-93500000D03*
X148500000Y-92850000D03*
X148500000Y-92200000D03*
X148500000Y-91550000D03*
%TD*%
D19*
%TO.C,R3*%
X101175000Y-93500000D03*
X103000000Y-93500000D03*
%TD*%
D40*
%TO.C,D2*%
X101220000Y-83195000D03*
X103095000Y-83195000D03*
%TD*%
D21*
%TO.C,C14*%
X109925000Y-124500000D03*
X112000000Y-124500000D03*
%TD*%
D19*
%TO.C,R6*%
X95670000Y-112470000D03*
X97495000Y-112470000D03*
%TD*%
D30*
%TO.C,C10*%
X133365000Y-94060000D03*
X134500000Y-94060000D03*
%TD*%
D27*
%TO.C,M2Control1*%
X139612500Y-88465000D03*
X139612500Y-88965000D03*
X139612500Y-89465000D03*
X139612500Y-89965000D03*
X141512500Y-89965000D03*
X141512500Y-89465000D03*
X141512500Y-88965000D03*
X141512500Y-88465000D03*
D28*
X140562500Y-89215000D03*
%TD*%
D19*
%TO.C,R4*%
X101175000Y-90990000D03*
X103000000Y-90990000D03*
%TD*%
D21*
%TO.C,C1*%
X96470000Y-83180000D03*
X98545000Y-83180000D03*
%TD*%
D35*
%TO.C,RSenseTP-1*%
X71600000Y-82050000D03*
%TD*%
D19*
%TO.C,R1*%
X101175000Y-85970000D03*
X103000000Y-85970000D03*
%TD*%
D30*
%TO.C,C12*%
X133365000Y-98000000D03*
X134500000Y-98000000D03*
%TD*%
%TO.C,C5*%
X132797500Y-84500000D03*
X133932500Y-84500000D03*
%TD*%
D19*
%TO.C,R9*%
X95670000Y-120000000D03*
X97495000Y-120000000D03*
%TD*%
D27*
%TO.C,M4Control1*%
X139612500Y-95835000D03*
X139612500Y-96335000D03*
X139612500Y-96835000D03*
X139612500Y-97335000D03*
X141512500Y-97335000D03*
X141512500Y-96835000D03*
X141512500Y-96335000D03*
X141512500Y-95835000D03*
D28*
X140562500Y-96585000D03*
%TD*%
D30*
%TO.C,C8*%
X133365000Y-90120000D03*
X134500000Y-90120000D03*
%TD*%
D19*
%TO.C,R5*%
X95670000Y-109960000D03*
X97495000Y-109960000D03*
%TD*%
D22*
%TO.C,C15*%
X111890000Y-107870000D03*
X115015000Y-107870000D03*
%TD*%
D19*
%TO.C,SDAPullup1*%
X74887500Y-82250000D03*
X76712500Y-82250000D03*
%TD*%
D30*
%TO.C,C6*%
X133365000Y-86180000D03*
X134500000Y-86180000D03*
%TD*%
D41*
%TO.C,C13*%
X95720000Y-107450000D03*
X97445000Y-107450000D03*
%TD*%
%LPD*%
M02*
