%TF.GenerationSoftware,KiCad,Pcbnew,9.0.0*%
%TF.CreationDate,2025-03-23T18:55:35+02:00*%
%TF.ProjectId,EEE3088F Project,45454533-3038-4384-9620-50726f6a6563,rev?*%
%TF.SameCoordinates,Original*%
%TF.FileFunction,Soldermask,Top*%
%TF.FilePolarity,Negative*%
%FSLAX46Y46*%
G04 Gerber Fmt 4.6, Leading zero omitted, Abs format (unit mm)*
G04 Created by KiCad (PCBNEW 9.0.0) date 2025-03-23 18:55:35*
%MOMM*%
%LPD*%
G01*
G04 APERTURE LIST*
G04 Aperture macros list*
%AMRoundRect*
0 Rectangle with rounded corners*
0 $1 Rounding radius*
0 $2 $3 $4 $5 $6 $7 $8 $9 X,Y pos of 4 corners*
0 Add a 4 corners polygon primitive as box body*
4,1,4,$2,$3,$4,$5,$6,$7,$8,$9,$2,$3,0*
0 Add four circle primitives for the rounded corners*
1,1,$1+$1,$2,$3*
1,1,$1+$1,$4,$5*
1,1,$1+$1,$6,$7*
1,1,$1+$1,$8,$9*
0 Add four rect primitives between the rounded corners*
20,1,$1+$1,$2,$3,$4,$5,0*
20,1,$1+$1,$4,$5,$6,$7,0*
20,1,$1+$1,$6,$7,$8,$9,0*
20,1,$1+$1,$8,$9,$2,$3,0*%
G04 Aperture macros list end*
%ADD10RoundRect,0.249999X-0.512501X-1.425001X0.512501X-1.425001X0.512501X1.425001X-0.512501X1.425001X0*%
%ADD11RoundRect,0.075000X-0.075000X-0.300000X0.075000X-0.300000X0.075000X0.300000X-0.075000X0.300000X0*%
%ADD12RoundRect,0.062500X-0.062500X-0.312500X0.062500X-0.312500X0.062500X0.312500X-0.062500X0.312500X0*%
%ADD13O,0.950000X1.950000*%
%ADD14O,0.950000X2.150000*%
%ADD15RoundRect,0.150000X-0.587500X-0.150000X0.587500X-0.150000X0.587500X0.150000X-0.587500X0.150000X0*%
%ADD16RoundRect,0.237500X-0.250000X-0.237500X0.250000X-0.237500X0.250000X0.237500X-0.250000X0.237500X0*%
%ADD17R,0.800000X2.700000*%
%ADD18RoundRect,0.250000X-0.337500X-0.475000X0.337500X-0.475000X0.337500X0.475000X-0.337500X0.475000X0*%
%ADD19RoundRect,0.250000X-0.412500X-0.650000X0.412500X-0.650000X0.412500X0.650000X-0.412500X0.650000X0*%
%ADD20RoundRect,0.150000X-0.687500X-0.150000X0.687500X-0.150000X0.687500X0.150000X-0.687500X0.150000X0*%
%ADD21R,2.100000X3.300000*%
%ADD22RoundRect,0.150000X-0.825000X-0.150000X0.825000X-0.150000X0.825000X0.150000X-0.825000X0.150000X0*%
%ADD23R,2.410000X3.300000*%
%ADD24RoundRect,0.062500X-0.187500X-0.062500X0.187500X-0.062500X0.187500X0.062500X-0.187500X0.062500X0*%
%ADD25R,0.900000X1.600000*%
%ADD26RoundRect,0.125000X-0.537500X-0.125000X0.537500X-0.125000X0.537500X0.125000X-0.537500X0.125000X0*%
%ADD27RoundRect,0.155000X-0.212500X-0.155000X0.212500X-0.155000X0.212500X0.155000X-0.212500X0.155000X0*%
%ADD28RoundRect,0.250000X-0.400000X-0.625000X0.400000X-0.625000X0.400000X0.625000X-0.400000X0.625000X0*%
%ADD29R,1.350000X1.350000*%
%ADD30O,1.350000X1.350000*%
%ADD31C,2.300000*%
%ADD32R,2.000000X2.000000*%
%ADD33RoundRect,0.150000X-0.512500X-0.150000X0.512500X-0.150000X0.512500X0.150000X-0.512500X0.150000X0*%
%ADD34R,1.700000X1.700000*%
%ADD35O,1.700000X1.700000*%
%ADD36RoundRect,0.100000X-0.712500X-0.100000X0.712500X-0.100000X0.712500X0.100000X-0.712500X0.100000X0*%
%ADD37RoundRect,0.243750X-0.243750X-0.456250X0.243750X-0.456250X0.243750X0.456250X-0.243750X0.456250X0*%
%ADD38RoundRect,0.237500X-0.300000X-0.237500X0.300000X-0.237500X0.300000X0.237500X-0.300000X0.237500X0*%
G04 APERTURE END LIST*
D10*
%TO.C,D1*%
X101192500Y-109925000D03*
X107167500Y-109925000D03*
%TD*%
D11*
%TO.C,J3*%
X80000000Y-107125000D03*
D12*
X80500000Y-107125000D03*
D11*
X87100000Y-107125000D03*
D12*
X82300000Y-107125000D03*
X82800000Y-107125000D03*
X83300000Y-107125000D03*
X83800000Y-107125000D03*
X84300000Y-107125000D03*
X84800000Y-107125000D03*
X86600000Y-107125000D03*
X86550000Y-108375000D03*
X85050000Y-108375000D03*
X84550000Y-108375000D03*
X84050000Y-108375000D03*
X83050000Y-108375000D03*
X82550000Y-108375000D03*
X82050000Y-108375000D03*
X80550000Y-108375000D03*
D13*
X79100000Y-107300000D03*
D14*
X79100000Y-110500000D03*
D13*
X88000000Y-107300000D03*
D14*
X88000000Y-110500000D03*
%TD*%
D15*
%TO.C,Q1*%
X91460000Y-87725000D03*
X91460000Y-89625000D03*
X93335000Y-88675000D03*
%TD*%
D16*
%TO.C,R8*%
X95670000Y-117490000D03*
X97495000Y-117490000D03*
%TD*%
D17*
%TO.C,L1*%
X96327500Y-93030000D03*
X98527500Y-93030000D03*
%TD*%
D18*
%TO.C,C3*%
X96470000Y-89200000D03*
X98545000Y-89200000D03*
%TD*%
D19*
%TO.C,C16*%
X111890000Y-111220000D03*
X115015000Y-111220000D03*
%TD*%
D20*
%TO.C,U3*%
X105015000Y-117775000D03*
X105015000Y-118775000D03*
X105015000Y-119775000D03*
X105015000Y-120775000D03*
X105015000Y-121775000D03*
X110290000Y-121775000D03*
X110290000Y-120775000D03*
X110290000Y-119775000D03*
X110290000Y-118775000D03*
X110290000Y-117775000D03*
D21*
X107652500Y-119775000D03*
%TD*%
D22*
%TO.C,U1*%
X144432500Y-85070000D03*
X144432500Y-86340000D03*
X144432500Y-87610000D03*
X144432500Y-88880000D03*
X149382500Y-88880000D03*
X149382500Y-87610000D03*
X149382500Y-86340000D03*
X149382500Y-85070000D03*
D23*
X146907500Y-86975000D03*
%TD*%
D16*
%TO.C,R2*%
X101175000Y-88480000D03*
X103000000Y-88480000D03*
%TD*%
D19*
%TO.C,C4*%
X91395000Y-80000000D03*
X94520000Y-80000000D03*
%TD*%
D24*
%TO.C,U2*%
X91212500Y-92055000D03*
X91212500Y-92555000D03*
X91212500Y-93055000D03*
X91212500Y-93555000D03*
X93112500Y-93555000D03*
X93112500Y-93055000D03*
X93112500Y-92555000D03*
X93112500Y-92055000D03*
D25*
X92162500Y-92805000D03*
%TD*%
D26*
%TO.C,CurrentSensor1*%
X91390000Y-83075000D03*
X91390000Y-83725000D03*
X91390000Y-84375000D03*
X91390000Y-85025000D03*
X93665000Y-85025000D03*
X93665000Y-84375000D03*
X93665000Y-83725000D03*
X93665000Y-83075000D03*
%TD*%
D16*
%TO.C,R10*%
X95670000Y-122510000D03*
X97495000Y-122510000D03*
%TD*%
D27*
%TO.C,C7*%
X133365000Y-88150000D03*
X134500000Y-88150000D03*
%TD*%
D16*
%TO.C,SCLPullup1*%
X74887500Y-79740000D03*
X76712500Y-79740000D03*
%TD*%
D24*
%TO.C,M3Control1*%
X139612500Y-92150000D03*
X139612500Y-92650000D03*
X139612500Y-93150000D03*
X139612500Y-93650000D03*
X141512500Y-93650000D03*
X141512500Y-93150000D03*
X141512500Y-92650000D03*
X141512500Y-92150000D03*
D25*
X140562500Y-92900000D03*
%TD*%
D18*
%TO.C,C2*%
X96470000Y-86190000D03*
X98545000Y-86190000D03*
%TD*%
D28*
%TO.C,RSense1*%
X71000000Y-85720000D03*
X74100000Y-85720000D03*
%TD*%
D29*
%TO.C,J2*%
X80000000Y-78000000D03*
D30*
X80000000Y-80000000D03*
%TD*%
D16*
%TO.C,R7*%
X95670000Y-114980000D03*
X97495000Y-114980000D03*
%TD*%
D31*
%TO.C,SWPwr1*%
X73125000Y-74332000D03*
X77825000Y-74332000D03*
X82525000Y-74332000D03*
X84425000Y-65932000D03*
X71225000Y-65932000D03*
%TD*%
D16*
%TO.C,R_set1*%
X95670000Y-125020000D03*
X97495000Y-125020000D03*
%TD*%
D32*
%TO.C,RSenseTP+1*%
X71600000Y-78000000D03*
%TD*%
D24*
%TO.C,U4*%
X113157500Y-117485000D03*
X113157500Y-117985000D03*
X113157500Y-118485000D03*
X113157500Y-118985000D03*
X115057500Y-118985000D03*
X115057500Y-118485000D03*
X115057500Y-117985000D03*
X115057500Y-117485000D03*
D25*
X114107500Y-118235000D03*
%TD*%
D19*
%TO.C,C17*%
X111890000Y-114570000D03*
X115015000Y-114570000D03*
%TD*%
D17*
%TO.C,L2*%
X99982500Y-118650000D03*
X102182500Y-118650000D03*
%TD*%
D33*
%TO.C,U5*%
X104845000Y-124445000D03*
X104845000Y-125395000D03*
X104845000Y-126345000D03*
X107120000Y-126345000D03*
X107120000Y-125395000D03*
X107120000Y-124445000D03*
%TD*%
D24*
%TO.C,M1Control1*%
X139612500Y-84780000D03*
X139612500Y-85280000D03*
X139612500Y-85780000D03*
X139612500Y-86280000D03*
X141512500Y-86280000D03*
X141512500Y-85780000D03*
X141512500Y-85280000D03*
X141512500Y-84780000D03*
D25*
X140562500Y-85530000D03*
%TD*%
D16*
%TO.C,A1A2PullupCS1*%
X74887500Y-77230000D03*
X76712500Y-77230000D03*
%TD*%
D27*
%TO.C,C11*%
X133365000Y-96030000D03*
X134500000Y-96030000D03*
%TD*%
D34*
%TO.C,J1*%
X67290000Y-61280000D03*
D35*
X64750000Y-61280000D03*
X67290000Y-63820000D03*
X64750000Y-63820000D03*
X67290000Y-66360000D03*
X64750000Y-66360000D03*
X67290000Y-68900000D03*
X64750000Y-68900000D03*
X67290000Y-71440000D03*
X64750000Y-71440000D03*
X67290000Y-73980000D03*
X64750000Y-73980000D03*
X67290000Y-76520000D03*
X64750000Y-76520000D03*
X67290000Y-79060000D03*
X64750000Y-79060000D03*
X67290000Y-81600000D03*
X64750000Y-81600000D03*
X67290000Y-84140000D03*
X64750000Y-84140000D03*
X67290000Y-86680000D03*
X64750000Y-86680000D03*
X67290000Y-89220000D03*
X64750000Y-89220000D03*
X67290000Y-91760000D03*
X64750000Y-91760000D03*
X67290000Y-94300000D03*
X64750000Y-94300000D03*
X67290000Y-96840000D03*
X64750000Y-96840000D03*
X67290000Y-99380000D03*
X64750000Y-99380000D03*
%TD*%
D17*
%TO.C,L3*%
X99982500Y-123300000D03*
X102182500Y-123300000D03*
%TD*%
D27*
%TO.C,C9*%
X133365000Y-92090000D03*
X134500000Y-92090000D03*
%TD*%
D36*
%TO.C,U2*%
X144275000Y-91550000D03*
X144275000Y-92200000D03*
X144275000Y-92850000D03*
X144275000Y-93500000D03*
X148500000Y-93500000D03*
X148500000Y-92850000D03*
X148500000Y-92200000D03*
X148500000Y-91550000D03*
%TD*%
D16*
%TO.C,R3*%
X101175000Y-93500000D03*
X103000000Y-93500000D03*
%TD*%
D37*
%TO.C,D2*%
X101220000Y-83195000D03*
X103095000Y-83195000D03*
%TD*%
D18*
%TO.C,C14*%
X109925000Y-124500000D03*
X112000000Y-124500000D03*
%TD*%
D16*
%TO.C,R6*%
X95670000Y-112470000D03*
X97495000Y-112470000D03*
%TD*%
D27*
%TO.C,C10*%
X133365000Y-94060000D03*
X134500000Y-94060000D03*
%TD*%
D24*
%TO.C,M2Control1*%
X139612500Y-88465000D03*
X139612500Y-88965000D03*
X139612500Y-89465000D03*
X139612500Y-89965000D03*
X141512500Y-89965000D03*
X141512500Y-89465000D03*
X141512500Y-88965000D03*
X141512500Y-88465000D03*
D25*
X140562500Y-89215000D03*
%TD*%
D16*
%TO.C,R4*%
X101175000Y-90990000D03*
X103000000Y-90990000D03*
%TD*%
D18*
%TO.C,C1*%
X96470000Y-83180000D03*
X98545000Y-83180000D03*
%TD*%
D32*
%TO.C,RSenseTP-1*%
X71600000Y-82050000D03*
%TD*%
D16*
%TO.C,R1*%
X101175000Y-85970000D03*
X103000000Y-85970000D03*
%TD*%
D27*
%TO.C,C12*%
X133365000Y-98000000D03*
X134500000Y-98000000D03*
%TD*%
%TO.C,C5*%
X132797500Y-84500000D03*
X133932500Y-84500000D03*
%TD*%
D16*
%TO.C,R9*%
X95670000Y-120000000D03*
X97495000Y-120000000D03*
%TD*%
D24*
%TO.C,M4Control1*%
X139612500Y-95835000D03*
X139612500Y-96335000D03*
X139612500Y-96835000D03*
X139612500Y-97335000D03*
X141512500Y-97335000D03*
X141512500Y-96835000D03*
X141512500Y-96335000D03*
X141512500Y-95835000D03*
D25*
X140562500Y-96585000D03*
%TD*%
D27*
%TO.C,C8*%
X133365000Y-90120000D03*
X134500000Y-90120000D03*
%TD*%
D16*
%TO.C,R5*%
X95670000Y-109960000D03*
X97495000Y-109960000D03*
%TD*%
D19*
%TO.C,C15*%
X111890000Y-107870000D03*
X115015000Y-107870000D03*
%TD*%
D16*
%TO.C,SDAPullup1*%
X74887500Y-82250000D03*
X76712500Y-82250000D03*
%TD*%
D27*
%TO.C,C6*%
X133365000Y-86180000D03*
X134500000Y-86180000D03*
%TD*%
D38*
%TO.C,C13*%
X95720000Y-107450000D03*
X97445000Y-107450000D03*
%TD*%
M02*
