%TF.GenerationSoftware,KiCad,Pcbnew,9.0.0*%
%TF.CreationDate,2025-03-28T11:37:27+02:00*%
%TF.ProjectId,EEE3088F Project,45454533-3038-4384-9620-50726f6a6563,rev?*%
%TF.SameCoordinates,Original*%
%TF.FileFunction,Soldermask,Bot*%
%TF.FilePolarity,Negative*%
%FSLAX46Y46*%
G04 Gerber Fmt 4.6, Leading zero omitted, Abs format (unit mm)*
G04 Created by KiCad (PCBNEW 9.0.0) date 2025-03-28 11:37:27*
%MOMM*%
%LPD*%
G01*
G04 APERTURE LIST*
%ADD10C,2.100000*%
%ADD11R,1.350000X1.350000*%
%ADD12O,1.350000X1.350000*%
%ADD13C,2.300000*%
%ADD14O,2.100000X1.000000*%
%ADD15O,1.800000X1.000000*%
%ADD16R,1.700000X1.700000*%
%ADD17O,1.700000X1.700000*%
G04 APERTURE END LIST*
D10*
%TO.C,REF\u002A\u002A*%
X178800000Y-84310000D03*
%TD*%
D11*
%TO.C,J2*%
X151200000Y-64800000D03*
D12*
X151200000Y-66800000D03*
%TD*%
D13*
%TO.C,SWPwr1*%
X159063500Y-90700000D03*
X159063500Y-86000000D03*
X159063500Y-81300000D03*
X150663500Y-79400000D03*
X150663500Y-92600000D03*
%TD*%
D14*
%TO.C,USB1*%
X157582150Y-46380000D03*
X157582150Y-55020000D03*
D15*
X153432250Y-46380000D03*
X153432250Y-55020000D03*
%TD*%
D16*
%TO.C,J1*%
X197040000Y-119200000D03*
D17*
X197040000Y-121740000D03*
X194500000Y-119200000D03*
X194500000Y-121740000D03*
X191960000Y-119200000D03*
X191960000Y-121740000D03*
X189420000Y-119200000D03*
X189420000Y-121740000D03*
X186880000Y-119200000D03*
X186880000Y-121740000D03*
X184340000Y-119200000D03*
X184340000Y-121740000D03*
X181800000Y-119200000D03*
X181800000Y-121740000D03*
X179260000Y-119200000D03*
X179260000Y-121740000D03*
X176720000Y-119200000D03*
X176720000Y-121740000D03*
X174180000Y-119200000D03*
X174180000Y-121740000D03*
X171640000Y-119200000D03*
X171640000Y-121740000D03*
X169100000Y-119200000D03*
X169100000Y-121740000D03*
X166560000Y-119200000D03*
X166560000Y-121740000D03*
X164020000Y-119200000D03*
X164020000Y-121740000D03*
X161480000Y-119200000D03*
X161480000Y-121740000D03*
X158940000Y-119200000D03*
X158940000Y-121740000D03*
%TD*%
M02*
