M48
; DRILL file {KiCad 9.0.0} date 2025-03-23T18:55:35+0200
; FORMAT={-:-/ absolute / inch / decimal}
; #@! TF.CreationDate,2025-03-23T18:55:35+02:00
; #@! TF.GenerationSoftware,Kicad,Pcbnew,9.0.0
; #@! TF.FileFunction,Plated,1,2,PTH
FMAT,2
INCH
; #@! TA.AperFunction,Plated,PTH,ComponentDrill
T1C0.0079
; #@! TA.AperFunction,Plated,PTH,ComponentDrill
T2C0.0098
; #@! TA.AperFunction,Plated,PTH,ComponentDrill
T3C0.0177
; #@! TA.AperFunction,Plated,PTH,ComponentDrill
T4C0.0315
; #@! TA.AperFunction,Plated,PTH,ComponentDrill
T5C0.0394
; #@! TA.AperFunction,Plated,PTH,ComponentDrill
T6C0.0591
%
G90
G05
T1
X5.7562Y-3.377
X5.7562Y-3.4242
X5.7562Y-3.4715
X5.8113Y-3.377
X5.8113Y-3.4242
X5.8113Y-3.4715
T2
X3.6284Y-3.6341
X3.6284Y-3.6734
X4.4924Y-4.6352
X4.4924Y-4.6746
T4
X3.1496Y-3.0709
X3.1496Y-3.1496
T5
X2.5492Y-2.4126
X2.5492Y-2.5126
X2.5492Y-2.6126
X2.5492Y-2.7126
X2.5492Y-2.8126
X2.5492Y-2.9126
X2.5492Y-3.0126
X2.5492Y-3.1126
X2.5492Y-3.2126
X2.5492Y-3.3126
X2.5492Y-3.4126
X2.5492Y-3.5126
X2.5492Y-3.6126
X2.5492Y-3.7126
X2.5492Y-3.8126
X2.5492Y-3.9126
X2.6492Y-2.4126
X2.6492Y-2.5126
X2.6492Y-2.6126
X2.6492Y-2.7126
X2.6492Y-2.8126
X2.6492Y-2.9126
X2.6492Y-3.0126
X2.6492Y-3.1126
X2.6492Y-3.2126
X2.6492Y-3.3126
X2.6492Y-3.4126
X2.6492Y-3.5126
X2.6492Y-3.6126
X2.6492Y-3.7126
X2.6492Y-3.8126
X2.6492Y-3.9126
T6
X2.8041Y-2.5957
X2.8789Y-2.9265
X3.064Y-2.9265
X3.249Y-2.9265
X3.3238Y-2.5957
T3
G00X3.1142Y-4.2047
M15
G01X3.1142Y-4.2441
M16
G05
G00X3.1142Y-4.3268
M15
G01X3.1142Y-4.374
M16
G05
G00X3.4646Y-4.2047
M15
G01X3.4646Y-4.2441
M16
G05
G00X3.4646Y-4.3268
M15
G01X3.4646Y-4.374
M16
G05
M30
