%TF.GenerationSoftware,KiCad,Pcbnew,9.0.0*%
%TF.CreationDate,2025-03-23T18:55:35+02:00*%
%TF.ProjectId,EEE3088F Project,45454533-3038-4384-9620-50726f6a6563,rev?*%
%TF.SameCoordinates,Original*%
%TF.FileFunction,Soldermask,Bot*%
%TF.FilePolarity,Negative*%
%FSLAX46Y46*%
G04 Gerber Fmt 4.6, Leading zero omitted, Abs format (unit mm)*
G04 Created by KiCad (PCBNEW 9.0.0) date 2025-03-23 18:55:35*
%MOMM*%
%LPD*%
G01*
G04 APERTURE LIST*
%ADD10O,0.950000X1.950000*%
%ADD11O,0.950000X2.150000*%
%ADD12R,1.350000X1.350000*%
%ADD13O,1.350000X1.350000*%
%ADD14C,2.300000*%
%ADD15R,1.700000X1.700000*%
%ADD16O,1.700000X1.700000*%
G04 APERTURE END LIST*
D10*
%TO.C,J3*%
X79100000Y-107300000D03*
D11*
X79100000Y-110500000D03*
D10*
X88000000Y-107300000D03*
D11*
X88000000Y-110500000D03*
%TD*%
D12*
%TO.C,J2*%
X80000000Y-78000000D03*
D13*
X80000000Y-80000000D03*
%TD*%
D14*
%TO.C,SWPwr1*%
X73125000Y-74332000D03*
X77825000Y-74332000D03*
X82525000Y-74332000D03*
X84425000Y-65932000D03*
X71225000Y-65932000D03*
%TD*%
D15*
%TO.C,J1*%
X67290000Y-61280000D03*
D16*
X64750000Y-61280000D03*
X67290000Y-63820000D03*
X64750000Y-63820000D03*
X67290000Y-66360000D03*
X64750000Y-66360000D03*
X67290000Y-68900000D03*
X64750000Y-68900000D03*
X67290000Y-71440000D03*
X64750000Y-71440000D03*
X67290000Y-73980000D03*
X64750000Y-73980000D03*
X67290000Y-76520000D03*
X64750000Y-76520000D03*
X67290000Y-79060000D03*
X64750000Y-79060000D03*
X67290000Y-81600000D03*
X64750000Y-81600000D03*
X67290000Y-84140000D03*
X64750000Y-84140000D03*
X67290000Y-86680000D03*
X64750000Y-86680000D03*
X67290000Y-89220000D03*
X64750000Y-89220000D03*
X67290000Y-91760000D03*
X64750000Y-91760000D03*
X67290000Y-94300000D03*
X64750000Y-94300000D03*
X67290000Y-96840000D03*
X64750000Y-96840000D03*
X67290000Y-99380000D03*
X64750000Y-99380000D03*
%TD*%
M02*
