%TF.GenerationSoftware,KiCad,Pcbnew,9.0.0*%
%TF.CreationDate,2025-03-23T18:55:35+02:00*%
%TF.ProjectId,EEE3088F Project,45454533-3038-4384-9620-50726f6a6563,rev?*%
%TF.SameCoordinates,Original*%
%TF.FileFunction,Copper,L1,Top*%
%TF.FilePolarity,Positive*%
%FSLAX46Y46*%
G04 Gerber Fmt 4.6, Leading zero omitted, Abs format (unit mm)*
G04 Created by KiCad (PCBNEW 9.0.0) date 2025-03-23 18:55:35*
%MOMM*%
%LPD*%
G01*
G04 APERTURE LIST*
G04 Aperture macros list*
%AMRoundRect*
0 Rectangle with rounded corners*
0 $1 Rounding radius*
0 $2 $3 $4 $5 $6 $7 $8 $9 X,Y pos of 4 corners*
0 Add a 4 corners polygon primitive as box body*
4,1,4,$2,$3,$4,$5,$6,$7,$8,$9,$2,$3,0*
0 Add four circle primitives for the rounded corners*
1,1,$1+$1,$2,$3*
1,1,$1+$1,$4,$5*
1,1,$1+$1,$6,$7*
1,1,$1+$1,$8,$9*
0 Add four rect primitives between the rounded corners*
20,1,$1+$1,$2,$3,$4,$5,0*
20,1,$1+$1,$4,$5,$6,$7,0*
20,1,$1+$1,$6,$7,$8,$9,0*
20,1,$1+$1,$8,$9,$2,$3,0*%
G04 Aperture macros list end*
%TA.AperFunction,SMDPad,CuDef*%
%ADD10RoundRect,0.249999X-0.512501X-1.425001X0.512501X-1.425001X0.512501X1.425001X-0.512501X1.425001X0*%
%TD*%
%TA.AperFunction,SMDPad,CuDef*%
%ADD11RoundRect,0.075000X-0.075000X-0.300000X0.075000X-0.300000X0.075000X0.300000X-0.075000X0.300000X0*%
%TD*%
%TA.AperFunction,SMDPad,CuDef*%
%ADD12RoundRect,0.062500X-0.062500X-0.312500X0.062500X-0.312500X0.062500X0.312500X-0.062500X0.312500X0*%
%TD*%
%TA.AperFunction,HeatsinkPad*%
%ADD13O,0.950000X1.950000*%
%TD*%
%TA.AperFunction,HeatsinkPad*%
%ADD14O,0.950000X2.150000*%
%TD*%
%TA.AperFunction,SMDPad,CuDef*%
%ADD15RoundRect,0.150000X-0.587500X-0.150000X0.587500X-0.150000X0.587500X0.150000X-0.587500X0.150000X0*%
%TD*%
%TA.AperFunction,SMDPad,CuDef*%
%ADD16RoundRect,0.237500X-0.250000X-0.237500X0.250000X-0.237500X0.250000X0.237500X-0.250000X0.237500X0*%
%TD*%
%TA.AperFunction,SMDPad,CuDef*%
%ADD17R,0.800000X2.700000*%
%TD*%
%TA.AperFunction,SMDPad,CuDef*%
%ADD18RoundRect,0.250000X-0.337500X-0.475000X0.337500X-0.475000X0.337500X0.475000X-0.337500X0.475000X0*%
%TD*%
%TA.AperFunction,SMDPad,CuDef*%
%ADD19RoundRect,0.250000X-0.412500X-0.650000X0.412500X-0.650000X0.412500X0.650000X-0.412500X0.650000X0*%
%TD*%
%TA.AperFunction,SMDPad,CuDef*%
%ADD20RoundRect,0.150000X-0.687500X-0.150000X0.687500X-0.150000X0.687500X0.150000X-0.687500X0.150000X0*%
%TD*%
%TA.AperFunction,HeatsinkPad*%
%ADD21R,2.100000X3.300000*%
%TD*%
%TA.AperFunction,SMDPad,CuDef*%
%ADD22RoundRect,0.150000X-0.825000X-0.150000X0.825000X-0.150000X0.825000X0.150000X-0.825000X0.150000X0*%
%TD*%
%TA.AperFunction,HeatsinkPad*%
%ADD23C,0.500000*%
%TD*%
%TA.AperFunction,HeatsinkPad*%
%ADD24R,2.410000X3.300000*%
%TD*%
%TA.AperFunction,SMDPad,CuDef*%
%ADD25RoundRect,0.062500X-0.187500X-0.062500X0.187500X-0.062500X0.187500X0.062500X-0.187500X0.062500X0*%
%TD*%
%TA.AperFunction,HeatsinkPad*%
%ADD26C,0.600000*%
%TD*%
%TA.AperFunction,SMDPad,CuDef*%
%ADD27R,0.900000X1.600000*%
%TD*%
%TA.AperFunction,SMDPad,CuDef*%
%ADD28RoundRect,0.125000X-0.537500X-0.125000X0.537500X-0.125000X0.537500X0.125000X-0.537500X0.125000X0*%
%TD*%
%TA.AperFunction,SMDPad,CuDef*%
%ADD29RoundRect,0.155000X-0.212500X-0.155000X0.212500X-0.155000X0.212500X0.155000X-0.212500X0.155000X0*%
%TD*%
%TA.AperFunction,SMDPad,CuDef*%
%ADD30RoundRect,0.250000X-0.400000X-0.625000X0.400000X-0.625000X0.400000X0.625000X-0.400000X0.625000X0*%
%TD*%
%TA.AperFunction,ComponentPad*%
%ADD31R,1.350000X1.350000*%
%TD*%
%TA.AperFunction,ComponentPad*%
%ADD32O,1.350000X1.350000*%
%TD*%
%TA.AperFunction,ComponentPad*%
%ADD33C,2.300000*%
%TD*%
%TA.AperFunction,SMDPad,CuDef*%
%ADD34R,2.000000X2.000000*%
%TD*%
%TA.AperFunction,SMDPad,CuDef*%
%ADD35RoundRect,0.150000X-0.512500X-0.150000X0.512500X-0.150000X0.512500X0.150000X-0.512500X0.150000X0*%
%TD*%
%TA.AperFunction,ComponentPad*%
%ADD36R,1.700000X1.700000*%
%TD*%
%TA.AperFunction,ComponentPad*%
%ADD37O,1.700000X1.700000*%
%TD*%
%TA.AperFunction,SMDPad,CuDef*%
%ADD38RoundRect,0.100000X-0.712500X-0.100000X0.712500X-0.100000X0.712500X0.100000X-0.712500X0.100000X0*%
%TD*%
%TA.AperFunction,SMDPad,CuDef*%
%ADD39RoundRect,0.243750X-0.243750X-0.456250X0.243750X-0.456250X0.243750X0.456250X-0.243750X0.456250X0*%
%TD*%
%TA.AperFunction,SMDPad,CuDef*%
%ADD40RoundRect,0.237500X-0.300000X-0.237500X0.300000X-0.237500X0.300000X0.237500X-0.300000X0.237500X0*%
%TD*%
G04 APERTURE END LIST*
D10*
%TO.P,D1,1,K*%
%TO.N,5V*%
X101192500Y-109925000D03*
%TO.P,D1,2,A*%
%TO.N,Net-(D1-A)*%
X107167500Y-109925000D03*
%TD*%
D11*
%TO.P,J3,A1,GND*%
%TO.N,GND*%
X80000000Y-107125000D03*
D12*
X80500000Y-107125000D03*
D11*
X87100000Y-107125000D03*
D12*
%TO.P,J3,A4,VBUS*%
%TO.N,Net-(J3-VBUS-PadA4)*%
X82300000Y-107125000D03*
%TO.P,J3,A5,CC1*%
%TO.N,Net-(J3-CC1)*%
X82800000Y-107125000D03*
%TO.P,J3,A6*%
%TO.N,N/C*%
X83300000Y-107125000D03*
%TO.P,J3,A7*%
X83800000Y-107125000D03*
%TO.P,J3,A8*%
X84300000Y-107125000D03*
%TO.P,J3,A9,VBUS*%
%TO.N,Net-(J3-VBUS-PadA4)*%
X84800000Y-107125000D03*
%TO.P,J3,A12,GND*%
%TO.N,GND*%
X86600000Y-107125000D03*
%TO.P,J3,B1,GND*%
X86550000Y-108375000D03*
%TO.P,J3,B4,VBUS*%
%TO.N,Net-(J3-VBUS-PadA4)*%
X85050000Y-108375000D03*
%TO.P,J3,B5,CC2*%
%TO.N,Net-(J3-CC2)*%
X84550000Y-108375000D03*
%TO.P,J3,B6*%
%TO.N,N/C*%
X84050000Y-108375000D03*
%TO.P,J3,B7*%
X83050000Y-108375000D03*
%TO.P,J3,B8*%
X82550000Y-108375000D03*
%TO.P,J3,B9,VBUS*%
%TO.N,Net-(J3-VBUS-PadA4)*%
X82050000Y-108375000D03*
%TO.P,J3,B12,GND*%
%TO.N,GND*%
X80550000Y-108375000D03*
D13*
%TO.P,J3,S1,SHIELD*%
%TO.N,unconnected-(J3-SHIELD-PadS1)*%
X79100000Y-107300000D03*
D14*
X79100000Y-110500000D03*
D13*
X88000000Y-107300000D03*
D14*
X88000000Y-110500000D03*
%TD*%
D15*
%TO.P,Q1,1,G*%
%TO.N,/FAST_CHRG_CNTRL*%
X91460000Y-87725000D03*
%TO.P,Q1,2,S*%
%TO.N,GND*%
X91460000Y-89625000D03*
%TO.P,Q1,3,D*%
%TO.N,Net-(Q1-D)*%
X93335000Y-88675000D03*
%TD*%
D16*
%TO.P,R8,1*%
%TO.N,Net-(U5-FB)*%
X95670000Y-117490000D03*
%TO.P,R8,2*%
%TO.N,Net-(R10-Pad1)*%
X97495000Y-117490000D03*
%TD*%
D17*
%TO.P,L1,1,1*%
%TO.N,Net-(U2-SW)*%
X96327500Y-93030000D03*
%TO.P,L1,2,2*%
%TO.N,Net-(D2-A)*%
X98527500Y-93030000D03*
%TD*%
D18*
%TO.P,C3,1*%
%TO.N,VBUS*%
X96470000Y-89200000D03*
%TO.P,C3,2*%
%TO.N,GND*%
X98545000Y-89200000D03*
%TD*%
D19*
%TO.P,C16,1*%
%TO.N,VBatt*%
X111890000Y-111220000D03*
%TO.P,C16,2*%
%TO.N,GND*%
X115015000Y-111220000D03*
%TD*%
D20*
%TO.P,U3,1,VDD*%
%TO.N,Net-(U3-VDD)*%
X105015000Y-117775000D03*
%TO.P,U3,2,CFG2*%
%TO.N,unconnected-(U3-CFG2-Pad2)*%
X105015000Y-118775000D03*
%TO.P,U3,3,CFG3*%
%TO.N,unconnected-(U3-CFG3-Pad3)*%
X105015000Y-119775000D03*
%TO.P,U3,4,DP*%
%TO.N,unconnected-(U3-DP-Pad4)*%
X105015000Y-120775000D03*
%TO.P,U3,5,DM*%
%TO.N,unconnected-(U3-DM-Pad5)*%
X105015000Y-121775000D03*
%TO.P,U3,6,CC2*%
%TO.N,Net-(J3-CC2)*%
X110290000Y-121775000D03*
%TO.P,U3,7,CC1*%
%TO.N,Net-(J3-CC1)*%
X110290000Y-120775000D03*
%TO.P,U3,8,VBUS*%
%TO.N,Net-(U3-VBUS)*%
X110290000Y-119775000D03*
%TO.P,U3,9,CFG1*%
%TO.N,Net-(U3-CFG1)*%
X110290000Y-118775000D03*
%TO.P,U3,10,PG*%
%TO.N,unconnected-(U3-PG-Pad10)*%
X110290000Y-117775000D03*
D21*
%TO.P,U3,11,GND*%
%TO.N,GND*%
X107652500Y-119775000D03*
%TD*%
D22*
%TO.P,U1,1,TEMP*%
%TO.N,GND*%
X144432500Y-85070000D03*
%TO.P,U1,2,PROG*%
%TO.N,Net-(U1-PROG)*%
X144432500Y-86340000D03*
%TO.P,U1,3,GND*%
%TO.N,GND*%
X144432500Y-87610000D03*
%TO.P,U1,4,V_{CC}*%
%TO.N,Net-(D2-A)*%
X144432500Y-88880000D03*
%TO.P,U1,5,BAT*%
%TO.N,VBatt*%
X149382500Y-88880000D03*
%TO.P,U1,6,~{STDBY}*%
%TO.N,GND*%
X149382500Y-87610000D03*
%TO.P,U1,7,~{CHRG}*%
%TO.N,Net-(U1-~{CHRG})*%
X149382500Y-86340000D03*
%TO.P,U1,8,CE*%
%TO.N,Net-(D2-A)*%
X149382500Y-85070000D03*
D23*
%TO.P,U1,9,EPAD*%
%TO.N,GND*%
X146207500Y-85775000D03*
X146207500Y-86975000D03*
X146207500Y-88175000D03*
D24*
X146907500Y-86975000D03*
D23*
X147607500Y-85775000D03*
X147607500Y-86975000D03*
X147607500Y-88175000D03*
%TD*%
D16*
%TO.P,R2,1*%
%TO.N,Net-(U1-PROG)*%
X101175000Y-88480000D03*
%TO.P,R2,2*%
%TO.N,Net-(Q1-D)*%
X103000000Y-88480000D03*
%TD*%
D19*
%TO.P,C4,1*%
%TO.N,Net-(D2-A)*%
X91395000Y-80000000D03*
%TO.P,C4,2*%
%TO.N,GND*%
X94520000Y-80000000D03*
%TD*%
D25*
%TO.P,U2,1,PGND*%
%TO.N,GND*%
X91212500Y-92055000D03*
%TO.P,U2,2,VIN*%
%TO.N,VBUS*%
X91212500Y-92555000D03*
%TO.P,U2,3,EN*%
X91212500Y-93055000D03*
%TO.P,U2,4,AGND*%
%TO.N,GND*%
X91212500Y-93555000D03*
%TO.P,U2,5,FB*%
X93112500Y-93555000D03*
%TO.P,U2,6,VOS*%
%TO.N,Net-(D2-A)*%
X93112500Y-93055000D03*
%TO.P,U2,7,SW*%
%TO.N,Net-(U2-SW)*%
X93112500Y-92555000D03*
%TO.P,U2,8,PG*%
%TO.N,Net-(U2-PG)*%
X93112500Y-92055000D03*
D26*
%TO.P,U2,9,PAD*%
%TO.N,GND*%
X92162500Y-92305000D03*
D27*
X92162500Y-92805000D03*
D26*
X92162500Y-93305000D03*
%TD*%
D28*
%TO.P,CurrentSensor1,1,IN+*%
%TO.N,/RSense+*%
X91390000Y-83075000D03*
%TO.P,CurrentSensor1,2,IN-*%
%TO.N,VBatt*%
X91390000Y-83725000D03*
%TO.P,CurrentSensor1,3,GND*%
%TO.N,GND*%
X91390000Y-84375000D03*
%TO.P,CurrentSensor1,4,VS*%
%TO.N,VBatt*%
X91390000Y-85025000D03*
%TO.P,CurrentSensor1,5,SCL*%
%TO.N,/12C1_SCL*%
X93665000Y-85025000D03*
%TO.P,CurrentSensor1,6,SDA*%
%TO.N,/12C1_SDA*%
X93665000Y-84375000D03*
%TO.P,CurrentSensor1,7,A0*%
%TO.N,Net-(CurrentSensor1-A0)*%
X93665000Y-83725000D03*
%TO.P,CurrentSensor1,8,A1*%
X93665000Y-83075000D03*
%TD*%
D16*
%TO.P,R10,1*%
%TO.N,Net-(R10-Pad1)*%
X95670000Y-122510000D03*
%TO.P,R10,2*%
%TO.N,GND*%
X97495000Y-122510000D03*
%TD*%
D29*
%TO.P,C7,1*%
%TO.N,GND*%
X133365000Y-88150000D03*
%TO.P,C7,2*%
%TO.N,VBatt*%
X134500000Y-88150000D03*
%TD*%
D16*
%TO.P,SCLPullup1,1*%
%TO.N,VBatt*%
X74887500Y-79740000D03*
%TO.P,SCLPullup1,2*%
%TO.N,/12C1_SCL*%
X76712500Y-79740000D03*
%TD*%
D25*
%TO.P,M3Control1,1,VM*%
%TO.N,VBatt*%
X139612500Y-92150000D03*
%TO.P,M3Control1,2,OUT1*%
%TO.N,/MOTOR3_A_OUT*%
X139612500Y-92650000D03*
%TO.P,M3Control1,3,OUT2*%
%TO.N,/MOTOR3_B_OUT *%
X139612500Y-93150000D03*
%TO.P,M3Control1,4,GND*%
%TO.N,GND*%
X139612500Y-93650000D03*
%TO.P,M3Control1,5,IN2*%
%TO.N,/MOTOR3_CTRL2*%
X141512500Y-93650000D03*
%TO.P,M3Control1,6,IN1*%
%TO.N,/MOTOR3_CTRL1*%
X141512500Y-93150000D03*
%TO.P,M3Control1,7,~{SLEEP}*%
%TO.N,VBatt*%
X141512500Y-92650000D03*
%TO.P,M3Control1,8,VCC*%
X141512500Y-92150000D03*
D27*
%TO.P,M3Control1,9,GND*%
%TO.N,GND*%
X140562500Y-92900000D03*
%TD*%
D18*
%TO.P,C2,1*%
%TO.N,VBatt*%
X96470000Y-86190000D03*
%TO.P,C2,2*%
%TO.N,GND*%
X98545000Y-86190000D03*
%TD*%
D30*
%TO.P,RSense1,1*%
%TO.N,VBatt*%
X71000000Y-85720000D03*
%TO.P,RSense1,2*%
%TO.N,/RSense+*%
X74100000Y-85720000D03*
%TD*%
D31*
%TO.P,J2,1,Pin_1*%
%TO.N,GND*%
X80000000Y-78000000D03*
D32*
%TO.P,J2,2,Pin_2*%
%TO.N,Net-(J2-Pin_2)*%
X80000000Y-80000000D03*
%TD*%
D16*
%TO.P,R7,1*%
%TO.N,Net-(U4-PG)*%
X95670000Y-114980000D03*
%TO.P,R7,2*%
%TO.N,3V3*%
X97495000Y-114980000D03*
%TD*%
D33*
%TO.P,SWPwr1,1,A*%
%TO.N,/RSense+*%
X73125000Y-74332000D03*
%TO.P,SWPwr1,2,B*%
%TO.N,Net-(J2-Pin_2)*%
X77825000Y-74332000D03*
%TO.P,SWPwr1,3,C*%
%TO.N,unconnected-(SWPwr1-C-Pad3)*%
X82525000Y-74332000D03*
%TO.P,SWPwr1,4*%
%TO.N,N/C*%
X84425000Y-65932000D03*
%TO.P,SWPwr1,5*%
X71225000Y-65932000D03*
%TD*%
D16*
%TO.P,R_set1,1*%
%TO.N,Net-(U3-CFG1)*%
X95670000Y-125020000D03*
%TO.P,R_set1,2*%
%TO.N,GND*%
X97495000Y-125020000D03*
%TD*%
D34*
%TO.P,RSenseTP+1,1,1*%
%TO.N,/RSense+*%
X71600000Y-78000000D03*
%TD*%
D25*
%TO.P,U4,1,PGND*%
%TO.N,GND*%
X113157500Y-117485000D03*
%TO.P,U4,2,VIN*%
%TO.N,5V*%
X113157500Y-117985000D03*
%TO.P,U4,3,EN*%
X113157500Y-118485000D03*
%TO.P,U4,4,AGND*%
%TO.N,GND*%
X113157500Y-118985000D03*
%TO.P,U4,5,FB*%
X115057500Y-118985000D03*
%TO.P,U4,6,VOS*%
%TO.N,3V3*%
X115057500Y-118485000D03*
%TO.P,U4,7,SW*%
%TO.N,Net-(U4-SW)*%
X115057500Y-117985000D03*
%TO.P,U4,8,PG*%
%TO.N,Net-(U4-PG)*%
X115057500Y-117485000D03*
D26*
%TO.P,U4,9,PAD*%
%TO.N,GND*%
X114107500Y-117735000D03*
D27*
X114107500Y-118235000D03*
D26*
X114107500Y-118735000D03*
%TD*%
D19*
%TO.P,C17,1*%
%TO.N,5V*%
X111890000Y-114570000D03*
%TO.P,C17,2*%
%TO.N,GND*%
X115015000Y-114570000D03*
%TD*%
D17*
%TO.P,L2,1,1*%
%TO.N,Net-(U4-SW)*%
X99982500Y-118650000D03*
%TO.P,L2,2,2*%
%TO.N,3V3*%
X102182500Y-118650000D03*
%TD*%
D35*
%TO.P,U5,1,SW*%
%TO.N,Net-(D1-A)*%
X104845000Y-124445000D03*
%TO.P,U5,2,GND*%
%TO.N,GND*%
X104845000Y-125395000D03*
%TO.P,U5,3,FB*%
%TO.N,Net-(U5-FB)*%
X104845000Y-126345000D03*
%TO.P,U5,4,EN*%
%TO.N,VBatt*%
X107120000Y-126345000D03*
%TO.P,U5,5,IN*%
X107120000Y-125395000D03*
%TO.P,U5,6,NC*%
%TO.N,unconnected-(U5-NC-Pad6)*%
X107120000Y-124445000D03*
%TD*%
D25*
%TO.P,M1Control1,1,VM*%
%TO.N,VBatt*%
X139612500Y-84780000D03*
%TO.P,M1Control1,2,OUT1*%
%TO.N,/MOTOR1_A_OUT*%
X139612500Y-85280000D03*
%TO.P,M1Control1,3,OUT2*%
%TO.N,/MOTOR1_B_OUT *%
X139612500Y-85780000D03*
%TO.P,M1Control1,4,GND*%
%TO.N,GND*%
X139612500Y-86280000D03*
%TO.P,M1Control1,5,IN2*%
%TO.N,/MOTOR1_CTRL2*%
X141512500Y-86280000D03*
%TO.P,M1Control1,6,IN1*%
%TO.N,/MOTOR1_CTRL1*%
X141512500Y-85780000D03*
%TO.P,M1Control1,7,~{SLEEP}*%
%TO.N,VBatt*%
X141512500Y-85280000D03*
%TO.P,M1Control1,8,VCC*%
X141512500Y-84780000D03*
D27*
%TO.P,M1Control1,9,GND*%
%TO.N,GND*%
X140562500Y-85530000D03*
%TD*%
D16*
%TO.P,A1A2PullupCS1,1*%
%TO.N,Net-(CurrentSensor1-A0)*%
X74887500Y-77230000D03*
%TO.P,A1A2PullupCS1,2*%
%TO.N,VBatt*%
X76712500Y-77230000D03*
%TD*%
D29*
%TO.P,C11,1*%
%TO.N,GND*%
X133365000Y-96030000D03*
%TO.P,C11,2*%
%TO.N,VBatt*%
X134500000Y-96030000D03*
%TD*%
D36*
%TO.P,J1,1,Pin_1*%
%TO.N,/MOTOR2_B_OUT*%
X67290000Y-61280000D03*
D37*
%TO.P,J1,2,Pin_2*%
%TO.N,/MOTOR2_A_OUT*%
X64750000Y-61280000D03*
%TO.P,J1,3,Pin_3*%
%TO.N,/MOTOR4_A_OUT*%
X67290000Y-63820000D03*
%TO.P,J1,4,Pin_4*%
%TO.N,/MOTOR2_CTRL1*%
X64750000Y-63820000D03*
%TO.P,J1,5,Pin_5*%
%TO.N,/MOTOR4_B_OUT*%
X67290000Y-66360000D03*
%TO.P,J1,6,Pin_6*%
%TO.N,/MOTOR2_CTRL2 *%
X64750000Y-66360000D03*
%TO.P,J1,7,Pin_7*%
%TO.N,unconnected-(J1-Pin_7-Pad7)*%
X67290000Y-68900000D03*
%TO.P,J1,8,Pin_8*%
%TO.N,/MOTOR4_CTRL1 *%
X64750000Y-68900000D03*
%TO.P,J1,9,Pin_9*%
%TO.N,unconnected-(J1-Pin_9-Pad9)*%
X67290000Y-71440000D03*
%TO.P,J1,10,Pin_10*%
%TO.N,/MOTOR4_CTRL2*%
X64750000Y-71440000D03*
%TO.P,J1,11,Pin_11*%
%TO.N,/FAST_CHRG_CNTRL*%
X67290000Y-73980000D03*
%TO.P,J1,12,Pin_12*%
%TO.N,unconnected-(J1-Pin_12-Pad12)*%
X64750000Y-73980000D03*
%TO.P,J1,13,Pin_13*%
%TO.N,unconnected-(J1-Pin_13-Pad13)*%
X67290000Y-76520000D03*
%TO.P,J1,14,Pin_14*%
%TO.N,unconnected-(J1-Pin_14-Pad14)*%
X64750000Y-76520000D03*
%TO.P,J1,15,Pin_15*%
%TO.N,unconnected-(J1-Pin_15-Pad15)*%
X67290000Y-79060000D03*
%TO.P,J1,16,Pin_16*%
%TO.N,/12C1_SCL*%
X64750000Y-79060000D03*
%TO.P,J1,17,Pin_17*%
%TO.N,/12C1_SDA*%
X67290000Y-81600000D03*
%TO.P,J1,18,Pin_18*%
%TO.N,unconnected-(J1-Pin_18-Pad18)*%
X64750000Y-81600000D03*
%TO.P,J1,19,Pin_19*%
%TO.N,unconnected-(J1-Pin_19-Pad19)*%
X67290000Y-84140000D03*
%TO.P,J1,20,Pin_20*%
%TO.N,unconnected-(J1-Pin_20-Pad20)*%
X64750000Y-84140000D03*
%TO.P,J1,21,Pin_21*%
%TO.N,unconnected-(J1-Pin_21-Pad21)*%
X67290000Y-86680000D03*
%TO.P,J1,22,Pin_22*%
%TO.N,unconnected-(J1-Pin_22-Pad22)*%
X64750000Y-86680000D03*
%TO.P,J1,23,Pin_23*%
%TO.N,unconnected-(J1-Pin_23-Pad23)*%
X67290000Y-89220000D03*
%TO.P,J1,24,Pin_24*%
%TO.N,/MOTOR3_CTRL1*%
X64750000Y-89220000D03*
%TO.P,J1,25,Pin_25*%
%TO.N,unconnected-(J1-Pin_25-Pad25)*%
X67290000Y-91760000D03*
%TO.P,J1,26,Pin_26*%
%TO.N,/MOTOR3_CTRL2*%
X64750000Y-91760000D03*
%TO.P,J1,27,Pin_27*%
%TO.N,/MOTOR3_A_OUT*%
X67290000Y-94300000D03*
%TO.P,J1,28,Pin_28*%
%TO.N,/MOTOR1_CTRL1*%
X64750000Y-94300000D03*
%TO.P,J1,29,Pin_29*%
%TO.N,/MOTOR3_B_OUT *%
X67290000Y-96840000D03*
%TO.P,J1,30,Pin_30*%
%TO.N,/MOTOR1_CTRL2*%
X64750000Y-96840000D03*
%TO.P,J1,31,Pin_31*%
%TO.N,/MOTOR1_B_OUT *%
X67290000Y-99380000D03*
%TO.P,J1,32,Pin_32*%
%TO.N,/MOTOR1_A_OUT*%
X64750000Y-99380000D03*
%TD*%
D17*
%TO.P,L3,1*%
%TO.N,VBatt*%
X99982500Y-123300000D03*
%TO.P,L3,2*%
%TO.N,Net-(D1-A)*%
X102182500Y-123300000D03*
%TD*%
D29*
%TO.P,C9,1*%
%TO.N,GND*%
X133365000Y-92090000D03*
%TO.P,C9,2*%
%TO.N,VBatt*%
X134500000Y-92090000D03*
%TD*%
D38*
%TO.P,U2,1,PGND*%
%TO.N,GND*%
X144275000Y-91550000D03*
%TO.P,U2,2,VIN*%
%TO.N,9V*%
X144275000Y-92200000D03*
%TO.P,U2,3,EN*%
X144275000Y-92850000D03*
%TO.P,U2,4,AGND*%
%TO.N,GND*%
X144275000Y-93500000D03*
%TO.P,U2,5,FB*%
%TO.N,Net-(U2-FB)*%
X148500000Y-93500000D03*
%TO.P,U2,6,VOS*%
%TO.N,/5V_output*%
X148500000Y-92850000D03*
%TO.P,U2,7,SW*%
%TO.N,Net-(U2-SW)*%
X148500000Y-92200000D03*
%TO.P,U2,8,PG*%
%TO.N,Net-(U2-PG)*%
X148500000Y-91550000D03*
%TD*%
D16*
%TO.P,R3,1*%
%TO.N,Net-(U1-PROG)*%
X101175000Y-93500000D03*
%TO.P,R3,2*%
%TO.N,GND*%
X103000000Y-93500000D03*
%TD*%
D39*
%TO.P,D2,1,K*%
%TO.N,Net-(D2-K)*%
X101220000Y-83195000D03*
%TO.P,D2,2,A*%
%TO.N,Net-(D2-A)*%
X103095000Y-83195000D03*
%TD*%
D18*
%TO.P,C14,1*%
%TO.N,5V*%
X109925000Y-124500000D03*
%TO.P,C14,2*%
%TO.N,GND*%
X112000000Y-124500000D03*
%TD*%
D16*
%TO.P,R6,1*%
%TO.N,Net-(U3-VBUS)*%
X95670000Y-112470000D03*
%TO.P,R6,2*%
%TO.N,VBUS*%
X97495000Y-112470000D03*
%TD*%
D29*
%TO.P,C10,1*%
%TO.N,VBatt*%
X133365000Y-94060000D03*
%TO.P,C10,2*%
%TO.N,GND*%
X134500000Y-94060000D03*
%TD*%
D25*
%TO.P,M2Control1,1,VM*%
%TO.N,VBatt*%
X139612500Y-88465000D03*
%TO.P,M2Control1,2,OUT1*%
%TO.N,/MOTOR2_A_OUT*%
X139612500Y-88965000D03*
%TO.P,M2Control1,3,OUT2*%
%TO.N,/MOTOR2_B_OUT *%
X139612500Y-89465000D03*
%TO.P,M2Control1,4,GND*%
%TO.N,GND*%
X139612500Y-89965000D03*
%TO.P,M2Control1,5,IN2*%
%TO.N,/MOTOR2_CTRL2*%
X141512500Y-89965000D03*
%TO.P,M2Control1,6,IN1*%
%TO.N,/MOTOR2_CTRL1*%
X141512500Y-89465000D03*
%TO.P,M2Control1,7,~{SLEEP}*%
%TO.N,VBatt*%
X141512500Y-88965000D03*
%TO.P,M2Control1,8,VCC*%
X141512500Y-88465000D03*
D27*
%TO.P,M2Control1,9,GND*%
%TO.N,GND*%
X140562500Y-89215000D03*
%TD*%
D16*
%TO.P,R4,1*%
%TO.N,Net-(U2-PG)*%
X101175000Y-90990000D03*
%TO.P,R4,2*%
%TO.N,Net-(D2-A)*%
X103000000Y-90990000D03*
%TD*%
D18*
%TO.P,C1,1*%
%TO.N,GND*%
X96470000Y-83180000D03*
%TO.P,C1,2*%
%TO.N,Net-(D2-A)*%
X98545000Y-83180000D03*
%TD*%
D34*
%TO.P,RSenseTP-1,1,1*%
%TO.N,VBatt*%
X71600000Y-82050000D03*
%TD*%
D16*
%TO.P,R1,1*%
%TO.N,Net-(D2-K)*%
X101175000Y-85970000D03*
%TO.P,R1,2*%
%TO.N,Net-(U1-~{CHRG})*%
X103000000Y-85970000D03*
%TD*%
D29*
%TO.P,C12,1*%
%TO.N,VBatt*%
X133365000Y-98000000D03*
%TO.P,C12,2*%
%TO.N,GND*%
X134500000Y-98000000D03*
%TD*%
%TO.P,C5,1*%
%TO.N,VBatt*%
X132797500Y-84500000D03*
%TO.P,C5,2*%
%TO.N,GND*%
X133932500Y-84500000D03*
%TD*%
D16*
%TO.P,R9,1*%
%TO.N,5V*%
X95670000Y-120000000D03*
%TO.P,R9,2*%
%TO.N,Net-(U5-FB)*%
X97495000Y-120000000D03*
%TD*%
D25*
%TO.P,M4Control1,1,VM*%
%TO.N,VBatt*%
X139612500Y-95835000D03*
%TO.P,M4Control1,2,OUT1*%
%TO.N,/MOTOR4_A_OUT*%
X139612500Y-96335000D03*
%TO.P,M4Control1,3,OUT2*%
%TO.N,/MOTOR4_B_OUT *%
X139612500Y-96835000D03*
%TO.P,M4Control1,4,GND*%
%TO.N,GND*%
X139612500Y-97335000D03*
%TO.P,M4Control1,5,IN2*%
%TO.N,/MOTOR4_CTRL2*%
X141512500Y-97335000D03*
%TO.P,M4Control1,6,IN1*%
%TO.N,/MOTOR4_CTRL1*%
X141512500Y-96835000D03*
%TO.P,M4Control1,7,~{SLEEP}*%
%TO.N,VBatt*%
X141512500Y-96335000D03*
%TO.P,M4Control1,8,VCC*%
X141512500Y-95835000D03*
D27*
%TO.P,M4Control1,9,GND*%
%TO.N,GND*%
X140562500Y-96585000D03*
%TD*%
D29*
%TO.P,C8,1*%
%TO.N,VBatt*%
X133365000Y-90120000D03*
%TO.P,C8,2*%
%TO.N,GND*%
X134500000Y-90120000D03*
%TD*%
D16*
%TO.P,R5,1*%
%TO.N,Net-(J3-VBUS-PadA4)*%
X95670000Y-109960000D03*
%TO.P,R5,2*%
%TO.N,Net-(U3-VDD)*%
X97495000Y-109960000D03*
%TD*%
D19*
%TO.P,C15,1*%
%TO.N,3V3*%
X111890000Y-107870000D03*
%TO.P,C15,2*%
%TO.N,GND*%
X115015000Y-107870000D03*
%TD*%
D16*
%TO.P,SDAPullup1,1*%
%TO.N,VBatt*%
X74887500Y-82250000D03*
%TO.P,SDAPullup1,2*%
%TO.N,/12C1_SDA*%
X76712500Y-82250000D03*
%TD*%
D29*
%TO.P,C6,1*%
%TO.N,GND*%
X133365000Y-86180000D03*
%TO.P,C6,2*%
%TO.N,VBatt*%
X134500000Y-86180000D03*
%TD*%
D40*
%TO.P,C13,1*%
%TO.N,Net-(U3-VDD)*%
X95720000Y-107450000D03*
%TO.P,C13,2*%
%TO.N,GND*%
X97445000Y-107450000D03*
%TD*%
M02*
