%TF.GenerationSoftware,KiCad,Pcbnew,9.0.0*%
%TF.CreationDate,2025-03-28T11:37:27+02:00*%
%TF.ProjectId,EEE3088F Project,45454533-3038-4384-9620-50726f6a6563,rev?*%
%TF.SameCoordinates,Original*%
%TF.FileFunction,Copper,L1,Top*%
%TF.FilePolarity,Positive*%
%FSLAX46Y46*%
G04 Gerber Fmt 4.6, Leading zero omitted, Abs format (unit mm)*
G04 Created by KiCad (PCBNEW 9.0.0) date 2025-03-28 11:37:27*
%MOMM*%
%LPD*%
G01*
G04 APERTURE LIST*
G04 Aperture macros list*
%AMRoundRect*
0 Rectangle with rounded corners*
0 $1 Rounding radius*
0 $2 $3 $4 $5 $6 $7 $8 $9 X,Y pos of 4 corners*
0 Add a 4 corners polygon primitive as box body*
4,1,4,$2,$3,$4,$5,$6,$7,$8,$9,$2,$3,0*
0 Add four circle primitives for the rounded corners*
1,1,$1+$1,$2,$3*
1,1,$1+$1,$4,$5*
1,1,$1+$1,$6,$7*
1,1,$1+$1,$8,$9*
0 Add four rect primitives between the rounded corners*
20,1,$1+$1,$2,$3,$4,$5,0*
20,1,$1+$1,$4,$5,$6,$7,0*
20,1,$1+$1,$6,$7,$8,$9,0*
20,1,$1+$1,$8,$9,$2,$3,0*%
G04 Aperture macros list end*
%TA.AperFunction,SMDPad,CuDef*%
%ADD10R,0.700000X1.250000*%
%TD*%
%TA.AperFunction,SMDPad,CuDef*%
%ADD11RoundRect,0.237500X-0.237500X0.250000X-0.237500X-0.250000X0.237500X-0.250000X0.237500X0.250000X0*%
%TD*%
%TA.AperFunction,SMDPad,CuDef*%
%ADD12R,1.500000X1.000000*%
%TD*%
%TA.AperFunction,SMDPad,CuDef*%
%ADD13O,0.364000X1.662000*%
%TD*%
%TA.AperFunction,SMDPad,CuDef*%
%ADD14R,1.800000X1.500000*%
%TD*%
%TA.AperFunction,SMDPad,CuDef*%
%ADD15RoundRect,0.250000X0.475000X-0.337500X0.475000X0.337500X-0.475000X0.337500X-0.475000X-0.337500X0*%
%TD*%
%TA.AperFunction,SMDPad,CuDef*%
%ADD16RoundRect,0.250000X-0.412500X-0.650000X0.412500X-0.650000X0.412500X0.650000X-0.412500X0.650000X0*%
%TD*%
%TA.AperFunction,SMDPad,CuDef*%
%ADD17RoundRect,0.250000X-0.475000X0.337500X-0.475000X-0.337500X0.475000X-0.337500X0.475000X0.337500X0*%
%TD*%
%TA.AperFunction,SMDPad,CuDef*%
%ADD18RoundRect,0.250000X0.337500X0.475000X-0.337500X0.475000X-0.337500X-0.475000X0.337500X-0.475000X0*%
%TD*%
%TA.AperFunction,SMDPad,CuDef*%
%ADD19RoundRect,0.250000X0.650000X-0.412500X0.650000X0.412500X-0.650000X0.412500X-0.650000X-0.412500X0*%
%TD*%
%TA.AperFunction,SMDPad,CuDef*%
%ADD20R,2.000000X2.000000*%
%TD*%
%TA.AperFunction,SMDPad,CuDef*%
%ADD21R,0.521000X0.250000*%
%TD*%
%TA.AperFunction,SMDPad,CuDef*%
%ADD22R,0.900000X1.600000*%
%TD*%
%TA.AperFunction,SMDPad,CuDef*%
%ADD23RoundRect,0.250000X-0.337500X-0.475000X0.337500X-0.475000X0.337500X0.475000X-0.337500X0.475000X0*%
%TD*%
%TA.AperFunction,SMDPad,CuDef*%
%ADD24R,1.000000X1.500000*%
%TD*%
%TA.AperFunction,SMDPad,CuDef*%
%ADD25RoundRect,0.100000X-0.562500X-0.100000X0.562500X-0.100000X0.562500X0.100000X-0.562500X0.100000X0*%
%TD*%
%TA.AperFunction,SMDPad,CuDef*%
%ADD26RoundRect,0.155000X-0.212500X-0.155000X0.212500X-0.155000X0.212500X0.155000X-0.212500X0.155000X0*%
%TD*%
%TA.AperFunction,SMDPad,CuDef*%
%ADD27RoundRect,0.237500X0.237500X-0.250000X0.237500X0.250000X-0.237500X0.250000X-0.237500X-0.250000X0*%
%TD*%
%TA.AperFunction,SMDPad,CuDef*%
%ADD28RoundRect,0.062500X-0.187500X-0.062500X0.187500X-0.062500X0.187500X0.062500X-0.187500X0.062500X0*%
%TD*%
%TA.AperFunction,SMDPad,CuDef*%
%ADD29RoundRect,0.250000X0.625000X-0.400000X0.625000X0.400000X-0.625000X0.400000X-0.625000X-0.400000X0*%
%TD*%
%TA.AperFunction,SMDPad,CuDef*%
%ADD30R,1.600000X3.900000*%
%TD*%
%TA.AperFunction,ComponentPad*%
%ADD31R,1.350000X1.350000*%
%TD*%
%TA.AperFunction,ComponentPad*%
%ADD32O,1.350000X1.350000*%
%TD*%
%TA.AperFunction,ComponentPad*%
%ADD33C,2.300000*%
%TD*%
%TA.AperFunction,SMDPad,CuDef*%
%ADD34RoundRect,0.237500X0.250000X0.237500X-0.250000X0.237500X-0.250000X-0.237500X0.250000X-0.237500X0*%
%TD*%
%TA.AperFunction,SMDPad,CuDef*%
%ADD35RoundRect,0.250000X-0.650000X0.412500X-0.650000X-0.412500X0.650000X-0.412500X0.650000X0.412500X0*%
%TD*%
%TA.AperFunction,SMDPad,CuDef*%
%ADD36R,0.600000X1.500000*%
%TD*%
%TA.AperFunction,SMDPad,CuDef*%
%ADD37R,3.300000X2.100000*%
%TD*%
%TA.AperFunction,SMDPad,CuDef*%
%ADD38R,0.532000X1.072000*%
%TD*%
%TA.AperFunction,SMDPad,CuDef*%
%ADD39R,3.500000X7.000000*%
%TD*%
%TA.AperFunction,SMDPad,CuDef*%
%ADD40R,1.200000X0.600000*%
%TD*%
%TA.AperFunction,SMDPad,CuDef*%
%ADD41R,2.400000X3.300000*%
%TD*%
%TA.AperFunction,SMDPad,CuDef*%
%ADD42RoundRect,0.243750X0.456250X-0.243750X0.456250X0.243750X-0.456250X0.243750X-0.456250X-0.243750X0*%
%TD*%
%TA.AperFunction,SMDPad,CuDef*%
%ADD43RoundRect,0.155000X-0.155000X0.212500X-0.155000X-0.212500X0.155000X-0.212500X0.155000X0.212500X0*%
%TD*%
%TA.AperFunction,SMDPad,CuDef*%
%ADD44RoundRect,0.237500X0.300000X0.237500X-0.300000X0.237500X-0.300000X-0.237500X0.300000X-0.237500X0*%
%TD*%
%TA.AperFunction,SMDPad,CuDef*%
%ADD45RoundRect,0.237500X-0.250000X-0.237500X0.250000X-0.237500X0.250000X0.237500X-0.250000X0.237500X0*%
%TD*%
%TA.AperFunction,ComponentPad*%
%ADD46O,2.100000X1.000000*%
%TD*%
%TA.AperFunction,ComponentPad*%
%ADD47O,1.800000X1.000000*%
%TD*%
%TA.AperFunction,SMDPad,CuDef*%
%ADD48R,1.150000X0.600000*%
%TD*%
%TA.AperFunction,SMDPad,CuDef*%
%ADD49R,1.150000X0.300000*%
%TD*%
%TA.AperFunction,ComponentPad*%
%ADD50R,1.700000X1.700000*%
%TD*%
%TA.AperFunction,ComponentPad*%
%ADD51O,1.700000X1.700000*%
%TD*%
%TA.AperFunction,ViaPad*%
%ADD52C,0.600000*%
%TD*%
%TA.AperFunction,Conductor*%
%ADD53C,0.200000*%
%TD*%
%TA.AperFunction,Conductor*%
%ADD54C,0.400000*%
%TD*%
%TA.AperFunction,Conductor*%
%ADD55C,0.300000*%
%TD*%
G04 APERTURE END LIST*
D10*
%TO.P,Q2,1,G*%
%TO.N,/FAST_CHRG_CNTRL*%
X192550000Y-65500000D03*
%TO.P,Q2,2,S*%
%TO.N,GND*%
X194450000Y-65500000D03*
%TO.P,Q2,3,D*%
%TO.N,Net-(Q2-D)*%
X193500000Y-63500000D03*
%TD*%
D11*
%TO.P,R8,1*%
%TO.N,Net-(5VReg_IC1-FB)*%
X206000000Y-84500000D03*
%TO.P,R8,2*%
%TO.N,Net-(R10-Pad1)*%
X206000000Y-86325000D03*
%TD*%
D12*
%TO.P,CurrSenseJP1,1,A*%
%TO.N,Net-(CurrSenseJP1-A)*%
X156800000Y-72800000D03*
%TO.P,CurrSenseJP1,2,B*%
%TO.N,VBatt*%
X156800000Y-71500000D03*
%TD*%
D13*
%TO.P,ExtLoadSw_IC1,1,GND*%
%TO.N,GND*%
X166000000Y-98300000D03*
%TO.P,ExtLoadSw_IC1,2,IN*%
%TO.N,Net-(ExtLoadJP1-B)*%
X166650000Y-98300000D03*
%TO.P,ExtLoadSw_IC1,3,EN1*%
%TO.N,/CTRL_EXT_LOAD1*%
X167300000Y-98300000D03*
%TO.P,ExtLoadSw_IC1,4,EN2*%
%TO.N,/CTRL_EXT_LOAD2*%
X167950000Y-98300000D03*
%TO.P,ExtLoadSw_IC1,5,FLG2*%
%TO.N,Net-(ExtLoadSw_IC1-FLG2)*%
X167950000Y-94038000D03*
%TO.P,ExtLoadSw_IC1,6,OUT2*%
%TO.N,/EXT_LOAD2_OUT*%
X167300000Y-94038000D03*
%TO.P,ExtLoadSw_IC1,7,OUT1*%
%TO.N,/EXT_LOAD1_OUT*%
X166650000Y-94038000D03*
%TO.P,ExtLoadSw_IC1,8,FLG1*%
%TO.N,Net-(ExtLoadSw_IC1-FLG1)*%
X166000000Y-94038000D03*
D14*
%TO.P,ExtLoadSw_IC1,9,EP*%
%TO.N,GND*%
X166975000Y-96169000D03*
%TD*%
D15*
%TO.P,C3,1*%
%TO.N,Net-(9Vto5V_IC1-EN)*%
X179537500Y-48037500D03*
%TO.P,C3,2*%
%TO.N,GND*%
X179537500Y-45962500D03*
%TD*%
D16*
%TO.P,C16,1*%
%TO.N,Net-(5VReg_IC1-EN)*%
X180937500Y-74500000D03*
%TO.P,C16,2*%
%TO.N,GND*%
X184062500Y-74500000D03*
%TD*%
D17*
%TO.P,C17,1*%
%TO.N,/EXT_LOAD1_OUT*%
X164100000Y-95262500D03*
%TO.P,C17,2*%
%TO.N,GND*%
X164100000Y-97337500D03*
%TD*%
D18*
%TO.P,M1BulkC1,1*%
%TO.N,Net-(JP11-B)*%
X162100000Y-112600000D03*
%TO.P,M1BulkC1,2*%
%TO.N,GND*%
X160025000Y-112600000D03*
%TD*%
D11*
%TO.P,R2,1*%
%TO.N,Net-(BattCharge_IC1-PROG)*%
X193500000Y-59000000D03*
%TO.P,R2,2*%
%TO.N,Net-(Q2-D)*%
X193500000Y-60825000D03*
%TD*%
D19*
%TO.P,C4,1*%
%TO.N,Net-(9Vto5V_IC1-VOS)*%
X195500000Y-54125000D03*
%TO.P,C4,2*%
%TO.N,GND*%
X195500000Y-51000000D03*
%TD*%
D20*
%TO.P,TP3,1,1*%
%TO.N,Net-(USB-C_IC1-VBUS)*%
X173250000Y-47300000D03*
%TD*%
D21*
%TO.P,9Vto5V_IC1,1,PGND*%
%TO.N,GND*%
X185500000Y-47500000D03*
%TO.P,9Vto5V_IC1,2,VIN*%
%TO.N,Net-(9Vto5V_IC1-EN)*%
X185500000Y-48000200D03*
%TO.P,9Vto5V_IC1,3,EN*%
X185500000Y-48500000D03*
%TO.P,9Vto5V_IC1,4,AGND*%
%TO.N,GND*%
X185500000Y-49000200D03*
%TO.P,9Vto5V_IC1,5,FB*%
X187400000Y-49000200D03*
%TO.P,9Vto5V_IC1,6,VOS*%
%TO.N,Net-(9Vto5V_IC1-VOS)*%
X187400000Y-48500000D03*
%TO.P,9Vto5V_IC1,7,SW*%
%TO.N,Net-(9Vto5V_IC1-SW)*%
X187400000Y-48000200D03*
%TO.P,9Vto5V_IC1,8,PG*%
%TO.N,Net-(9Vto5V_IC1-PG)*%
X187400000Y-47500000D03*
D22*
%TO.P,9Vto5V_IC1,9,PAD*%
%TO.N,GND*%
X186450000Y-48250100D03*
%TD*%
D23*
%TO.P,M4BulkC1,1*%
%TO.N,Net-(JP8-B)*%
X187562500Y-113400000D03*
%TO.P,M4BulkC1,2*%
%TO.N,GND*%
X189637500Y-113400000D03*
%TD*%
D24*
%TO.P,ExtLoadJP1,1,A*%
%TO.N,/5V Regulated*%
X170800000Y-100500000D03*
%TO.P,ExtLoadJP1,2,B*%
%TO.N,Net-(ExtLoadJP1-B)*%
X169500000Y-100500000D03*
%TD*%
D25*
%TO.P,CurrentSensor1,1,IN+*%
%TO.N,/RSense+*%
X163462500Y-71425000D03*
%TO.P,CurrentSensor1,2,IN-*%
%TO.N,/RSense-*%
X163462500Y-72075000D03*
%TO.P,CurrentSensor1,3,GND*%
%TO.N,GND*%
X163462500Y-72725000D03*
%TO.P,CurrentSensor1,4,VS*%
%TO.N,Net-(CurrSenseJP1-A)*%
X163462500Y-73375000D03*
%TO.P,CurrentSensor1,5,SCL*%
%TO.N,/12C1_SCL*%
X165737500Y-73375000D03*
%TO.P,CurrentSensor1,6,SDA*%
%TO.N,/12C1_SDA*%
X165737500Y-72725000D03*
%TO.P,CurrentSensor1,7,A0*%
%TO.N,Net-(CurrentSensor1-A0)*%
X165737500Y-72075000D03*
%TO.P,CurrentSensor1,8,A1*%
X165737500Y-71425000D03*
%TD*%
D11*
%TO.P,R10,1*%
%TO.N,Net-(R10-Pad1)*%
X206000000Y-88087500D03*
%TO.P,R10,2*%
%TO.N,GND*%
X206000000Y-89912500D03*
%TD*%
D26*
%TO.P,C7,1*%
%TO.N,GND*%
X194232500Y-108132500D03*
%TO.P,C7,2*%
%TO.N,/3V3 Regulated*%
X195367500Y-108132500D03*
%TD*%
D27*
%TO.P,R13,1*%
%TO.N,Net-(CurrSenseJP1-A)*%
X164900000Y-76925000D03*
%TO.P,R13,2*%
%TO.N,/12C1_SCL*%
X164900000Y-75100000D03*
%TD*%
D20*
%TO.P,TP7,1,1*%
%TO.N,Net-(USB-C_IC1-DM)*%
X166699900Y-60100100D03*
%TD*%
D28*
%TO.P,M3Control1,1,VM*%
%TO.N,Net-(BCM3_JP1-A)*%
X169149000Y-109400000D03*
%TO.P,M3Control1,2,OUT1*%
%TO.N,/MOTOR3_A_OUT*%
X169149000Y-109900000D03*
%TO.P,M3Control1,3,OUT2*%
%TO.N,/MOTOR3_B_OUT *%
X169149000Y-110400000D03*
%TO.P,M3Control1,4,GND*%
%TO.N,GND*%
X169149000Y-110900000D03*
%TO.P,M3Control1,5,IN2*%
%TO.N,/MOTOR3_CTRL2*%
X171049000Y-110900000D03*
%TO.P,M3Control1,6,IN1*%
%TO.N,/MOTOR3_CTRL1*%
X171049000Y-110400000D03*
%TO.P,M3Control1,7,~{SLEEP}*%
%TO.N,Net-(BCM3_JP1-A)*%
X171049000Y-109900000D03*
%TO.P,M3Control1,8,VCC*%
%TO.N,/3V3 Regulated*%
X171049000Y-109400000D03*
D22*
%TO.P,M3Control1,9,GND*%
%TO.N,GND*%
X170099000Y-110150000D03*
%TD*%
D24*
%TO.P,BCM3_JP1,1,A*%
%TO.N,Net-(BCM3_JP1-A)*%
X165500000Y-112700000D03*
%TO.P,BCM3_JP1,2,B*%
%TO.N,Net-(BCM3_JP1-B)*%
X166800000Y-112700000D03*
%TD*%
D20*
%TO.P,OvCurF2,1,1*%
%TO.N,Net-(ExtLoadSw_IC1-FLG2)*%
X169900000Y-92500000D03*
%TD*%
%TO.P,TP9,1,1*%
%TO.N,/5V Regulated*%
X200500000Y-80750000D03*
%TD*%
D18*
%TO.P,C2,1*%
%TO.N,VCharge*%
X182500000Y-59500000D03*
%TO.P,C2,2*%
%TO.N,GND*%
X180425000Y-59500000D03*
%TD*%
D24*
%TO.P,JP10,1,A*%
%TO.N,Net-(BCM3_JP1-A)*%
X192650000Y-112800000D03*
%TO.P,JP10,2,B*%
%TO.N,Net-(JP10-B)*%
X193950000Y-112800000D03*
%TD*%
D29*
%TO.P,RSense1,1*%
%TO.N,/RSense-*%
X160600000Y-73750000D03*
%TO.P,RSense1,2*%
%TO.N,/RSense+*%
X160600000Y-70650000D03*
%TD*%
D30*
%TO.P,L4,1,1*%
%TO.N,Net-(9Vto5V_IC1-SW)*%
X193000000Y-47000000D03*
%TO.P,L4,2,2*%
%TO.N,Net-(9Vto5V_IC1-VOS)*%
X196000200Y-47000000D03*
%TD*%
D31*
%TO.P,J2,1,Pin_1*%
%TO.N,GND*%
X151200000Y-64800000D03*
D32*
%TO.P,J2,2,Pin_2*%
%TO.N,/RSense+*%
X151200000Y-66800000D03*
%TD*%
D20*
%TO.P,UnusedPinTP1,1,1*%
%TO.N,Net-(J1-Pin_15)*%
X153000000Y-121750000D03*
%TD*%
D11*
%TO.P,R7,1*%
%TO.N,Net-(3V3Reg_IC1-PG)*%
X185500000Y-94437500D03*
%TO.P,R7,2*%
%TO.N,Net-(3V3Reg_IC1-VOS)*%
X185500000Y-96262500D03*
%TD*%
D18*
%TO.P,M3BulkC1,1*%
%TO.N,Net-(BCM3_JP1-B)*%
X171237500Y-112700000D03*
%TO.P,M3BulkC1,2*%
%TO.N,GND*%
X169162500Y-112700000D03*
%TD*%
D33*
%TO.P,SWPwr1,1,A*%
%TO.N,VBatt*%
X159063500Y-90700000D03*
%TO.P,SWPwr1,2,B*%
%TO.N,/RSense-*%
X159063500Y-86000000D03*
%TO.P,SWPwr1,3,C*%
%TO.N,VCharge*%
X159063500Y-81300000D03*
%TO.P,SWPwr1,4*%
%TO.N,N/C*%
X150663500Y-79400000D03*
%TO.P,SWPwr1,5*%
X150663500Y-92600000D03*
%TD*%
D24*
%TO.P,JP11,1,A*%
%TO.N,Net-(BCM3_JP1-A)*%
X156800000Y-112700000D03*
%TO.P,JP11,2,B*%
%TO.N,Net-(JP11-B)*%
X158100000Y-112700000D03*
%TD*%
D12*
%TO.P,JP7,1,A*%
%TO.N,Net-(3V3Reg_IC1-VOS)*%
X201750000Y-97350000D03*
%TO.P,JP7,2,B*%
%TO.N,/3V3 Regulated*%
X201750000Y-98650000D03*
%TD*%
D20*
%TO.P,TP1,1,1*%
%TO.N,Net-(9Vto5V_IC1-VOS)*%
X201000000Y-47000000D03*
%TD*%
D34*
%TO.P,R_set1,1*%
%TO.N,Net-(USB-C_IC1-CFG1)*%
X155300000Y-57100000D03*
%TO.P,R_set1,2*%
%TO.N,GND*%
X153475000Y-57100000D03*
%TD*%
D20*
%TO.P,RSenseTP+1,1,1*%
%TO.N,/RSense+*%
X160700000Y-67200000D03*
%TD*%
D35*
%TO.P,5VRegC1,1*%
%TO.N,/5V Regulated*%
X200500000Y-89437500D03*
%TO.P,5VRegC1,2*%
%TO.N,GND*%
X200500000Y-92562500D03*
%TD*%
D20*
%TO.P,TP6,1,1*%
%TO.N,Net-(USB-C_IC1-DP)*%
X162099900Y-60100100D03*
%TD*%
D36*
%TO.P,USB-C_IC1,1,VDD*%
%TO.N,Net-(USB-C_IC1-VDD)*%
X161500000Y-56500200D03*
%TO.P,USB-C_IC1,2,CFG2*%
%TO.N,unconnected-(USB-C_IC1-CFG2-Pad2)*%
X162500000Y-56500200D03*
%TO.P,USB-C_IC1,3,CFG3*%
%TO.N,unconnected-(USB-C_IC1-CFG3-Pad3)*%
X163500000Y-56500200D03*
%TO.P,USB-C_IC1,4,DP*%
%TO.N,Net-(USB-C_IC1-DP)*%
X164500000Y-56500200D03*
%TO.P,USB-C_IC1,5,DM*%
%TO.N,Net-(USB-C_IC1-DM)*%
X165500000Y-56500200D03*
%TO.P,USB-C_IC1,6,CC2*%
%TO.N,/CC2*%
X165500000Y-50500200D03*
%TO.P,USB-C_IC1,7,CC1*%
%TO.N,/CC1*%
X164500000Y-50500000D03*
%TO.P,USB-C_IC1,8,VBUS*%
%TO.N,Net-(USB-C_IC1-VBUS)*%
X163500000Y-50500000D03*
%TO.P,USB-C_IC1,9,CFG1*%
%TO.N,Net-(USB-C_IC1-CFG1)*%
X162500000Y-50500000D03*
%TO.P,USB-C_IC1,10,PG*%
%TO.N,unconnected-(USB-C_IC1-PG-Pad10)*%
X161500000Y-50500200D03*
D37*
%TO.P,USB-C_IC1,11,GND*%
%TO.N,GND*%
X163500000Y-53500000D03*
%TD*%
D38*
%TO.P,5VReg_IC1,1,SW*%
%TO.N,Net-(5VReg_IC1-SW)*%
X189950000Y-73850900D03*
%TO.P,5VReg_IC1,2,GND*%
%TO.N,GND*%
X189000000Y-73850900D03*
%TO.P,5VReg_IC1,3,FB*%
%TO.N,Net-(5VReg_IC1-FB)*%
X188050000Y-73850900D03*
%TO.P,5VReg_IC1,4,EN*%
%TO.N,Net-(5VReg_IC1-EN)*%
X188050000Y-76149100D03*
%TO.P,5VReg_IC1,5,IN*%
X189000000Y-76149100D03*
%TO.P,5VReg_IC1,6,NC*%
%TO.N,unconnected-(5VReg_IC1-NC-Pad6)*%
X189950000Y-76149100D03*
%TD*%
D23*
%TO.P,M2BulkC1,1*%
%TO.N,Net-(JP10-B)*%
X195962500Y-112800000D03*
%TO.P,M2BulkC1,2*%
%TO.N,GND*%
X198037500Y-112800000D03*
%TD*%
D20*
%TO.P,D1,1,K*%
%TO.N,/5V Regulated*%
X206000000Y-77199900D03*
%TO.P,D1,2,A*%
%TO.N,Net-(5VReg_IC1-SW)*%
X206000000Y-72800100D03*
%TD*%
%TO.P,TP8,1,1*%
%TO.N,Net-(5VReg_IC1-FB)*%
X200500000Y-85500000D03*
%TD*%
D28*
%TO.P,M1Control1,1,VM*%
%TO.N,Net-(BCM3_JP1-A)*%
X158150000Y-109417500D03*
%TO.P,M1Control1,2,OUT1*%
%TO.N,/MOTOR1_A_OUT*%
X158150000Y-109917500D03*
%TO.P,M1Control1,3,OUT2*%
%TO.N,/MOTOR1_B_OUT *%
X158150000Y-110417500D03*
%TO.P,M1Control1,4,GND*%
%TO.N,GND*%
X158150000Y-110917500D03*
%TO.P,M1Control1,5,IN2*%
%TO.N,/MOTOR1_CTRL2*%
X160050000Y-110917500D03*
%TO.P,M1Control1,6,IN1*%
%TO.N,/MOTOR1_CTRL1*%
X160050000Y-110417500D03*
%TO.P,M1Control1,7,~{SLEEP}*%
%TO.N,Net-(BCM3_JP1-A)*%
X160050000Y-109917500D03*
%TO.P,M1Control1,8,VCC*%
%TO.N,/3V3 Regulated*%
X160050000Y-109417500D03*
D22*
%TO.P,M1Control1,9,GND*%
%TO.N,GND*%
X159100000Y-110167500D03*
%TD*%
D39*
%TO.P,5VRegInd1,1,1*%
%TO.N,Net-(5VReg_IC1-EN)*%
X194800000Y-75000000D03*
%TO.P,5VRegInd1,2,2*%
%TO.N,Net-(5VReg_IC1-SW)*%
X200200000Y-75000000D03*
%TD*%
D34*
%TO.P,R11,1*%
%TO.N,Net-(CurrentSensor1-A0)*%
X165625000Y-69100000D03*
%TO.P,R11,2*%
%TO.N,VBatt*%
X163800000Y-69100000D03*
%TD*%
D26*
%TO.P,C11,1*%
%TO.N,GND*%
X184800000Y-108500000D03*
%TO.P,C11,2*%
%TO.N,/3V3 Regulated*%
X185935000Y-108500000D03*
%TD*%
%TO.P,C9,1*%
%TO.N,GND*%
X169632500Y-108400000D03*
%TO.P,C9,2*%
%TO.N,/3V3 Regulated*%
X170767500Y-108400000D03*
%TD*%
D40*
%TO.P,BattCharge_IC1,1,TEMP*%
%TO.N,GND*%
X186908300Y-65905000D03*
%TO.P,BattCharge_IC1,2,PROG*%
%TO.N,Net-(BattCharge_IC1-PROG)*%
X186908300Y-64635000D03*
%TO.P,BattCharge_IC1,3,GND*%
%TO.N,GND*%
X186908300Y-63365000D03*
%TO.P,BattCharge_IC1,4,VCC*%
%TO.N,Net-(9Vto5V_IC1-VOS)*%
X186908300Y-62095000D03*
%TO.P,BattCharge_IC1,5,BAT*%
%TO.N,VCharge*%
X181091700Y-62095000D03*
%TO.P,BattCharge_IC1,6,STDBY#*%
%TO.N,GND*%
X181091700Y-63365000D03*
%TO.P,BattCharge_IC1,7,CHRG#*%
%TO.N,Net-(BattCharge_IC1-CHRG#)*%
X181091700Y-64635000D03*
%TO.P,BattCharge_IC1,8,CE*%
%TO.N,Net-(9Vto5V_IC1-VOS)*%
X181091700Y-65905000D03*
D41*
%TO.P,BattCharge_IC1,9,EP*%
%TO.N,GND*%
X184000000Y-64000000D03*
%TD*%
D11*
%TO.P,R3,1*%
%TO.N,Net-(BattCharge_IC1-PROG)*%
X190000000Y-59000000D03*
%TO.P,R3,2*%
%TO.N,GND*%
X190000000Y-60825000D03*
%TD*%
D20*
%TO.P,TP2,1,1*%
%TO.N,9V USB-C*%
X173250000Y-51250000D03*
%TD*%
D42*
%TO.P,D2,1,K*%
%TO.N,Net-(D2-K)*%
X176500000Y-64437500D03*
%TO.P,D2,2,A*%
%TO.N,Net-(9Vto5V_IC1-VOS)*%
X176500000Y-62562500D03*
%TD*%
D17*
%TO.P,C14,1*%
%TO.N,Net-(3V3Reg_IC1-EN)*%
X178000000Y-94062500D03*
%TO.P,C14,2*%
%TO.N,GND*%
X178000000Y-96137500D03*
%TD*%
D27*
%TO.P,R6,1*%
%TO.N,9V USB-C*%
X169900000Y-59500000D03*
%TO.P,R6,2*%
%TO.N,Net-(USB-C_IC1-VBUS)*%
X169900000Y-57675000D03*
%TD*%
D43*
%TO.P,C10,1*%
%TO.N,Net-(BCM3_JP1-A)*%
X165700000Y-109532500D03*
%TO.P,C10,2*%
%TO.N,GND*%
X165700000Y-110667500D03*
%TD*%
D44*
%TO.P,C15,1*%
%TO.N,Net-(ExtLoadJP1-B)*%
X166962500Y-100100000D03*
%TO.P,C15,2*%
%TO.N,GND*%
X165237500Y-100100000D03*
%TD*%
D24*
%TO.P,JP4,1,A*%
%TO.N,9V USB-C*%
X178700000Y-54000000D03*
%TO.P,JP4,2,B*%
%TO.N,Net-(9Vto5V_IC1-EN)*%
X180000000Y-54000000D03*
%TD*%
D30*
%TO.P,3V3RegInd1,1,1*%
%TO.N,Net-(3V3Reg_IC1-SW)*%
X187749800Y-91000000D03*
%TO.P,3V3RegInd1,2,2*%
%TO.N,Net-(3V3Reg_IC1-VOS)*%
X190750000Y-91000000D03*
%TD*%
D28*
%TO.P,M2Control1,1,VM*%
%TO.N,Net-(BCM3_JP1-A)*%
X193700000Y-109200000D03*
%TO.P,M2Control1,2,OUT1*%
%TO.N,/MOTOR2_A_OUT*%
X193700000Y-109700000D03*
%TO.P,M2Control1,3,OUT2*%
%TO.N,/MOTOR2_B_OUT *%
X193700000Y-110200000D03*
%TO.P,M2Control1,4,GND*%
%TO.N,GND*%
X193700000Y-110700000D03*
%TO.P,M2Control1,5,IN2*%
%TO.N,/MOTOR2_CTRL2*%
X195600000Y-110700000D03*
%TO.P,M2Control1,6,IN1*%
%TO.N,/MOTOR2_CTRL1*%
X195600000Y-110200000D03*
%TO.P,M2Control1,7,~{SLEEP}*%
%TO.N,Net-(BCM3_JP1-A)*%
X195600000Y-109700000D03*
%TO.P,M2Control1,8,VCC*%
%TO.N,/3V3 Regulated*%
X195600000Y-109200000D03*
D22*
%TO.P,M2Control1,9,GND*%
%TO.N,GND*%
X194650000Y-109950000D03*
%TD*%
D21*
%TO.P,3V3Reg_IC1,1,PGND*%
%TO.N,GND*%
X181000000Y-94599800D03*
%TO.P,3V3Reg_IC1,2,VIN*%
%TO.N,Net-(3V3Reg_IC1-EN)*%
X181000000Y-95100000D03*
%TO.P,3V3Reg_IC1,3,EN*%
X181000000Y-95599800D03*
%TO.P,3V3Reg_IC1,4,AGND*%
%TO.N,GND*%
X181000000Y-96100000D03*
%TO.P,3V3Reg_IC1,5,FB*%
X182900000Y-96100000D03*
%TO.P,3V3Reg_IC1,6,VOS*%
%TO.N,Net-(3V3Reg_IC1-VOS)*%
X182900000Y-95599800D03*
%TO.P,3V3Reg_IC1,7,SW*%
%TO.N,Net-(3V3Reg_IC1-SW)*%
X182900000Y-95100000D03*
%TO.P,3V3Reg_IC1,8,PG*%
%TO.N,Net-(3V3Reg_IC1-PG)*%
X182900000Y-94599800D03*
D22*
%TO.P,3V3Reg_IC1,9,EP*%
%TO.N,GND*%
X181950000Y-95349900D03*
%TD*%
D24*
%TO.P,JP8,1,A*%
%TO.N,Net-(BCM3_JP1-A)*%
X184350000Y-113000000D03*
%TO.P,JP8,2,B*%
%TO.N,Net-(JP8-B)*%
X185650000Y-113000000D03*
%TD*%
D45*
%TO.P,R4,1*%
%TO.N,Net-(9Vto5V_IC1-PG)*%
X185175000Y-53000000D03*
%TO.P,R4,2*%
%TO.N,Net-(9Vto5V_IC1-VOS)*%
X187000000Y-53000000D03*
%TD*%
D17*
%TO.P,C1,1*%
%TO.N,GND*%
X201000000Y-57500000D03*
%TO.P,C1,2*%
%TO.N,Net-(9Vto5V_IC1-VOS)*%
X201000000Y-59575000D03*
%TD*%
D20*
%TO.P,RSenseTP-1,1,1*%
%TO.N,/RSense-*%
X160600000Y-76400000D03*
%TD*%
D24*
%TO.P,JP5,1,A*%
%TO.N,Net-(5VReg_IC1-EN)*%
X177000000Y-74500000D03*
%TO.P,JP5,2,B*%
%TO.N,VBatt*%
X175700000Y-74500000D03*
%TD*%
D45*
%TO.P,R1,1*%
%TO.N,Net-(D2-K)*%
X176000000Y-66500000D03*
%TO.P,R1,2*%
%TO.N,Net-(BattCharge_IC1-CHRG#)*%
X177825000Y-66500000D03*
%TD*%
D20*
%TO.P,OvCurF1,1,1*%
%TO.N,Net-(ExtLoadSw_IC1-FLG1)*%
X164100000Y-92400000D03*
%TD*%
D24*
%TO.P,MPwrJP1,1,A*%
%TO.N,VBatt*%
X157900000Y-104200000D03*
%TO.P,MPwrJP1,2,B*%
%TO.N,Net-(BCM3_JP1-A)*%
X159200000Y-104200000D03*
%TD*%
D43*
%TO.P,C12,1*%
%TO.N,Net-(BCM3_JP1-A)*%
X181000000Y-109732500D03*
%TO.P,C12,2*%
%TO.N,GND*%
X181000000Y-110867500D03*
%TD*%
%TO.P,C5,1*%
%TO.N,Net-(BCM3_JP1-A)*%
X155300000Y-109600000D03*
%TO.P,C5,2*%
%TO.N,GND*%
X155300000Y-110735000D03*
%TD*%
D15*
%TO.P,C18,1*%
%TO.N,GND*%
X169900000Y-97137500D03*
%TO.P,C18,2*%
%TO.N,/EXT_LOAD2_OUT*%
X169900000Y-95062500D03*
%TD*%
D11*
%TO.P,R9,1*%
%TO.N,/5V Regulated*%
X206000000Y-80087500D03*
%TO.P,R9,2*%
%TO.N,Net-(5VReg_IC1-FB)*%
X206000000Y-81912500D03*
%TD*%
D28*
%TO.P,M4Control1,1,VM*%
%TO.N,Net-(BCM3_JP1-A)*%
X184500000Y-109600000D03*
%TO.P,M4Control1,2,OUT1*%
%TO.N,/MOTOR4_A_OUT*%
X184500000Y-110100000D03*
%TO.P,M4Control1,3,OUT2*%
%TO.N,/MOTOR4_B_OUT*%
X184500000Y-110600000D03*
%TO.P,M4Control1,4,GND*%
%TO.N,GND*%
X184500000Y-111100000D03*
%TO.P,M4Control1,5,IN2*%
%TO.N,/MOTOR4_CTRL2*%
X186400000Y-111100000D03*
%TO.P,M4Control1,6,IN1*%
%TO.N,/MOTOR4_CTRL1*%
X186400000Y-110600000D03*
%TO.P,M4Control1,7,~{SLEEP}*%
%TO.N,Net-(BCM3_JP1-A)*%
X186400000Y-110100000D03*
%TO.P,M4Control1,8,VCC*%
%TO.N,/3V3 Regulated*%
X186400000Y-109600000D03*
D22*
%TO.P,M4Control1,9,GND*%
%TO.N,GND*%
X185450000Y-110350000D03*
%TD*%
D43*
%TO.P,C8,1*%
%TO.N,Net-(BCM3_JP1-A)*%
X190900000Y-109532500D03*
%TO.P,C8,2*%
%TO.N,GND*%
X190900000Y-110667500D03*
%TD*%
D20*
%TO.P,5VOutTest_TP,1,1*%
%TO.N,/5V Regulated*%
X187300000Y-85400000D03*
%TD*%
D11*
%TO.P,R5,1*%
%TO.N,/VBUS_USBC*%
X169900000Y-53987500D03*
%TO.P,R5,2*%
%TO.N,Net-(USB-C_IC1-VDD)*%
X169900000Y-55812500D03*
%TD*%
D35*
%TO.P,3V3RegC1,1*%
%TO.N,Net-(3V3Reg_IC1-VOS)*%
X194250000Y-91437500D03*
%TO.P,3V3RegC1,2*%
%TO.N,GND*%
X194250000Y-94562500D03*
%TD*%
D11*
%TO.P,R12,1*%
%TO.N,Net-(CurrSenseJP1-A)*%
X166800000Y-75087500D03*
%TO.P,R12,2*%
%TO.N,/12C1_SDA*%
X166800000Y-76912500D03*
%TD*%
D46*
%TO.P,USB1,1,SHELL*%
%TO.N,GND*%
X157582150Y-46380000D03*
%TO.P,USB1,2,SHELL*%
X157582150Y-55020000D03*
D47*
%TO.P,USB1,3,SHELL*%
X153432250Y-46380000D03*
%TO.P,USB1,4,SHELL*%
X153432250Y-55020000D03*
D48*
%TO.P,USB1,A1B12,GND*%
X158157250Y-47499900D03*
%TO.P,USB1,A4B9,VBUS*%
%TO.N,/VBUS_USBC*%
X158157250Y-48300000D03*
D49*
%TO.P,USB1,A5,CC1*%
%TO.N,/CC1*%
X158157250Y-49450100D03*
%TO.P,USB1,A6,DP1*%
%TO.N,unconnected-(USB1-DP1-PadA6)*%
X158157250Y-50450100D03*
%TO.P,USB1,A7,DN1*%
%TO.N,unconnected-(USB1-DN1-PadA7)*%
X158157250Y-50949900D03*
%TO.P,USB1,A8,SBU1*%
%TO.N,unconnected-(USB1-SBU1-PadA8)*%
X158157250Y-51949900D03*
D48*
%TO.P,USB1,B1A12,GND*%
%TO.N,GND*%
X158157250Y-53899900D03*
%TO.P,USB1,B4A9,VBUS*%
%TO.N,/VBUS_USBC*%
X158157250Y-53100000D03*
D49*
%TO.P,USB1,B5,CC2*%
%TO.N,/CC2*%
X158157250Y-52450100D03*
%TO.P,USB1,B6,DP2*%
%TO.N,unconnected-(USB1-DP2-PadB6)*%
X158157250Y-51450100D03*
%TO.P,USB1,B7,DN2*%
%TO.N,unconnected-(USB1-DN2-PadB7)*%
X158157250Y-49949900D03*
%TO.P,USB1,B8,SBU2*%
%TO.N,unconnected-(USB1-SBU2-PadB8)*%
X158157250Y-48949900D03*
%TD*%
D12*
%TO.P,JP6,1,A*%
%TO.N,Net-(3V3Reg_IC1-EN)*%
X180900000Y-89350000D03*
%TO.P,JP6,2,B*%
%TO.N,/5V Regulated*%
X180900000Y-88050000D03*
%TD*%
D26*
%TO.P,C6,1*%
%TO.N,GND*%
X158700000Y-108267500D03*
%TO.P,C6,2*%
%TO.N,/3V3 Regulated*%
X159835000Y-108267500D03*
%TD*%
D44*
%TO.P,C13,1*%
%TO.N,Net-(USB-C_IC1-VDD)*%
X159162500Y-56900000D03*
%TO.P,C13,2*%
%TO.N,GND*%
X157437500Y-56900000D03*
%TD*%
D50*
%TO.P,J1,1,Pin_1*%
%TO.N,/MOTOR2_B_OUT *%
X197040000Y-119200000D03*
D51*
%TO.P,J1,2,Pin_2*%
%TO.N,/MOTOR2_A_OUT*%
X197040000Y-121740000D03*
%TO.P,J1,3,Pin_3*%
%TO.N,/MOTOR4_A_OUT*%
X194500000Y-119200000D03*
%TO.P,J1,4,Pin_4*%
%TO.N,/MOTOR2_CTRL1*%
X194500000Y-121740000D03*
%TO.P,J1,5,Pin_5*%
%TO.N,/MOTOR4_B_OUT*%
X191960000Y-119200000D03*
%TO.P,J1,6,Pin_6*%
%TO.N,/MOTOR2_CTRL2*%
X191960000Y-121740000D03*
%TO.P,J1,7,Pin_7*%
%TO.N,/CTRL_EXT_LOAD2*%
X189420000Y-119200000D03*
%TO.P,J1,8,Pin_8*%
%TO.N,/MOTOR4_CTRL1*%
X189420000Y-121740000D03*
%TO.P,J1,9,Pin_9*%
%TO.N,/USART2_RX*%
X186880000Y-119200000D03*
%TO.P,J1,10,Pin_10*%
%TO.N,/MOTOR4_CTRL2*%
X186880000Y-121740000D03*
%TO.P,J1,11,Pin_11*%
%TO.N,/EXT_LOAD2_OUT*%
X184340000Y-119200000D03*
%TO.P,J1,12,Pin_12*%
%TO.N,/USART2_TX*%
X184340000Y-121740000D03*
%TO.P,J1,13,Pin_13*%
%TO.N,/FAST_CHRG_CNTRL*%
X181800000Y-119200000D03*
%TO.P,J1,14,Pin_14*%
%TO.N,VBatt*%
X181800000Y-121740000D03*
%TO.P,J1,15,Pin_15*%
%TO.N,Net-(J1-Pin_15)*%
X179260000Y-119200000D03*
%TO.P,J1,16,Pin_16*%
%TO.N,/12C1_SCL*%
X179260000Y-121740000D03*
%TO.P,J1,17,Pin_17*%
%TO.N,/12C1_SDA*%
X176720000Y-119200000D03*
%TO.P,J1,18,Pin_18*%
%TO.N,/3V3 Regulated*%
X176720000Y-121740000D03*
%TO.P,J1,19,Pin_19*%
%TO.N,GND*%
X174180000Y-119200000D03*
%TO.P,J1,20,Pin_20*%
%TO.N,/5V Regulated*%
X174180000Y-121740000D03*
%TO.P,J1,21,Pin_21*%
%TO.N,/EXT_LOAD1_OUT*%
X171640000Y-119200000D03*
%TO.P,J1,22,Pin_22*%
%TO.N,9V USB-C*%
X171640000Y-121740000D03*
%TO.P,J1,23,Pin_23*%
%TO.N,GND*%
X169100000Y-119200000D03*
%TO.P,J1,24,Pin_24*%
%TO.N,/MOTOR3_CTRL1*%
X169100000Y-121740000D03*
%TO.P,J1,25,Pin_25*%
%TO.N,/CTRL_EXT_LOAD1*%
X166560000Y-119200000D03*
%TO.P,J1,26,Pin_26*%
%TO.N,/MOTOR3_CTRL2*%
X166560000Y-121740000D03*
%TO.P,J1,27,Pin_27*%
%TO.N,/MOTOR3_A_OUT*%
X164020000Y-119200000D03*
%TO.P,J1,28,Pin_28*%
%TO.N,/MOTOR1_CTRL1*%
X164020000Y-121740000D03*
%TO.P,J1,29,Pin_29*%
%TO.N,/MOTOR3_B_OUT *%
X161480000Y-119200000D03*
%TO.P,J1,30,Pin_30*%
%TO.N,/MOTOR1_CTRL2*%
X161480000Y-121740000D03*
%TO.P,J1,31,Pin_31*%
%TO.N,/MOTOR1_B_OUT *%
X158940000Y-119200000D03*
%TO.P,J1,32,Pin_32*%
%TO.N,/MOTOR1_A_OUT*%
X158940000Y-121740000D03*
%TD*%
D52*
%TO.N,GND*%
X189926000Y-112986228D03*
X197500000Y-96250000D03*
X159100000Y-110167500D03*
X169162500Y-112700000D03*
X178000000Y-96137500D03*
X160025000Y-112600000D03*
X165700000Y-110667500D03*
X179537500Y-45962500D03*
X187000000Y-71750000D03*
X194500000Y-67250000D03*
X194500000Y-97500000D03*
X158157250Y-53900002D03*
X163600000Y-53500000D03*
X194650000Y-109950000D03*
X164575000Y-72702739D03*
X184000000Y-64000000D03*
X178000000Y-62250000D03*
X169900000Y-97137500D03*
X189000000Y-71750000D03*
X178000000Y-59500000D03*
X184250000Y-49750000D03*
X187000000Y-67500000D03*
%TO.N,VBatt*%
X164500000Y-67500000D03*
X169000000Y-74500000D03*
X171750000Y-74500000D03*
X163800000Y-69100000D03*
%TO.N,/12C1_SDA*%
X182300000Y-114400000D03*
%TO.N,/MOTOR1_A_OUT*%
X156800000Y-109200000D03*
%TO.N,/RSense+*%
X160700000Y-67500000D03*
X160600000Y-70650000D03*
%TO.N,/MOTOR1_B_OUT *%
X156300000Y-110417500D03*
%TO.N,/MOTOR2_A_OUT*%
X192900000Y-109600000D03*
%TO.N,/MOTOR2_B_OUT *%
X192000000Y-109600000D03*
%TO.N,/MOTOR3_B_OUT *%
X166600000Y-110300000D03*
%TO.N,/MOTOR3_A_OUT*%
X167800000Y-109700000D03*
%TO.N,/MOTOR4_A_OUT*%
X183300000Y-109800000D03*
%TO.N,/12C1_SCL*%
X165758978Y-75217493D03*
X168618015Y-77881985D03*
%TO.N,/MOTOR4_B_OUT*%
X182200000Y-110500000D03*
%TO.N,VCharge*%
X174000000Y-81000000D03*
X184000000Y-59500000D03*
X162000000Y-83500000D03*
X179000000Y-62000000D03*
%TO.N,/FAST_CHRG_CNTRL*%
X196750000Y-102250000D03*
X196750000Y-105500000D03*
X182000000Y-125000000D03*
%TO.N,9V USB-C*%
X171500000Y-124000000D03*
%TO.N,/3V3 Regulated*%
X160001000Y-108800000D03*
X177750000Y-103750000D03*
X186000000Y-105250000D03*
X170767500Y-108400000D03*
X186000000Y-107542088D03*
X196200000Y-109200000D03*
X187100000Y-109600000D03*
%TO.N,/5V Regulated*%
X204250000Y-79250000D03*
X177500000Y-87750000D03*
X200500000Y-80750000D03*
X170800000Y-100500000D03*
%TO.N,/CTRL_EXT_LOAD1*%
X168000000Y-99700000D03*
%TO.N,/RSense-*%
X160600000Y-76400000D03*
%TO.N,Net-(J1-Pin_15)*%
X172250000Y-125000000D03*
%TO.N,/CTRL_EXT_LOAD2*%
X181700000Y-116700000D03*
%TO.N,/CC2*%
X165500000Y-50500200D03*
X159800000Y-50900000D03*
%TO.N,/CC1*%
X159800000Y-50099997D03*
X164500000Y-50300000D03*
%TO.N,/EXT_LOAD1_OUT*%
X173500000Y-116900000D03*
%TO.N,Net-(BCM3_JP1-A)*%
X172224265Y-109275735D03*
X179356735Y-108356735D03*
%TO.N,Net-(3V3Reg_IC1-SW)*%
X184000000Y-95037500D03*
X184000000Y-93500000D03*
%TO.N,Net-(5VReg_IC1-SW)*%
X192500000Y-69000000D03*
X191750000Y-71750000D03*
%TO.N,Net-(9Vto5V_IC1-VOS)*%
X188900000Y-49000000D03*
X190500000Y-49000000D03*
%TO.N,Net-(9Vto5V_IC1-SW)*%
X188500000Y-48100000D03*
X193000000Y-47000000D03*
%TO.N,Net-(BattCharge_IC1-CHRG#)*%
X179000000Y-64000000D03*
X177825000Y-66500000D03*
%TO.N,Net-(USB-C_IC1-VDD)*%
X170000000Y-55900000D03*
X161500000Y-56500200D03*
%TD*%
D53*
%TO.N,/FAST_CHRG_CNTRL*%
X182100000Y-124900000D02*
X198808521Y-124900000D01*
X198808521Y-124900000D02*
X200035521Y-123673000D01*
X182000000Y-125000000D02*
X182100000Y-124900000D01*
X199900000Y-105500000D02*
X196750000Y-105500000D01*
X200034550Y-109576030D02*
X200034550Y-109576029D01*
X200034550Y-109991070D02*
X200034550Y-109576030D01*
X200034550Y-110258930D02*
X200034550Y-109991070D01*
X200035520Y-110259900D02*
X200034550Y-110258930D01*
X199900000Y-109441479D02*
X199900000Y-105500000D01*
X200035521Y-110259900D02*
X200035520Y-110259900D01*
X200034550Y-109576029D02*
X199900000Y-109441479D01*
X200329000Y-110553379D02*
X200035521Y-110259900D01*
X200329000Y-110553380D02*
X200329000Y-110553379D01*
X200329000Y-122964480D02*
X200329000Y-110968420D01*
X200329000Y-123379521D02*
X200329000Y-123379520D01*
X200329000Y-110968420D02*
X200329000Y-110553380D01*
X200035521Y-123673000D02*
X200035520Y-123673000D01*
X200035521Y-123673000D02*
X200329000Y-123379521D01*
X200329000Y-123379520D02*
X200329000Y-122964480D01*
%TO.N,/5V Regulated*%
X177550000Y-87700000D02*
X177500000Y-87750000D01*
X180550000Y-87700000D02*
X177550000Y-87700000D01*
X180900000Y-88050000D02*
X180550000Y-87700000D01*
D54*
X181250000Y-87700000D02*
X198300000Y-87700000D01*
D53*
X180900000Y-86300000D02*
X180900000Y-88050000D01*
X181800000Y-85400000D02*
X180900000Y-86300000D01*
%TO.N,Net-(3V3Reg_IC1-EN)*%
X180800000Y-89250000D02*
X179500000Y-89250000D01*
%TO.N,/5V Regulated*%
X187300000Y-85400000D02*
X181800000Y-85400000D01*
D54*
X180900000Y-88050000D02*
X181250000Y-87700000D01*
D53*
%TO.N,Net-(3V3Reg_IC1-EN)*%
X180900000Y-89350000D02*
X180800000Y-89250000D01*
%TO.N,/FAST_CHRG_CNTRL*%
X175800000Y-81300000D02*
X175800000Y-102250000D01*
X175800000Y-102250000D02*
X196750000Y-102250000D01*
X171000000Y-69000000D02*
X171000000Y-76500000D01*
X190000000Y-69000000D02*
X171000000Y-69000000D01*
X190000000Y-65500000D02*
X190000000Y-69000000D01*
X171000000Y-76500000D02*
X175800000Y-81300000D01*
X192550000Y-65500000D02*
X190000000Y-65500000D01*
D54*
%TO.N,9V USB-C*%
X199000000Y-124000000D02*
X171500000Y-124000000D01*
X199828000Y-123172000D02*
X199000000Y-124000000D01*
X199828000Y-110760900D02*
X199828000Y-123172000D01*
X199533550Y-110466450D02*
X199828000Y-110760900D01*
X195750000Y-106000000D02*
X199533550Y-109783550D01*
X184750000Y-106000000D02*
X195750000Y-106000000D01*
X199533550Y-109783550D02*
X199533550Y-110466450D01*
X183750000Y-105000000D02*
X184750000Y-106000000D01*
X175300000Y-83300000D02*
X175300000Y-105000000D01*
X169900000Y-77900000D02*
X175300000Y-83300000D01*
X175300000Y-105000000D02*
X183750000Y-105000000D01*
X169900000Y-59500000D02*
X169900000Y-77900000D01*
D53*
%TO.N,GND*%
X158415798Y-110917500D02*
X159100000Y-110233298D01*
X187208300Y-65905000D02*
X190000000Y-63113300D01*
X180962500Y-96137500D02*
X180962500Y-96462500D01*
X158700000Y-108267500D02*
X158700000Y-109767500D01*
X186450000Y-48537500D02*
X186450000Y-48250100D01*
X184250000Y-96750000D02*
X184250000Y-97500000D01*
X158157250Y-47499900D02*
X158157250Y-46955100D01*
X195750000Y-65500000D02*
X198500000Y-65500000D01*
X181950000Y-95349900D02*
X181950000Y-95637300D01*
X184062500Y-71937500D02*
X184250000Y-71750000D01*
D55*
X155765000Y-111200000D02*
X157867500Y-111200000D01*
D53*
X195500000Y-55750000D02*
X195750000Y-56000000D01*
X157582150Y-55020000D02*
X157582150Y-54475102D01*
D55*
X194650000Y-110015798D02*
X194650000Y-109950000D01*
D53*
X186908300Y-65905000D02*
X187208300Y-65905000D01*
X164975000Y-97275000D02*
X166000000Y-98300000D01*
X189637500Y-112762500D02*
X188401000Y-111526000D01*
X183500000Y-96750000D02*
X184250000Y-96750000D01*
X181487300Y-94599800D02*
X181950000Y-95062500D01*
X181232500Y-111100000D02*
X184500000Y-111100000D01*
X169291798Y-110826000D02*
X169365798Y-110900000D01*
X185450000Y-110350000D02*
X185450000Y-110571772D01*
X170050000Y-108817500D02*
X170050000Y-110150000D01*
X154820366Y-57876000D02*
X154511500Y-57567134D01*
X158150000Y-110917500D02*
X158415798Y-110917500D01*
X186450000Y-47962700D02*
X186450000Y-48250100D01*
X154511500Y-57567134D02*
X154511500Y-56632866D01*
X158700000Y-109767500D02*
X159100000Y-110167500D01*
X181091700Y-63365000D02*
X179115000Y-63365000D01*
D54*
X195000000Y-111300000D02*
X194650000Y-110950000D01*
D53*
X153432250Y-46380000D02*
X157582150Y-46380000D01*
X188000000Y-55250000D02*
X188000000Y-63250000D01*
X194450000Y-65500000D02*
X195750000Y-65500000D01*
X154044366Y-57100000D02*
X154511500Y-57567134D01*
X165337500Y-98962500D02*
X166000000Y-98300000D01*
X157437500Y-56900000D02*
X156461500Y-57876000D01*
D54*
X169162500Y-112700000D02*
X169162500Y-110962500D01*
D53*
X169900000Y-97137500D02*
X169900000Y-97300000D01*
X169162500Y-112700000D02*
X169162500Y-112862500D01*
X185987300Y-47500000D02*
X186450000Y-47962700D01*
X184062500Y-74500000D02*
X184062500Y-71937500D01*
X184250000Y-97500000D02*
X191500000Y-97500000D01*
X186912700Y-49000200D02*
X186450000Y-48537500D01*
X202250000Y-92500000D02*
X202187500Y-92562500D01*
X165337500Y-100000000D02*
X165337500Y-98962500D01*
X194650000Y-108550000D02*
X194650000Y-109950000D01*
X178000000Y-96137500D02*
X180962500Y-96137500D01*
D54*
X160025000Y-112600000D02*
X159832500Y-112600000D01*
D53*
X170099000Y-110901000D02*
X170000000Y-111000000D01*
X164400000Y-97337500D02*
X164462500Y-97275000D01*
X206000000Y-89912500D02*
X202337500Y-89912500D01*
X194500000Y-67250000D02*
X194500000Y-65550000D01*
X194232500Y-108132500D02*
X194650000Y-108550000D01*
X185626000Y-111526000D02*
X185450000Y-111350000D01*
X185450000Y-110415798D02*
X185450000Y-110350000D01*
X170000000Y-111000000D02*
X169900000Y-110900000D01*
X184765798Y-111100000D02*
X185450000Y-110415798D01*
X189500000Y-53750000D02*
X188000000Y-55250000D01*
X180462500Y-45962500D02*
X182000000Y-47500000D01*
X193000000Y-51250000D02*
X193000000Y-53750000D01*
X188000000Y-63250000D02*
X187885000Y-63365000D01*
D54*
X165700000Y-110667500D02*
X166232500Y-111200000D01*
D53*
X156124366Y-55020000D02*
X157582150Y-55020000D01*
X197500000Y-92500000D02*
X197500000Y-96250000D01*
X194250000Y-95225000D02*
X194250000Y-94562500D01*
X180962500Y-96462500D02*
X181250000Y-96750000D01*
X181950000Y-95637300D02*
X182412700Y-96100000D01*
X187885000Y-63365000D02*
X186908300Y-63365000D01*
X194500000Y-65550000D02*
X194450000Y-65500000D01*
X179537500Y-45962500D02*
X180462500Y-45962500D01*
X154511500Y-56632866D02*
X156124366Y-55020000D01*
X202750000Y-61250000D02*
X202750000Y-57500000D01*
X163500000Y-53500000D02*
X163600000Y-53500000D01*
X163462500Y-72725000D02*
X164552739Y-72725000D01*
X189637500Y-113400000D02*
X189637500Y-113274728D01*
X187000000Y-67500000D02*
X187000000Y-65996700D01*
X190000000Y-63113300D02*
X190000000Y-60825000D01*
X185500000Y-47500000D02*
X185987300Y-47500000D01*
X193000000Y-55750000D02*
X195500000Y-55750000D01*
X185450000Y-110571772D02*
X185236621Y-110785151D01*
X202337500Y-89912500D02*
X202250000Y-90000000D01*
X181250000Y-96750000D02*
X183500000Y-96750000D01*
D55*
X157867500Y-111200000D02*
X158150000Y-110917500D01*
D53*
X169632500Y-108400000D02*
X170050000Y-108817500D01*
X181000000Y-110867500D02*
X181232500Y-111100000D01*
X195500000Y-51000000D02*
X193250000Y-51000000D01*
X157582150Y-54475102D02*
X158157250Y-53900002D01*
D54*
X159000000Y-110333298D02*
X159000000Y-110267500D01*
D53*
X169174000Y-110826000D02*
X169291798Y-110826000D01*
D54*
X194650000Y-110950000D02*
X194650000Y-109950000D01*
D53*
X187400000Y-49000200D02*
X186912700Y-49000200D01*
D54*
X166232500Y-111200000D02*
X168800000Y-111200000D01*
D53*
X184250000Y-49750000D02*
X184750200Y-49750000D01*
X169162500Y-110962500D02*
X169100000Y-110900000D01*
X183350000Y-96100000D02*
X183500000Y-96250000D01*
X169900000Y-97137500D02*
X167943500Y-97137500D01*
X180962500Y-96137500D02*
X181000000Y-96100000D01*
X164462500Y-97275000D02*
X164975000Y-97275000D01*
X185450000Y-111350000D02*
X185450000Y-110350000D01*
D54*
X198037500Y-112800000D02*
X196537500Y-111300000D01*
D53*
X202750000Y-57500000D02*
X201000000Y-57500000D01*
X193000000Y-53750000D02*
X189500000Y-53750000D01*
X198500000Y-65500000D02*
X202750000Y-61250000D01*
X170050000Y-110215798D02*
X170050000Y-110150000D01*
D54*
X196537500Y-111300000D02*
X195000000Y-111300000D01*
D53*
X193000000Y-53750000D02*
X193000000Y-55750000D01*
X193965798Y-110700000D02*
X194650000Y-110015798D01*
X188401000Y-111526000D02*
X185626000Y-111526000D01*
X165237500Y-100100000D02*
X165337500Y-100000000D01*
X184800000Y-108500000D02*
X185450000Y-109150000D01*
X187000000Y-65996700D02*
X186908300Y-65905000D01*
X179115000Y-63365000D02*
X178000000Y-62250000D01*
X189637500Y-113400000D02*
X189637500Y-112762500D01*
X183500000Y-96250000D02*
X183500000Y-96750000D01*
X166000000Y-97144000D02*
X166975000Y-96169000D01*
X170099000Y-110150000D02*
X170099000Y-110901000D01*
X200500000Y-92562500D02*
X197562500Y-92562500D01*
X169900000Y-110900000D02*
X169149000Y-110900000D01*
X166000000Y-98300000D02*
X166000000Y-97144000D01*
X202187500Y-92562500D02*
X200500000Y-92562500D01*
X181000000Y-94599800D02*
X181487300Y-94599800D01*
X158157250Y-46955100D02*
X157582150Y-46380000D01*
X156461500Y-57876000D02*
X154820366Y-57876000D01*
X191500000Y-97500000D02*
X194250000Y-94750000D01*
X160025000Y-112600000D02*
X160000000Y-112600000D01*
X197562500Y-92562500D02*
X197500000Y-92500000D01*
X164100000Y-97337500D02*
X164400000Y-97337500D01*
X164552739Y-72725000D02*
X164575000Y-72702739D01*
X195750000Y-56000000D02*
X195750000Y-65500000D01*
X193250000Y-51000000D02*
X193000000Y-51250000D01*
X169100000Y-110900000D02*
X169174000Y-110826000D01*
X159100000Y-110233298D02*
X159100000Y-110167500D01*
X168800000Y-111200000D02*
X169100000Y-110900000D01*
X182000000Y-47500000D02*
X185500000Y-47500000D01*
D55*
X155300000Y-110735000D02*
X155765000Y-111200000D01*
D53*
X153475000Y-57100000D02*
X154044366Y-57100000D01*
X184500000Y-111100000D02*
X184765798Y-111100000D01*
X184750200Y-49750000D02*
X185500000Y-49000200D01*
X182412700Y-96100000D02*
X182900000Y-96100000D01*
X185450000Y-109150000D02*
X185450000Y-110350000D01*
X181950000Y-95062500D02*
X181950000Y-95349900D01*
X194250000Y-94750000D02*
X194250000Y-94562500D01*
X191500000Y-97500000D02*
X194500000Y-97500000D01*
X189000000Y-71750000D02*
X189000000Y-73850900D01*
D55*
X193700000Y-110700000D02*
X193965798Y-110700000D01*
D53*
X189637500Y-113274728D02*
X189926000Y-112986228D01*
X178000000Y-59500000D02*
X180425000Y-59500000D01*
X182900000Y-96100000D02*
X183350000Y-96100000D01*
X190900000Y-110667500D02*
X193667500Y-110667500D01*
X202250000Y-90000000D02*
X202250000Y-92500000D01*
X184250000Y-71750000D02*
X187000000Y-71750000D01*
X167943500Y-97137500D02*
X166975000Y-96169000D01*
%TO.N,Net-(CurrentSensor1-A0)*%
X165737500Y-71425000D02*
X165737500Y-72075000D01*
X165625000Y-69100000D02*
X165625000Y-71312500D01*
X165625000Y-71312500D02*
X165737500Y-71425000D01*
D54*
%TO.N,VBatt*%
X155200000Y-72548000D02*
X155200000Y-86836500D01*
X157900000Y-91863500D02*
X159063500Y-90700000D01*
X157900000Y-104200000D02*
X152800000Y-109300000D01*
X169000000Y-74500000D02*
X169000000Y-67500000D01*
X156800000Y-71500000D02*
X159200000Y-69100000D01*
X180340000Y-123200000D02*
X181800000Y-121740000D01*
X157900000Y-104200000D02*
X157900000Y-91863500D01*
X152800000Y-109300000D02*
X152800000Y-118100000D01*
X175700000Y-74500000D02*
X171750000Y-74500000D01*
X157900000Y-123200000D02*
X180340000Y-123200000D01*
X159200000Y-69100000D02*
X163800000Y-69100000D01*
X156248000Y-71500000D02*
X155200000Y-72548000D01*
X155200000Y-86836500D02*
X159063500Y-90700000D01*
X152800000Y-118100000D02*
X157900000Y-123200000D01*
X169000000Y-67500000D02*
X164500000Y-67500000D01*
X156800000Y-71500000D02*
X156248000Y-71500000D01*
D53*
%TO.N,/12C1_SDA*%
X174302000Y-84414500D02*
X166800000Y-76912500D01*
X166800000Y-76912500D02*
X167576000Y-76136500D01*
X182300000Y-114400000D02*
X174302000Y-106402000D01*
X167576000Y-76136500D02*
X167576000Y-73901001D01*
X167576000Y-73901001D02*
X166399999Y-72725000D01*
X174302000Y-106402000D02*
X174302000Y-84414500D01*
X166399999Y-72725000D02*
X165737500Y-72725000D01*
%TO.N,/MOTOR1_CTRL2*%
X163400000Y-115652240D02*
X160329000Y-118723240D01*
X160329000Y-120589000D02*
X161480000Y-121740000D01*
X163400000Y-112301340D02*
X163400000Y-115652240D01*
X162016160Y-110917500D02*
X163400000Y-112301340D01*
X160050000Y-110917500D02*
X162016160Y-110917500D01*
X160329000Y-118723240D02*
X160329000Y-120589000D01*
%TO.N,/MOTOR1_A_OUT*%
X156800000Y-109200000D02*
X157100000Y-109200000D01*
X158150000Y-109917500D02*
X157817500Y-109917500D01*
X157817500Y-109917500D02*
X157100000Y-109200000D01*
D54*
%TO.N,/RSense+*%
X160700000Y-67200000D02*
X151600000Y-67200000D01*
D53*
X162687500Y-70650000D02*
X163462500Y-71425000D01*
D54*
X160700000Y-67200000D02*
X160700000Y-67500000D01*
D53*
X160600000Y-70650000D02*
X162687500Y-70650000D01*
D54*
X151600000Y-67200000D02*
X151200000Y-66800000D01*
D55*
%TO.N,/MOTOR1_B_OUT *%
X158150000Y-110417500D02*
X158132500Y-110400000D01*
D53*
X158132500Y-110400000D02*
X156317500Y-110400000D01*
D55*
X156317500Y-110400000D02*
X156300000Y-110417500D01*
D53*
%TO.N,/MOTOR1_CTRL1*%
X162869000Y-120589000D02*
X164020000Y-121740000D01*
X160050000Y-110417500D02*
X164100000Y-110417500D01*
X164100000Y-117492240D02*
X162869000Y-118723240D01*
X164100000Y-110417500D02*
X164100000Y-117492240D01*
X162869000Y-118723240D02*
X162869000Y-120589000D01*
%TO.N,/MOTOR2_CTRL2*%
X194023240Y-118049000D02*
X193111000Y-118961240D01*
X198926000Y-112089840D02*
X198926000Y-113674000D01*
X194551000Y-118049000D02*
X194023240Y-118049000D01*
X197536160Y-110700000D02*
X198926000Y-112089840D01*
X198926000Y-113674000D02*
X194551000Y-118049000D01*
X195600000Y-110700000D02*
X197536160Y-110700000D01*
X193111000Y-118961240D02*
X193111000Y-120589000D01*
X193111000Y-120589000D02*
X191960000Y-121740000D01*
%TO.N,/MOTOR2_A_OUT*%
X193000000Y-109700000D02*
X193700000Y-109700000D01*
X192900000Y-109600000D02*
X193000000Y-109700000D01*
%TO.N,/MOTOR2_CTRL1*%
X197677260Y-110274000D02*
X199327000Y-111923740D01*
X199327000Y-111923740D02*
X199327000Y-114611000D01*
X195674000Y-110274000D02*
X197677260Y-110274000D01*
X195800000Y-120440000D02*
X194500000Y-121740000D01*
X195600000Y-110200000D02*
X195674000Y-110274000D01*
X199327000Y-114611000D02*
X195800000Y-118138000D01*
X195800000Y-118138000D02*
X195800000Y-120440000D01*
%TO.N,/MOTOR2_B_OUT *%
X192000000Y-109600000D02*
X192600000Y-110200000D01*
X192600000Y-110200000D02*
X193700000Y-110200000D01*
D54*
%TO.N,/MOTOR3_B_OUT *%
X166700000Y-110400000D02*
X166600000Y-110300000D01*
D53*
X169149000Y-110400000D02*
X166700000Y-110400000D01*
%TO.N,/MOTOR3_A_OUT*%
X169149000Y-109900000D02*
X168000000Y-109900000D01*
X164020000Y-119200000D02*
X163750000Y-118930000D01*
D54*
X168000000Y-109900000D02*
X167800000Y-109700000D01*
D53*
%TO.N,/MOTOR3_CTRL2*%
X167711000Y-120589000D02*
X166560000Y-121740000D01*
X172126000Y-117086240D02*
X170251000Y-118961240D01*
X170251000Y-119676760D02*
X169338760Y-120589000D01*
X171049000Y-110900000D02*
X172126000Y-111977000D01*
X169338760Y-120589000D02*
X167711000Y-120589000D01*
X170251000Y-118961240D02*
X170251000Y-119676760D01*
X172126000Y-111977000D02*
X172126000Y-117086240D01*
%TO.N,/MOTOR3_CTRL1*%
X171000000Y-110400000D02*
X171265798Y-110400000D01*
X170340000Y-120500000D02*
X169100000Y-121740000D01*
X171967760Y-120500000D02*
X170340000Y-120500000D01*
X172791000Y-111876202D02*
X172791000Y-119676760D01*
X171314798Y-110400000D02*
X172791000Y-111876202D01*
X172791000Y-119676760D02*
X171967760Y-120500000D01*
X171049000Y-110400000D02*
X171314798Y-110400000D01*
%TO.N,/MOTOR4_CTRL2*%
X190563500Y-116190740D02*
X188031000Y-118723240D01*
X189816100Y-112374000D02*
X190210160Y-112374000D01*
X190526000Y-113126000D02*
X190563500Y-113163500D01*
X189803600Y-112361500D02*
X189816100Y-112374000D01*
X188802000Y-111359900D02*
X189803600Y-112361500D01*
X190526000Y-112689840D02*
X190526000Y-113126000D01*
X190563500Y-113163500D02*
X190563500Y-116190740D01*
X188031000Y-120589000D02*
X186880000Y-121740000D01*
X188031000Y-118723240D02*
X188031000Y-120589000D01*
X190210160Y-112374000D02*
X190526000Y-112689840D01*
X188567100Y-111125000D02*
X188802000Y-111359900D01*
X188500000Y-111100000D02*
X188525000Y-111125000D01*
X188525000Y-111125000D02*
X188567100Y-111125000D01*
X186400000Y-111100000D02*
X188500000Y-111100000D01*
%TO.N,/MOTOR4_CTRL1*%
X186781957Y-110699000D02*
X188333900Y-110699000D01*
X190964500Y-118329740D02*
X190571000Y-118723240D01*
X188333900Y-110699000D02*
X188666100Y-110699000D01*
X190373000Y-111973000D02*
X190376260Y-111973000D01*
X186682957Y-110600000D02*
X186781957Y-110699000D01*
X190964500Y-112997400D02*
X190964500Y-113329600D01*
X190611160Y-112207900D02*
X190692100Y-112288840D01*
X190927000Y-112523740D02*
X190927000Y-112527000D01*
X186400000Y-110600000D02*
X186682957Y-110600000D01*
X188666100Y-110699000D02*
X189099000Y-110699000D01*
X190376260Y-111973000D02*
X190611160Y-112207900D01*
X190964500Y-116356840D02*
X190964500Y-118329740D01*
X190927000Y-112527000D02*
X190964500Y-112564500D01*
X189099000Y-110699000D02*
X190373000Y-111973000D01*
X190964500Y-113329600D02*
X190964500Y-116024640D01*
X190571000Y-118723240D02*
X190571000Y-120589000D01*
X190692100Y-112288840D02*
X190927000Y-112523740D01*
X190964500Y-116024640D02*
X190964500Y-116356840D01*
X190571000Y-120589000D02*
X189420000Y-121740000D01*
X190964500Y-112564500D02*
X190964500Y-112997400D01*
%TO.N,/MOTOR4_A_OUT*%
X183600000Y-110100000D02*
X183300000Y-109800000D01*
X184500000Y-110100000D02*
X183600000Y-110100000D01*
%TO.N,/12C1_SCL*%
X182548943Y-113799000D02*
X182901000Y-114151057D01*
X165737500Y-73375000D02*
X164900000Y-74212500D01*
X174703000Y-84248400D02*
X174703000Y-84580600D01*
X165762500Y-73400000D02*
X165737500Y-73375000D01*
X165578950Y-75303950D02*
X165672521Y-75303950D01*
X185491000Y-116942276D02*
X185491000Y-120109000D01*
X165812500Y-73300000D02*
X165737500Y-73375000D01*
X164900000Y-75100000D02*
X165375000Y-75100000D01*
X164900000Y-74212500D02*
X164900000Y-75100000D01*
X174703000Y-84580600D02*
X174703000Y-106154276D01*
X180411000Y-120589000D02*
X179260000Y-121740000D01*
X174700000Y-83963970D02*
X174700000Y-84245400D01*
X182347724Y-113799000D02*
X182548943Y-113799000D01*
X165375000Y-75100000D02*
X165578950Y-75303950D01*
X174703000Y-106154276D02*
X182347724Y-113799000D01*
X182901000Y-114151057D02*
X182901000Y-114352276D01*
X174700000Y-84245400D02*
X174703000Y-84248400D01*
X185011000Y-120589000D02*
X180411000Y-120589000D01*
X185491000Y-120109000D02*
X185011000Y-120589000D01*
X165672521Y-75303950D02*
X165758978Y-75217493D01*
X168618015Y-77881985D02*
X174700000Y-83963970D01*
X182901000Y-114352276D02*
X185491000Y-116942276D01*
%TO.N,/MOTOR4_B_OUT*%
X184500000Y-110600000D02*
X182300000Y-110600000D01*
D54*
X182300000Y-110600000D02*
X182200000Y-110500000D01*
%TO.N,VCharge*%
X182500000Y-58500000D02*
X182000000Y-58000000D01*
D53*
X180000000Y-62000000D02*
X180095000Y-62095000D01*
D54*
X182000000Y-58000000D02*
X173000000Y-58000000D01*
X159000000Y-83500000D02*
X159000000Y-81363500D01*
X162000000Y-83500000D02*
X159000000Y-83500000D01*
X159000000Y-81363500D02*
X159063500Y-81300000D01*
X182500000Y-59500000D02*
X182500000Y-58500000D01*
X173000000Y-58000000D02*
X170500000Y-60500000D01*
X170500000Y-60500000D02*
X170500000Y-77500000D01*
X179000000Y-62000000D02*
X180000000Y-62000000D01*
D53*
X180095000Y-62095000D02*
X181091700Y-62095000D01*
D54*
X170500000Y-77500000D02*
X174000000Y-81000000D01*
X182500000Y-59500000D02*
X184000000Y-59500000D01*
D53*
%TO.N,Net-(D2-K)*%
X176000000Y-64937500D02*
X176000000Y-66500000D01*
X176500000Y-64437500D02*
X176000000Y-64937500D01*
%TO.N,/FAST_CHRG_CNTRL*%
X196750000Y-105500000D02*
X196600000Y-105500000D01*
D54*
%TO.N,9V USB-C*%
X178700000Y-54000000D02*
X173250000Y-54000000D01*
X173250000Y-51250000D02*
X173250000Y-54000000D01*
X173000000Y-54000000D02*
X173250000Y-54000000D01*
X173000000Y-56500000D02*
X173000000Y-54000000D01*
X169900000Y-59500000D02*
X170000000Y-59500000D01*
X170000000Y-59500000D02*
X173000000Y-56500000D01*
D53*
%TO.N,/3V3 Regulated*%
X195367500Y-108967500D02*
X195600000Y-109200000D01*
X185935000Y-109135000D02*
X186400000Y-109600000D01*
X186000000Y-108435000D02*
X185935000Y-108500000D01*
X196200000Y-109200000D02*
X195600000Y-109200000D01*
D54*
X201500000Y-103750000D02*
X186000000Y-103750000D01*
D53*
X160050000Y-108482500D02*
X159835000Y-108267500D01*
D54*
X201750000Y-103500000D02*
X201500000Y-103750000D01*
X201750000Y-98650000D02*
X201750000Y-103500000D01*
D53*
X187100000Y-109600000D02*
X186400000Y-109600000D01*
X195367500Y-108132500D02*
X195367500Y-108967500D01*
X170767500Y-108400000D02*
X170767500Y-108867500D01*
X160050000Y-109417500D02*
X160050000Y-108482500D01*
D54*
X186000000Y-103750000D02*
X186000000Y-105250000D01*
D53*
X171000000Y-109100000D02*
X171000000Y-109400000D01*
X186000000Y-107542088D02*
X186000000Y-108435000D01*
D54*
X186000000Y-103750000D02*
X177750000Y-103750000D01*
D53*
X170767500Y-108867500D02*
X171000000Y-109100000D01*
X185935000Y-108500000D02*
X185935000Y-109135000D01*
D54*
%TO.N,/5V Regulated*%
X206000000Y-80087500D02*
X205087500Y-80087500D01*
X198500000Y-87750000D02*
X200500000Y-87750000D01*
X200500000Y-87750000D02*
X200500000Y-89437500D01*
D53*
X174001000Y-108592480D02*
X174001000Y-108601000D01*
D54*
X206000000Y-77199900D02*
X206000000Y-80087500D01*
D53*
X174001000Y-108592479D02*
X174001000Y-108592480D01*
D54*
X198250000Y-87500000D02*
X198375000Y-87625000D01*
D53*
X173707520Y-108299000D02*
X174001000Y-108592479D01*
X170800000Y-105391480D02*
X173707520Y-108299000D01*
X198300000Y-87700000D02*
X198375000Y-87625000D01*
D54*
X198250000Y-80750000D02*
X198250000Y-87500000D01*
D53*
X173707520Y-108299000D02*
X173707521Y-108299000D01*
X175499000Y-110099000D02*
X175499000Y-120421000D01*
X170800000Y-100500000D02*
X170800000Y-105391480D01*
X175499000Y-120421000D02*
X174180000Y-121740000D01*
D54*
X205087500Y-80087500D02*
X204250000Y-79250000D01*
X198375000Y-87625000D02*
X198500000Y-87750000D01*
D53*
X174001000Y-108601000D02*
X175499000Y-110099000D01*
D54*
X200500000Y-80750000D02*
X198250000Y-80750000D01*
D53*
%TO.N,/CTRL_EXT_LOAD1*%
X168000000Y-99700000D02*
X167300000Y-99000000D01*
D54*
X167300000Y-99000000D02*
X167300000Y-98300000D01*
%TO.N,/RSense-*%
X160600000Y-76400000D02*
X160600000Y-73750000D01*
D53*
X160600000Y-73750000D02*
X162275000Y-72075000D01*
X162275000Y-72075000D02*
X163462500Y-72075000D01*
%TO.N,/VBUS_USBC*%
X158932250Y-53100000D02*
X160400000Y-51632250D01*
X158100000Y-48300000D02*
X158157250Y-48300000D01*
X158000000Y-48400000D02*
X158100000Y-48300000D01*
D54*
X169550000Y-48300000D02*
X169900000Y-48650000D01*
D53*
X158157250Y-48300000D02*
X160400000Y-48300000D01*
X160400000Y-51632250D02*
X160400000Y-48300000D01*
D54*
X169900000Y-48650000D02*
X169900000Y-53987500D01*
X160400000Y-48300000D02*
X169550000Y-48300000D01*
D53*
X158932250Y-53100000D02*
X158157250Y-53100000D01*
%TO.N,Net-(J1-Pin_15)*%
X170000000Y-123750000D02*
X171250000Y-125000000D01*
X153000000Y-123500000D02*
X153000000Y-121750000D01*
X153250000Y-123750000D02*
X153000000Y-123500000D01*
X153250000Y-123750000D02*
X170000000Y-123750000D01*
X171250000Y-125000000D02*
X172250000Y-125000000D01*
%TO.N,/CTRL_EXT_LOAD2*%
X173873619Y-107897999D02*
X171601000Y-105625380D01*
X174167100Y-108191479D02*
X174108521Y-108132902D01*
X174108520Y-108132900D02*
X174108521Y-108132899D01*
X181700000Y-116300000D02*
X175900000Y-110500000D01*
X174402000Y-108426379D02*
X174167100Y-108191480D01*
X173873621Y-107897999D02*
X173873619Y-107897999D01*
X175900000Y-109808520D02*
X175665100Y-109573620D01*
X174108521Y-108132902D02*
X174108520Y-108132900D01*
X174402000Y-108434900D02*
X174402000Y-108426379D01*
X175900000Y-110500000D02*
X175900000Y-109808520D01*
X174108521Y-108132899D02*
X173873621Y-107897999D01*
X175665100Y-109573620D02*
X175540720Y-109573620D01*
X181700000Y-116700000D02*
X181700000Y-116300000D01*
X174167100Y-108191480D02*
X174167100Y-108191479D01*
X171601000Y-99449000D02*
X170452000Y-98300000D01*
X171601000Y-105625380D02*
X171601000Y-99449000D01*
X170452000Y-98300000D02*
X167950000Y-98300000D01*
X175540720Y-109573620D02*
X174402000Y-108434900D01*
D54*
%TO.N,/EXT_LOAD2_OUT*%
X170337500Y-95062500D02*
X172000000Y-93400000D01*
X173200000Y-106400000D02*
X184024972Y-117224972D01*
X169900000Y-95062500D02*
X170337500Y-95062500D01*
X184340000Y-117440000D02*
X184340000Y-119200000D01*
X172000000Y-93400000D02*
X172000000Y-91000000D01*
X184024972Y-117224972D02*
X184124972Y-117224972D01*
X184124972Y-117224972D02*
X184340000Y-117440000D01*
X169900000Y-95062500D02*
X173200000Y-98362500D01*
X172000000Y-91000000D02*
X167300000Y-91000000D01*
X167300000Y-91000000D02*
X167300000Y-94038000D01*
X173200000Y-98362500D02*
X173200000Y-106400000D01*
D53*
%TO.N,/CC2*%
X158157250Y-52450100D02*
X158984050Y-52450100D01*
X158984050Y-52450100D02*
X159800000Y-51634150D01*
X159800000Y-51634150D02*
X159800000Y-50900000D01*
%TO.N,/CC1*%
X159150103Y-49450100D02*
X159800000Y-50099997D01*
X158157250Y-49450100D02*
X159150103Y-49450100D01*
%TO.N,Net-(R10-Pad1)*%
X206000000Y-86325000D02*
X206000000Y-88087500D01*
D54*
%TO.N,/EXT_LOAD1_OUT*%
X162000000Y-93162500D02*
X162000000Y-90900000D01*
X164100000Y-95262500D02*
X162800000Y-96562500D01*
X162800000Y-96562500D02*
X162800000Y-101401276D01*
X162800000Y-101401276D02*
X166101276Y-101401276D01*
X164100000Y-95262500D02*
X162000000Y-93162500D01*
X166101276Y-101401276D02*
X173500000Y-108800000D01*
X165800000Y-90900000D02*
X166650000Y-91750000D01*
X162000000Y-90900000D02*
X165800000Y-90900000D01*
X166650000Y-91750000D02*
X166650000Y-94038000D01*
X173500000Y-108800000D02*
X173500000Y-116900000D01*
D53*
%TO.N,Net-(BCM3_JP1-A)*%
X192650000Y-112800000D02*
X192015824Y-112800000D01*
D54*
X165700000Y-109532500D02*
X166437065Y-108795435D01*
X186500000Y-106800000D02*
X188650000Y-108950000D01*
D53*
X180651824Y-111536000D02*
X180389000Y-111273176D01*
X159656500Y-107656500D02*
X160240676Y-107656500D01*
D54*
X181633500Y-109099000D02*
X181000000Y-109732500D01*
D53*
X190289000Y-110143500D02*
X189843500Y-110143500D01*
D55*
X158943500Y-107400000D02*
X158200000Y-107400000D01*
D53*
X196801000Y-108301000D02*
X196021500Y-107521500D01*
D54*
X179356735Y-108356735D02*
X179624235Y-108356735D01*
D53*
X180389000Y-110343500D02*
X181000000Y-109732500D01*
X195600000Y-109700000D02*
X195850057Y-109700000D01*
D54*
X179624235Y-108356735D02*
X181000000Y-109732500D01*
D53*
X181398600Y-111501000D02*
X181383176Y-111501000D01*
X181383176Y-111501000D02*
X181348176Y-111536000D01*
D54*
X190167500Y-109532500D02*
X190900000Y-109532500D01*
D53*
X196448943Y-109801000D02*
X196801000Y-109448943D01*
D54*
X165700000Y-109532500D02*
X165315000Y-109917500D01*
D53*
X186400000Y-110100000D02*
X186750057Y-110100000D01*
X172175735Y-109275735D02*
X172224265Y-109275735D01*
D54*
X166437065Y-108795435D02*
X168495435Y-108795435D01*
X159200000Y-104200000D02*
X159200000Y-107200000D01*
D53*
X184500000Y-109600000D02*
X183999000Y-109099000D01*
D55*
X154000000Y-111300000D02*
X154000000Y-110900000D01*
D53*
X195850057Y-109700000D02*
X195951057Y-109801000D01*
X193826824Y-107521500D02*
X193100000Y-108248324D01*
D54*
X171600000Y-108700000D02*
X171600000Y-107838000D01*
D53*
X186750057Y-110100000D02*
X186851057Y-110201000D01*
D54*
X171162000Y-107400000D02*
X169100000Y-107400000D01*
X190900000Y-109532500D02*
X191632500Y-108800000D01*
D53*
X180389000Y-110461824D02*
X180425412Y-110425412D01*
D54*
X165315000Y-109917500D02*
X165200000Y-109917500D01*
D53*
X193300000Y-108800000D02*
X193700000Y-109200000D01*
X160240676Y-107656500D02*
X160601000Y-108016824D01*
D55*
X156800000Y-112700000D02*
X155400000Y-112700000D01*
D54*
X165500000Y-112700000D02*
X164800000Y-112000000D01*
X183200000Y-109099000D02*
X181633500Y-109099000D01*
D53*
X196021500Y-107521500D02*
X193826824Y-107521500D01*
D55*
X156629527Y-108270473D02*
X157002973Y-108270473D01*
D53*
X160601000Y-109632298D02*
X160315798Y-109917500D01*
X182400000Y-112400000D02*
X181501000Y-111501000D01*
X188599943Y-108950000D02*
X188650000Y-108950000D01*
X180425412Y-110425412D02*
X180389000Y-110389000D01*
X187348943Y-110201000D02*
X188599943Y-108950000D01*
X186851057Y-110201000D02*
X187348943Y-110201000D01*
D55*
X159143500Y-107200000D02*
X158943500Y-107400000D01*
D53*
X171600000Y-109900000D02*
X171600000Y-108700000D01*
D54*
X188650000Y-108950000D02*
X189700000Y-110000000D01*
X189700000Y-110000000D02*
X190167500Y-109532500D01*
D53*
X171049000Y-109900000D02*
X171600000Y-109900000D01*
X180389000Y-111273176D02*
X180389000Y-110461824D01*
D55*
X157900000Y-109167500D02*
X158025001Y-109292501D01*
D53*
X165200000Y-109917500D02*
X160050000Y-109917500D01*
D55*
X157900000Y-107700000D02*
X157900000Y-109167500D01*
X154000000Y-110900000D02*
X155300000Y-109600000D01*
X169149000Y-109400000D02*
X168544435Y-108795435D01*
D53*
X196801000Y-109448943D02*
X196801000Y-108301000D01*
X171600000Y-108700000D02*
X172175735Y-109275735D01*
X159200000Y-107200000D02*
X159656500Y-107656500D01*
X160315798Y-109917500D02*
X160050000Y-109917500D01*
X181348176Y-111536000D02*
X180651824Y-111536000D01*
D55*
X159200000Y-107200000D02*
X159143500Y-107200000D01*
D54*
X193100000Y-108800000D02*
X193300000Y-108800000D01*
X164800000Y-110317500D02*
X165200000Y-109917500D01*
X183999000Y-109099000D02*
X183200000Y-109099000D01*
D55*
X155300000Y-109600000D02*
X156629527Y-108270473D01*
D53*
X192015824Y-112800000D02*
X190289000Y-111073176D01*
X160601000Y-108016824D02*
X160601000Y-109632298D01*
X193100000Y-108248324D02*
X193100000Y-108800000D01*
X181501000Y-111501000D02*
X181398600Y-111501000D01*
D55*
X158200000Y-107400000D02*
X157900000Y-107700000D01*
D53*
X190289000Y-111073176D02*
X190289000Y-110143500D01*
D55*
X157002973Y-108270473D02*
X158150000Y-109417500D01*
D54*
X183200000Y-109099000D02*
X183200000Y-108941902D01*
D53*
X195951057Y-109801000D02*
X196448943Y-109801000D01*
D55*
X155400000Y-112700000D02*
X154000000Y-111300000D01*
D54*
X185341902Y-106800000D02*
X186500000Y-106800000D01*
D53*
X183750000Y-112400000D02*
X182400000Y-112400000D01*
X168544435Y-108795435D02*
X168495435Y-108795435D01*
D54*
X191632500Y-108800000D02*
X193100000Y-108800000D01*
D53*
X189843500Y-110143500D02*
X189700000Y-110000000D01*
D54*
X168400000Y-108700000D02*
X168495435Y-108795435D01*
X171600000Y-107838000D02*
X171162000Y-107400000D01*
X164800000Y-112000000D02*
X164800000Y-110317500D01*
X168400000Y-108100000D02*
X168400000Y-108700000D01*
D53*
X184350000Y-113000000D02*
X183750000Y-112400000D01*
D54*
X183200000Y-108941902D02*
X185341902Y-106800000D01*
X169100000Y-107400000D02*
X168400000Y-108100000D01*
D53*
X180389000Y-110389000D02*
X180389000Y-110343500D01*
%TO.N,Net-(CurrSenseJP1-A)*%
X163451000Y-76151000D02*
X163462500Y-76139500D01*
X164225000Y-76925000D02*
X163451000Y-76151000D01*
X159299000Y-77701000D02*
X161901000Y-77701000D01*
X166800000Y-75087500D02*
X166737500Y-75087500D01*
X164900000Y-76925000D02*
X164225000Y-76925000D01*
X166737500Y-75087500D02*
X164900000Y-76925000D01*
X161901000Y-77701000D02*
X163451000Y-76151000D01*
X163462500Y-76139500D02*
X163462500Y-73375000D01*
X156800000Y-75202000D02*
X159299000Y-77701000D01*
X156800000Y-72800000D02*
X156800000Y-75202000D01*
%TO.N,Net-(Q2-D)*%
X193500000Y-60825000D02*
X193500000Y-63500000D01*
D54*
%TO.N,Net-(BCM3_JP1-B)*%
X168100000Y-114000000D02*
X166800000Y-112700000D01*
X171237500Y-112700000D02*
X169937500Y-114000000D01*
X169937500Y-114000000D02*
X168100000Y-114000000D01*
D53*
%TO.N,Net-(3V3Reg_IC1-VOS)*%
X182938700Y-95638500D02*
X183888500Y-95638500D01*
X191987500Y-96262500D02*
X192500000Y-95750000D01*
D54*
X192500000Y-91000000D02*
X190750000Y-91000000D01*
X194250000Y-90000000D02*
X194250000Y-91437500D01*
X192500000Y-91000000D02*
X192500000Y-90000000D01*
X192500000Y-90000000D02*
X194250000Y-90000000D01*
X196500000Y-90000000D02*
X194250000Y-90000000D01*
D53*
X182900000Y-95599800D02*
X182938700Y-95638500D01*
X192500000Y-95750000D02*
X192500000Y-91000000D01*
D54*
X196500000Y-97000000D02*
X196500000Y-90000000D01*
D53*
X185500000Y-96262500D02*
X191987500Y-96262500D01*
X184012500Y-96262500D02*
X184000000Y-96250000D01*
D54*
X201750000Y-97350000D02*
X196850000Y-97350000D01*
D53*
X184000000Y-95750000D02*
X184000000Y-96250000D01*
D54*
X196850000Y-97350000D02*
X196500000Y-97000000D01*
D53*
X185500000Y-96262500D02*
X184012500Y-96262500D01*
X183888500Y-95638500D02*
X184000000Y-95750000D01*
%TO.N,Net-(3V3Reg_IC1-SW)*%
X182900000Y-95100000D02*
X183937500Y-95100000D01*
X183937500Y-95100000D02*
X184000000Y-95037500D01*
D54*
X184000000Y-93500000D02*
X184000000Y-91000000D01*
X184000000Y-91000000D02*
X187749800Y-91000000D01*
D53*
%TO.N,Net-(3V3Reg_IC1-EN)*%
X180900200Y-95500000D02*
X181000000Y-95599800D01*
X180250000Y-95100000D02*
X180250000Y-95500000D01*
D54*
X178000000Y-90750000D02*
X178000000Y-94062500D01*
D53*
X178000000Y-94062500D02*
X178812500Y-94062500D01*
X179850000Y-95100000D02*
X180250000Y-95100000D01*
X180250000Y-95500000D02*
X180900200Y-95500000D01*
D54*
X179500000Y-89250000D02*
X178000000Y-90750000D01*
D53*
X180250000Y-95100000D02*
X181000000Y-95100000D01*
X178812500Y-94062500D02*
X179850000Y-95100000D01*
%TO.N,Net-(3V3Reg_IC1-PG)*%
X182900000Y-94599800D02*
X183349800Y-94599800D01*
X183512100Y-94437500D02*
X185500000Y-94437500D01*
X183349800Y-94599800D02*
X183512100Y-94437500D01*
D54*
%TO.N,Net-(5VReg_IC1-SW)*%
X202500000Y-75000000D02*
X200200000Y-75000000D01*
X191750000Y-70750000D02*
X191750000Y-71750000D01*
D53*
X189950000Y-73850900D02*
X189950000Y-70800000D01*
X190000000Y-70750000D02*
X191750000Y-70750000D01*
D54*
X202000000Y-70750000D02*
X202500000Y-71250000D01*
X206000000Y-69250000D02*
X206000000Y-72800100D01*
X202599000Y-74901000D02*
X202500000Y-74802000D01*
X192500000Y-69000000D02*
X205750000Y-69000000D01*
X205750000Y-69000000D02*
X206000000Y-69250000D01*
X202599000Y-74901000D02*
X202500000Y-75000000D01*
D53*
X189950000Y-70800000D02*
X190000000Y-70750000D01*
D54*
X191750000Y-70750000D02*
X202000000Y-70750000D01*
X202500000Y-74802000D02*
X202500000Y-71250000D01*
%TO.N,Net-(5VReg_IC1-EN)*%
X190500000Y-77250000D02*
X192750000Y-75000000D01*
X182586600Y-76149100D02*
X188050000Y-76149100D01*
X189000000Y-76149100D02*
X189000000Y-76885100D01*
X189364900Y-77250000D02*
X190500000Y-77250000D01*
X180937500Y-74500000D02*
X182586600Y-76149100D01*
X189000000Y-76149100D02*
X188050000Y-76149100D01*
X192750000Y-75000000D02*
X194800000Y-75000000D01*
X177000000Y-74500000D02*
X180937500Y-74500000D01*
X189000000Y-76885100D02*
X189364900Y-77250000D01*
D53*
%TO.N,Net-(5VReg_IC1-FB)*%
X188050000Y-70200000D02*
X188050000Y-73850900D01*
X206000000Y-84500000D02*
X201500000Y-84500000D01*
X202000000Y-69750000D02*
X188500000Y-69750000D01*
X201500000Y-84500000D02*
X200500000Y-85500000D01*
X206000000Y-81912500D02*
X205412500Y-81912500D01*
X205412500Y-81912500D02*
X203500000Y-80000000D01*
X188500000Y-69750000D02*
X188050000Y-70200000D01*
X203500000Y-80000000D02*
X203500000Y-71250000D01*
X206000000Y-81912500D02*
X206000000Y-84500000D01*
X203500000Y-71250000D02*
X202000000Y-69750000D01*
D54*
%TO.N,Net-(9Vto5V_IC1-EN)*%
X179537500Y-50037500D02*
X180000000Y-50500000D01*
D53*
X185462700Y-48037500D02*
X185500000Y-48000200D01*
X183500000Y-48037500D02*
X185462700Y-48037500D01*
X179537500Y-48037500D02*
X183500000Y-48037500D01*
X183962500Y-48500000D02*
X183500000Y-48037500D01*
D54*
X179537500Y-48037500D02*
X179537500Y-50037500D01*
D53*
X185500000Y-48500000D02*
X183962500Y-48500000D01*
D54*
X180000000Y-50500000D02*
X180000000Y-54000000D01*
D53*
%TO.N,Net-(9Vto5V_IC1-VOS)*%
X190500000Y-53000000D02*
X187000000Y-53000000D01*
X190500000Y-49000000D02*
X191000000Y-49500000D01*
D54*
X198075000Y-59575000D02*
X201000000Y-59575000D01*
X198000000Y-47000000D02*
X201000000Y-47000000D01*
X198000000Y-49500000D02*
X198000000Y-47000000D01*
D53*
X187000000Y-61000000D02*
X187000000Y-62003300D01*
D54*
X198000000Y-49500000D02*
X198000000Y-54000000D01*
D53*
X187000000Y-62003300D02*
X186908300Y-62095000D01*
X188387300Y-49000000D02*
X188900000Y-49000000D01*
X191000000Y-49500000D02*
X198000000Y-49500000D01*
X187400000Y-48500000D02*
X187887300Y-48500000D01*
D54*
X198000000Y-47000000D02*
X196000200Y-47000000D01*
D53*
X187887300Y-48500000D02*
X188387300Y-49000000D01*
D54*
X198000000Y-54000000D02*
X197875000Y-54125000D01*
D53*
X179842500Y-65905000D02*
X176500000Y-62562500D01*
X187000000Y-53000000D02*
X187000000Y-61000000D01*
X177000000Y-61000000D02*
X187000000Y-61000000D01*
X176500000Y-61500000D02*
X177000000Y-61000000D01*
D54*
X197875000Y-54125000D02*
X197875000Y-59375000D01*
X197875000Y-59375000D02*
X198075000Y-59575000D01*
D53*
X190500000Y-49000000D02*
X190500000Y-53000000D01*
X176500000Y-62562500D02*
X176500000Y-61500000D01*
D54*
X197875000Y-54125000D02*
X195500000Y-54125000D01*
D53*
X181091700Y-65905000D02*
X179842500Y-65905000D01*
%TO.N,Net-(9Vto5V_IC1-PG)*%
X189500000Y-47500000D02*
X189500000Y-51500000D01*
X186675000Y-51500000D02*
X185175000Y-53000000D01*
X189500000Y-51500000D02*
X186675000Y-51500000D01*
X187400000Y-47500000D02*
X189500000Y-47500000D01*
%TO.N,Net-(9Vto5V_IC1-SW)*%
X188400200Y-48000200D02*
X188500000Y-48100000D01*
X187400000Y-48000200D02*
X188400200Y-48000200D01*
%TO.N,Net-(BattCharge_IC1-CHRG#)*%
X181091700Y-64635000D02*
X179635000Y-64635000D01*
X179635000Y-64635000D02*
X179000000Y-64000000D01*
%TO.N,Net-(BattCharge_IC1-PROG)*%
X187208300Y-64635000D02*
X186908300Y-64635000D01*
X190000000Y-59000000D02*
X188500000Y-59000000D01*
X188500000Y-63343300D02*
X187208300Y-64635000D01*
X190000000Y-59000000D02*
X193500000Y-59000000D01*
X188500000Y-59000000D02*
X188500000Y-63343300D01*
D54*
%TO.N,Net-(USB-C_IC1-VDD)*%
X161100200Y-56900000D02*
X161500000Y-56500200D01*
D53*
X169900000Y-55812500D02*
X169912500Y-55812500D01*
X169912500Y-55812500D02*
X170000000Y-55900000D01*
D54*
X159162500Y-56900000D02*
X161100200Y-56900000D01*
D53*
%TO.N,Net-(ExtLoadJP1-B)*%
X166962500Y-100100000D02*
X166650000Y-99787500D01*
X167362500Y-100500000D02*
X166962500Y-100100000D01*
X169500000Y-100500000D02*
X167362500Y-100500000D01*
X166650000Y-99787500D02*
X166650000Y-98300000D01*
%TO.N,Net-(ExtLoadSw_IC1-FLG1)*%
X164362000Y-92400000D02*
X166000000Y-94038000D01*
X164100000Y-92400000D02*
X164362000Y-92400000D01*
%TO.N,Net-(ExtLoadSw_IC1-FLG2)*%
X167950000Y-94038000D02*
X168362000Y-94038000D01*
X168362000Y-94038000D02*
X169900000Y-92500000D01*
%TO.N,Net-(USB-C_IC1-VBUS)*%
X163500000Y-49301000D02*
X163500000Y-50500000D01*
D54*
X168250000Y-49301000D02*
X163500000Y-49301000D01*
X168425000Y-57675000D02*
X168250000Y-57500000D01*
X171000000Y-57500000D02*
X170825000Y-57675000D01*
X173250000Y-47300000D02*
X171200000Y-47300000D01*
X170825000Y-57675000D02*
X169900000Y-57675000D01*
X169900000Y-57675000D02*
X168425000Y-57675000D01*
X171200000Y-47300000D02*
X171000000Y-47500000D01*
X171000000Y-47500000D02*
X171000000Y-57500000D01*
X168250000Y-57500000D02*
X168250000Y-49301000D01*
D53*
%TO.N,Net-(USB-C_IC1-CFG1)*%
X162350000Y-49400000D02*
X162500000Y-49550000D01*
X159033250Y-53501000D02*
X159098350Y-53501000D01*
X155300000Y-57100000D02*
X155300000Y-56600000D01*
X158478116Y-55900000D02*
X159033250Y-55344866D01*
X160801000Y-49400000D02*
X162350000Y-49400000D01*
X155300000Y-56600000D02*
X156000000Y-55900000D01*
X160801000Y-51798350D02*
X160801000Y-49400000D01*
X162500000Y-49550000D02*
X162500000Y-50500000D01*
X159098350Y-53501000D02*
X160801000Y-51798350D01*
X159033250Y-55344866D02*
X159033250Y-53501000D01*
X156000000Y-55900000D02*
X158478116Y-55900000D01*
%TO.N,Net-(USB-C_IC1-DP)*%
X164299900Y-60100100D02*
X162099900Y-60100100D01*
X164500000Y-56500200D02*
X164500000Y-59900000D01*
X164500000Y-59900000D02*
X164299900Y-60100100D01*
%TO.N,Net-(USB-C_IC1-DM)*%
X165500000Y-56500200D02*
X166100200Y-56500200D01*
X166100200Y-56500200D02*
X166699900Y-57099900D01*
X166699900Y-57099900D02*
X166699900Y-60100100D01*
%TO.N,Net-(JP8-B)*%
X187562500Y-113162500D02*
X187562500Y-113400000D01*
X187400000Y-113000000D02*
X187562500Y-113162500D01*
X185650000Y-113000000D02*
X187400000Y-113000000D01*
D54*
%TO.N,Net-(JP10-B)*%
X195962500Y-112800000D02*
X193950000Y-112800000D01*
%TO.N,Net-(JP11-B)*%
X159300000Y-113900000D02*
X160800000Y-113900000D01*
X160800000Y-113900000D02*
X162100000Y-112600000D01*
X158100000Y-112700000D02*
X159300000Y-113900000D01*
%TD*%
M02*
