M48
; DRILL file {KiCad 9.0.0} date 2025-03-28T11:37:27+0200
; FORMAT={-:-/ absolute / inch / decimal}
; #@! TF.CreationDate,2025-03-28T11:37:27+02:00
; #@! TF.GenerationSoftware,Kicad,Pcbnew,9.0.0
; #@! TF.FileFunction,Plated,1,2,PTH
FMAT,2
INCH
; #@! TA.AperFunction,Plated,PTH,ViaDrill
T1C0.0118
; #@! TA.AperFunction,Plated,PTH,ComponentDrill
T2C0.0236
; #@! TA.AperFunction,Plated,PTH,ComponentDrill
T3C0.0315
; #@! TA.AperFunction,Plated,PTH,ComponentDrill
T4C0.0394
; #@! TA.AperFunction,Plated,PTH,ComponentDrill
T5C0.0591
%
G90
G05
T1
X6.1535Y-4.3471
X6.1732Y-4.2992
X6.2267Y-2.122
X6.2638Y-4.3373
X6.2913Y-1.9724
X6.2913Y-2.0039
X6.2993Y-4.2835
X6.3002Y-4.4331
X6.3228Y-2.7815
X6.3228Y-3.0079
X6.3268Y-2.6575
X6.3583Y-2.2244
X6.378Y-3.2874
X6.4409Y-2.1063
X6.4488Y-2.7205
X6.4764Y-1.9803
X6.4764Y-2.6575
X6.4793Y-2.8623
X6.5157Y-1.9882
X6.5236Y-4.357
X6.5259Y-2.9613
X6.5591Y-4.3425
X6.6063Y-4.3189
X6.6142Y-3.9252
X6.6385Y-3.0662
X6.6535Y-2.9331
X6.6599Y-4.437
X6.689Y-3.8243
X6.6929Y-2.2008
X6.7231Y-4.2677
X6.7244Y-3.9567
X6.752Y-4.8819
X6.7618Y-2.9331
X6.7805Y-4.3022
X6.7815Y-4.9213
X6.8307Y-4.6024
X6.8504Y-3.189
X6.9882Y-3.4547
X6.998Y-4.0846
X7.001Y-2.6181
X7.0079Y-2.3425
X7.0079Y-2.4508
X7.0079Y-3.7849
X7.0472Y-2.4409
X7.0472Y-2.5197
X7.0613Y-4.266
X7.0684Y-1.8095
X7.1535Y-4.5945
X7.1654Y-4.9213
X7.1732Y-4.3504
X7.1772Y-4.5039
X7.2165Y-4.3228
X7.2441Y-2.3425
X7.2441Y-2.5197
X7.2441Y-3.6811
X7.2441Y-3.7416
X7.2539Y-1.9587
X7.3228Y-4.1437
X7.3228Y-4.2339
X7.3622Y-2.6575
X7.3622Y-2.8248
X7.3661Y-4.315
X7.4213Y-1.8937
X7.437Y-1.9291
X7.4409Y-2.8248
X7.4774Y-4.4483
X7.5Y-1.9291
X7.5492Y-2.8248
X7.5591Y-4.315
X7.5787Y-2.7165
X7.5945Y-4.315
X7.5984Y-1.8504
X7.6575Y-2.6476
X7.6575Y-3.8386
X7.6634Y-4.3287
X7.7244Y-4.2992
X7.7461Y-4.0256
X7.7461Y-4.1535
X7.7756Y-3.7894
X7.8937Y-3.1791
X8.0413Y-3.1201
T3
X5.9528Y-2.5512
X5.9528Y-2.6299
T4
X6.2575Y-4.6929
X6.2575Y-4.7929
X6.3575Y-4.6929
X6.3575Y-4.7929
X6.4575Y-4.6929
X6.4575Y-4.7929
X6.5575Y-4.6929
X6.5575Y-4.7929
X6.6575Y-4.6929
X6.6575Y-4.7929
X6.7575Y-4.6929
X6.7575Y-4.7929
X6.8575Y-4.6929
X6.8575Y-4.7929
X6.9575Y-4.6929
X6.9575Y-4.7929
X7.0575Y-4.6929
X7.0575Y-4.7929
X7.1575Y-4.6929
X7.1575Y-4.7929
X7.2575Y-4.6929
X7.2575Y-4.7929
X7.3575Y-4.6929
X7.3575Y-4.7929
X7.4575Y-4.6929
X7.4575Y-4.7929
X7.5575Y-4.6929
X7.5575Y-4.7929
X7.6575Y-4.6929
X7.6575Y-4.7929
X7.7575Y-4.6929
X7.7575Y-4.7929
T5
X5.9316Y-3.126
X5.9316Y-3.6457
X6.2623Y-3.2008
X6.2623Y-3.3858
X6.2623Y-3.5709
T2
G00X6.0564Y-1.826
M15
G01X6.0249Y-1.826
M16
G05
G00X6.0564Y-2.1661
M15
G01X6.0249Y-2.1661
M16
G05
G00X6.2257Y-1.826
M15
G01X6.1824Y-1.826
M16
G05
G00X6.2257Y-2.1661
M15
G01X6.1824Y-2.1661
M16
G05
M30
